<?xml version="1.0" encoding="UTF-8" standalone="no"?>
<!-- Created with Inkscape (http://www.inkscape.org/) -->

<svg
   xmlns:dc="http://purl.org/dc/elements/1.1/"
   xmlns:cc="http://creativecommons.org/ns#"
   xmlns:rdf="http://www.w3.org/1999/02/22-rdf-syntax-ns#"
   xmlns:svg="http://www.w3.org/2000/svg"
   xmlns="http://www.w3.org/2000/svg"
   xmlns:sodipodi="http://sodipodi.sourceforge.net/DTD/sodipodi-0.dtd"
   xmlns:inkscape="http://www.inkscape.org/namespaces/inkscape"
   width="10"
   height="10"
   viewBox="0 0 2.6458333 2.6458334"
   version="1.1"
   id="svg8"
   inkscape:version="0.92.3 (2405546, 2018-03-11)"
   sodipodi:docname="Bone bullet 01.svg">
  <defs
     id="defs2" />
  <sodipodi:namedview
     id="base"
     pagecolor="#ffffff"
     bordercolor="#666666"
     borderopacity="1.0"
     inkscape:pageopacity="0.0"
     inkscape:pageshadow="2"
     inkscape:zoom="42.674074"
     inkscape:cx="4.5507944"
     inkscape:cy="4.2947687"
     inkscape:document-units="mm"
     inkscape:current-layer="layer1"
     showgrid="false"
     units="px"
     inkscape:window-width="1920"
     inkscape:window-height="1016"
     inkscape:window-x="1920"
     inkscape:window-y="27"
     inkscape:window-maximized="1" />
  <metadata
     id="metadata5">
    <rdf:RDF>
      <cc:Work
         rdf:about="">
        <dc:format>image/svg+xml</dc:format>
        <dc:type
           rdf:resource="http://purl.org/dc/dcmitype/StillImage" />
        <dc:title></dc:title>
      </cc:Work>
    </rdf:RDF>
  </metadata>
  <g
     inkscape:label="Layer 1"
     inkscape:groupmode="layer"
     id="layer1"
     transform="translate(0,-294.35415)">
    <path
       style="fill:#ffffff;stroke:#000000;stroke-width:0.26458332px;stroke-linecap:butt;stroke-linejoin:miter;stroke-opacity:1"
       d="m 0.40300621,295.32596 c -0.023386,-0.0234 -0.0193074,-0.0193 -0.0310005,-0.031 -0.002066,-0.002 -0.003586,-0.005 -0.0062,-0.006 -0.001849,-9.3e-4 -0.004352,9.2e-4 -0.0062,0 -0.002614,-10e-4 -0.003768,-0.005 -0.0062,-0.006 -0.003845,-0.003 -0.009132,-0.003 -0.0124002,-0.006 -0.00146,-10e-4 0.001461,-0.005 0,-0.006 -3.9687e-4,-4e-4 -0.0236456,-0.0116 -0.0248004,-0.0124 -0.0114483,-0.008 -9.525e-4,-0.005 -0.0124002,-0.0124 -0.004133,-0.002 -0.008267,-0.004 -0.0124002,-0.006 -0.002066,0 -0.004352,9.2e-4 -0.0062,0 -0.002614,-10e-4 -0.003586,-0.005 -0.0062,-0.006 -0.006615,-0.003 -0.005786,0.003 -0.0124002,0 -0.002614,-10e-4 -0.003586,-0.005 -0.0062,-0.006 -0.001844,-9.3e-4 -0.0345924,0 -0.0372006,0 -0.004133,0 -0.008267,0 -0.0124002,0 -0.002067,0 -0.004739,-10e-4 -0.0062,0 -0.001461,10e-4 9.2419e-4,0.004 0,0.006 -0.001656,0.003 -0.0153361,0.0153 -0.0186003,0.0186 -0.003264,0.003 -0.0152889,0.0169 -0.0186003,0.0186 -0.001849,9.2e-4 -0.004739,-0.001 -0.0062,0 -0.001461,10e-4 0.001461,0.005 0,0.006 -0.003268,0.003 -0.009132,0.003 -0.0124002,0.006 -0.002923,0.003 0.001849,0.009 0,0.0124 -0.001307,0.003 -0.005276,0.003 -0.0062,0.006 -0.001307,0.004 0.001002,0.008 0,0.0124 -0.001121,0.004 -0.005079,0.008 -0.0062,0.0124 -0.001003,0.004 0,0.008 0,0.0124 0,0.002 9.2419e-4,0.004 0,0.006 -0.0157755,0.0315 0.003208,-0.0284 -0.0062,0.0186 -0.001282,0.006 -0.004918,0.0122 -0.0062,0.0186 -0.001216,0.006 0,0.0124 0,0.0186 0,0.0145 0,0.0289 0,0.0434 0,0.002 0,0.004 0,0.006 0,0.002 -0.001461,0.005 0,0.006 0.001461,10e-4 0.004739,-0.001 0.0062,0 0.001461,10e-4 -6.5352e-4,0.004 0,0.006 0.001461,0.004 0.004739,0.008 0.0062,0.0124 6.5352e-4,0.002 -9.2419e-4,0.004 0,0.006 0.003554,0.007 0.0129366,0.009 0.0186003,0.0124 0.008529,0.006 0.006377,0.01 0.0124002,0.0186 0.001621,0.002 0.004133,0.004 0.0062,0.006 0.002067,0.004 0.003637,0.009 0.0062,0.0124 0.003243,0.005 0.0105517,0.007 0.0124002,0.0124 0.001307,0.004 -0.001849,0.009 0,0.0124 9.2419e-4,0.002 0.004133,0 0.0062,0 0.002067,0.004 0.005079,0.008 0.0062,0.0124 0.001002,0.004 -0.002923,0.009 0,0.0124 0.004621,0.005 0.0133719,0.002 0.0186003,0.006 0.003697,0.003 0.003637,0.009 0.0062,0.0124 0.003243,0.005 0.009158,0.008 0.0124002,0.0124 0.002564,0.004 0.003637,0.009 0.0062,0.0124 0.003242,0.005 0.008267,0.008 0.0124002,0.0124 0.007661,0.008 0.0062,0.003 0.0062,0.0124 0,0.002 0,0.008 0,0.006 0,-0.004 0,-0.0165 0,-0.0124 0,0.006 0,0.0124 0,0.0186 0,0.002 6.5352e-4,0.004 0,0.006 -0.001461,0.004 -0.004739,0.008 -0.0062,0.0124 -0.00186,0.006 0.00186,0.013 0,0.0186 -0.003754,0.0113 -0.005306,0.0115 -0.0124002,0.0186 -0.002067,0.002 -0.005276,0.003 -0.0062,0.006 -0.001307,0.004 0.001307,0.008 0,0.0124 -0.001849,0.006 -0.0105517,0.007 -0.0124002,0.0124 -0.001307,0.004 0.001849,0.009 0,0.0124 -9.2419e-4,0.002 -0.004739,-10e-4 -0.0062,0 -0.001461,0.001 6.5352e-4,0.004 0,0.006 -0.004323,0.013 -0.0135193,0.0245 -0.0186003,0.0372 -0.002427,0.006 -0.003277,0.0128 -0.0062,0.0186 -0.002614,0.005 -0.0105517,0.007 -0.0124002,0.0124 -0.001307,0.004 0.001307,0.008 0,0.0124 -9.2419e-4,0.003 -0.004579,0.004 -0.0062,0.006 -0.0136598,0.003 -0.003277,0.0127 -0.0062,0.0186 -0.003332,0.007 -0.009068,0.0119 -0.0124002,0.0186 -9.2419e-4,0.002 0,0.004 0,0.006 0,0.004 0.001003,0.008 0,0.0124 -0.007485,0.0299 -0.002946,-3.1e-4 -0.0124002,0.0186 -0.00248,0.005 0.00248,0.0136 0,0.0186 -0.001307,0.003 -0.004893,0.004 -0.0062,0.006 -0.00248,0.005 0.00248,0.0136 0,0.0186 -0.001307,0.003 -0.005276,0.003 -0.0062,0.006 -0.001307,0.004 8.1068e-4,0.008 0,0.0124 -0.001282,0.006 -0.004918,0.0122 -0.0062,0.0186 -0.001621,0.008 0.002005,0.0168 0,0.0248 -0.001121,0.004 -0.005079,0.008 -0.0062,0.0124 -0.001003,0.004 0,0.008 0,0.0124 0,0.004 -0.001307,0.008 0,0.0124 0.001461,0.004 0.004739,0.008 0.0062,0.0124 6.5353e-4,0.002 -9.2419e-4,0.004 0,0.006 0.001307,0.003 0.004893,0.004 0.0062,0.006 9.2419e-4,0.002 -0.001461,0.005 0,0.006 1.994e-4,2e-4 0.0170966,0 0.0186003,0 0.002451,0 0.0283525,10e-4 0.0310005,0 0.002614,-10e-4 0.003586,-0.005 0.0062,-0.006 0.001849,-9.3e-4 0.004352,9.2e-4 0.0062,0 0.005228,-0.003 0.007172,-0.01 0.0124002,-0.0124 0.001849,-9.3e-4 0.004352,9.2e-4 0.0062,0 0.002614,-0.001 0.003586,-0.005 0.0062,-0.006 0.001849,-9.3e-4 0.004352,9.2e-4 0.0062,0 0.002871,-10e-4 0.0211538,-0.0212 0.0248004,-0.0248 0.002067,-0.002 0.003586,-0.005 0.0062,-0.006 0.001849,-9.3e-4 0.004352,9.2e-4 0.0062,0 0.002614,-10e-4 0.003768,-0.005 0.0062,-0.006 0.003845,-0.003 0.008267,-0.004 0.0124002,-0.006 0.004133,-0.004 0.007724,-0.009 0.0124002,-0.0124 0.003697,-0.003 0.008555,-0.004 0.0124002,-0.006 0.004864,-0.003 0.008267,-0.008 0.0124002,-0.0124 0.0062,-0.006 0.0124002,-0.0124 0.0186002,-0.0186 0.002066,-0.002 0.003586,-0.005 0.0062,-0.006 0.001849,-9.3e-4 0.004133,0 0.0062,0 0.002066,-0.002 0.003586,-0.005 0.0062,-0.006 0.001849,-9.3e-4 0.004739,0.001 0.0062,0 0.003268,-0.003 0.003637,-0.009 0.0062,-0.0124 0.003242,-0.005 0.008267,-0.008 0.0124002,-0.0124 0.0103336,-0.0103 0.0206669,-0.0207 0.0310005,-0.031 0.002103,-0.002 0.0277979,-0.0294 0.0310005,-0.031 0.001849,-9.3e-4 0.004352,9.2e-4 0.0062,0 0.003311,-0.002 0.0153361,-0.0153 0.0186002,-0.0186 0.002066,-0.002 0.004133,-0.004 0.0062,-0.006 0.002066,-0.002 0.004893,-0.004 0.0062,-0.006 9.234e-4,-0.002 -9.2339e-4,-0.004 0,-0.006 0.001656,-0.003 0.0153361,-0.0153 0.0186002,-0.0186 0.0103336,-0.0103 0.0206669,-0.0207 0.0310005,-0.031 0.003264,-0.003 0.0152889,-0.0169 0.0186002,-0.0186 0.001849,-9.2e-4 0.004133,0 0.0062,0 0.004133,0 0.008479,10e-4 0.0124002,0 0.002773,-9.2e-4 0.003586,-0.005 0.0062,-0.006 0.003697,-0.002 0.008479,0.001 0.0124002,0 0.004384,-10e-4 0.007917,-0.005 0.0124002,-0.006 0.00401,-10e-4 0.008267,0 0.0124002,0 0.0103336,0 0.0208677,0.002 0.0310005,0 0.004532,-9e-4 0.007869,-0.005 0.0124002,-0.006 0.003887,-7.7e-4 0.0325468,0.002 0.0372006,0 0.002773,-9.2e-4 0.003586,-0.005 0.0062,-0.006 0.001849,-9.2e-4 0.004133,0 0.0062,0 0.004133,0 0.008267,0 0.0124002,0 0.0165336,0 0.0330672,0 0.0496007,0 0.004133,0 0.00839,10e-4 0.0124002,0 0.004483,-10e-4 0.007917,-0.005 0.0124002,-0.006 0.005535,-0.001 0.0238236,0 0.0310005,0 0.008234,0 0.0378791,-0.001 0.0434007,0 0.002836,7.1e-4 0.003365,0.005 0.0062,0.006 0.006015,0.002 0.0124002,0 0.0186002,0 0.004133,0 0.008267,0 0.0124002,0 0.0206669,0 0.041334,0 0.062001,0 0.004133,0 0.008267,0 0.0124002,0 0.002066,0 0.004239,-6.5e-4 0.0062,0 0.004384,10e-4 0.007842,0.005 0.0124002,0.006 0.008154,10e-4 0.0165336,0 0.0248005,0 0.010333,0 0.020667,0 0.031,0 0.00413,0 0.00835,-8e-4 0.0124,0 0.00641,10e-4 0.012192,0.005 0.0186,0.006 0.00405,8.1e-4 0.00827,0 0.0124,0 0.010334,0 0.020667,0 0.031,0 0.00413,0 0.00839,-10e-4 0.0124,0 0.00448,10e-4 0.00787,0.005 0.0124,0.006 0.00608,0.001 0.0124,0 0.0186,0 0.00827,0 0.016533,0 0.0248,0 0.0062,0 0.0124,0 0.0186,0 0.00207,0 0.00435,-9.2e-4 0.0062,0 0.00261,0.001 0.00343,0.005 0.0062,0.006 0.00392,10e-4 0.00827,0 0.0124,0 0.014467,0 0.028934,0 0.043401,0 0.00413,0 0.00848,-10e-4 0.0124,0 0.00277,9.3e-4 0.00343,0.005 0.0062,0.006 0.0077,0.003 0.022848,-0.002 0.031,0 0.00448,0.001 0.00792,0.005 0.0124,0.006 0.00928,0.002 0.027385,-0.002 0.037201,0 0.00641,10e-4 0.012192,0.005 0.0186,0.006 0.00405,8.1e-4 0.00827,0 0.0124,0 0.00827,0 0.016534,0 0.024801,0 0.00413,0 0.00839,-10e-4 0.0124,0 0.00448,0.001 0.00787,0.005 0.0124,0.006 0.00608,10e-4 0.0124,0 0.0186,0 0.00827,0 0.016534,0 0.024801,0 0.00413,0 0.00839,-10e-4 0.0124,0 0.00448,10e-4 0.00802,0.005 0.0124,0.006 0.00196,6.6e-4 0.00413,0 0.0062,0 0.0094,0 0.041276,-10e-4 0.049601,0 0.00645,0.001 0.012192,0.005 0.0186,0.006 0.00405,8.1e-4 0.00827,0 0.0124,0 0.0124,0 0.0248,0 0.037201,0 0.00827,0 0.016597,-10e-4 0.0248,0 0.00846,10e-4 0.016365,0.005 0.024801,0.006 0.00614,8.8e-4 0.0124,0 0.0186,0 0.0124,0 0.0248,0 0.037201,0 0.0062,0 0.012485,-10e-4 0.0186,0 0.00645,0.001 0.01226,0.005 0.0186,0.006 0.00849,0.002 0.03016,-0.002 0.037201,0 0.00277,9.3e-4 0.00343,0.005 0.0062,0.006 0.00784,0.003 0.016694,-0.002 0.024801,0 0.00641,0.001 0.012316,0.004 0.0186,0.006 0.00819,0.002 0.016445,0.005 0.0248,0.006 0.00795,0.002 0.016852,-0.002 0.024801,0 0.02495,0.005 0.00285,0.005 0.0186,0.0124 0.00185,9.2e-4 0.00424,-6.6e-4 0.0062,0 0.00438,0.001 0.00811,0.004 0.0124,0.006 0.00607,0.002 0.012532,0.004 0.0186,0.006 0.00429,0.002 0.00827,0.004 0.0124,0.006 0.0124,0.006 0.0248,0.0124 0.0372,0.0186 0.016534,0.008 0.033551,0.0156 0.049601,0.0248 0.019049,0.0109 0.020917,0.0173 0.043401,0.0248 0.01984,0.007 0.00705,-0.0118 0.031,0.006 0.0037,0.003 0.00293,0.009 0.0062,0.0124 0.00146,0.001 0.00424,-6.6e-4 0.0062,0 0.00438,0.001 0.0087,0.003 0.0124,0.006 0.035878,0.0269 -0.020862,-0.004 0.037201,0.031 0.00177,10e-4 0.00448,-0.001 0.0062,0 0.00912,0.006 0.015677,0.0187 0.024801,0.0248 0.00385,0.003 0.00855,0.004 0.0124,0.006 0.00243,0.002 0.00377,0.005 0.0062,0.006 0.00385,0.003 0.00856,0.004 0.0124,0.006 0.014244,0.009 -0.00266,0.004 0.0124,0.0186 0.00146,10e-4 0.00435,-9.3e-4 0.0062,0 0.00331,0.002 0.015336,0.0153 0.0186,0.0186 0.00326,0.003 0.016945,0.0153 0.0186,0.0186 9.234e-4,0.002 -0.00146,0.005 0,0.006 0.00146,0.001 0.00474,-10e-4 0.0062,0 0.00146,0.001 -9.234e-4,0.004 0,0.006 10e-4,0.002 0.021977,0.0229 0.0248,0.0248 0.00385,0.003 0.00913,0.003 0.0124,0.006 0.00581,0.006 0.010351,0.0193 0.0186,0.0248 0.00413,0.002 0.00827,0.004 0.0124,0.006 0.00207,0 0.00435,-9.2e-4 0.0062,0 0.00261,10e-4 0.00359,0.005 0.0062,0.006 0.0037,0.002 0.00948,-0.003 0.0124,0 0.00146,0.001 -0.00185,0.005 0,0.006 0.0037,0.002 0.00827,0 0.0124,0 0.00413,0 0.0087,0.002 0.0124,0 0.00523,-0.003 0.00827,-0.008 0.0124,-0.0124 0.00207,-0.002 0.00349,-0.005 0.0062,-0.006 0.00827,-0.002 0.016533,-0.004 0.0248,-0.006 0.00207,-0.002 0.00359,-0.005 0.0062,-0.006 0.00585,-0.003 0.012996,-0.003 0.0186,-0.006 0.010025,-0.006 0.015448,-0.0178 0.024801,-0.0248 0.0037,-0.003 0.0087,-0.003 0.0124,-0.006 0.00864,-0.006 0.016978,-0.017 0.0248,-0.0248 0.00484,-0.005 0.015034,-0.0132 0.0186,-0.0186 0.00256,-0.004 0.00364,-0.009 0.0062,-0.0124 0.00162,-0.002 0.00489,-0.004 0.0062,-0.006 0.00185,-0.004 -0.00185,-0.009 0,-0.0124 0.00131,-0.003 0.00489,-0.004 0.0062,-0.006 0.00185,-0.004 -0.00131,-0.008 0,-0.0124 0.00146,-0.004 0.00508,-0.008 0.0062,-0.0124 10e-4,-0.004 -0.00153,-0.009 0,-0.0124 0.00277,-0.007 0.00907,-0.0119 0.0124,-0.0186 0.00188,-0.004 -0.0018,-0.0318 0,-0.0372 0.00146,-0.004 0.00474,-0.008 0.0062,-0.0124 6.615e-4,-0.002 0,-0.004 0,-0.006 0,-0.004 0,-0.008 0,-0.0124 0,-0.0186 0,-0.0372 0,-0.0558 0,-0.008 0.00138,-0.0379 0,-0.0434 -7.143e-4,-0.003 -0.00489,-0.004 -0.0062,-0.006 -0.00183,-0.004 0.00143,-0.0143 0,-0.0186 -0.00292,-0.009 -0.010159,-0.0158 -0.0124,-0.0248 -10e-4,-0.004 0.00153,-0.009 0,-0.0124 -0.00277,-0.007 -0.00857,-0.0122 -0.0124,-0.0186 -0.00238,-0.004 -0.00293,-0.009 -0.0062,-0.0124 -0.00146,-10e-4 -0.00491,0.002 -0.0062,0 -0.00753,-0.009 -0.01137,-0.0214 -0.0186,-0.031 -0.00877,-0.0117 -0.020667,-0.0207 -0.031001,-0.031 -0.00827,-0.008 -0.015671,-0.0175 -0.0248,-0.0248 -0.00361,-0.003 -0.00827,-0.004 -0.0124,-0.006 -0.00413,-0.002 -0.00802,-0.005 -0.0124,-0.006 -0.00196,-6.5e-4 -0.00474,0.001 -0.0062,0 -0.00146,-10e-4 0.00146,-0.005 0,-0.006 -0.00146,-0.001 -0.00435,9.3e-4 -0.0062,0 -0.00261,-0.001 -0.00377,-0.005 -0.0062,-0.006 -0.010686,-0.007 -0.00937,-0.006 -0.0186,-0.006 -0.00207,0 -0.00413,0 -0.0062,0 -0.00207,0 -0.00435,9.3e-4 -0.0062,0 -0.00261,-0.001 -0.00827,-0.004 -0.0062,-0.006 0.00207,-0.002 0.00912,0.006 0.0062,0.006 -0.00462,0 -0.00802,-0.005 -0.0124,-0.006 -0.00196,-6.5e-4 -0.0062,0.002 -0.0062,0 0,-10e-4 0.010393,-0.009 0.0124,-0.0124 0.00256,-0.004 0.00293,-0.009 0.0062,-0.0124 0.00146,-0.001 0.00505,0.002 0.0062,0 0.00363,-0.005 0.00413,-0.0124 0.0062,-0.0186 0.00413,-0.0124 0.00755,-0.0251 0.0124,-0.0372 0.00172,-0.004 0.00474,-0.008 0.0062,-0.0124 0.00269,-0.008 0.00284,-0.017 0.0062,-0.0248 0.004,-0.009 0.015867,-0.0201 0.0186,-0.031 10e-4,-0.004 -10e-4,-0.008 0,-0.0124 0.00224,-0.009 0.00948,-0.016 0.0124,-0.0248 0.00269,-0.008 0.0048,-0.0164 0.0062,-0.0248 6.8e-4,-0.004 -0.00131,-0.008 0,-0.0124 9.234e-4,-0.003 0.00413,-0.004 0.0062,-0.006 0,-0.004 -8.096e-4,-0.008 0,-0.0124 0.00207,-0.006 0.00413,-0.0124 0.0062,-0.0186 0.00207,-0.002 0.00511,-0.003 0.0062,-0.006 0.00316,-0.008 0.00386,-0.0166 0.0062,-0.0248 0.0018,-0.006 0.00492,-0.0122 0.0062,-0.0186 0.00162,-0.008 -0.00201,-0.0168 0,-0.0248 0.00112,-0.004 0.00508,-0.008 0.0062,-0.0124 10e-4,-0.004 0,-0.008 0,-0.0124 0,-0.002 6.535e-4,-0.004 0,-0.006 -0.00146,-0.004 -0.00508,-0.008 -0.0062,-0.0124 -0.0054,-0.0216 0.00985,-0.004 -0.0062,-0.031 -0.00301,-0.005 -0.00889,-0.008 -0.0124,-0.0124 -0.00277,-0.004 -0.00343,-0.009 -0.0062,-0.0124 -0.00351,-0.005 -0.00889,-0.008 -0.0124,-0.0124 -0.00453,-0.006 -0.00481,-0.0148 -0.0124,-0.0186 -0.00496,-0.002 -0.01364,0.002 -0.0186,0 -0.00261,-10e-4 -0.00359,-0.005 -0.0062,-0.006 -0.00366,-0.002 -0.014336,10e-4 -0.0186,0 -0.00438,-0.001 -0.00802,-0.005 -0.0124,-0.006 -0.00196,-6.5e-4 -0.00435,9.3e-4 -0.0062,0 -0.00261,-10e-4 -0.00343,-0.005 -0.0062,-0.006 -0.00284,-9.4e-4 -0.02754,0 -0.031,0 -0.024528,0 -0.051045,-0.003 -0.074401,0.006 -0.00271,0.001 -0.00359,0.005 -0.0062,0.006 -0.037447,0.0187 -0.00262,-8.9e-4 -0.031001,0.006 -0.00448,0.001 -0.00827,0.004 -0.0124,0.006 -0.01224,0.006 -0.02547,0.0116 -0.0372,0.0186 -0.00639,0.004 -0.011935,0.009 -0.0186,0.0124 -0.00185,9.3e-4 -0.00443,-0.001 -0.0062,0 -0.023776,0.0143 -0.042632,0.0364 -0.062001,0.0558 -0.018064,0.0181 -0.034464,0.0346 -0.049601,0.0558 -0.00269,0.004 -0.00364,0.009 -0.0062,0.0124 -0.00162,0.002 -0.00413,0.004 -0.0062,0.006 -0.0062,0.008 -0.013284,0.0159 -0.0186,0.0248 -0.00106,0.002 9.234e-4,0.004 0,0.006 -0.00131,0.003 -0.00458,0.004 -0.0062,0.006 -0.00513,0.008 -0.00727,0.0171 -0.0124,0.0248 -0.00162,0.002 -0.00528,0.003 -0.0062,0.006 -0.01211,0.0363 0.017237,-0.011 -0.0124,0.0186 -0.00146,10e-4 0.00146,0.005 0,0.006 -0.00127,10e-4 -0.016142,-10e-4 -0.0186,0 -0.00261,10e-4 -0.00359,0.005 -0.0062,0.006 -0.00308,0.002 -0.03228,-9.9e-4 -0.037201,0 -0.00641,0.001 -0.012192,0.005 -0.0186,0.006 -0.00405,8.1e-4 -0.00835,-8.1e-4 -0.0124,0 -0.00641,10e-4 -0.012192,0.005 -0.0186,0.006 -0.011481,0.002 -0.03192,-0.002 -0.043401,0 -0.00641,0.001 -0.012131,0.005 -0.0186,0.006 -0.00818,10e-4 -0.016534,0 -0.024801,0 -0.0062,0 -0.0124,0 -0.0186,0 -0.020667,0 -0.041334,0 -0.062001,0 -0.016533,0 -0.033067,0 -0.049601,0 -0.0062,0 -0.012462,-8.8e-4 -0.0186,0 -0.00844,10e-4 -0.016345,0.005 -0.024801,0.006 -0.0082,0.001 -0.016533,0 -0.0248,0 -0.022734,0 -0.045467,0 -0.068201,0 -0.016534,0 -0.033067,0 -0.049601,0 -0.00827,0 -0.016534,0 -0.024801,0 -0.00207,0 -0.00417,4e-4 -0.0062,0 -0.00836,-0.002 -0.016321,-0.005 -0.024801,-0.006 -0.012339,-10e-4 -0.0248,0 -0.037201,0 -0.0062,0 -0.012462,8.7e-4 -0.0186,0 -0.00844,-10e-4 -0.016331,-0.005 -0.0248,-0.006 -0.020925,-0.002 -0.035341,0.002 -0.055801,0 -0.014554,-10e-4 -0.028819,-0.005 -0.043401,-0.006 -0.119398,0 0.00438,0.003 -0.080601,-0.006 -0.031,-0.003 -0.025834,0.005 -0.062001,0 -0.00289,-4.2e-4 -0.00332,-0.006 -0.0062,-0.006 -0.016087,-0.003 -0.033514,0.003 -0.049601,0 -0.076369,-0.0127 0.086044,-10e-4 -0.062001,-0.0124 -0.020606,-0.002 -0.041436,0.002 -0.0620009,0 -0.0250177,-0.003 -0.0493327,-0.0105 -0.0744011,-0.0124 -0.0144243,-10e-4 -0.0289706,0.001 -0.0434007,0 -0.0145767,-10e-4 -0.0288299,-0.005 -0.0434007,-0.006 -0.0123637,-9.5e-4 -0.0248513,10e-4 -0.0372006,0 -0.010495,-9.6e-4 -0.0205269,-0.005 -0.0310005,-0.006 -0.008216,-9.2e-4 -0.0165336,0 -0.0248004,0 -0.0062,0 -0.0125206,0.001 -0.0186002,0 -0.004532,-9.1e-4 -0.007917,-0.005 -0.0124002,-0.006 -0.009282,-0.002 -0.027385,0.002 -0.0372006,0 -0.006408,-10e-4 -0.0121917,-0.005 -0.0186002,-0.006 -0.007903,-0.002 -0.0309168,0.002 -0.0372006,0 -0.002773,-9.3e-4 -0.003586,-0.005 -0.0062,-0.006 -0.001389,-7e-4 -0.023327,0 -0.0248004,0 -0.0144669,0 -0.0289338,0 -0.0434007,0 -0.001474,0 -0.0234109,6.9e-4 -0.0248004,0 -0.002614,-10e-4 -0.003586,-0.005 -0.0062,-0.006 -0.00226,-0.001 -0.027428,0 -0.0310005,0 -0.0062,0 -0.0124002,0 -0.0186002,0 -0.002066,0 -0.0062,0.002 -0.0062,0 0,-0.002 0.008267,0 0.0062,0 -0.006667,0 -0.017817,10e-4 -0.0248005,0 -0.008356,-0.002 -0.0165335,-0.004 -0.0248004,-0.006 z"
       id="path10"
       inkscape:connector-curvature="0" />
    <path
       style="fill:#ffffff;stroke:#ff0000;stroke-width:0.02343343"
       d="M 9.1689694,6.178855 C 8.9224351,5.925361 8.3658164,5.5099402 8.2711364,5.508776 8.2538936,5.5085651 8.1166351,5.4477565 7.9661175,5.3736483 7.5861336,5.186561 7.4610497,5.1335887 7.3969773,5.1326208 7.3665837,5.1321618 7.2784459,5.1164379 7.2011155,5.097679 7.1237852,5.0789201 6.8812492,5.0526911 6.6621466,5.0393923 6.1895025,5.0107045 5.5802888,4.9585332 5.1741237,4.9119624 4.735291,4.8616458 4.4061396,4.8339324 3.7329676,4.7906218 3.1566549,4.753543 3.0977134,4.7536594 2.6433131,4.7927748 c -0.264212,0.022744 -0.498146,0.050703 -0.5198534,0.062133 -0.084196,0.04433 -0.089416,0.026392 -0.089416,-0.3072876 v -0.328068 l 0.064442,4.642e-4 c 0.035443,2.552e-4 0.1382572,0.01127 0.2284759,0.024478 0.1420145,0.02079 0.5895328,0.062241 1.4997397,0.1389131 0.1288838,0.010857 0.2501518,0.025293 0.2694844,0.032081 0.035314,0.012399 0.2149889,0.026583 1.2536886,0.098965 0.4859998,0.033867 0.6642724,0.035631 1.3122722,0.012984 C 7.4285667,4.5006523 7.6945648,4.4683682 7.9627021,4.369589 8.0974347,4.3199547 8.2366086,4.1892787 8.2934891,4.0589994 8.3673138,3.8899109 8.5886561,3.6260656 8.7496379,3.5152591 8.8568384,3.4414713 9.1292181,3.3599634 9.1902867,3.3833976 c 0.032117,0.012324 0.034893,0.024536 0.014316,0.062984 -0.014039,0.026232 -0.045265,0.1239303 -0.069391,0.2171069 -0.035833,0.1383886 -0.1426489,0.433524 -0.2563781,0.708381 -0.061819,0.1494016 -0.1193948,0.308898 -0.1193948,0.3307474 0,0.013864 0.021687,0.044834 0.048194,0.068822 0.030926,0.027988 0.043777,0.061213 0.035867,0.09273 -0.020859,0.083109 0.1714971,0.2806274 0.3204044,0.3290021 0.1427876,0.046387 0.2027465,0.095643 0.298986,0.2456198 0.064345,0.1002728 0.069851,0.1255666 0.069851,0.3208703 0,0.2655912 -0.048689,0.4296869 -0.1505446,0.5073757 l -0.073182,0.055818 z"
       id="path12"
       inkscape:connector-curvature="0"
       transform="matrix(0.26458333,0,0,0.26458333,0,294.35415)" />
    <path
       style="fill:#ffffff;stroke:#ff0000;stroke-width:0.02343343"
       d="M 1.460355,5.2405158 C 1.5072416,5.0321318 1.5174171,4.9695886 1.5178048,4.8874046 1.5185366,4.7322689 1.4784063,4.6352662 1.3477328,4.4763076 1.2793227,4.3930896 1.187564,4.2617319 1.1438246,4.1844016 1.1000852,4.1070713 1.0452277,4.0300218 1.0219189,4.0131805 0.9733871,3.9781145 0.9651076,3.9149175 1.0090459,3.9149175 c 0.028368,0 0.9781314,0.9351959 0.9781314,0.9631292 0,0.00751 -0.041865,0.026199 -0.093033,0.04153 C 1.8319474,4.9382107 1.7428314,5.0040522 1.6252796,5.118221 1.5092806,5.2308817 1.4531593,5.2724967 1.460355,5.2405158 Z"
       id="path14"
       inkscape:connector-curvature="0"
       transform="matrix(0.26458333,0,0,0.26458333,0,294.35415)" />
  </g>
</svg>
