<?xml version="1.0" encoding="UTF-8" standalone="no"?>
<!-- Created with Inkscape (http://www.inkscape.org/) -->

<svg
   xmlns:dc="http://purl.org/dc/elements/1.1/"
   xmlns:cc="http://creativecommons.org/ns#"
   xmlns:rdf="http://www.w3.org/1999/02/22-rdf-syntax-ns#"
   xmlns:svg="http://www.w3.org/2000/svg"
   xmlns="http://www.w3.org/2000/svg"
   xmlns:sodipodi="http://sodipodi.sourceforge.net/DTD/sodipodi-0.dtd"
   xmlns:inkscape="http://www.inkscape.org/namespaces/inkscape"
   width="10"
   height="10"
   viewBox="0 0 2.6458333 2.6458334"
   version="1.1"
   id="svg8"
   inkscape:version="0.92.3 (2405546, 2018-03-11)"
   sodipodi:docname="Spit bullet 01.svg">
  <defs
     id="defs2" />
  <sodipodi:namedview
     id="base"
     pagecolor="#ffffff"
     bordercolor="#666666"
     borderopacity="1.0"
     inkscape:pageopacity="0.0"
     inkscape:pageshadow="2"
     inkscape:zoom="18.003125"
     inkscape:cx="7.1428571"
     inkscape:cy="0"
     inkscape:document-units="mm"
     inkscape:current-layer="layer1"
     showgrid="false"
     units="px"
     inkscape:window-width="1920"
     inkscape:window-height="1016"
     inkscape:window-x="1920"
     inkscape:window-y="27"
     inkscape:window-maximized="1" />
  <metadata
     id="metadata5">
    <rdf:RDF>
      <cc:Work
         rdf:about="">
        <dc:format>image/svg+xml</dc:format>
        <dc:type
           rdf:resource="http://purl.org/dc/dcmitype/StillImage" />
        <dc:title></dc:title>
      </cc:Work>
    </rdf:RDF>
  </metadata>
  <g
     inkscape:label="Layer 1"
     inkscape:groupmode="layer"
     id="layer1"
     transform="translate(0,-294.35415)">
    <path
       style="fill:#ff00ff;stroke:#000000;stroke-width:0.26458332px;stroke-linecap:butt;stroke-linejoin:miter;stroke-opacity:1"
       d="m 0.77891568,295.58912 c 0.0125177,-0.0115 0.0958821,0.007 0.11757218,0 0.006573,-0.002 0.008124,-0.0125 0.0146965,-0.0147 0.0173019,-0.006 0.0686787,0.005 0.0881791,0 0.010627,-0.003 0.0190011,-0.0112 0.0293931,-0.0147 0.012374,-0.004 0.064733,0.004 0.073483,0 0.0062,-0.003 0.0085,-0.0116 0.014696,-0.0147 0.00438,-0.002 0.010049,0.002 0.014697,0 0.010392,-0.003 0.018766,-0.012 0.029393,-0.0147 0.06726,-0.0168 -0.015281,0.0297 0.073483,-0.0147 0.0062,-0.003 0.0085,-0.0116 0.014697,-0.0147 0.00438,-0.002 0.0098,0 0.014696,0 0.0098,-0.005 0.020279,-0.009 0.029393,-0.0147 0.00576,-0.004 0.0085,-0.0116 0.014696,-0.0147 0.00876,-0.004 0.021241,0.005 0.029393,0 0.011529,-0.008 0.018308,-0.0211 0.029393,-0.0294 0.017527,-0.0131 0.04126,-0.0163 0.058786,-0.0294 0.016627,-0.0125 0.026796,-0.0326 0.04409,-0.0441 0.00911,-0.006 0.020279,-0.009 0.029393,-0.0147 0.00576,-0.004 0.00893,-0.0109 0.014697,-0.0147 0.00911,-0.006 0.02063,-0.008 0.029393,-0.0147 0.011085,-0.008 0.018308,-0.0211 0.029393,-0.0294 0.00876,-0.007 0.020839,-0.008 0.029393,-0.0147 0.01623,-0.013 0.029393,-0.0294 0.04409,-0.0441 0.0098,-0.01 0.017864,-0.0217 0.029393,-0.0294 0.00408,-0.003 0.01062,0.003 0.014697,0 0.011529,-0.008 0.018308,-0.0211 0.029393,-0.0294 0.00876,-0.007 0.020279,-0.009 0.029393,-0.0147 0.013753,-0.009 0.049374,-0.0494 0.058786,-0.0588 0.0098,-0.01 0.017,-0.0232 0.029393,-0.0294 0.00876,-0.004 0.020098,0.003 0.029393,0 0.00657,-0.002 0.0085,-0.0116 0.014696,-0.0147 7.7e-4,-3.8e-4 0.043321,-3.8e-4 0.04409,0 0.0062,0.003 0.0085,0.0116 0.014696,0.0147 0.00438,0.002 0.010315,-0.002 0.014697,0 0.0062,0.003 0.00893,0.0109 0.014697,0.0147 0.00911,0.006 0.020279,0.009 0.029393,0.0147 0.00576,0.004 0.00893,0.0109 0.014696,0.0147 0.00911,0.006 0.020279,0.009 0.029393,0.0147 0.00576,0.004 0.00893,0.0109 0.014696,0.0147 0.00911,0.006 0.020279,0.009 0.029393,0.0147 0.00404,0.003 0.043057,0.041 0.04409,0.0441 0.0031,0.009 -0.0031,0.0201 0,0.0294 0.00219,0.007 0.010854,0.009 0.014697,0.0147 0.0049,0.01 0.0098,0.0196 0.014697,0.0294 0,0.005 -0.00219,0.0103 0,0.0147 0.00525,0.0105 0.024145,0.0189 0.029393,0.0294 0.00219,0.004 -0.00219,0.0103 0,0.0147 0.0031,0.006 0.011598,0.009 0.014697,0.0147 0.00219,0.004 -0.00219,0.0103 0,0.0147 0.0031,0.006 0.011598,0.008 0.014697,0.0147 0.00219,0.004 -0.00219,0.0103 0,0.0147 0.0062,0.0124 0.025011,0.0163 0.029393,0.0294 0.0062,0.0186 -0.0062,0.0402 0,0.0588 0.00219,0.007 0.0098,0.01 0.014697,0.0147 0,0.0147 -0.00356,0.0298 0,0.0441 0.00336,0.0134 0.025011,0.0163 0.029393,0.0294 0.00318,0.01 0,0.0895 0,0.10288 0,0.0245 0,0.049 0,0.0735 0,0.01 0.00276,0.0358 0,0.0441 -0.00346,0.0104 -0.011233,0.019 -0.014696,0.0294 -0.0031,0.009 0.00438,0.0206 0,0.0294 -0.0031,0.006 -0.011598,0.008 -0.014697,0.0147 -0.00219,0.004 0.00219,0.0103 0,0.0147 -0.0031,0.006 -0.011598,0.008 -0.014696,0.0147 -0.00219,0.004 0.00219,0.0103 0,0.0147 -0.00392,0.008 -0.036352,0.0363 -0.04409,0.0441 -0.0098,0.01 -0.019595,0.0196 -0.029393,0.0294 -0.0049,0.005 -0.0085,0.0116 -0.014697,0.0147 -0.00438,0.002 -0.01062,-0.003 -0.014697,0 -0.011529,0.008 -0.017864,0.0217 -0.029393,0.0294 -0.00408,0.003 -0.0098,0 -0.014696,0 -0.0098,0 -0.020098,-0.003 -0.029393,0 -0.00657,0.002 -0.00893,0.0109 -0.014696,0.0147 -0.00911,0.006 -0.019001,0.0112 -0.029393,0.0147 -0.00465,0.002 -0.010049,-0.002 -0.014697,0 -0.010392,0.003 -0.019001,0.0112 -0.029393,0.0147 -0.00929,0.003 -0.019595,0 -0.029393,0 -0.019595,0 -0.039191,0 -0.058786,0 -0.00662,0 -0.039617,0.002 -0.04409,0 -0.0062,-0.003 -0.0085,-0.0116 -0.014697,-0.0147 -0.00438,-0.002 -0.010315,0.002 -0.014697,0 -0.0062,-0.003 -0.0085,-0.0116 -0.014697,-0.0147 -0.00438,-0.002 -0.010315,0.002 -0.014696,0 -0.0062,-0.003 -0.0085,-0.0116 -0.014697,-0.0147 -0.00438,-0.002 -0.010315,0.002 -0.014696,0 -0.061163,-0.0306 0.015711,10e-4 -0.014697,-0.0294 -0.00693,-0.007 -0.02063,0.004 -0.029393,0 -0.0062,-0.003 -0.0085,-0.0116 -0.014697,-0.0147 -0.00438,-0.002 -0.010315,0.002 -0.014697,0 -0.00794,-0.004 -0.021456,-0.0254 -0.029393,-0.0294 -0.00438,-0.002 -0.0098,0 -0.014697,0 -0.0098,-0.01 -0.017864,-0.0217 -0.029393,-0.0294 -0.00815,-0.005 -0.022465,0.007 -0.029393,0 -0.00346,-0.003 0.00219,-0.0103 0,-0.0147 -0.014425,-0.0288 -0.027929,-0.007 -0.044089,-0.0147 -0.012393,-0.006 -0.016248,-0.025 -0.029393,-0.0294 -0.00929,-0.003 -0.019595,0 -0.029393,0 -0.0049,0 -0.010315,0.002 -0.014697,0 -0.0062,-0.003 -0.0085,-0.0116 -0.014697,-0.0147 -0.00438,-0.002 -0.0098,0 -0.014697,0 -0.0049,0 -0.0098,0 -0.014697,0 -0.021095,0 -0.072712,0.004 -0.088179,0 -0.00672,-0.002 -0.00812,-0.0125 -0.014696,-0.0147 -0.01859,-0.006 -0.039776,0.005 -0.058786,0 -0.021254,-0.005 -0.038002,-0.0225 -0.058786,-0.0294 -0.014082,-0.005 -0.059868,0.005 -0.073483,0 -0.00657,-0.002 -0.0085,-0.0116 -0.014697,-0.0147 -0.00438,-0.002 -0.0098,0 -0.014697,0 -0.0098,0 -0.019595,0 -0.029393,0 -0.034292,0 -0.068584,0 -0.10287575,0 -0.0749217,0 -0.1548916,0 -0.1910548,0 -0.003564,0 -0.0436169,4.7e-4 -0.0440896,0 -0.003464,-0.003 0.003464,-0.0112 0,-0.0147 -0.0195953,-0.0196 -0.0146965,0.0245 -0.0146965,-0.0147 0,-0.005 -0.004899,-0.0147 0,-0.0147 0.004899,0 -0.004899,0.0147 0,0.0147 0.006928,0 0.0085,-0.0116 0.0146965,-0.0147 0.004382,-0.002 0.0103148,0.002 0.0146966,0 0.006197,-0.003 0.0085,-0.0116 0.0146965,-0.0147 0.004382,-0.002 0.009798,0 0.0146966,0 0.004899,-0.005 0.0085,-0.0116 0.0146966,-0.0147 0.004382,-0.002 0.0112326,0.003 0.0146965,0 0.003464,-0.003 -0.003464,-0.0112 0,-0.0147 0.003464,-0.003 0.0103148,0.002 0.0146966,0 0.0123931,-0.006 0.0169997,-0.0232 0.029393,-0.0294 0.008763,-0.004 0.0206298,0.004 0.029393,0 0.006197,-0.003 0.008124,-0.0125 0.0146966,-0.0147 0.005739,-0.002 0.0440896,0.008 0.0440896,-0.0147 0,-0.005 -0.009798,0 -0.0146965,0 -0.004899,0 -0.009798,0 -0.0146965,0 -0.004899,0 -0.0146965,0.005 -0.0146965,0 0,-0.005 0.0146965,-0.005 0.0146965,0 0,0.005 -0.0103148,0.002 -0.0146965,0 -0.006197,-0.003 -0.0195953,-0.01 -0.0146965,-0.0147 0.004899,-0.005 0.0216244,0.0147 0.0146965,0.0147 -0.0354843,0 -0.0217138,-0.0182 -0.0440896,-0.0294 -0.004382,-0.002 -0.0101481,0.002 -0.0146966,0 -0.0203412,-0.008 -0.0391906,-0.0196 -0.058786,-0.0294 z"
       id="path10"
       inkscape:connector-curvature="0" />
  </g>
</svg>
