<?xml version="1.0" encoding="UTF-8" standalone="no"?>
<!-- Created with Inkscape (http://www.inkscape.org/) -->

<svg
   xmlns:dc="http://purl.org/dc/elements/1.1/"
   xmlns:cc="http://creativecommons.org/ns#"
   xmlns:rdf="http://www.w3.org/1999/02/22-rdf-syntax-ns#"
   xmlns:svg="http://www.w3.org/2000/svg"
   xmlns="http://www.w3.org/2000/svg"
   xmlns:sodipodi="http://sodipodi.sourceforge.net/DTD/sodipodi-0.dtd"
   xmlns:inkscape="http://www.inkscape.org/namespaces/inkscape"
   width="50"
   height="50"
   viewBox="0 0 13.229166 13.229167"
   version="1.1"
   id="svg8"
   inkscape:version="0.92.3 (2405546, 2018-03-11)"
   sodipodi:docname="Blob simple 01.svg">
  <defs
     id="defs2" />
  <sodipodi:namedview
     id="base"
     pagecolor="#ffffff"
     bordercolor="#666666"
     borderopacity="1.0"
     inkscape:pageopacity="0.0"
     inkscape:pageshadow="2"
     inkscape:zoom="11.638978"
     inkscape:cx="21.80222"
     inkscape:cy="25.697067"
     inkscape:document-units="mm"
     inkscape:current-layer="layer1"
     showgrid="false"
     units="px"
     inkscape:window-width="1920"
     inkscape:window-height="1016"
     inkscape:window-x="1920"
     inkscape:window-y="27"
     inkscape:window-maximized="1" />
  <metadata
     id="metadata5">
    <rdf:RDF>
      <cc:Work
         rdf:about="">
        <dc:format>image/svg+xml</dc:format>
        <dc:type
           rdf:resource="http://purl.org/dc/dcmitype/StillImage" />
        <dc:title></dc:title>
      </cc:Work>
    </rdf:RDF>
  </metadata>
  <g
     inkscape:label="Layer 1"
     inkscape:groupmode="layer"
     id="layer1"
     transform="translate(0,-283.77082)">
    <path
       style="fill:#800080;stroke:#000000;stroke-width:0.26458332px;stroke-linecap:butt;stroke-linejoin:miter;stroke-opacity:1"
       d="m 5.1830152,288.92994 c -0.1348113,0.17975 0.01106,0.009 -0.18186,0.15913 -0.1795981,0.13969 -0.020606,0.033 -0.1363951,0.18186 -0.032896,0.0423 -0.075775,0.0758 -0.1136626,0.11366 -0.068198,0.0682 -0.1363954,0.1364 -0.2045928,0.20459 -0.045465,0.0455 -0.09568,0.0866 -0.1363951,0.1364 -0.047908,0.0586 -0.1709169,0.3191 -0.1818603,0.34099 -0.1587622,0.31752 -0.048819,0.0578 -0.1136626,0.29552 -0.01261,0.0462 -0.032855,0.0902 -0.045465,0.13639 -0.010165,0.0373 -0.012565,0.0764 -0.022733,0.11367 -0.035003,0.12834 -0.054352,0.12544 -0.068197,0.25006 -0.00335,0.0301 0.00335,0.0608 0,0.0909 -0.00427,0.0384 -0.018465,0.0753 -0.022733,0.11366 -0.00335,0.0301 0,0.0606 0,0.0909 0,0.053 0,0.10608 0,0.15913 0,0.0606 -0.00549,0.12148 0,0.18186 0.00566,0.0622 0.035192,0.12022 0.045465,0.18186 0.00249,0.0149 -0.00214,0.0305 0,0.0455 0.00546,0.0383 0.017269,0.0754 0.022733,0.11366 0.00214,0.015 -0.00297,0.0306 0,0.0455 0.0047,0.0235 0.015155,0.0455 0.022733,0.0682 0.00758,0.0227 0.012017,0.0468 0.022733,0.0682 0.053371,0.10675 0.034172,0.0286 0.068197,0.11367 0.0089,0.0223 0.012017,0.0468 0.022733,0.0682 0.00479,0.01 0.017941,0.0131 0.022733,0.0227 0.010716,0.0214 0.010403,0.0477 0.022733,0.0682 0.011028,0.0184 0.032076,0.0287 0.045465,0.0455 0.017068,0.0213 0.028398,0.0469 0.045465,0.0682 0.013388,0.0167 0.03031,0.0303 0.045465,0.0455 0.015155,0.0227 0.029072,0.0463 0.045465,0.0682 0.029112,0.0388 0.076824,0.0593 0.1136626,0.0909 0.070386,0.0603 0.056007,0.0735 0.1363954,0.11366 0.021431,0.0107 0.04765,0.0104 0.068197,0.0227 0.018378,0.011 0.026294,0.0359 0.045465,0.0455 0.013555,0.007 0.031088,-0.005 0.045465,0 0.054747,0.0183 0.1065917,0.0443 0.1591276,0.0682 0.03085,0.014 0.058782,0.0348 0.09093,0.0455 0.1714973,0.0572 0.1734624,0.0377 0.3409878,0.0682 0.3304355,0.0601 -0.2925051,-0.0252 0.2727904,0.0455 0.06062,0.008 0.1212401,0.0152 0.1818601,0.0227 0.06062,0.008 0.1209037,0.0187 0.1818603,0.0227 0.052925,0.004 0.1062024,-0.004 0.1591275,0 0.060957,0.004 0.1208874,0.0189 0.1818603,0.0227 0.3237963,0.0202 0.056577,-0.001 0.2955227,-0.0227 0.1285105,-0.0117 0.2580126,-0.0103 0.386453,-0.0227 0.1066639,-0.0103 0.2120757,-0.031 0.3182554,-0.0455 0.060532,-0.008 0.1225923,-0.008 0.18186,-0.0227 0.092987,-0.0233 0.180984,-0.0634 0.2727905,-0.0909 0.1197009,-0.0359 0.2446316,-0.053 0.3637203,-0.0909 0.1073449,-0.0342 0.2109102,-0.0795 0.3182554,-0.11366 0.059544,-0.019 0.1246132,-0.0204 0.18186,-0.0455 0.065493,-0.0286 0.1201121,-0.0776 0.1818603,-0.11366 0.029271,-0.0171 0.062734,-0.0267 0.09093,-0.0455 0.2780099,-0.18534 0.1059334,-0.0726 0.2273253,-0.18186 0.059872,-0.0539 0.1265526,-0.10057 0.18186,-0.15913 0.073947,-0.0783 0.1361292,-0.16693 0.2045928,-0.25006 0.037623,-0.0457 0.080834,-0.0872 0.1136626,-0.1364 0.028196,-0.0423 0.045465,-0.0909 0.068198,-0.13639 0.022733,-0.0455 0.04995,-0.0889 0.068197,-0.1364 0.019804,-0.0515 0.026911,-0.10717 0.045465,-0.15912 0.038819,-0.1087 0.1019691,-0.2081 0.136395,-0.31826 0.02084,-0.0667 0.02627,-0.13742 0.04547,-0.20459 0.114328,-0.40015 -0.0246,0.23758 0.0682,-0.27279 0.04782,-0.26299 -0.0065,0.14842 0.0682,-0.25006 0.02692,-0.14355 0.02273,-0.19047 0.02273,-0.31825 0,-0.0682 0,-0.1364 0,-0.2046 0,-0.0303 0.0033,-0.0608 0,-0.0909 -0.0043,-0.0384 -0.01582,-0.0756 -0.02273,-0.11366 -0.0046,-0.0252 -0.03423,-0.21637 -0.04547,-0.25006 -0.01071,-0.0322 -0.03144,-0.0601 -0.04547,-0.0909 -0.02388,-0.0525 -0.04056,-0.10846 -0.0682,-0.15913 -0.01814,-0.0333 -0.047182,-0.0594 -0.068198,-0.0909 -0.0094,-0.0141 -0.015155,-0.0303 -0.022733,-0.0455 -0.03031,-0.053 -0.054998,-0.10972 -0.09093,-0.15913 -0.043414,-0.0597 -0.1813822,-0.16439 -0.2273252,-0.20459 -0.2076246,-0.18167 0.3976183,0.23477 -0.3637203,-0.27279 -0.050832,-0.0339 -0.1067419,-0.0595 -0.1591276,-0.0909 -0.1396217,-0.0838 -0.212457,-0.14409 -0.3637203,-0.20459 -0.05122,-0.0205 -0.1079082,-0.025 -0.1591278,-0.0455 -0.062928,-0.0252 -0.1179486,-0.0684 -0.1818601,-0.0909 -0.616654,-0.21764 -0.048552,-0.009 -0.2500579,-0.0455 -0.068734,-0.0125 -0.1350783,-0.0385 -0.2045925,-0.0455 -0.082939,-0.008 -0.1667053,0 -0.250058,0 -0.12124,0 -0.2426668,-0.007 -0.3637203,0 -0.053498,0.003 -0.1057318,0.0183 -0.1591276,0.0227 -0.083065,0.007 -0.1669931,-0.007 -0.2500577,0 -0.2933253,0.0245 -0.0062,0.0139 -0.2273252,0.0455 -0.1163688,0.0166 -0.022879,-0.0284 -0.1591278,0.0227 -0.03173,0.0119 -0.059466,0.0329 -0.09093,0.0455 -0.044497,0.0178 -0.091356,0.0291 -0.1363951,0.0455 -0.038349,0.014 -0.075775,0.0303 -0.1136626,0.0455 -0.037887,0.0151 -0.07495,0.0326 -0.1136626,0.0455 -0.029639,0.01 -0.062986,0.009 -0.09093,0.0227 -0.019169,0.01 -0.028319,0.0326 -0.045465,0.0455 -0.013555,0.0102 -0.03031,0.0152 -0.045465,0.0227 -0.03031,0.0303 -0.058385,0.063 -0.09093,0.0909 -0.020743,0.0178 -0.045965,0.0296 -0.068198,0.0455 -0.03083,0.022 -0.061824,0.0439 -0.09093,0.0682 -0.016465,0.0137 -0.026294,0.0359 -0.045465,0.0455 -0.013555,0.007 -0.033341,-0.009 -0.045465,0 -0.021857,0.0164 -0.028398,0.0469 -0.045465,0.0682 -0.07468,0.0934 -0.02096,-0.009 -0.09093,0.11366 -0.02522,0.0441 -0.040001,0.0941 -0.068197,0.1364 -0.00595,0.009 -0.016788,0.0138 -0.022733,0.0227 -0.0094,0.0141 -0.012568,0.0319 -0.022733,0.0455 -0.012859,0.0171 -0.034106,0.0273 -0.045465,0.0455 -0.047495,0.076 -0.091849,0.18553 -0.1136626,0.27279 -0.00368,0.0147 0,0.0303 0,0.0455"
       id="path10"
       inkscape:connector-curvature="0" />
  </g>
</svg>
