<?xml version="1.0" encoding="UTF-8" standalone="no"?>
<!-- Created with Inkscape (http://www.inkscape.org/) -->

<svg
   xmlns:dc="http://purl.org/dc/elements/1.1/"
   xmlns:cc="http://creativecommons.org/ns#"
   xmlns:rdf="http://www.w3.org/1999/02/22-rdf-syntax-ns#"
   xmlns:svg="http://www.w3.org/2000/svg"
   xmlns="http://www.w3.org/2000/svg"
   xmlns:sodipodi="http://sodipodi.sourceforge.net/DTD/sodipodi-0.dtd"
   xmlns:inkscape="http://www.inkscape.org/namespaces/inkscape"
   width="100"
   height="40"
   viewBox="0 0 26.458333 10.583334"
   version="1.1"
   id="svg8"
   inkscape:version="0.92.3 (2405546, 2018-03-11)"
   sodipodi:docname="HP label bg.svg">
  <defs
     id="defs2" />
  <sodipodi:namedview
     id="base"
     pagecolor="#ffffff"
     bordercolor="#666666"
     borderopacity="1.0"
     inkscape:pageopacity="0.0"
     inkscape:pageshadow="2"
     inkscape:zoom="7.2810606"
     inkscape:cx="57.142857"
     inkscape:cy="17.142857"
     inkscape:document-units="mm"
     inkscape:current-layer="layer1"
     showgrid="false"
     units="px"
     inkscape:window-width="1920"
     inkscape:window-height="1016"
     inkscape:window-x="1920"
     inkscape:window-y="27"
     inkscape:window-maximized="1" />
  <metadata
     id="metadata5">
    <rdf:RDF>
      <cc:Work
         rdf:about="">
        <dc:format>image/svg+xml</dc:format>
        <dc:type
           rdf:resource="http://purl.org/dc/dcmitype/StillImage" />
        <dc:title></dc:title>
      </cc:Work>
    </rdf:RDF>
  </metadata>
  <g
     inkscape:label="Layer 1"
     inkscape:groupmode="layer"
     id="layer1"
     transform="translate(0,-286.41665)">
    <path
       style="fill:#999999;stroke:#000000;stroke-width:0.26458332"
       id="path12"
       sodipodi:type="arc"
       sodipodi:cx="13.22724"
       sodipodi:cy="291.6582"
       sodipodi:rx="12.863853"
       sodipodi:ry="4.7966909"
       sodipodi:start="0"
       sodipodi:end="6.2802182"
       d="m 26.091093,291.6582 a 12.863853,4.7966909 0 0 1 -12.854311,4.79669 12.863853,4.7966909 0 0 1 -12.87338169,-4.78957 12.863853,4.7966909 0 0 1 12.83521269,-4.8038 12.863853,4.7966909 0 0 1 12.892423,4.78245 l -12.863796,0.0142 z" />
    <path
       style="fill:#999999;stroke:#999999;stroke-width:0.13734263"
       d="M 42.529601,38.175301 C 30.537831,37.436192 19.902022,35.155542 12.201771,31.672065 3.3530357,27.669032 -0.60259521,22.267547 1.5008958,17.059828 2.1057028,15.562476 2.7298726,14.669509 4.2110082,13.182611 7.3691436,10.012188 12.25179,7.4658385 19.318697,5.3037988 31.17041,1.6779024 47.584821,0.37414674 62.581625,1.8675324 84.094788,4.0098188 99.019878,11.352117 98.994633,19.780668 c -0.0078,2.591981 -1.068367,4.671531 -3.596178,7.051106 -6.029879,5.676275 -18.880732,9.740236 -35.288997,11.159815 -2.984193,0.258181 -14.430855,0.377801 -17.579857,0.183712 z m 13.390907,-0.816525 c 13.51295,-0.665547 25.242965,-3.242632 33.182108,-7.290111 5.176088,-2.638838 8.510231,-6.063551 8.984917,-9.228989 l 0.09702,-0.64698 H 74.134 50.083446 V 19.780668 19.36864 H 74.130478 98.177511 L 98.08068,18.784934 C 97.52019,15.406223 94.33195,12.178622 88.828518,9.418547 73.437972,1.6998985 44.617238,-0.16290514 23.09562,5.169957 18.114134,6.404324 13.288466,8.1941917 9.9421483,10.048654 c -2.1600695,1.197067 -3.6820841,2.318561 -5.1872745,3.822235 -2.1128115,2.110683 -2.8814876,3.724514 -2.8757934,6.037714 0.00984,3.998019 3.6258396,7.707039 10.7098286,10.98534 10.148664,4.69656 27.294894,7.254682 43.331599,6.464833 z"
       id="path18"
       inkscape:connector-curvature="0"
       transform="matrix(0.26458333,0,0,0.26458333,0,286.41665)" />
    <path
       style="fill:#999999;stroke:#999999;stroke-width:0.13734263"
       d="m 61.929248,20.227041 c 6.628498,-0.01972 17.475132,-0.01972 24.103631,0 6.628499,0.01972 1.205182,0.03585 -12.051816,0.03585 -13.256997,0 -18.680314,-0.01613 -12.051815,-0.03585 z"
       id="path20"
       inkscape:connector-curvature="0"
       transform="matrix(0.26458333,0,0,0.26458333,0,286.41665)" />
    <path
       style="fill:#999999;stroke:#999999;stroke-width:0.13734263"
       d="m 45.933548,38.383866 c -0.03872,-0.03872 -0.928604,-0.09909 -1.977522,-0.134165 -2.055988,-0.06874 -5.203347,-0.274384 -5.203347,-0.339974 0,-0.01502 -0.339923,-0.04781 -0.755384,-0.07286 -0.719518,-0.04338 -1.653516,-0.138161 -2.78087,-0.282193 -0.283093,-0.03617 -0.746625,-0.09413 -1.03007,-0.128815 -1.470067,-0.179864 -2.272821,-0.303182 -3.124863,-0.480038 -0.377692,-0.0784 -0.93393,-0.176806 -1.236084,-0.218687 -1.661358,-0.230282 -1.842948,-0.26232 -2.60951,-0.460387 -0.578385,-0.149447 -1.275759,-0.280652 -1.774091,-0.333783 -0.163717,-0.01745 -0.356858,-0.06709 -0.4292,-0.110301 -0.122066,-0.07291 -1.193532,-0.297594 -1.50496,-0.315587 -0.07554,-0.0044 -0.218709,-0.05884 -0.318158,-0.121067 -0.09945,-0.06222 -0.217371,-0.07657 -0.262048,-0.0319 -0.04468,0.04468 -0.15767,0.0178 -0.251091,-0.05974 -0.09342,-0.07753 -0.222718,-0.12899 -0.287323,-0.114347 -0.0646,0.01464 -0.210169,-0.01122 -0.323477,-0.05749 -0.29575,-0.120747 -1.816176,-0.549409 -2.06014,-0.580827 -0.113307,-0.01459 -0.381161,-0.09752 -0.595231,-0.184282 -0.21407,-0.08676 -0.445835,-0.122761 -0.515035,-0.07999 -0.0692,0.04277 -0.125817,0.0057 -0.125817,-0.08238 0,-0.08808 -0.08819,-0.126302 -0.195973,-0.08494 -0.107784,0.04136 -0.268222,-0.01185 -0.356529,-0.118258 -0.08831,-0.106402 -0.200982,-0.188117 -0.250391,-0.181586 -0.04941,0.0065 -0.120736,-3.8e-5 -0.158506,-0.0146 -0.03777,-0.01456 -0.223181,-0.05764 -0.412027,-0.09573 -0.517102,-0.104301 -0.589399,-0.126475 -0.961399,-0.294873 -0.693413,-0.313898 -2.958016,-1.158303 -3.124545,-1.16505 -0.09442,-0.0038 -0.171678,-0.05176 -0.171678,-0.106522 0,-0.102345 -0.674197,-0.329499 -0.858391,-0.289213 -0.05665,0.01239 -0.103007,-0.04292 -0.103007,-0.122919 0,-0.08 -0.0618,-0.107251 -0.137343,-0.06057 -0.07554,0.04669 -0.137343,0.0236 -0.137343,-0.05131 0,-0.07491 -0.139059,-0.178992 -0.309021,-0.231303 C 11.423213,31.32588 10.727916,30.984788 10.04807,30.620208 9.3682239,30.255628 8.7570921,29.959619 8.689999,29.96241 8.622906,29.965198 8.5301997,29.912873 8.483985,29.846129 8.3360947,29.63254 7.507311,29.097006 7.5051282,29.213622 c -0.00115,0.0618 -0.04751,0.04896 -0.103007,-0.02853 -0.1761149,-0.245908 -1.2683162,-1.054375 -1.2683162,-0.93883 0,0.06092 -0.096211,-0.02659 -0.2138018,-0.194473 -0.117591,-0.167885 -0.2739896,-0.305246 -0.3475525,-0.305246 -0.073563,0 -0.3255001,-0.218389 -0.5598604,-0.485312 C 4.77823,26.994307 4.5529377,26.80946 4.5119405,26.850457 4.4079842,26.954413 3.7989803,26.3624 3.7989803,26.157387 c 0,-0.09231 -0.2184651,-0.35966 -0.4854781,-0.594101 -0.2670131,-0.23444 -0.4584444,-0.426256 -0.4254029,-0.426256 0.033041,0 -0.2143855,-0.417178 -0.5498379,-0.927062 C 2.0028092,23.700083 1.6931069,23.143846 1.6500342,22.973884 1.6069615,22.803923 1.5129686,22.664863 1.4411611,22.664863 c -0.071808,0 -0.1032662,-0.04635 -0.069908,-0.103007 0.033358,-0.05665 -0.00233,-0.257517 -0.079315,-0.446363 -0.2014023,-0.49407 -0.2317327,-0.734786 -0.2855355,-2.266154 -0.0265395,-0.755384 -8.527e-4,-1.435965 0.057082,-1.5124 0.057934,-0.07644 0.1254329,-0.323652 0.1499964,-0.549371 0.024563,-0.225718 0.084837,-0.441298 0.1339404,-0.479067 0.049104,-0.03777 0.110908,-0.19228 0.1373427,-0.343357 0.026435,-0.151077 0.086114,-0.305587 0.1326201,-0.343356 0.081815,-0.06644 0.7215918,-1.279217 0.7015007,-1.329777 -0.07042,-0.177217 3.9887471,-4.223475 4.1357093,-4.122557 0.046383,0.03185 1.8113982,-1.1931924 1.8920483,-1.3132131 C 8.3928575,9.7874659 8.4714727,9.7389691 8.5213434,9.7484708 8.5712144,9.7579708 9.120542,9.4902321 9.7420717,9.1534926 10.363601,8.8167532 11.181147,8.3970797 11.558839,8.2208848 11.936531,8.04469 12.290959,7.8387265 12.346456,7.763188 c 0.0555,-0.075538 0.10185,-0.089402 0.103007,-0.030809 0.0012,0.058594 0.186868,0.010989 0.412692,-0.1057898 0.225824,-0.116778 0.426687,-0.2082052 0.446363,-0.2031715 0.01968,0.00503 0.468404,-0.1692498 0.997173,-0.3872967 0.52877,-0.2180468 0.992301,-0.4023362 1.03007,-0.4095318 0.133599,-0.025453 0.624118,-0.2113355 1.098741,-0.4163681 0.264385,-0.1142117 0.527052,-0.2209699 0.583706,-0.2372404 0.05665,-0.016271 0.133909,-0.045034 0.171679,-0.063918 0.03777,-0.018885 0.176828,-0.043008 0.309021,-0.053607 0.132192,-0.010599 0.302153,-0.056133 0.377692,-0.1011859 0.07554,-0.045053 0.304578,-0.1218556 0.508978,-0.1706717 0.204399,-0.048816 0.544322,-0.159514 0.755384,-0.2459956 0.211062,-0.086481 0.491907,-0.1786945 0.624099,-0.2049176 0.132192,-0.026223 0.348507,-0.069295 0.480699,-0.095716 0.132192,-0.026421 0.333056,-0.083531 0.446364,-0.1269106 0.319627,-0.1223696 1.301,-0.4199376 1.336549,-0.4052635 0.01749,0.00722 0.233803,-0.048082 0.4807,-0.1228905 0.773145,-0.234258 1.424942,-0.3909233 1.939644,-0.4662123 0.215601,-0.031537 0.524622,-0.1012808 0.686713,-0.1549859 0.162093,-0.053705 0.387421,-0.1120904 0.500728,-0.1297451 0.113308,-0.017655 0.360525,-0.071441 0.549371,-0.1195246 0.188846,-0.048084 0.600191,-0.1081755 0.9141,-0.1335372 0.313908,-0.025362 0.641911,-0.090097 0.728895,-0.1438558 0.08698,-0.053759 0.324583,-0.123053 0.527998,-0.1539864 0.504882,-0.076778 1.370568,-0.2186018 2.327419,-0.3812973 0.499057,-0.084856 1.376298,-0.2157421 1.88802,-0.2816963 0.226615,-0.029208 0.659245,-0.086688 0.961398,-0.1277329 1.339834,-0.1820063 1.83051,-0.2310982 2.500787,-0.2502027 0.393432,-0.011214 0.692994,-0.056678 0.665692,-0.1010306 -0.0273,-0.044353 0.454252,-0.1036281 1.070121,-0.1317222 0.615869,-0.028094 1.283823,-0.058996 1.48434,-0.068671 0.200518,-0.00968 0.345509,-0.048493 0.322202,-0.086262 -0.02331,-0.037769 0.409313,-0.068671 0.961375,-0.068671 0.552061,0 0.984797,-0.030902 0.961636,-0.068671 -0.02316,-0.037769 0.585341,-0.0779 1.35223,-0.089179 1.365134,-0.020078 4.220069,-0.1235885 6.819376,-0.2472475 0.717615,-0.03414 1.08844,-0.017663 0.824056,0.036616 -0.264385,0.054278 0.899855,0.096794 2.5872,0.09448 1.687345,-0.00231 3.088604,0.029292 3.113909,0.070238 0.02531,0.040946 0.570225,0.072641 1.210931,0.070434 0.640707,-0.00221 1.144712,0.028695 1.120012,0.06867 -0.0247,0.039975 0.408048,0.070696 0.96166,0.068268 0.553613,-0.00243 0.987445,0.026669 0.964072,0.06466 -0.02337,0.037991 0.33779,0.083731 0.802585,0.1016451 0.991954,0.038231 2.442316,0.1769605 4.072635,0.3895538 0.264384,0.034476 0.727916,0.092148 1.030069,0.1281603 1.144063,0.1363559 1.53061,0.192213 2.197483,0.3175429 0.377692,0.070982 0.779419,0.1377304 0.892727,0.1483292 0.433697,0.040569 0.905763,0.1175785 1.236083,0.2016468 0.188846,0.048062 0.590574,0.122587 0.892727,0.1656102 0.815695,0.1161453 0.935507,0.1390939 1.236084,0.2367546 0.151077,0.049087 0.521902,0.1262044 0.824056,0.1713729 0.302154,0.045168 0.643163,0.096105 0.757799,0.1131919 0.114636,0.017087 0.269146,0.067365 0.343356,0.1117296 0.113242,0.067698 1.023888,0.2653191 1.508355,0.3273311 0.07554,0.00967 0.236853,0.061254 0.358478,0.1146332 0.121623,0.053379 0.371455,0.1130801 0.55518,0.1326683 0.183724,0.019588 0.408686,0.081746 0.499913,0.1381272 0.09123,0.056382 0.223403,0.066955 0.293721,0.023495 0.07032,-0.043459 0.162343,-0.023211 0.204498,0.044996 0.06388,0.1033644 0.686083,0.2865976 1.24709,0.3672585 0.07554,0.010861 0.309448,0.090474 0.519799,0.1769178 0.210352,0.086444 0.426666,0.1505665 0.4807,0.1424944 0.05403,-0.00807 0.144595,3.709e-4 0.201249,0.018756 0.05665,0.018388 0.14936,0.046495 0.206014,0.062462 0.05665,0.015966 0.195713,0.069816 0.309021,0.1196664 0.658525,0.2897213 3.013507,1.0153013 3.079884,0.9489251 0.04345,-0.043448 0.079,-0.011802 0.079,0.070324 0,0.1333379 0.68108,0.363381 0.909422,0.3071683 0.04946,-0.012177 0.13331,0.048038 0.186321,0.1338124 0.05301,0.085774 0.229883,0.1660093 0.393049,0.1783001 0.163164,0.012291 0.296663,0.064299 0.296663,0.1155734 0,0.09764 0.6803,0.3218281 0.858391,0.2828767 0.05665,-0.012391 0.103007,0.026859 0.103007,0.087223 0,0.1092165 0.873671,0.4731044 1.046208,0.4357498 0.04977,-0.010776 0.128305,0.039616 0.174521,0.1119819 0.101657,0.1591815 2.075494,1.1631501 2.075494,1.0556755 0,-0.041662 0.135262,0.050268 0.300583,0.2042873 0.282283,0.2629869 0.450913,0.3348635 0.695151,0.2962996 0.05665,-0.00895 0.103007,0.043953 0.103007,0.1175515 0,0.1158618 0.700715,0.5571207 0.888019,0.5592077 0.03676,4.12e-4 0.232509,0.154282 0.434993,0.341938 0.202484,0.187656 0.391031,0.318315 0.418993,0.290353 0.02796,-0.02796 0.276641,0.155988 0.552621,0.408777 0.27598,0.252788 0.521158,0.440241 0.544837,0.416562 0.101742,-0.101743 3.311379,3.205116 3.323771,3.42445 0.002,0.03452 0.253833,0.562824 0.559736,1.174001 0.305904,0.611178 0.556189,1.227684 0.556189,1.370015 0,0.142329 0.05987,0.258781 0.133033,0.258781 0.07317,0 0.09859,0.08975 0.0565,0.199436 -0.04209,0.109692 -0.02942,0.275668 0.02816,0.368838 0.154827,0.250516 -0.03981,3.434681 -0.22342,3.655012 -0.01574,0.01888 -0.03853,0.08069 -0.05065,0.137342 -0.01211,0.05665 -0.09493,0.23394 -0.184013,0.39397 -0.08909,0.160029 -0.122952,0.329991 -0.07525,0.377693 0.0477,0.0477 0.01097,0.08673 -0.08161,0.08673 -0.09259,0 -0.130141,0.0618 -0.08346,0.137342 0.04669,0.07554 0.0091,0.137343 -0.08346,0.137343 -0.09259,0 -0.132213,0.03613 -0.08806,0.08028 0.04415,0.04415 -0.0039,0.183213 -0.106798,0.309021 -0.102893,0.125808 -0.466285,0.604916 -0.80754,1.064685 -0.531092,0.715534 -2.938956,3.131781 -3.215858,3.227054 -0.285225,0.09814 -1.947377,1.284798 -1.947377,1.390292 0,0.06891 -0.05245,0.09289 -0.116544,0.05327 -0.0641,-0.03961 -0.24831,0.05073 -0.409359,0.200772 -0.161049,0.150041 -0.340371,0.279879 -0.398492,0.288532 -0.261409,0.03891 -0.998402,0.453364 -0.998402,0.561454 0,0.06601 -0.0618,0.08181 -0.137343,0.03513 -0.07554,-0.04669 -0.137342,-0.01943 -0.137342,0.06057 0,0.08 -0.04635,0.130753 -0.103007,0.112793 -0.173709,-0.05507 -0.995734,0.332486 -0.995734,0.469452 0,0.07083 -0.06181,0.09059 -0.137343,0.0439 -0.07554,-0.04668 -0.137343,-0.02973 -0.137343,0.03768 0,0.06741 -0.07726,0.125262 -0.171678,0.128566 -0.09442,0.0033 -0.573405,0.189502 -1.064405,0.41377 -0.491,0.224267 -0.923629,0.406832 -0.961399,0.4057 -0.03777,-0.0011 -0.223181,0.08262 -0.412028,0.186112 -0.188846,0.103494 -0.464282,0.208204 -0.612079,0.232691 -0.147799,0.02449 -0.316813,0.120213 -0.37559,0.212729 -0.05878,0.09251 -0.107812,0.125186 -0.108969,0.0726 -0.0021,-0.09646 -1.373543,0.335664 -1.687135,0.531602 -0.093,0.05811 -0.251175,0.118082 -0.351496,0.133273 -0.100322,0.01519 -0.285735,0.07145 -0.412028,0.12503 -0.126294,0.05358 -0.353233,0.114989 -0.50431,0.136473 -0.151077,0.02149 -0.460098,0.116292 -0.686713,0.210681 -0.226616,0.09439 -0.458381,0.184521 -0.515035,0.200294 -0.05665,0.01577 -0.14936,0.04372 -0.206014,0.06211 -0.05665,0.01839 -0.147216,0.02683 -0.20125,0.01876 -0.05403,-0.0081 -0.270348,0.05475 -0.480699,0.139599 -0.210351,0.08485 -0.506065,0.171787 -0.657142,0.19319 -0.151077,0.0214 -1.016335,0.228918 -1.922796,0.461143 -0.906462,0.232226 -1.756269,0.422696 -1.888462,0.423264 -0.132192,5.5e-4 -0.240349,0.0609 -0.240349,0.134069 0,0.07317 -0.09349,0.09715 -0.207763,0.0533 -0.11427,-0.04385 -0.289917,-0.01154 -0.390329,0.07179 -0.100412,0.08333 -0.214214,0.119869 -0.252894,0.08119 -0.07069,-0.07069 -1.373862,0.158238 -1.758524,0.308915 -0.113308,0.04438 -0.308696,0.06824 -0.434197,0.05302 -0.1255,-0.01522 -0.26883,0.03809 -0.318511,0.118475 -0.04968,0.08038 -0.14595,0.111779 -0.213933,0.06976 -0.1538,-0.09506 -2.722654,0.323027 -3.050631,0.496491 -0.151647,0.0802 -0.24035,0.07759 -0.24035,-0.0071 0,-0.127506 -0.09688,-0.115823 -0.652377,0.07868 -0.132192,0.04629 -0.425762,0.102103 -0.652378,0.124037 -1.596003,0.154479 -2.014955,0.198211 -2.746852,0.286738 -0.453231,0.05482 -0.963115,0.104947 -1.133077,0.111392 -0.169961,0.0064 -0.309021,0.04262 -0.309021,0.08039 0,0.03777 -0.200863,0.07528 -0.446363,0.08336 -0.2455,0.0081 -0.940797,0.0557 -1.545105,0.105835 -2.48447,0.206105 -3.281851,0.247536 -3.9486,0.20516 -0.596768,-0.03793 -10.063591,0.17177 -10.348979,0.229238 -0.158747,0.03197 -0.32031,0.02644 -0.35903,-0.01228 z m -0.739913,-1.046232 c -0.0389,-0.06295 -0.484266,-0.104062 -0.989692,-0.09136 l -0.918957,0.02309 0.824056,0.07992 c 1.175697,0.114021 1.162347,0.114165 1.084593,-0.01165 z m 6.564151,0.05753 c -1.005343,-0.0235 -2.612251,-0.02343 -3.570908,1.37e-4 -0.958656,0.02358 -0.136103,0.0428 1.827897,0.04272 1.963999,-7.8e-5 2.748355,-0.01937 1.743011,-0.04287 z m 4.712092,-0.09042 c 0.151077,-0.02429 -0.142493,-0.05257 -0.652377,-0.06286 -0.509885,-0.01029 -0.927063,0.02809 -0.927063,0.08529 0,0.09561 0.927001,0.08245 1.57944,-0.02243 z M 42.46093,37.223182 c -0.04668,-0.07554 -0.374805,-0.127633 -0.729155,-0.115766 l -0.644271,0.02158 0.686713,0.09419 c 0.377692,0.0518 0.705812,0.103898 0.729155,0.115766 0.02334,0.01187 0.0042,-0.04023 -0.04244,-0.115766 z m 16.173983,-0.09668 c -0.168923,-0.0326 -0.477944,-0.03344 -0.686713,-0.0019 -0.208769,0.03157 -0.07056,0.05824 0.307132,0.05927 0.377693,9.62e-4 0.548504,-0.0248 0.379581,-0.0574 z m 1.628759,-0.150253 c -0.255105,-0.02627 -0.516163,0.0046 -0.580127,0.06854 -0.06397,0.06397 0.144757,0.08546 0.463828,0.04776 0.565846,-0.06685 0.568708,-0.06971 0.116299,-0.1163 z m -20.169289,0.0195 c -0.09298,-0.03762 -0.278397,-0.03991 -0.412027,-0.0051 -0.133631,0.03482 -0.05755,0.0656 0.169064,0.0684 0.226616,0.0028 0.335949,-0.02569 0.242963,-0.06331 z M 38.51233,36.853822 c -0.132193,-0.03454 -0.348507,-0.03454 -0.4807,0 -0.132192,0.03455 -0.02403,0.06281 0.24035,0.06281 0.264385,0 0.372542,-0.02826 0.24035,-0.06281 z m 23.485589,0 c -0.132192,-0.03454 -0.348507,-0.03454 -0.480699,0 -0.132192,0.03455 -0.02404,0.06281 0.240349,0.06281 0.264385,0 0.372542,-0.02826 0.24035,-0.06281 z M 37.210188,36.721065 c -0.09298,-0.03762 -0.278397,-0.03991 -0.412028,-0.0051 -0.13363,0.03482 -0.05755,0.0656 0.169065,0.0684 0.226615,0.0028 0.335948,-0.02569 0.242963,-0.06331 z m 26.232442,0 c -0.09298,-0.03762 -0.278397,-0.03991 -0.412028,-0.0051 -0.13363,0.03482 -0.05755,0.0656 0.169065,0.0684 0.226615,0.0028 0.335948,-0.02569 0.242963,-0.06331 z M 35.834148,36.582852 c -0.09442,-0.0381 -0.248933,-0.0381 -0.343356,0 -0.09442,0.0381 -0.01717,0.06927 0.171678,0.06927 0.188846,0 0.266101,-0.03117 0.171678,-0.06927 z m 28.70461,0 c -0.09442,-0.0381 -0.248934,-0.0381 -0.343357,0 -0.09442,0.0381 -0.01717,0.06927 0.171678,0.06927 0.188847,0 0.266102,-0.03117 0.171679,-0.06927 z M 34.735407,36.445509 c -0.09442,-0.0381 -0.248933,-0.0381 -0.343356,0 -0.09442,0.0381 -0.01717,0.06927 0.171678,0.06927 0.188846,0 0.266101,-0.03117 0.171678,-0.06927 z m 31.042048,8.24e-4 c -0.09298,-0.03762 -0.278398,-0.03991 -0.412028,-0.0051 -0.13363,0.03482 -0.05755,0.0656 0.169065,0.0684 0.226615,0.0028 0.335948,-0.02569 0.242963,-0.06331 z M 66.73624,36.30812 c -0.09442,-0.0381 -0.248934,-0.0381 -0.343357,0 -0.09442,0.0381 -0.01717,0.06927 0.171678,0.06927 0.188847,0 0.266102,-0.03117 0.171679,-0.06927 z m 0.961398,-0.137343 c -0.09442,-0.0381 -0.248933,-0.0381 -0.343356,0 -0.09442,0.0381 -0.01717,0.06927 0.171678,0.06927 0.188846,0 0.266101,-0.03117 0.171678,-0.06927 z M 31.77968,36.041416 c -0.04564,-0.04564 -0.164097,-0.05052 -0.263241,-0.01084 -0.109562,0.04384 -0.07702,0.07639 0.08298,0.08298 0.144781,0.006 0.2259,-0.0265 0.180261,-0.07214 z m 36.807824,0 c -0.04564,-0.04564 -0.164097,-0.05052 -0.26324,-0.01084 -0.109562,0.04384 -0.07702,0.07639 0.08298,0.08298 0.144781,0.006 0.2259,-0.0265 0.180262,-0.07214 z m 0.880029,-0.162558 c -0.09909,-0.03303 -0.245454,0.0052 -0.325263,0.08506 -0.101918,0.101918 -0.04829,0.119792 0.180153,0.06005 0.185715,-0.04857 0.247973,-0.110822 0.14511,-0.14511 z m 0.839615,-0.120108 c -0.09442,-0.0381 -0.248933,-0.0381 -0.343357,0 -0.09442,0.0381 -0.01717,0.06927 0.171679,0.06927 0.188846,0 0.266101,-0.03117 0.171678,-0.06927 z m 0.752524,-0.129362 c -0.04564,-0.04564 -0.164097,-0.05052 -0.263241,-0.01084 -0.109562,0.04384 -0.07702,0.07639 0.08298,0.08298 0.144782,0.006 0.2259,-0.0265 0.180263,-0.07214 z m 0.742685,-0.162557 c -0.09908,-0.03303 -0.245453,0.0052 -0.325263,0.08506 -0.101917,0.101918 -0.04829,0.119792 0.180154,0.06005 0.185715,-0.04857 0.247972,-0.110822 0.145109,-0.14511 z m 0.768084,-0.112128 c -0.04564,-0.04564 -0.164097,-0.05052 -0.263241,-0.01084 -0.109562,0.04384 -0.07702,0.07639 0.08298,0.08298 0.144781,0.006 0.2259,-0.0265 0.180263,-0.07213 z m 0.686713,-0.137343 c -0.04564,-0.04564 -0.164097,-0.05052 -0.263241,-0.01084 -0.109562,0.04384 -0.07702,0.07639 0.08298,0.08298 0.144781,0.006 0.225899,-0.0265 0.180262,-0.07214 z M 26.423317,35.080017 c -0.04564,-0.04564 -0.164096,-0.05052 -0.26324,-0.01084 -0.109562,0.04384 -0.07702,0.07639 0.08298,0.08298 0.144781,0.006 0.2259,-0.0265 0.180262,-0.07214 z m 47.52055,0 c -0.04564,-0.04564 -0.164097,-0.05052 -0.263241,-0.01084 -0.109562,0.04384 -0.07702,0.07639 0.08298,0.08298 0.144781,0.006 0.225899,-0.0265 0.180262,-0.07214 z m 0.686713,-0.137342 c -0.04564,-0.04564 -0.164097,-0.05052 -0.26324,-0.01084 -0.109563,0.04384 -0.07702,0.07639 0.08298,0.08298 0.144781,0.006 0.2259,-0.0265 0.180262,-0.07213 z m 0.549371,-0.137343 c -0.04564,-0.04564 -0.164097,-0.05052 -0.263241,-0.01084 -0.109562,0.04384 -0.07702,0.07639 0.08298,0.08298 0.144781,0.006 0.2259,-0.0265 0.180263,-0.07214 z M 75.70148,34.64015 c -0.04229,-0.04229 -0.153108,-8.8e-5 -0.246273,0.09378 -0.134631,0.135642 -0.118856,0.151417 0.07689,0.07688 0.13545,-0.05158 0.211675,-0.128372 0.169388,-0.170659 z M 23.95115,34.530647 c -0.04564,-0.04564 -0.164097,-0.05052 -0.26324,-0.01084 -0.109563,0.04384 -0.07702,0.07639 0.08298,0.08298 0.144781,0.006 0.2259,-0.0265 0.180262,-0.07213 z m 52.464884,0 c -0.04564,-0.04564 -0.164097,-0.05052 -0.26324,-0.01084 -0.109563,0.04384 -0.07702,0.07639 0.08298,0.08298 0.144781,0.006 0.2259,-0.0265 0.180262,-0.07213 z M 23.40178,34.393304 c -0.04564,-0.04564 -0.164097,-0.05052 -0.263241,-0.01084 -0.109562,0.04384 -0.07702,0.07639 0.08298,0.08298 0.144782,0.006 0.2259,-0.0265 0.180263,-0.07214 z m 53.563625,0 c -0.04564,-0.04564 -0.164097,-0.05052 -0.263241,-0.01084 -0.109562,0.04384 -0.07702,0.07639 0.08298,0.08298 0.144782,0.006 0.2259,-0.0265 0.180263,-0.07214 z M 22.303039,34.118619 c -0.04564,-0.04564 -0.164097,-0.05052 -0.263241,-0.01084 -0.109562,0.04384 -0.07702,0.07639 0.08298,0.08298 0.144782,0.006 0.2259,-0.0265 0.180263,-0.07214 z m 56.722505,-0.274685 c -0.04564,-0.04564 -0.164097,-0.05052 -0.26324,-0.01084 -0.109563,0.04384 -0.07702,0.07639 0.08298,0.08298 0.144781,0.006 0.2259,-0.0265 0.180262,-0.07214 z M 20.79227,33.706591 c -0.04564,-0.04564 -0.164097,-0.05052 -0.263241,-0.01084 -0.109562,0.04384 -0.07702,0.07639 0.08298,0.08298 0.144781,0.006 0.225899,-0.0265 0.180262,-0.07213 z m 59.194673,-0.137343 c -0.04564,-0.04564 -0.164097,-0.05052 -0.263241,-0.01084 -0.109562,0.04384 -0.07702,0.07639 0.08298,0.08298 0.144781,0.006 0.2259,-0.0265 0.180263,-0.07213 z M 16.29716,32.278847 c -0.113308,-0.07323 -0.267819,-0.133136 -0.343357,-0.133136 -0.07554,0 -0.04464,0.05991 0.06867,0.133136 0.113308,0.07323 0.267818,0.133136 0.343357,0.133136 0.07554,0 0.04464,-0.05991 -0.06867,-0.133136 z m -1.098742,-0.412028 c -0.113307,-0.07323 -0.267818,-0.133136 -0.343356,-0.133136 -0.07554,0 -0.04464,0.05991 0.06867,0.133136 0.113308,0.07323 0.267818,0.133136 0.343357,0.133136 0.07554,0 0.04464,-0.05991 -0.06867,-0.133136 z m -0.686713,-0.274685 c -0.113307,-0.07323 -0.267818,-0.133136 -0.343356,-0.133136 -0.07554,0 -0.04464,0.05991 0.06867,0.133136 0.113308,0.07323 0.267818,0.133136 0.343357,0.133136 0.07554,0 0.04464,-0.05991 -0.06867,-0.133136 z m 71.55551,-0.137343 c 0.113307,-0.07323 0.144209,-0.133135 0.06867,-0.133135 -0.07554,0 -0.230049,0.05991 -0.343357,0.133135 -0.113307,0.07323 -0.144209,0.133136 -0.06867,0.133136 0.07554,0 0.230049,-0.05991 0.343357,-0.133136 z M 13.68765,31.248777 c -0.188847,-0.107954 -0.405161,-0.19628 -0.4807,-0.19628 -0.07554,0 0.01717,0.08833 0.206014,0.19628 0.188846,0.107954 0.405161,0.196281 0.4807,0.196281 0.07554,0 -0.01717,-0.08833 -0.206014,-0.196281 z m 73.340963,-0.206013 c 0.113308,-0.07323 0.14421,-0.133136 0.06867,-0.133136 -0.07554,0 -0.230049,0.05991 -0.343356,0.133136 -0.113308,0.07323 -0.14421,0.133135 -0.06867,0.133135 0.07554,0 0.230049,-0.05991 0.343356,-0.133135 z m -74.71439,-0.412028 c -0.264384,-0.144744 -0.542503,-0.263172 -0.618042,-0.263172 -0.07554,0 0.07897,0.118428 0.343357,0.263172 0.264385,0.144744 0.542503,0.263171 0.618042,0.263171 0.07554,0 -0.07897,-0.118427 -0.343357,-0.263171 z m -1.098741,-0.477909 c 0,-0.03623 -0.247216,-0.191999 -0.54937,-0.346147 -0.302154,-0.154148 -0.549371,-0.249586 -0.549371,-0.212086 0,0.0375 0.231766,0.190534 0.515035,0.340077 0.582743,0.307642 0.583706,0.308002 0.583706,0.218156 z m 78.078312,-0.207232 c 0.04812,-0.07785 -0.007,-0.100878 -0.129237,-0.05398 -0.237935,0.0913 -0.281468,0.189747 -0.08391,0.189747 0.07108,0 0.166997,-0.0611 0.213147,-0.13577 z M 8.3312871,28.506757 c 0,-0.03511 -0.1390594,-0.131227 -0.3090209,-0.21359 -0.2967461,-0.143803 -0.2984312,-0.141268 -0.042421,0.06384 0.280215,0.224499 0.351442,0.254849 0.351442,0.149752 z m -1.7854542,-1.2241 c 0,-0.02852 -0.1081573,-0.136676 -0.2403496,-0.240349 -0.2178331,-0.170837 -0.2226909,-0.165979 -0.051854,0.05186 0.1794202,0.228778 0.292204,0.301533 0.292204,0.188494 z m -0.5493705,-0.40097 c 0,-0.02244 -0.2626678,-0.285107 -0.5837062,-0.583706 L 4.82905,25.755072 5.3719583,26.338778 c 0.5048993,0.542842 0.6245041,0.64682 0.6245041,0.542909 z M 4.6230361,25.50733 c 0,-0.02295 -0.2317657,-0.254717 -0.5150349,-0.515035 L 3.5929664,24.518989 4.066272,25.034024 c 0.4405426,0.479383 0.5567641,0.578183 0.5567641,0.473306 z M 97.972501,21.128343 c -0.04384,-0.109563 -0.07639,-0.07702 -0.08298,0.08298 -0.006,0.144781 0.0265,0.2259 0.07214,0.180262 0.04564,-0.04564 0.05052,-0.164097 0.01084,-0.26324 z m 0.180865,-0.660962 c 0,-0.26997 -0.08075,-0.274128 -4.703985,-0.242239 l -4.703985,0.03245 4.635314,0.03805 c 3.993221,0.03278 4.635313,0.06633 4.635313,0.242238 0,0.112304 0.0309,0.204187 0.06867,0.204187 0.03777,0 0.06867,-0.123608 0.06867,-0.274685 z m -43.503278,-0.240285 -4.566642,-0.0381 V 19.778817 19.36864 h 24.03496 c 22.803008,0 24.034404,-0.01232 24.024117,-0.240349 -0.0065,-0.143584 -0.03873,-0.171231 -0.08012,-0.06867 -0.05505,0.136424 -5.002484,0.171678 -24.092788,0.171678 H 49.946103 v 0.549371 0.54937 l 4.635314,-0.03242 4.635314,-0.03242 z M 97.972501,18.38149 c -0.04384,-0.109562 -0.07639,-0.07702 -0.08298,0.08298 -0.006,0.144781 0.0265,0.2259 0.07214,0.180262 0.04564,-0.04564 0.05052,-0.164097 0.01084,-0.26324 z M 2.7549709,16.656123 c 0.1248542,-0.2455 0.1961055,-0.446363 0.1583363,-0.446363 -0.079107,0 -0.4877531,0.761402 -0.4877531,0.908797 0,0.143402 0.074477,0.03885 0.3294168,-0.462434 z M 96.367912,15.066288 c 0,-0.0246 -0.169962,-0.194563 -0.377692,-0.377692 l -0.377693,-0.332962 0.332961,0.377692 c 0.311204,0.353011 0.422424,0.440677 0.422424,0.332962 z M 95.543856,14.10489 c 0,-0.0246 -0.169962,-0.194564 -0.377692,-0.377693 l -0.377692,-0.332961 0.332961,0.377692 c 0.311203,0.35301 0.422423,0.440676 0.422423,0.332962 z m -0.961398,-0.824056 c 0,-0.0246 -0.169962,-0.194563 -0.377693,-0.377692 l -0.377692,-0.332962 0.332961,0.377692 c 0.311204,0.35301 0.422424,0.440676 0.422424,0.332962 z m -0.961399,-0.83118 c 0,-0.02852 -0.108157,-0.136677 -0.240349,-0.240349 -0.217834,-0.170837 -0.222692,-0.165979 -0.05185,0.05185 0.17942,0.228778 0.292204,0.301533 0.292204,0.188495 z M 92.11029,11.338929 c 0,-0.03511 -0.139059,-0.131228 -0.309021,-0.213591 -0.296746,-0.143803 -0.29843,-0.141267 -0.04242,0.06384 0.280215,0.224499 0.351442,0.254849 0.351442,0.149752 z M 10.528769,9.8162735 c 0,-0.037769 -0.185412,0.027209 -0.412028,0.1443966 -0.2266151,0.1171869 -0.4120277,0.2439699 -0.4120277,0.2817389 0,0.03777 0.1854126,-0.02721 0.4120277,-0.144396 0.226616,-0.1171876 0.412028,-0.2439703 0.412028,-0.2817395 z M 89.226095,9.6908171 c 0,-0.035112 -0.139059,-0.1312273 -0.309021,-0.2135906 -0.296746,-0.1438032 -0.29843,-0.1412673 -0.04242,0.063839 0.280215,0.2244986 0.351442,0.2548489 0.351441,0.1497516 z M 12.451566,8.9306004 c 0.113308,-0.073225 0.14421,-0.1331364 0.06867,-0.1331364 -0.07554,0 -0.230049,0.059911 -0.343356,0.1331364 -0.113308,0.073225 -0.14421,0.1331363 -0.06867,0.1331363 0.07554,0 0.230049,-0.059911 0.343356,-0.1331363 z M 81.534908,6.5352099 c 0,-0.033311 -0.0618,-0.098763 -0.137343,-0.1454482 -0.07554,-0.046685 -0.137342,-0.019431 -0.137342,0.060566 0,0.079996 0.0618,0.1454482 0.137342,0.1454482 0.07554,0 0.137343,-0.027255 0.137343,-0.060566 z M 21.478983,5.688742 c -0.04564,-0.045638 -0.164097,-0.050517 -0.263241,-0.010843 -0.109562,0.043843 -0.07702,0.076388 0.08298,0.082978 0.144781,0.00596 0.225899,-0.026497 0.180261,-0.072135 z m 0.54937,-0.1373426 c -0.04564,-0.045638 -0.164097,-0.050517 -0.26324,-0.010843 -0.109562,0.043843 -0.07702,0.076388 0.08298,0.082978 0.144781,0.00596 0.2259,-0.026497 0.180262,-0.072135 z m 56.210332,0.022412 c 0,-0.033311 -0.0618,-0.098763 -0.137343,-0.1454482 C 78.025804,5.381678 77.964,5.4089326 77.964,5.4889291 c 0,0.079996 0.0618,0.1454482 0.137342,0.1454482 0.07554,0 0.137343,-0.027255 0.137343,-0.060566 z M 77.78946,5.4140568 c -0.04564,-0.045638 -0.164097,-0.050517 -0.26324,-0.010843 -0.109562,0.043843 -0.07702,0.076388 0.08298,0.082978 0.144781,0.00596 0.2259,-0.026497 0.180262,-0.072135 z M 76.690719,5.1393715 c -0.04564,-0.045638 -0.164097,-0.050517 -0.26324,-0.010843 -0.109562,0.043843 -0.07702,0.076388 0.08298,0.082978 0.144781,0.00596 0.2259,-0.026497 0.180262,-0.072135 z m -0.54937,-0.1373426 c -0.04564,-0.045638 -0.164097,-0.050517 -0.263241,-0.010843 -0.109562,0.043843 -0.07702,0.076388 0.08298,0.082978 0.144781,0.00596 0.225899,-0.026497 0.180262,-0.072135 z M 24.775206,4.8646863 c -0.04564,-0.045638 -0.164097,-0.050517 -0.263241,-0.010843 -0.109562,0.043843 -0.07702,0.076388 0.08298,0.082978 0.144781,0.00596 0.2259,-0.026497 0.180261,-0.072135 z m 0.54937,-0.1373427 c -0.04564,-0.045638 -0.164097,-0.050517 -0.26324,-0.010843 -0.109562,0.043843 -0.07702,0.076388 0.08298,0.082978 0.144781,0.00596 0.2259,-0.026497 0.180262,-0.072135 z m 49.580689,0 c -0.04564,-0.045638 -0.164097,-0.050517 -0.26324,-0.010843 -0.109563,0.043843 -0.07702,0.076388 0.08298,0.082978 0.144781,0.00596 0.2259,-0.026497 0.180262,-0.072135 z M 26.01129,4.590001 C 25.96565,4.544363 25.847193,4.539484 25.748049,4.579158 c -0.109562,0.043843 -0.07702,0.076388 0.08298,0.082978 0.144782,0.00596 0.2259,-0.026497 0.180263,-0.072135 z m 48.244459,0.029001 c 0,-0.029687 -0.09592,-0.090784 -0.213148,-0.1357695 -0.122224,-0.046902 -0.177353,-0.023877 -0.129237,0.053977 0.08066,0.1305035 0.342385,0.1930279 0.342385,0.081792 z M 26.698003,4.4526584 c -0.04564,-0.045638 -0.164097,-0.050517 -0.263241,-0.010843 -0.109562,0.043843 -0.07702,0.076388 0.08298,0.082978 0.144781,0.00596 0.225899,-0.026497 0.180261,-0.072135 z m 46.971179,0 c -0.04564,-0.045638 -0.164097,-0.050517 -0.263241,-0.010843 -0.109562,0.043843 -0.07702,0.076388 0.08298,0.082978 0.144782,0.00596 0.2259,-0.026497 0.180263,-0.072135 z M 27.384716,4.3153157 c -0.04564,-0.045638 -0.164097,-0.050517 -0.263241,-0.010843 -0.109562,0.043843 -0.07702,0.076388 0.08298,0.082978 0.144781,0.00596 0.225899,-0.026497 0.180261,-0.072135 z m 45.597752,0 c -0.04564,-0.045638 -0.164097,-0.050517 -0.26324,-0.010843 -0.109562,0.043843 -0.07702,0.076388 0.08298,0.082978 0.144781,0.00596 0.2259,-0.026497 0.180262,-0.072135 z M 28.071429,4.1779731 c -0.04564,-0.045638 -0.164097,-0.050517 -0.26324,-0.010843 -0.109563,0.043843 -0.07702,0.076388 0.08298,0.082978 0.144781,0.00596 0.2259,-0.026497 0.180262,-0.072135 z m 44.224326,0 c -0.04564,-0.045638 -0.164097,-0.050517 -0.26324,-0.010843 -0.109563,0.043843 -0.07702,0.076388 0.08298,0.082978 0.144781,0.00596 0.2259,-0.026497 0.180262,-0.072135 z M 28.758142,4.0406305 c -0.04564,-0.045638 -0.164097,-0.050517 -0.26324,-0.010843 -0.109563,0.043843 -0.07702,0.076388 0.08298,0.082978 0.144781,0.00596 0.2259,-0.026497 0.180262,-0.072135 z m 42.8509,0 c -0.04564,-0.045638 -0.164097,-0.050517 -0.26324,-0.010843 -0.109563,0.043843 -0.07702,0.076388 0.08298,0.082978 0.144781,0.00596 0.2259,-0.026497 0.180262,-0.072135 z M 29.516387,3.8953063 c -0.09442,-0.038101 -0.248933,-0.038101 -0.343356,0 -0.09442,0.038101 -0.01717,0.069274 0.171678,0.069274 0.188846,0 0.266102,-0.031173 0.171678,-0.069274 z m 41.305796,0.038307 c 0,-0.028959 -0.123694,-0.084999 -0.274875,-0.1245342 -0.151181,-0.039535 -0.24024,-0.015841 -0.197908,0.052653 0.07393,0.1196128 0.472783,0.1802548 0.472783,0.071881 z M 30.340443,3.7579637 c -0.09442,-0.038101 -0.248933,-0.038101 -0.343356,0 -0.09442,0.038101 -0.01717,0.069274 0.171678,0.069274 0.188846,0 0.266101,-0.031173 0.171678,-0.069274 z m 39.620488,0.00798 c -0.04564,-0.045638 -0.164097,-0.050517 -0.263241,-0.010843 -0.109562,0.043843 -0.07702,0.076388 0.08298,0.082978 0.144782,0.00596 0.2259,-0.026497 0.180263,-0.072135 z M 31.164499,3.6206211 c -0.09442,-0.038101 -0.248934,-0.038101 -0.343357,0 -0.09442,0.038101 -0.01717,0.069274 0.171679,0.069274 0.188846,0 0.266101,-0.031173 0.171678,-0.069274 z m 37.972376,0.00798 c -0.04564,-0.045638 -0.164097,-0.050517 -0.263241,-0.010843 -0.109562,0.043843 -0.07702,0.076388 0.08298,0.082978 0.144781,0.00596 0.225899,-0.026497 0.180262,-0.072135 z M 32.128511,3.4841492 c -0.09299,-0.037621 -0.278398,-0.039911 -0.412028,-0.00509 -0.13363,0.034822 -0.05755,0.065603 0.169065,0.068402 0.226615,0.0028 0.335948,-0.025692 0.242963,-0.063313 z m 36.221505,0.037436 c 0,-0.028959 -0.123609,-0.084977 -0.274686,-0.1244846 -0.151077,-0.039507 -0.274685,-0.015814 -0.274685,0.052653 0,0.068467 0.123608,0.1244847 0.274685,0.1244847 0.151077,0 0.274686,-0.023694 0.274686,-0.052653 z M 33.10937,3.3193927 c 0.03994,-0.064626 -0.08002,-0.088323 -0.26658,-0.05266 -0.186561,0.035663 -0.3392,0.088539 -0.3392,0.1175025 0,0.1062689 0.535449,0.048955 0.60578,-0.064843 z m 34.17624,0.026543 c -0.09442,-0.038101 -0.248933,-0.038101 -0.343356,0 -0.09442,0.038101 -0.01717,0.069274 0.171678,0.069274 0.188846,0 0.266101,-0.031173 0.171678,-0.069274 z M 34.051308,3.2094645 c -0.09298,-0.037621 -0.278398,-0.039911 -0.412028,-0.00509 -0.13363,0.034822 -0.05755,0.065603 0.169065,0.068402 0.226615,0.0028 0.335948,-0.025692 0.242963,-0.063313 z m 32.375911,0.037428 c 0,-0.028963 -0.15264,-0.081839 -0.339201,-0.1175026 -0.186559,-0.035663 -0.306521,-0.011967 -0.266579,0.05266 0.07033,0.113797 0.60578,0.171111 0.60578,0.064843 z M 35.150049,3.0721219 c -0.09299,-0.037621 -0.278398,-0.039911 -0.412028,-0.00509 -0.13363,0.034822 -0.05755,0.065604 0.169065,0.068402 0.226615,0.0028 0.335948,-0.025692 0.242963,-0.063313 z m 30.075422,-8.713e-4 c -0.09442,-0.038101 -0.248934,-0.038101 -0.343357,0 -0.09442,0.038101 -0.01717,0.069274 0.171679,0.069274 0.188846,0 0.266101,-0.031173 0.171678,-0.069274 z M 36.314848,2.9301935 c -0.132193,-0.034545 -0.348507,-0.034545 -0.4807,0 -0.132192,0.034545 -0.02403,0.06281 0.24035,0.06281 0.264385,0 0.372542,-0.028264 0.24035,-0.06281 z m 27.814495,0.00459 c -0.09298,-0.037621 -0.278397,-0.039911 -0.412027,-0.00509 -0.133631,0.034822 -0.05755,0.065603 0.169064,0.068402 0.226616,0.0028 0.335948,-0.025692 0.242963,-0.063313 z M 37.775922,2.7750334 c 0.03824,-0.06187 -0.112625,-0.085758 -0.335251,-0.053083 -0.222627,0.032675 -0.404775,0.083296 -0.404775,0.1124913 0,0.1046525 0.671971,0.050708 0.740026,-0.059408 z m 25.217731,0.058846 c 0,-0.029505 -0.211979,-0.078393 -0.471065,-0.1086394 -0.259085,-0.030247 -0.440851,-0.00611 -0.403923,0.053645 0.06646,0.1075385 0.874988,0.1583554 0.874988,0.054994 z M 39.200644,2.6558167 c -0.131312,-0.034376 -0.378528,-0.035623 -0.54937,-0.00277 -0.170842,0.032851 -0.06341,0.060977 0.238748,0.062502 0.302154,0.00152 0.441934,-0.025354 0.310622,-0.05973 z m 22.270795,0.045422 c -0.152145,-0.1301238 -0.955796,-0.2089645 -0.880003,-0.086331 0.04598,0.074401 0.27567,0.1352745 0.510416,0.1352745 0.234747,0 0.401061,-0.022025 0.369587,-0.048943 z M 41.214246,2.4926489 c 0.06841,-0.1106972 -1.153241,-0.044226 -1.28271,0.069793 -0.03147,0.027719 0.227547,0.050397 0.575602,0.050397 0.348054,0 0.666253,-0.054086 0.707108,-0.12019 z m 18.51752,0.023263 c -0.169962,-0.032736 -0.448081,-0.032736 -0.618042,0 -0.169962,0.032736 -0.0309,0.05952 0.309021,0.05952 0.339923,0 0.478982,-0.026784 0.309021,-0.05952 z M 43.546937,2.3587599 c 0.03968,-0.064205 -0.250243,-0.090209 -0.644273,-0.057786 -1.027822,0.084575 -1.113023,0.1511456 -0.20949,0.1636797 0.429888,0.00596 0.814082,-0.041689 0.853763,-0.1058937 z m 14.365039,0.0394 c -0.490037,-0.1081665 -1.373426,-0.1270116 -1.373426,-0.0293 0,0.05865 0.355374,0.099467 0.78972,0.090705 0.434346,-0.00876 0.697014,-0.036395 0.583706,-0.061405 z M 47.199251,2.2276761 c 0,-0.1029363 -2.374829,-0.067352 -2.678181,0.04013 -0.07554,0.026764 0.49615,0.053542 1.270419,0.059505 0.774269,0.00596 1.407762,-0.038872 1.407762,-0.099635 z m 8.034544,0.039547 c -0.290936,-0.1043166 -2.665623,-0.1433776 -2.504748,-0.0412 0.09346,0.059359 0.726161,0.1039919 1.406007,0.099185 0.679846,-0.00481 1.174279,-0.0309 1.098741,-0.057985 z"
       id="path22"
       inkscape:connector-curvature="0"
       transform="matrix(0.26458333,0,0,0.26458333,0,286.41665)" />
  </g>
</svg>
