<?xml version="1.0" encoding="UTF-8" standalone="no"?>
<!-- Created with Inkscape (http://www.inkscape.org/) -->

<svg
   xmlns:dc="http://purl.org/dc/elements/1.1/"
   xmlns:cc="http://creativecommons.org/ns#"
   xmlns:rdf="http://www.w3.org/1999/02/22-rdf-syntax-ns#"
   xmlns:svg="http://www.w3.org/2000/svg"
   xmlns="http://www.w3.org/2000/svg"
   xmlns:sodipodi="http://sodipodi.sourceforge.net/DTD/sodipodi-0.dtd"
   xmlns:inkscape="http://www.inkscape.org/namespaces/inkscape"
   width="200"
   height="30"
   viewBox="0 0 52.916665 7.9375002"
   version="1.1"
   id="svg43"
   inkscape:version="0.92.3 (2405546, 2018-03-11)"
   sodipodi:docname="Hp progress bar.svg">
  <defs
     id="defs37" />
  <sodipodi:namedview
     id="base"
     pagecolor="#ffffff"
     bordercolor="#666666"
     borderopacity="1.0"
     inkscape:pageopacity="0.0"
     inkscape:pageshadow="2"
     inkscape:zoom="3.959798"
     inkscape:cx="84.095618"
     inkscape:cy="28.269932"
     inkscape:document-units="mm"
     inkscape:current-layer="layer1"
     showgrid="false"
     units="px"
     inkscape:window-width="1920"
     inkscape:window-height="1016"
     inkscape:window-x="1920"
     inkscape:window-y="27"
     inkscape:window-maximized="1" />
  <metadata
     id="metadata40">
    <rdf:RDF>
      <cc:Work
         rdf:about="">
        <dc:format>image/svg+xml</dc:format>
        <dc:type
           rdf:resource="http://purl.org/dc/dcmitype/StillImage" />
        <dc:title></dc:title>
      </cc:Work>
    </rdf:RDF>
  </metadata>
  <g
     inkscape:label="Layer 1"
     inkscape:groupmode="layer"
     id="layer1"
     transform="translate(0,-289.06249)">
    <path
       style="fill:none;stroke:#000000;stroke-width:0.26458332px;stroke-linecap:butt;stroke-linejoin:miter;stroke-opacity:1"
       d="m 0,290.91961 1.7372519,-1.87089 H 51.315749 l 1.469983,1.33635 0.06682,5.47902 -1.135896,1.00227 -50.78121067,0.0668 -0.80180857,-0.93544 z"
       id="path47"
       inkscape:connector-curvature="0" />
    <path
       style="fill:#800000;stroke:#999999;stroke-width:0.25253814"
       d="M 2.5133668,27.597633 1.2129888,26.027427 1.065393,22.856479 C 0.9842154,21.112457 0.84729412,16.901297 0.76112356,13.498346 L 0.60444981,7.3111613 3.6954463,3.965031 6.7864429,0.61890065 l 93.4679871,0.001286 93.46799,0.001286 2.5531,2.29014015 2.5531,2.2901399 0.18442,10.0567853 0.18442,10.056786 -1.09602,0.999197 c -0.60281,0.549561 -1.49377,1.340412 -1.9799,1.757448 l -0.88389,0.758249 -95.711951,0.168809 -95.7119543,0.168809 z"
       id="path49"
       inkscape:connector-curvature="0"
       transform="matrix(0.26458333,0,0,0.26458333,0,289.06249)" />
  </g>
</svg>
