<?xml version="1.0" encoding="UTF-8" standalone="no"?>
<!-- Created with Inkscape (http://www.inkscape.org/) -->

<svg
   xmlns:dc="http://purl.org/dc/elements/1.1/"
   xmlns:cc="http://creativecommons.org/ns#"
   xmlns:rdf="http://www.w3.org/1999/02/22-rdf-syntax-ns#"
   xmlns:svg="http://www.w3.org/2000/svg"
   xmlns="http://www.w3.org/2000/svg"
   xmlns:sodipodi="http://sodipodi.sourceforge.net/DTD/sodipodi-0.dtd"
   xmlns:inkscape="http://www.inkscape.org/namespaces/inkscape"
   width="100"
   height="100"
   viewBox="0 0 26.458333 26.458334"
   version="1.1"
   id="svg76"
   inkscape:version="0.92.3 (2405546, 2018-03-11)"
   sodipodi:docname="Crab body.svg">
  <defs
     id="defs70" />
  <sodipodi:namedview
     id="base"
     pagecolor="#ffffff"
     bordercolor="#666666"
     borderopacity="1.0"
     inkscape:pageopacity="0.0"
     inkscape:pageshadow="2"
     inkscape:zoom="5.4349057"
     inkscape:cx="48.571429"
     inkscape:cy="44.285714"
     inkscape:document-units="mm"
     inkscape:current-layer="layer1"
     showgrid="false"
     units="px"
     inkscape:window-width="1920"
     inkscape:window-height="1016"
     inkscape:window-x="1920"
     inkscape:window-y="27"
     inkscape:window-maximized="1" />
  <metadata
     id="metadata73">
    <rdf:RDF>
      <cc:Work
         rdf:about="">
        <dc:format>image/svg+xml</dc:format>
        <dc:type
           rdf:resource="http://purl.org/dc/dcmitype/StillImage" />
        <dc:title></dc:title>
      </cc:Work>
    </rdf:RDF>
  </metadata>
  <g
     inkscape:label="Layer 1"
     inkscape:groupmode="layer"
     id="layer1"
     transform="translate(0,-270.54165)">
    <path
       style="fill:none;stroke:#000000;stroke-width:0.26458332px;stroke-linecap:butt;stroke-linejoin:miter;stroke-opacity:1"
       d="m 8.860166,282.73609 c 0.024879,0.29386 -0.1849025,-0.01 -0.2434111,0.0487 -0.011475,0.0115 0.011475,0.0372 0,0.0487 -0.02295,0.0229 -0.068336,-0.0145 -0.097365,0 -0.020526,0.0103 -0.028156,0.0384 -0.048682,0.0487 -0.029028,0.0145 -0.068336,-0.0145 -0.097365,0 -0.020526,0.0103 -0.028156,0.0384 -0.048682,0.0487 -0.014515,0.007 -0.037208,-0.0115 -0.048682,0 -0.02295,0.023 0.02295,0.0744 0,0.0974 -0.011475,0.0115 -0.034168,-0.007 -0.048682,0 -0.020526,0.0103 -0.028156,0.0384 -0.048682,0.0487 -0.014515,0.007 -0.037208,-0.0115 -0.048682,0 -0.011475,0.0115 0.00726,0.0342 0,0.0487 -0.020526,0.0411 -0.071905,0.0592 -0.097364,0.0974 -0.020127,0.0302 -0.028555,0.0672 -0.048682,0.0974 -0.012729,0.0191 -0.038419,0.0281 -0.048682,0.0487 -0.014515,0.029 0.02295,0.0744 0,0.0974 -0.011475,0.0115 -0.037208,-0.0115 -0.048682,0 -0.032732,0.0327 0.032732,0.0646 0,0.0974 -0.011475,0.0115 -0.037208,-0.0115 -0.048682,0 -0.00196,0.002 0,0.17685 0,0.19473 0,0.0162 0.016227,0.0487 0,0.0487 -0.016227,0 0,-0.0649 0,-0.0487 0,0.0324 0,0.0649 0,0.0974 0,0.0162 -0.00726,0.0342 0,0.0487 0.010263,0.0205 0.038419,0.0282 0.048682,0.0487 0.00726,0.0145 -0.011475,0.0372 0,0.0487 0.011475,0.0115 0.037208,-0.0115 0.048682,0 0.011475,0.0115 -0.00726,0.0342 0,0.0487 0.010263,0.0205 0.038419,0.0282 0.048682,0.0487 0.00726,0.0145 -0.011475,0.0372 0,0.0487 0.011475,0.0115 0.037208,-0.0115 0.048682,0 0.011475,0.0115 -0.011475,0.0372 0,0.0487 0.011475,0.0115 0.037208,-0.0115 0.048682,0 0.1007253,0.10072 -0.1539213,-0.004 0.048682,0.0974 0.014515,0.007 0.037208,-0.0115 0.048682,0 0.011475,0.0115 -0.00726,0.0342 0,0.0487 0.010263,0.0205 0.038419,0.0282 0.048682,0.0487 0.00726,0.0145 -0.011475,0.0372 0,0.0487 0.00995,0.01 0.1267446,-0.01 0.1460465,0 0.020526,0.0103 0.028156,0.0384 0.048682,0.0487 0.014515,0.007 0.037208,-0.0115 0.048682,0 0.011475,0.0115 -0.011475,0.0372 0,0.0487 0.011475,0.0115 0.033288,-0.005 0.048682,0 0.034424,0.0115 0.062941,0.0372 0.097365,0.0487 0.030789,0.0103 0.074415,-0.0229 0.097364,0 0.011475,0.0115 -0.011475,0.0372 0,0.0487 0.02295,0.0229 0.074415,-0.023 0.097364,0 0.011475,0.0115 -0.011475,0.0372 0,0.0487 0.011475,0.0115 0.032455,0 0.048682,0 0.016227,0 0.032455,0 0.048682,0 0.2758659,0 0.016227,-0.0325 0.097364,0.0487 0.02295,0.023 0.068336,-0.0145 0.097365,0 0.020526,0.0103 0.028156,0.0384 0.048682,0.0487 0.014515,0.007 0.032455,0 0.048682,0 0.016227,0 0.064909,0 0.048682,0 -0.032455,0 -0.1298192,0 -0.097364,0 0.3452897,0 0.028517,-0.0344 0.1947288,0.0487 0.019301,0.01 0.1360943,-0.01 0.1460468,0 0.011475,0.0115 0,0.0324 0,0.0487 0.032455,0.0162 0.062941,0.0372 0.097364,0.0487 0.015394,0.005 0.032455,0 0.048682,0 0.045851,0 0.2157177,-0.009 0.2434111,0 0.021773,0.007 0.028156,0.0384 0.048682,0.0487 0.014515,0.007 0.032455,0 0.048682,0 0.06491,0 0.1298199,0 0.1947289,0 0.03246,0 0.06491,0 0.09736,0 0.01623,0 0.03417,-0.007 0.04868,0 0.02053,0.0103 0.02691,0.0414 0.04868,0.0487 0.03079,0.0103 0.06491,0 0.09736,0 0.04868,0 0.09882,-0.0118 0.146047,0 0.02226,0.006 0.02691,0.0414 0.04868,0.0487 0.03079,0.0103 0.06491,0 0.09736,0 0.113592,0 0.227184,0 0.340776,0 0.03245,0 0.06491,0 0.09736,0 0.03245,0 0.06588,-0.008 0.09736,0 0.0352,0.009 0.06294,0.0372 0.09736,0.0487 0.0154,0.005 0.03246,0 0.04868,0 0.08114,0 0.162274,0 0.243411,0 0.227184,0 0.454368,0 0.681552,0 0.162274,0 0.324548,0 0.486822,0 0.06491,0 0.129819,0 0.194729,0 0.03245,0 0.06588,0.008 0.09736,0 0.0352,-0.009 0.06178,-0.0416 0.09736,-0.0487 0.111321,-0.0223 0.278509,0.0185 0.389458,0 0.03579,-0.006 0.06216,-0.0399 0.09736,-0.0487 0.03149,-0.008 0.06491,0 0.09736,0 0.05204,0 0.288057,0.0105 0.340776,0 0.05032,-0.0101 0.09573,-0.0386 0.146047,-0.0487 0.0549,-0.011 0.179701,0 0.243411,0 0.01623,0 0.03294,0.004 0.04868,0 0.04978,-0.0124 0.09543,-0.0402 0.146047,-0.0487 0.08003,-0.0133 0.164696,0.0197 0.243411,0 0.0352,-0.009 0.06216,-0.0399 0.09736,-0.0487 0.07636,-0.0191 0.167046,0.0191 0.243411,0 0.0352,-0.009 0.06216,-0.0399 0.09736,-0.0487 0.03149,-0.008 0.06491,0 0.09736,0 0.03245,-0.0162 0.06294,-0.0372 0.09736,-0.0487 0.03079,-0.0103 0.06588,0.008 0.09736,0 0.04978,-0.0124 0.09626,-0.0362 0.146047,-0.0487 0.03149,-0.008 0.06834,0.0145 0.09736,0 0.02053,-0.0103 0.02816,-0.0384 0.04868,-0.0487 0.03895,-0.0195 0.107101,0.0195 0.146047,0 0.02053,-0.0103 0.02816,-0.0384 0.04868,-0.0487 0.01452,-0.007 0.03417,0.007 0.04868,0 0.02053,-0.0103 0.02816,-0.0384 0.04868,-0.0487 0.01451,-0.007 0.03721,0.0115 0.04868,0 0.01148,-0.0115 -0.01148,-0.0372 0,-0.0487 0.01148,-0.0115 0.04868,-0.0162 0.04868,0 0,0.0162 -0.06491,0 -0.04868,0 0.03245,0 0.06834,0.0145 0.09736,0 0.01451,-0.007 0,-0.0324 0,-0.0487 0,-0.11417 -0.01148,0.0229 0.04868,-0.0974 0.01451,-0.029 -0.01026,-0.0666 0,-0.0974 0.01148,-0.0344 0.03721,-0.0629 0.04868,-0.0974 0.01026,-0.0308 0,-0.0649 0,-0.0974 0,-0.0651 0,-0.0322 0,-0.0974 0,-0.0162 -0.01623,-0.0487 0,-0.0487 0.01623,0 0,0.0649 0,0.0487 0,-0.0325 0.01026,-0.0666 0,-0.0974 -0.0073,-0.0218 -0.03842,-0.0281 -0.04868,-0.0487 -0.0073,-0.0145 0.0073,-0.0342 0,-0.0487 -0.01026,-0.0205 -0.03842,-0.0282 -0.04868,-0.0487 -0.0073,-0.0145 0.01148,-0.0372 0,-0.0487 -0.01148,-0.0115 -0.03721,0.0115 -0.04868,0 -0.01148,-0.0115 0.0073,-0.0342 0,-0.0487 -0.101302,-0.2026 0.0034,0.0521 -0.09736,-0.0487 -0.01148,-0.0115 0.0073,-0.0342 0,-0.0487 -0.01026,-0.0205 -0.03245,-0.0325 -0.04868,-0.0487 -0.01623,-0.0162 -0.02691,-0.0414 -0.04868,-0.0487 -0.03079,-0.0103 -0.06834,0.0145 -0.09736,0 -0.01451,-0.007 0.0073,-0.0342 0,-0.0487 -0.01026,-0.0205 -0.03245,-0.0324 -0.04868,-0.0487 -0.01623,-0.0162 -0.02816,-0.0384 -0.04868,-0.0487 -0.119902,-0.06 0.04395,0.14131 -0.146047,-0.0487 -0.01148,-0.0115 0.01451,-0.0414 0,-0.0487 -0.02903,-0.0145 -0.06658,0.0103 -0.09736,0 -0.02177,-0.007 -0.03245,-0.0325 -0.04868,-0.0487 -0.01623,-0.0162 -0.03245,-0.0325 -0.04868,-0.0487 -0.11162,-0.11162 0.03079,0.0205 -0.146046,-0.0974 -0.03819,-0.0255 -0.05631,-0.0768 -0.09736,-0.0974 -0.02903,-0.0145 -0.06834,0.0145 -0.09736,0 -0.02053,-0.0103 -0.03246,-0.0325 -0.04868,-0.0487 -0.03245,0 -0.06658,0.0103 -0.09736,0 -0.07937,-0.0265 -0.01799,-0.0709 -0.09736,-0.0974 -0.221616,0 -0.0028,0.023 -0.146047,-0.0487 -0.02903,-0.0145 -0.06658,0.0103 -0.09736,0 -0.03442,-0.0115 -0.06216,-0.0399 -0.09736,-0.0487 -0.06401,-0.016 -0.18295,0.0202 -0.243411,0 -0.02177,-0.007 -0.02691,-0.0414 -0.04868,-0.0487 -0.03079,-0.0103 -0.06491,0 -0.09736,0 -0.09736,0 -0.194729,0 -0.292093,0 -0.04868,0 -0.09831,0.01 -0.146047,0 -0.03558,-0.007 -0.06157,-0.0427 -0.09736,-0.0487 -0.06403,-0.0107 -0.129819,0 -0.194728,0 -0.08114,0 -0.162275,0 -0.243412,0 -0.259638,0 -0.519277,0 -0.778915,0"
       id="path78"
       inkscape:connector-curvature="0" />
    <path
       style="fill:none;stroke:#000000;stroke-width:0.26458332px;stroke-linecap:butt;stroke-linejoin:miter;stroke-opacity:1"
       d="m 9.5903993,283.90446 c -0.1259993,-0.0998 -0.020852,-0.22945 -0.048682,-0.34077 -0.0088,-0.0352 -0.041566,-0.0618 -0.048682,-0.0974 -0.0061,-0.0305 0.012181,-0.25555 0,-0.29209 -0.00726,-0.0218 -0.041425,-0.0269 -0.048682,-0.0487 -0.010263,-0.0308 0.00787,-0.0659 0,-0.0974 -0.0088,-0.0352 -0.039882,-0.0622 -0.048682,-0.0974 0,-0.22162 0.02295,-0.003 -0.048682,-0.14605 -0.00726,-0.0145 0.00726,-0.0342 0,-0.0487 -0.00466,-0.009 -0.1854102,-0.19007 -0.1947288,-0.19473 -0.029029,-0.0145 -0.068336,0.0145 -0.097365,0 -0.047905,-0.024 -0.1468241,-0.17078 -0.1947288,-0.19473 -0.029028,-0.0145 -0.07036,0.018 -0.097364,0 -0.030191,-0.0201 -0.018492,-0.0772 -0.048682,-0.0974 -0.027004,-0.018 -0.068336,0.0145 -0.097364,0 -0.014515,-0.007 0,-0.0325 0,-0.0487 -0.016227,-0.0162 -0.026911,-0.0414 -0.048682,-0.0487 -0.030789,-0.0103 -0.065879,0.008 -0.097365,0 -0.2350839,-0.0588 0.00241,-0.0231 -0.1460466,-0.0974 -0.014515,-0.007 -0.032455,0 -0.048682,0 -0.016227,0 -0.033288,0.005 -0.048682,0 -0.034424,-0.0115 -0.067173,-0.0286 -0.097365,-0.0487 -0.019095,-0.0127 -0.064909,-0.0325 -0.048682,-0.0487 0.016227,-0.0162 0.071632,0.0487 0.048682,0.0487 -0.036285,0 -0.071707,-0.023 -0.097364,-0.0487 -0.011475,-0.0115 0.064909,0 0.048682,0 -0.032455,0 -0.064909,0 -0.097364,0 -0.016227,0 -0.034168,-0.007 -0.048682,0 -0.020526,0.0103 -0.028156,0.0384 -0.048682,0.0487 -0.014515,0.007 -0.034168,-0.007 -0.048682,0 -0.020526,0.0103 -0.028156,0.0384 -0.048682,0.0487 -0.014515,0.007 -0.032455,0 -0.048682,0 -0.016227,0 -0.032455,0 -0.048682,0 -0.016227,0 -0.037208,0.0115 -0.048682,0 -0.011475,-0.0115 0.011475,-0.0372 0,-0.0487 -0.02295,-0.0229 -0.068336,0.0145 -0.097364,0 -0.020526,-0.0103 -0.032455,-0.0325 -0.048682,-0.0487 -0.016227,-0.0162 -0.038419,-0.0282 -0.048682,-0.0487 -0.00726,-0.0145 0.011475,-0.0372 0,-0.0487 -0.1298194,0 0.016227,0.0162 -0.048682,-0.0487 -0.011475,-0.0115 -0.037208,0.0115 -0.048682,0 -0.00156,-0.002 0,-0.13424 0,-0.14605 0,-0.0811 0,-0.16227 0,-0.24341 0,-0.0162 0,-0.0325 0,-0.0487 0,-0.0162 -0.00726,-0.0342 0,-0.0487 0.020526,-0.041 0.076838,-0.0563 0.097365,-0.0974 0.00726,-0.0145 -0.011475,-0.0372 0,-0.0487 0.025657,-0.0257 0.067173,-0.0286 0.097364,-0.0487 0.019095,-0.0127 0.028156,-0.0384 0.048682,-0.0487 0.014515,-0.007 0.037208,0.0115 0.048682,0 0.011475,-0.0115 -0.011475,-0.0372 0,-0.0487 0.011475,-0.0115 0.034168,0.007 0.048682,0 0.020526,-0.0103 0.028156,-0.0384 0.048682,-0.0487 0.012801,-0.006 0.169272,0 0.1947289,0 0.016227,0 0.032455,0 0.048682,0 0.016227,0 0.037208,-0.0115 0.048682,0 0.011475,0.0115 -0.011475,0.0372 0,0.0487 0.1298192,0 -0.016227,-0.0162 0.048682,0.0487 0.011475,0.0115 0.041425,-0.0145 0.048682,0 0.014515,0.029 0,0.0649 0,0.0974 0,0.0162 -0.011475,0.0372 0,0.0487 0.011475,0.0115 0.037208,-0.0115 0.048682,0 0.011475,0.0115 0,0.0325 0,0.0487 0,0.0162 0,0.0325 0,0.0487 0,0.0162 0.016227,0.0487 0,0.0487 -0.016227,0 0,-0.0649 0,-0.0487 0,0.0325 0,0.0649 0,0.0974 0,0.0162 -0.011475,0.0372 0,0.0487 0.02295,0.0229 0.066575,-0.0103 0.097364,0 0.034423,0.0115 0.067173,0.0286 0.097364,0.0487 0.019095,0.0127 0.028156,0.0384 0.048682,0.0487 0.014515,0.007 0.034168,-0.007 0.048682,0 0.020526,0.0103 0.06491,0.0324 0.048682,0.0487 -0.016227,0.0162 -0.06491,-0.0649 -0.048682,-0.0487 0.032455,0.0324 0.059175,0.0719 0.097365,0.0974 0.027004,0.018 0.074415,-0.0229 0.097364,0 0.011475,0.0115 -0.011475,0.0372 0,0.0487 0.011475,0.0115 0.037208,-0.0115 0.048682,0 0.011475,0.0115 0,0.0325 0,0.0487 0.032455,0 0.066575,-0.0103 0.097364,0 0.02177,0.007 0.032455,0.0325 0.048682,0.0487 0.016227,0.0162 0.038419,0.0281 0.048682,0.0487 0.00726,0.0145 -0.011475,0.0372 0,0.0487 0.011475,0.0115 0.032455,0 0.048682,0 0,0.0162 -0.00726,0.0342 0,0.0487 0.05382,0.10764 0.030214,0.0151 0.097364,0.0487 0.1076391,0.0538 0.015108,0.0302 0.048682,0.0974 0.053819,0.10764 0.030214,0.0151 0.097365,0.0487 0.2026036,0.1013 -0.052043,-0.003 0.048682,0.0974 0.011475,0.0115 0.034168,-0.007 0.048682,0 0.2026039,0.1013 -0.052043,-0.003 0.048682,0.0974 0.011475,0.0115 0.034168,-0.007 0.048682,0 0.2026039,0.1013 -0.052043,-0.003 0.048682,0.0974 0.011475,0.0115 0.037207,-0.0115 0.048682,0 0.011475,0.0115 -0.011475,0.0372 0,0.0487 0.011475,0.0115 0.037208,-0.0115 0.048682,0 0.011475,0.0115 -0.00513,0.0333 0,0.0487 0.011475,0.0344 0.023024,0.0717 0.048682,0.0974 0.011475,0.0115 0.034168,-0.007 0.048682,0 0.1076391,0.0538 0.015108,0.0302 0.048682,0.0974 0.1013018,0.2026 -0.00336,-0.052 0.097364,0.0487 0.02295,0.023 -0.029028,0.0829 0,0.0974 0.029029,0.0145 0.068336,-0.0145 0.097364,0 0.0052,0.003 -0.010086,0.18464 0,0.19472 0.1007253,0.10073 -0.00394,-0.15392 0.097365,0.0487 0.010395,0.0208 0,0.22416 0,0.24341 0,0.0162 0.016227,0.0487 0,0.0487 -0.016227,0 0,-0.0649 0,-0.0487 0,0.0919 0,0.14064 0,0.0487"
       id="path80"
       inkscape:connector-curvature="0" />
    <path
       style="fill:none;stroke:#000000;stroke-width:0.26458332px;stroke-linecap:butt;stroke-linejoin:miter;stroke-opacity:1"
       d="m 12.560015,283.85578 c 0,-0.11359 0,-0.22718 0,-0.34077 0,-0.0162 0.0073,-0.0342 0,-0.0487 -0.01026,-0.0205 -0.03842,-0.0281 -0.04868,-0.0487 -0.0073,-0.0145 0,-0.0324 0,-0.0487 0,-0.0487 0.01181,-0.0988 0,-0.14605 -0.0056,-0.0223 -0.03842,-0.0282 -0.04868,-0.0487 -0.0073,-0.0145 0,-0.0325 0,-0.0487 0,-0.0487 0,-0.0974 0,-0.14605 0,-0.0324 0.0079,-0.0659 0,-0.0974 -0.0088,-0.0352 -0.03988,-0.0622 -0.04868,-0.0974 -0.01574,-0.063 0.02053,-0.13315 0,-0.19473 -0.0073,-0.0218 -0.04143,-0.0269 -0.04868,-0.0487 -0.01026,-0.0308 0.0079,-0.0659 0,-0.0974 -0.0176,-0.0704 -0.07442,-0.12589 -0.09736,-0.19473 -0.0051,-0.0154 0.0051,-0.0333 0,-0.0487 -0.01148,-0.0344 -0.03988,-0.0622 -0.04868,-0.0974 -0.0079,-0.0315 0.01026,-0.0666 0,-0.0974 -0.0073,-0.0218 -0.03842,-0.0282 -0.04868,-0.0487 -0.02606,-0.0521 0.04215,-0.10389 -0.04868,-0.19473 -0.01147,-0.0115 -0.03417,0.007 -0.04868,0 -0.02053,-0.0103 -0.02816,-0.0384 -0.04868,-0.0487 -0.01452,-0.007 -0.03721,0.0115 -0.04868,0 -0.02295,-0.0229 0.01452,-0.0683 0,-0.0974 -0.01026,-0.0205 -0.04142,-0.0269 -0.04868,-0.0487 -0.01026,-0.0308 0.01451,-0.0683 0,-0.0974 -0.0073,-0.0145 -0.04143,0.0145 -0.04868,0 -0.01451,-0.029 0.01452,-0.0683 0,-0.0974 -0.0073,-0.0145 -0.03417,0.007 -0.04868,0 -0.02053,-0.0103 -0.03842,-0.0282 -0.04868,-0.0487 -0.02854,-0.0571 0.02889,-0.0578 0.04868,-0.0974 0.0073,-0.0145 -0.0073,-0.0342 0,-0.0487 0.02053,-0.0411 0.07684,-0.0563 0.09736,-0.0974 0.0073,-0.0145 -0.0073,-0.0342 0,-0.0487 0.01026,-0.0205 0.04868,-0.0716 0.04868,-0.0487 0,0.0363 -0.04868,0.13365 -0.04868,0.0974 0,-0.11187 0.03741,-0.13477 0.09736,-0.19473 0.01623,-0.0162 0.03842,-0.0282 0.04868,-0.0487 0.01451,-0.029 -0.02295,-0.0744 0,-0.0974 0.01148,-0.0115 0.03721,0.0115 0.04868,0 0.01148,-0.0115 0,-0.0325 0,-0.0487 0,-0.0255 0.0064,-0.18193 0,-0.19473 -0.01026,-0.0205 -0.03842,-0.0282 -0.04868,-0.0487 -0.03357,-0.0671 0.05896,-0.0435 -0.04868,-0.0974 -0.01452,-0.007 -0.03417,0.007 -0.04868,0 -0.04315,-0.0216 -0.101731,-0.1165 -0.146047,-0.14605 -0.02452,-0.10725 -0.100149,-0.0257 -0.146047,-0.0487 -0.02053,-0.0103 -0.02816,-0.0384 -0.04868,-0.0487 -0.01,-0.005 -0.228954,-0.005 -0.243411,0 -0.104413,0.0348 -0.168576,0.11989 -0.243411,0.19473 -0.02563,0.0256 -0.133047,0.12004 -0.146047,0.14604 -0.0073,0.0145 0.0073,0.0342 0,0.0487 -0.01026,0.0205 -0.03842,0.0281 -0.04868,0.0487 -0.0064,0.0128 0,0.16927 0,0.19473 0,0.0255 -0.0064,0.18193 0,0.19473 0.101302,0.2026 -0.0034,-0.0521 0.09736,0.0487 0.01148,0.0115 -0.01147,0.0372 0,0.0487 0.01148,0.0115 0.03417,-0.007 0.04868,0 0.02053,0.0103 0.02816,0.0384 0.04868,0.0487 0.0089,0.004 0.146047,-0.004 0.146047,0 0,0.0162 -0.06016,-0.0115 -0.04868,0 0.02566,0.0257 0.06294,0.0372 0.09736,0.0487 0.0154,0.005 0.03721,-0.0115 0.04868,0 0.02295,0.023 -0.01451,0.0683 0,0.0974 0.05347,0.10695 0.04389,-0.01 0.09736,0.0974 0.0073,0.0145 -0.0073,0.0342 0,0.0487 0.01026,0.0205 0.04868,0.0716 0.04868,0.0487 0,-0.0363 -0.08114,-0.0811 -0.04868,-0.0974 0.06553,-0.0328 0.04112,0.17961 0.04868,0.19473 0.01026,0.0205 0.06491,0.0325 0.04868,0.0487 -0.01623,0.0162 -0.04868,-0.0716 -0.04868,-0.0487 0,0.24594 0.03741,0.0374 0.09736,0.0974 0.07835,0.0784 -0.09933,0.0507 -0.04868,0 0.01623,-0.0162 0.03246,0.0324 0.04868,0.0487 0.01623,0.0162 0.03246,0.0325 0.04868,0.0487 0.01623,0.0162 0.03842,0.0282 0.04868,0.0487 0.0073,0.0145 0,0.0325 0,0.0487 0.01623,0.0162 0.03842,0.0281 0.04868,0.0487 0.0073,0.0145 -0.01148,0.0372 0,0.0487 0.01147,0.0115 0.03721,-0.0115 0.04868,0 0.03273,0.0327 -0.03273,0.0646 0,0.0974 0.01148,0.0115 0.03721,-0.0115 0.04868,0 0.02295,0.023 -0.02295,0.0744 0,0.0974 0.01148,0.0115 0.03721,-0.0115 0.04868,0 0.01147,0.0115 -0.01148,0.0372 0,0.0487 0.01147,0.0115 0.03721,-0.0115 0.04868,0 0.02295,0.0229 -0.01451,0.0683 0,0.0974 0.01026,0.0205 0.03842,0.0281 0.04868,0.0487 0.0153,0.0306 -0.0153,0.16413 0,0.19473 0.0073,0.0145 0.04143,-0.0145 0.04868,0 0,0.27586 -0.03246,0.0162 0.04868,0.0974 0.01148,0.0115 0,0.0325 0,0.0487 0,0.0335 -0.0094,0.26374 0,0.29209 0.01148,0.0344 0.03988,0.0622 0.04868,0.0974 0.0059,0.0237 -0.01287,0.16899 0,0.19473 0.01026,0.0205 0.03842,0.0282 0.04868,0.0487 0.0013,0.003 0.0013,0.1435 0,0.14605 -0.01026,0.0205 -0.03842,0.0282 -0.04868,0.0487 -0.0073,0.0145 0,0.0325 0,0.0487 0,0.0162 0,0.0324 0,0.0487 0,0.0162 0.01623,0.0487 0,0.0487 -0.01623,0 0,-0.0649 0,-0.0487 0,0.12031 0.02295,0.0744 -0.04868,0.14604"
       id="path82"
       inkscape:connector-curvature="0" />
    <path
       style="fill:none;stroke:#000000;stroke-width:0.26458332px;stroke-linecap:butt;stroke-linejoin:miter;stroke-opacity:1"
       d="m 7.5944279,284.05051 c -0.06491,0.0162 -0.1298191,0.0325 -0.1947288,0.0487 -0.032455,0.0325 -0.055422,0.0787 -0.097365,0.0974 -0.1079552,0.048 -0.2310878,0.0535 -0.3407756,0.0974 -0.054324,0.0217 -0.097364,0.0649 -0.1460466,0.0974 -0.06491,0.0162 -0.131255,0.0275 -0.1947291,0.0487 -0.034423,0.0115 -0.064909,0.0324 -0.097364,0.0487 -0.097365,0.0487 -0.1987494,0.09 -0.2920933,0.14605 -0.050171,0.0301 -0.091723,0.0756 -0.1460469,0.0974 -0.030133,0.0121 -0.066575,-0.0103 -0.097364,0 -0.021773,0.007 -0.029588,0.036 -0.048682,0.0487 -0.060383,0.0403 -0.1366721,0.0538 -0.1947291,0.0974 -0.073437,0.0551 -0.1160142,0.1475 -0.1947288,0.19473 -0.044003,0.0264 -0.102044,0.0223 -0.1460466,0.0487 -0.039357,0.0236 -0.06491,0.0649 -0.097365,0.0974 -0.032455,0.0325 -0.06491,0.0649 -0.097365,0.0974 -0.028632,0.0286 -0.1834571,0.17218 -0.1947288,0.19473 -0.00726,0.0145 0.00726,0.0342 0,0.0487 -0.010263,0.0205 -0.038419,0.0281 -0.048682,0.0487 -0.010832,0.0217 0.00742,0.17246 0,0.19473 -0.00726,0.0218 -0.038419,0.0282 -0.048682,0.0487 -0.00177,0.004 -0.00448,0.27866 0,0.2921 0.00726,0.0218 0.043116,0.0264 0.048682,0.0487 0.0094,0.0376 0,0.37795 0,0.43814 0,0.0162 -0.00513,0.0333 0,0.0487 0.011475,0.0344 0.037208,0.0629 0.048682,0.0974 0.00513,0.0154 0,0.0325 0,0.0487 0,0.0649 0,0.12982 0,0.19473 0,0.0324 -0.010263,0.0666 0,0.0974 0.00726,0.0218 0.038419,0.0282 0.048682,0.0487 0.00726,0.0145 0,0.0325 0,0.0487 0,0.0506 -0.00957,0.2538 0,0.2921 0.0088,0.0352 0.039882,0.0622 0.048682,0.0974 0.00787,0.0315 0,0.0649 0,0.0974 0,0.0408 -0.00926,0.20639 0,0.24341 0.0088,0.0352 0.039881,0.0622 0.048682,0.0974 0.019092,0.0764 -0.019092,0.16705 0,0.24341 0.0088,0.0352 0.039882,0.0622 0.048682,0.0974 0.01615,0.0646 -0.019106,0.23478 0,0.29209 0.00726,0.0218 0.038419,0.0282 0.048682,0.0487 0.011975,0.024 -0.00926,0.24578 0,0.2921 -0.011171,0.0978 0.07617,0.15863 0.097364,0.24341 0.00787,0.0315 0,0.0649 0,0.0974 0,0.0811 0,0.16228 0,0.24341 0,0.0325 0,-0.0649 0,-0.0974 0,-0.0325 0,-0.0649 0,-0.0974 0,-0.0162 -0.00393,-0.0329 0,-0.0487 0.012446,-0.0498 0.038618,-0.0957 0.048682,-0.14604 0.00637,-0.0318 0,-0.0649 0,-0.0974 0,-0.0811 0,-0.16227 0,-0.24341 0,-0.48682 0,-0.97364 0,-1.46047 0,-0.32291 -0.02295,0.0688 0.048682,-0.14604 0.010263,-0.0308 0,-0.0649 0,-0.0974 0,-0.0325 0,-0.0649 0,-0.0974 0,-0.32292 0.02295,0.0688 -0.048682,-0.14605 -0.010263,-0.0308 0,-0.0649 0,-0.0974 0,-0.0325 0,-0.0649 0,-0.0974 0,-0.0324 0,-0.0649 0,-0.0974 0,-0.0162 -0.00513,-0.0333 0,-0.0487 0.011475,-0.0344 0.039881,-0.0622 0.048682,-0.0974 0.011033,-0.0441 0,-0.18686 0,-0.24341 0,-0.0811 0,-0.16227 0,-0.24341 0,-0.032 -0.00915,-0.11858 0,-0.14605 0.011475,-0.0344 0.039882,-0.0622 0.048682,-0.0974 0.011808,-0.0472 -0.015394,-0.0999 0,-0.14605 0.011475,-0.0344 0.037208,-0.0629 0.048682,-0.0974 0.00513,-0.0154 -0.00726,-0.0342 0,-0.0487 0.00646,-0.0129 0.1331211,-0.13958 0.1460468,-0.14604 0.014515,-0.007 0.037208,0.0115 0.048682,0 0.011475,-0.0115 -0.011475,-0.0372 0,-0.0487 0.1899938,-0.19 0.026146,0.0113 0.1460468,-0.0487 0.020526,-0.0103 0.029588,-0.036 0.048682,-0.0487 0.030191,-0.0201 0.067173,-0.0285 0.097364,-0.0487 0.019095,-0.0127 0.026911,-0.0414 0.048682,-0.0487 0.030789,-0.0103 0.066575,0.0103 0.097365,0 0.021773,-0.007 0.026911,-0.0414 0.048682,-0.0487 0.061579,-0.0205 0.1366718,0.029 0.1947288,0 0.041053,-0.0205 0.056312,-0.0768 0.097365,-0.0974 0.029028,-0.0145 0.06491,0 0.097364,0 0.032455,-0.0325 0.059175,-0.0719 0.097365,-0.0974 0.013502,-0.009 0.032455,0 0.048682,0 0.048682,0 0.09831,0.01 0.1460465,0 0.035581,-0.007 0.062162,-0.0399 0.097365,-0.0487 0.031486,-0.008 0.067231,0.0121 0.097364,0 0.054324,-0.0217 0.091723,-0.0756 0.1460466,-0.0974 0.030134,-0.0121 0.065879,0.008 0.097365,0 0.035202,-0.009 0.062162,-0.0399 0.097365,-0.0487 0.031486,-0.008 0.068336,0.0145 0.097364,0 0.014515,-0.007 -0.011475,-0.0372 0,-0.0487 0.011475,-0.0115 0.033288,0.005 0.048682,0 0.2758184,-0.1379 -0.072571,0.0181 0.1947289,-0.0487 0.035202,-0.009 0.062941,-0.0372 0.097365,-0.0487 0.031542,-0.0105 0.2035551,0 0.2434111,0"
       id="path84"
       inkscape:connector-curvature="0" />
    <path
       style="fill:none;stroke:#000000;stroke-width:0.26458332px;stroke-linecap:butt;stroke-linejoin:miter;stroke-opacity:1"
       d="m 8.1299298,284.48868 c 0.1460476,0.0649 0.3026121,0.11 0.4381428,0.1947 0.019463,0.0122 -0.032455,0.0324 -0.048682,0.0487 -0.032455,0.0325 -0.068692,0.0615 -0.097364,0.0974 -0.03655,0.0457 -0.062259,0.0992 -0.097364,0.14604 -0.054524,0.0727 -0.1402048,0.12203 -0.1947291,0.19473 -0.02177,0.029 -0.023024,0.0717 -0.048682,0.0974 -0.011475,0.0115 -0.03518,-0.009 -0.048682,0 -0.057284,0.0382 -0.097365,0.0974 -0.1460468,0.14604 -0.081137,0.0811 -0.162274,0.16228 -0.2434111,0.24341 -0.113592,0.1136 -0.2271837,0.22719 -0.3407757,0.34078 -0.048682,0.0487 -0.1047384,0.091 -0.1460465,0.14605 -0.016227,0.0325 -0.032455,0.0649 -0.048682,0.0974 0,0.0162 0.00726,0.0342 0,0.0487 -0.010263,0.0205 -0.038419,0.0282 -0.048682,0.0487 -0.00741,0.0148 0,0.12413 0,0.14605 0,0.0974 0,0.19473 0,0.29209 0,0.0649 0,0.12982 0,0.19473 0,0.0325 -0.00534,0.0654 0,0.0974 0.010999,0.066 0.03922,0.12849 0.048682,0.19473 0.011475,0.0803 -0.01334,0.16337 0,0.24341 0.010999,0.066 0.037683,0.12873 0.048682,0.19473 0.00533,0.032 -0.00787,0.0659 0,0.0974 0.0088,0.0352 0.037208,0.0629 0.048682,0.0974 0.014028,0.0421 -0.015489,0.21243 0,0.24341 0.010263,0.0205 0.041425,0.0269 0.048682,0.0487 0.020526,0.0616 -0.020526,0.13315 0,0.19473 0.00726,0.0218 0.038419,0.0281 0.048682,0.0487 0.00726,0.0145 0,0.0325 0,0.0487 0,0.0325 -0.00787,0.0659 0,0.0974 0.063197,0.25278 0.048682,-0.052 0.048682,0.19473 0,0.19017 -0.014515,0.005 0.048682,0.19472 0.0136,0.0408 -0.016132,0.16247 0,0.19473 0.010263,0.0205 0.038419,0.0282 0.048682,0.0487 0.00726,0.0145 0,0.0325 0,0.0487 0,0.0162 0,0.0325 0,0.0487 0,0.0162 0,0.0325 0,0.0487 0,0.0162 -0.00726,0.0342 0,0.0487 0.010263,0.0205 0.038419,0.0282 0.048682,0.0487 0.00726,0.0145 0.016227,0.0487 0,0.0487 -0.016227,0 -0.00513,-0.0333 0,-0.0487 0.011475,-0.0344 0.037208,-0.0629 0.048682,-0.0974 0.00513,-0.0154 0,-0.0325 0,-0.0487 0,-0.11359 0,-0.22718 0,-0.34078 0,-0.11359 0,-0.22718 0,-0.34077 0,-0.0162 0.00513,-0.0333 0,-0.0487 -0.011475,-0.0344 -0.042717,-0.0616 -0.048682,-0.0974 -0.016007,-0.096 0,-0.19473 0,-0.29209 0,-0.0487 0.011808,-0.0988 0,-0.14605 -0.00557,-0.0223 -0.038419,-0.0281 -0.048682,-0.0487 -0.00726,-0.0145 0,-0.0324 0,-0.0487 0,-0.0325 0.010263,-0.0666 0,-0.0974 -0.00726,-0.0218 -0.038419,-0.0281 -0.048682,-0.0487 -0.00659,-0.0132 0,-0.27112 0,-0.29209 0,-0.12982 0,-0.25964 0,-0.38946 0,-0.0166 -0.00878,-0.16838 0,-0.19473 0.011475,-0.0344 0.037208,-0.0629 0.048682,-0.0974 0.011163,-0.0335 -0.014362,-0.11733 0,-0.14605 0.010263,-0.0205 0.041425,-0.0269 0.048682,-0.0487 0.00742,-0.0223 -0.010832,-0.17307 0,-0.19473 0.010263,-0.0205 0.038419,-0.0282 0.048682,-0.0487 0.00726,-0.0145 -0.00726,-0.0342 0,-0.0487 0.020526,-0.041 0.076838,-0.0563 0.097364,-0.0974 0.014515,-0.029 -0.02295,-0.0744 0,-0.0974 0.011475,-0.0115 0.037208,0.0115 0.048682,0 0.041372,-0.0414 0.062259,-0.0992 0.097364,-0.14605 0.013769,-0.0184 0.032455,-0.0325 0.048682,-0.0487 0.032455,-0.0325 0.059175,-0.0719 0.097365,-0.0974 0.013502,-0.009 0.037208,0.0115 0.048682,0 0.025657,-0.0256 0.023024,-0.0717 0.048682,-0.0974 0.025657,-0.0257 0.067173,-0.0286 0.097364,-0.0487 0.019095,-0.0127 0.029588,-0.036 0.048682,-0.0487 0.030191,-0.0201 0.071707,-0.023 0.097364,-0.0487 0.025657,-0.0257 0.023024,-0.0717 0.048682,-0.0974 0.1395164,-0.13952 0.1337154,-0.0669 0.2920934,-0.14605 0.040047,-0.02 0.1587241,-0.17073 0.1947288,-0.19473 0.013502,-0.009 0.034168,0.007 0.048682,0 0.020526,-0.0103 0.028156,-0.0384 0.048682,-0.0487 0.014515,-0.007 0.034168,0.007 0.048682,0 0.020526,-0.0103 0.028156,-0.0384 0.048682,-0.0487 0.014515,-0.007 0.032455,0 0.048682,0 0.016227,-0.0162 0.028156,-0.0384 0.048682,-0.0487 0.029028,-0.0145 0.068336,0.0145 0.097365,0 0.020526,-0.0103 0.032455,-0.0325 0.048682,-0.0487 0.081137,-0.0322 0.1622729,-0.0644 0.2434092,-0.0966"
       id="path86"
       inkscape:connector-curvature="0" />
    <path
       style="fill:none;stroke:#000000;stroke-width:0.26458332px;stroke-linecap:butt;stroke-linejoin:miter;stroke-opacity:1"
       d="m 10.564044,285.07284 c -0.08114,0.0325 -0.1707,0.0489 -0.243411,0.0974 -0.03019,0.0201 -0.02856,0.0672 -0.04868,0.0974 -0.02546,0.0382 -0.06983,0.0606 -0.09736,0.0974 -0.0351,0.0468 -0.06226,0.0992 -0.09736,0.14605 -0.07302,0.0974 -0.04868,0 -0.146047,0.14604 -0.040255,0.0604 -0.060027,0.1325 -0.097365,0.19473 -0.035421,0.059 -0.1078571,0.0888 -0.1460465,0.14605 -0.009,0.0135 0.00726,0.0342 0,0.0487 -0.026165,0.0523 -0.067262,0.0959 -0.097365,0.14605 -0.018669,0.0311 -0.028555,0.0672 -0.048682,0.0974 -0.025461,0.0382 -0.08285,0.0538 -0.097364,0.0974 -0.010263,0.0308 0.00787,0.0659 0,0.0974 -0.0088,0.0352 -0.037208,0.0629 -0.048682,0.0974 -0.00513,0.0154 0.00726,0.0342 0,0.0487 -0.010263,0.0205 -0.038419,0.0281 -0.048682,0.0487 -0.00272,0.005 -0.00272,0.23798 0,0.24341 0.010263,0.0205 0.038419,0.0282 0.048682,0.0487 0.014515,0.029 -0.014515,0.0683 0,0.0974 0.010263,0.0205 0.038419,0.0282 0.048682,0.0487 0.00726,0.0145 -0.011475,0.0372 0,0.0487 0.011475,0.0115 0.037207,-0.0115 0.048682,0 0.011475,0.0115 -0.00726,0.0342 0,0.0487 0.010263,0.0205 0.041425,0.0269 0.048682,0.0487 0.010263,0.0308 -0.00787,0.0659 0,0.0974 0.0088,0.0352 0.035206,0.0637 0.048682,0.0974 0.093766,0.23441 0.00504,0.0638 0.097365,0.34077 0.070883,0.21265 0.034949,-0.0343 0.1460465,0.24341 0.012054,0.0301 -0.00787,0.0659 0,0.0974 0.035298,0.14119 0.037981,0.057 0.097365,0.14604 0.020127,0.0302 0.035206,0.0637 0.048682,0.0974 0.019058,0.0476 0.029624,0.0984 0.048683,0.14604 0.01347,0.0337 0.03988,0.0622 0.04868,0.0974 0.0079,0.0315 -0.01026,0.0666 0,0.0974 0.01451,0.0436 0.08285,0.0538 0.09736,0.0974 0,0.22161 -0.02295,0.003 0.04868,0.14604 0.02606,0.0521 -0.04215,0.1039 0.04868,0.19473 0.01148,0.0115 0,-0.0325 0,-0.0487 0,-0.0324 0,-0.0649 0,-0.0974 0,-0.051 0.0099,-0.25251 0,-0.2921 -0.0088,-0.0352 -0.04157,-0.0618 -0.04868,-0.0974 -0.0095,-0.0477 0,-0.0974 0,-0.14605 0,-0.0811 0.01148,-0.16309 0,-0.24341 -0.0051,-0.0359 -0.03988,-0.0622 -0.04868,-0.0974 -0.01574,-0.063 0.01574,-0.13176 0,-0.19473 -0.0088,-0.0352 -0.03721,-0.0629 -0.04868,-0.0974 -0.0051,-0.0154 0.0073,-0.0342 0,-0.0487 -0.01026,-0.0205 -0.03842,-0.0281 -0.04868,-0.0487 -0.0073,-0.0145 0,-0.0325 0,-0.0487 0,-0.0325 0.0079,-0.0659 0,-0.0974 -0.0088,-0.0352 -0.03721,-0.0629 -0.04868,-0.0974 -0.0051,-0.0154 0,-0.0325 0,-0.0487 0,-0.0413 0.0089,-0.26526 0,-0.2921 -0.0073,-0.0218 -0.041426,-0.0269 -0.048683,-0.0487 -0.00933,-0.028 0,-0.3606 0,-0.38946 0,-0.0515 -0.00836,-0.31569 0,-0.34077 -0.018195,-0.10606 0.081137,-0.0162 0.097365,-0.0487 0.01451,-0.029 -0.018,-0.0704 0,-0.0974 0.02013,-0.0302 0.06717,-0.0285 0.09736,-0.0487 0.03819,-0.0255 0.06491,-0.0649 0.09736,-0.0974 0.03245,-0.0325 0.06491,-0.0649 0.09736,-0.0974 0.03246,-0.0325 0.06983,-0.0607 0.09736,-0.0974 0.02177,-0.029 0.02856,-0.0672 0.04868,-0.0974 0.01273,-0.0191 0.03246,-0.0324 0.04868,-0.0487 0.01623,-0.0325 0.02855,-0.0672 0.04868,-0.0974 0.01273,-0.0191 0.03245,-0.0324 0.04868,-0.0487 0.04868,-0.0487 0.09736,-0.0974 0.146046,-0.14605 0.01623,-0.0162 0.03595,-0.0296 0.04868,-0.0487 0.117891,-0.17683 -0.01426,-0.0344 0.09736,-0.14604"
       id="path88"
       inkscape:connector-curvature="0" />
    <path
       style="fill:none;stroke:#000000;stroke-width:0.26458332px;stroke-linecap:butt;stroke-linejoin:miter;stroke-opacity:1"
       d="m 13.53366,285.21888 c 0.132466,0.0234 0.05547,0.23171 0.146047,0.2921 0.027,0.018 0.07442,-0.023 0.09736,0 0.03406,0.034 -0.02249,0.14974 0,0.19473 0.01026,0.0205 0.03842,0.0281 0.04868,0.0487 0.01452,0.029 -0.02295,0.0744 0,0.0974 0.01147,0.0115 0.03721,-0.0115 0.04868,0 0.01148,0.0115 0,0.0325 0,0.0487 0,0.0162 0,0.0325 0,0.0487 0,0.0324 0.01026,0.0666 0,0.0974 -0.01147,0.0344 -0.03721,0.0629 -0.04868,0.0974 -0.0051,0.0154 0.0051,0.0333 0,0.0487 -0.01147,0.0344 -0.03721,0.0629 -0.04868,0.0974 -0.0051,0.0154 0,0.0325 0,0.0487 0,0.0649 0,0.12982 0,0.19473 0,0.0325 0,0.0649 0,0.0974 0,0.0162 0.0073,0.0342 0,0.0487 -0.01026,0.0205 -0.03842,0.0282 -0.04868,0.0487 -0.01406,0.0281 0.01194,0.24433 0,0.2921 -0.0088,0.0352 -0.03721,0.0629 -0.04868,0.0974 -0.0051,0.0154 0,0.0325 0,0.0487 -0.01623,0.0325 -0.03721,0.0629 -0.04868,0.0974 -0.0051,0.0154 0,0.0325 0,0.0487 -0.01623,0.0487 -0.02962,0.0984 -0.04868,0.14605 -0.01348,0.0337 -0.03988,0.0622 -0.04868,0.0974 -0.0079,0.0315 0.01206,0.0672 0,0.0974 -0.02173,0.0543 -0.06726,0.0959 -0.09736,0.14605 -0.02076,0.0346 -0.138217,0.26078 -0.146047,0.29209 -0.0079,0.0315 0.01452,0.0683 0,0.0974 -0.02053,0.0411 -0.07684,0.0563 -0.09736,0.0974 -0.01451,0.029 0.018,0.0704 0,0.0974 -0.02013,0.0302 -0.07171,0.023 -0.09736,0.0487 -0.01148,0.0115 0,0.0325 0,0.0487 0,0.0325 0.01205,0.0672 0,0.0974 -0.02173,0.0543 -0.06726,0.0959 -0.09736,0.14604 -0.01867,0.0311 -0.03246,0.0649 -0.04868,0.0974 -0.01623,0.0324 -0.03721,0.0629 -0.04868,0.0974 -0.0051,0.0154 -0.01623,0.0487 0,0.0487 0.178906,0 0.06739,-0.0374 0.09736,-0.0974 0.01026,-0.0205 0.02959,-0.036 0.04868,-0.0487 0.389458,-0.25964 -0.178502,0.1785 0.146046,-0.14605 0.02566,-0.0257 0.06717,-0.0285 0.09736,-0.0487 0.0191,-0.0127 0.03246,-0.0325 0.04868,-0.0487 0.04868,-0.0487 0.103039,-0.0923 0.146047,-0.14605 0.02267,-0.0283 0.02691,-0.0683 0.04868,-0.0974 0.04545,-0.0606 0.187865,-0.18787 0.243411,-0.24342 0.01623,-0.0162 0.03491,-0.0303 0.04868,-0.0487 0.03511,-0.0468 0.06081,-0.10036 0.09736,-0.14604 0.02867,-0.0358 0.0719,-0.0592 0.09736,-0.0974 0.009,-0.0135 -0.0073,-0.0342 0,-0.0487 0.01026,-0.0205 0.03595,-0.0296 0.04868,-0.0487 0.02013,-0.0302 0.02855,-0.0672 0.04868,-0.0974 0.02546,-0.0382 0.07684,-0.0563 0.09736,-0.0974 0.0073,-0.0145 -0.009,-0.0352 0,-0.0487 0.02546,-0.0382 0.06491,-0.0649 0.09736,-0.0974 0.01623,-0.0162 0.03842,-0.0282 0.04868,-0.0487 0.0073,-0.0145 -0.0073,-0.0342 0,-0.0487 0.01026,-0.0205 0.03842,-0.0282 0.04868,-0.0487 0.0073,-0.0145 -0.0073,-0.0342 0,-0.0487 0.05382,-0.10764 0.03022,-0.0151 0.09736,-0.0487 0.09556,-0.0478 0.02191,-0.0925 0.04868,-0.14605 0.02053,-0.041 0.07684,-0.0563 0.09736,-0.0974 0.0064,-0.0128 0,-0.16927 0,-0.19473 0,-0.0974 0,-0.19473 0,-0.29209 0,-0.0487 0.01181,-0.0988 0,-0.14605 -0.0088,-0.0352 -0.03988,-0.0622 -0.04868,-0.0974 -0.0079,-0.0315 0,-0.0649 0,-0.0974 -0.01623,-0.0324 -0.03721,-0.0629 -0.04868,-0.0974 -0.01539,-0.0462 0.01181,-0.0988 0,-0.14605 -0.0088,-0.0352 -0.03988,-0.0622 -0.04868,-0.0974 -0.0079,-0.0315 0.01026,-0.0666 0,-0.0974 -0.0073,-0.0218 -0.04143,-0.0269 -0.04868,-0.0487 -0.01026,-0.0308 0.0079,-0.0659 0,-0.0974 -0.0088,-0.0352 -0.03245,-0.0649 -0.04868,-0.0974 -0.01623,-0.0325 -0.02855,-0.0672 -0.04868,-0.0974 -0.01273,-0.0191 -0.03245,-0.0325 -0.04868,-0.0487"
       id="path90"
       inkscape:connector-curvature="0" />
    <path
       style="fill:none;stroke:#000000;stroke-width:0.26458332px;stroke-linecap:butt;stroke-linejoin:miter;stroke-opacity:1"
       d="m 15.529561,284.83012 c 0.259662,-0.0327 0.519324,-0.0654 0.778986,-0.0981 0.01623,0 0.03721,-0.0115 0.04868,0 0.01148,0.0115 0,0.0325 0,0.0487 0.03245,0 0.06834,-0.0145 0.09736,0 0.0094,0.005 -0.03104,0.10619 0.04868,0.14605 0.06715,0.0336 0.04355,-0.059 0.09736,0.0487 0.01452,0.029 -0.02295,0.0744 0,0.0974 0.01148,0.0115 0.03417,-0.007 0.04868,0 0.0209,0.0104 0.19392,0.19351 0.194729,0.19473 0.009,0.0135 -0.0073,0.0342 0,0.0487 0.02157,0.0431 0.116502,0.10173 0.146046,0.14604 0.02013,0.0302 0.02302,0.0717 0.04868,0.0974 0.02566,0.0257 0.07171,0.023 0.09736,0.0487 0.02295,0.0229 -0.01026,0.0666 0,0.0974 0.01148,0.0344 0.03721,0.0629 0.04868,0.0974 0.01019,0.0306 0,0.15554 0,0.19473 0,0.0422 0.0094,0.16653 0,0.19473 -0.01147,0.0344 -0.03988,0.0622 -0.04868,0.0974 -0.0079,0.0315 0,0.0649 0,0.0974 0,0.0487 0.0069,0.0978 0,0.14604 -0.0095,0.0662 -0.03768,0.12874 -0.04868,0.19473 -0.0053,0.032 0.0064,0.0655 0,0.0974 -0.01007,0.0503 -0.03862,0.0957 -0.04868,0.14604 -0.0064,0.0318 0,0.0649 0,0.0974 0,0.0162 0.0073,0.0342 0,0.0487 -0.01026,0.0205 -0.03245,0.0325 -0.04868,0.0487 0,0.0487 0.0095,0.0983 0,0.14605 -0.0071,0.0356 -0.04272,0.0616 -0.04868,0.0974 -0.01067,0.064 0.01067,0.13071 0,0.19473 -0.006,0.0358 -0.03521,0.0637 -0.04868,0.0974 -0.01906,0.0476 -0.03624,0.0963 -0.04868,0.14604 -0.0039,0.0158 0,0.0325 0,0.0487 -0.01623,0.0649 -0.0303,0.13039 -0.04868,0.19472 0.0021,0.0951 -0.06973,0.16051 -0.09736,0.24342 -0.0051,0.0154 0.0039,0.0329 0,0.0487 -0.01245,0.0498 -0.03862,0.0957 -0.04868,0.14604 -0.0064,0.0318 0.0079,0.0659 0,0.0974 0.02934,0.0881 -0.07886,0.0905 -0.09736,0.14605 -0.01026,0.0308 0,0.0649 0,0.0974 -0.01623,0.0487 -0.02962,0.0984 -0.04868,0.14605 -0.02695,0.0674 -0.07976,0.12432 -0.09736,0.19473 -0.0079,0.0315 -0.02295,0.0744 0,0.0974 0.01623,0.0162 0.02816,-0.0384 0.04868,-0.0487 0.01451,-0.007 0.03518,0.009 0.04868,0 0.0864,-0.0576 0.159135,-0.18021 0.243411,-0.24341 0.02903,-0.0218 0.07171,-0.023 0.09736,-0.0487 0.02566,-0.0256 0.02691,-0.0683 0.04868,-0.0974 0.02754,-0.0367 0.06983,-0.0607 0.09736,-0.0974 0.02177,-0.029 0.02302,-0.0717 0.04868,-0.0974 0.02566,-0.0257 0.06834,-0.0269 0.09736,-0.0487 0.03246,-0.0325 0.06491,-0.0649 0.09736,-0.0974 0,-0.0162 -0.009,-0.0352 0,-0.0487 0.02546,-0.0382 0.06983,-0.0606 0.09736,-0.0974 0.02177,-0.029 0.02691,-0.0683 0.04868,-0.0974 0.02754,-0.0367 0.06983,-0.0606 0.09736,-0.0974 0.02177,-0.029 0.02855,-0.0672 0.04868,-0.0974 0.01273,-0.0191 0.03245,-0.0325 0.04868,-0.0487 0.03245,-0.0649 0.06003,-0.1325 0.09736,-0.19473 0.01181,-0.0197 0.03595,-0.0296 0.04868,-0.0487 0.02013,-0.0302 0.02856,-0.0672 0.04868,-0.0974 0.01273,-0.0191 0.03842,-0.0282 0.04868,-0.0487 0.0073,-0.0145 -0.0051,-0.0333 0,-0.0487 0.117542,-0.35262 -0.01404,0.0768 0.09736,-0.14604 0.01623,-0.0487 0.03245,-0.0974 0.04868,-0.14605 0,-0.0162 -0.0051,-0.0333 0,-0.0487 0.01148,-0.0344 0.03245,-0.0649 0.04868,-0.0974 0.01623,-0.0325 0.02856,-0.0672 0.04868,-0.0974 0.01273,-0.0191 0.03842,-0.0282 0.04868,-0.0487 0.0073,-0.0145 -0.0039,-0.0329 0,-0.0487 0.01245,-0.0498 0.02573,-0.10015 0.04868,-0.14604 0.01026,-0.0205 0.04143,-0.0269 0.04868,-0.0487 0.01026,-0.0308 -0.01205,-0.0672 0,-0.0974 0.02173,-0.0543 0.0712,-0.0937 0.09736,-0.14605 0.0073,-0.0145 -0.0051,-0.0333 0,-0.0487 0.01623,-0.0324 0.03245,-0.0649 0.04868,-0.0974 0,-0.0162 -0.0051,-0.0333 0,-0.0487 0.03408,-0.10223 0.111969,-0.18986 0.146047,-0.29209 0.0051,-0.0154 0,-0.0324 0,-0.0487 0.01623,-0.0325 0.03721,-0.0629 0.04868,-0.0974 0.01026,-0.0308 -0.01026,-0.0666 0,-0.0974 0.02295,-0.0688 0.07441,-0.12588 0.09736,-0.19473 0.0051,-0.0154 -0.0073,-0.0342 0,-0.0487 0.01026,-0.0205 0.04868,-0.0257 0.04868,-0.0487 0,-0.023 -0.03842,-0.0282 -0.04868,-0.0487 -0.0073,-0.0145 0,-0.0324 0,-0.0487 0,-0.0324 0.01026,-0.0666 0,-0.0974 0.0182,-0.10606 -0.08114,-0.0162 -0.09736,-0.0487 -0.01451,-0.029 0.018,-0.0704 0,-0.0974 -0.02013,-0.0302 -0.06834,-0.0269 -0.09736,-0.0487 -0.06782,-0.0509 -0.133311,-0.13331 -0.194729,-0.19473 -0.01623,-0.0162 -0.02959,-0.0359 -0.04868,-0.0487 -0.03019,-0.0201 -0.06294,-0.0372 -0.09736,-0.0487 -0.01539,-0.005 -0.03518,0.009 -0.04868,0 -0.03819,-0.0255 -0.05917,-0.0719 -0.09736,-0.0974 -0.0135,-0.009 -0.03246,0 -0.04868,0 -0.03246,-0.0162 -0.07171,-0.023 -0.09736,-0.0487 -0.02566,-0.0257 -0.01965,-0.0756 -0.04868,-0.0974 -0.04105,-0.0308 -0.100148,-0.0257 -0.146047,-0.0487 -0.04105,-0.0205 -0.05631,-0.0768 -0.09736,-0.0974 -0.470168,-0.23509 0.09079,0.0627 -0.243411,-0.0487 -0.02177,-0.007 -0.02737,-0.0402 -0.04868,-0.0487 -0.06212,-0.0249 -0.131256,-0.0275 -0.194729,-0.0487 -0.03442,-0.0115 -0.06367,-0.0352 -0.09736,-0.0487 -0.04764,-0.0191 -0.0984,-0.0296 -0.146046,-0.0487 -0.03369,-0.0135 -0.06367,-0.0352 -0.09736,-0.0487 -0.04764,-0.019 -0.0984,-0.0296 -0.146047,-0.0487 -0.03245,-0.0162 -0.06491,-0.0325 -0.09736,-0.0487 -0.01623,-0.0162 -0.02816,-0.0384 -0.04868,-0.0487 -0.02903,-0.0145 -0.06834,0.0145 -0.09736,0 -0.02053,-0.0103 -0.03245,-0.0325 -0.04868,-0.0487"
       id="path92"
       inkscape:connector-curvature="0" />
    <path
       style="fill:none;stroke:#000000;stroke-width:0.26458332px;stroke-linecap:butt;stroke-linejoin:miter;stroke-opacity:1"
       d="m 15.529561,284.83012 c 0.06493,0.16204 0.129866,0.32408 0.194799,0.48613 0.03245,0 0.07442,-0.023 0.09736,0 0.02295,0.0229 -0.02295,0.0744 0,0.0974 0.02295,0.0229 0.06834,-0.0145 0.09736,0 0.01452,0.007 -0.01147,0.0372 0,0.0487 0.02566,0.0257 0.06717,0.0286 0.09736,0.0487 0.04432,0.0295 0.102898,0.12447 0.146047,0.14604 0.02903,0.0145 0.06834,-0.0145 0.09736,0 0.09133,0.0457 0.02082,0.0625 0.04868,0.14605 0.01451,0.0435 0.0719,0.0592 0.09736,0.0974 0.02013,0.0302 0.02302,0.0717 0.04868,0.0974 0.01148,0.0115 0.03721,-0.0115 0.04868,0 0.02295,0.023 -0.01451,0.0683 0,0.0974 0.01026,0.0205 0.03842,0.0282 0.04868,0.0487 0.0073,0.0145 0,0.0325 0,0.0487 0,0.0325 0,0.0649 0,0.0974 0,0.0586 0.01097,0.1399 0,0.19473 -0.01006,0.0503 -0.03862,0.0957 -0.04868,0.14605 -0.0064,0.0318 0,0.0649 0,0.0974 -0.01623,0.0325 -0.03988,0.0622 -0.04868,0.0974 -0.0079,0.0315 0.0079,0.0659 0,0.0974 -0.0088,0.0352 -0.03988,0.0622 -0.04868,0.0974 -0.0079,0.0315 0.0079,0.0659 0,0.0974 -0.0176,0.0704 -0.07976,0.12432 -0.09736,0.19473 -0.0079,0.0315 0.01026,0.0666 0,0.0974 -0.0073,0.0218 -0.04143,0.0269 -0.04868,0.0487 -0.01026,0.0308 0.0079,0.0659 0,0.0974 -0.0176,0.0704 -0.07041,0.12735 -0.09736,0.19473 -0.01906,0.0476 -0.02962,0.0984 -0.04868,0.14605 -0.01347,0.0337 -0.03721,0.0629 -0.04868,0.0974 -0.0051,0.0154 0.0051,0.0333 0,0.0487 -0.01147,0.0344 -0.03988,0.0622 -0.04868,0.0974 -0.0079,0.0315 0.0079,0.0659 0,0.0974 -0.0353,0.14119 -0.03798,0.057 -0.09736,0.14605 -0.110327,0.16549 -0.0065,0.0261 -0.04868,0.19473 0.02934,0.0881 -0.07886,0.0905 -0.09736,0.14604 -0.0074,0.0223 0.01083,0.17307 0,0.19473 -0.01026,0.0205 -0.04868,0.0257 -0.04868,0.0487 0,0.0162 0.03245,0 0.04868,0 0.01623,0 0.03721,0.0115 0.04868,0 0.194729,-0.19472 -0.113592,-0.0162 0.146047,-0.14604 0.03245,-0.0162 0.06717,-0.0286 0.09736,-0.0487 0.05728,-0.0382 0.09097,-0.10474 0.146047,-0.14605 0.02903,-0.0218 0.06717,-0.0286 0.09736,-0.0487 0.02378,-0.0159 0.17888,-0.17096 0.194729,-0.19473 0.02013,-0.0302 0.02302,-0.0717 0.04868,-0.0974 0.01148,-0.0115 0.03721,0.0115 0.04868,0 0.02566,-0.0257 0.02303,-0.0717 0.04868,-0.0974 0.01148,-0.0115 0.03721,0.0115 0.04868,0 0.111404,-0.1114 -0.0124,-0.0979 0.09736,-0.0969"
       id="path94"
       inkscape:connector-curvature="0" />
    <path
       style="fill:none;stroke:#000000;stroke-width:0.26458332px;stroke-linecap:butt;stroke-linejoin:miter;stroke-opacity:1"
       d="m 7.5944279,284.05051 c -0.6865485,1.2694 0.1652913,-0.86987 -0.1460465,-0.97365 -0.046184,-0.0154 -0.099863,0.0154 -0.1460469,0 -0.1895893,-0.0632 -0.00455,-0.0487 -0.1947288,-0.0487 -0.011568,0 -0.1838179,0.005 -0.1947291,0 -0.020526,-0.0103 -0.028156,-0.0384 -0.048682,-0.0487 -0.014483,-0.007 -0.2716146,0 -0.2920934,0 -0.016227,0 -0.034168,-0.007 -0.048682,0 -0.020526,0.0103 -0.028156,0.0384 -0.048682,0.0487 -0.014515,0.007 -0.037208,-0.0115 -0.048682,0 -0.011475,0.0115 0.011475,0.0372 0,0.0487 -0.02295,0.0229 -0.066575,-0.0103 -0.097365,0 -0.032455,0.0162 -0.064909,0.0325 -0.097364,0.0487 0,0.0162 0.011475,0.0372 0,0.0487 -0.00995,0.01 -0.1267447,-0.01 -0.1460469,0 -0.1484593,0.0742 0.089037,0.0386 -0.1460465,0.0974 -0.031486,0.008 -0.06491,0 -0.097365,0 -0.016227,0 -0.034168,-0.007 -0.048682,0 -0.041052,0.0205 -0.056312,0.0768 -0.097364,0.0974 -0.038946,0.0195 -0.107101,-0.0195 -0.1460468,0 -0.020526,0.0103 -0.026911,0.0414 -0.048682,0.0487 -0.026173,0.009 -0.1535121,0 -0.1947289,0 -0.016227,0 -0.032455,0 -0.048682,0 -0.016227,0 -0.048682,0.0162 -0.048682,0 0,-0.0162 0.06491,0 0.048682,0 -0.032455,0 -0.06491,0 -0.097365,0 -0.016227,0 -0.037208,0.0115 -0.048682,0 -0.011475,-0.0115 0.011475,-0.0372 0,-0.0487 -0.011475,-0.0115 -0.034168,0.007 -0.048682,0 -0.041052,-0.0205 -0.056312,-0.0768 -0.097365,-0.0974 -0.014515,-0.007 -0.032939,0.004 -0.048682,0 -0.049784,-0.0124 -0.098401,-0.0296 -0.1460465,-0.0487 -0.117715,-0.0471 -0.2127859,-0.12045 -0.3407757,-0.14605 -0.031825,-0.006 -0.065879,0.008 -0.097364,0 -0.035202,-0.009 -0.062941,-0.0372 -0.097364,-0.0487 -0.010729,-0.004 -0.2759882,-0.004 -0.2920934,0 -0.035202,0.009 -0.062162,0.0399 -0.097365,0.0487 -0.031486,0.008 -0.06491,0 -0.097364,0 -0.1135917,0 -0.2271837,0 -0.3407757,0 -0.048682,0 -0.09831,-0.01 -0.1460465,0 -0.035581,0.007 -0.062162,0.0399 -0.097365,0.0487 -0.074886,0.0187 -0.2110835,-0.0162 -0.2920934,0 -0.4553022,0.0911 0.030414,0.005 -0.3407755,0.0974 -0.015743,0.004 -0.033288,-0.005 -0.048682,0 -0.034424,0.0115 -0.062941,0.0372 -0.097364,0.0487 -0.030789,0.0103 -0.07036,-0.018 -0.097365,0 -0.038189,0.0255 -0.06491,0.0649 -0.097364,0.0974 -0.048682,0.0487 -0.097364,0.0974 -0.1460467,0.14605 -0.2105648,0.21056 -0.00763,-0.0129 -0.1460467,0.19472 -0.01273,0.0191 -0.035952,0.0296 -0.048682,0.0487 -0.020128,0.0302 -0.026911,0.0683 -0.048682,0.0974 -0.015637,0.0208 -0.1799709,0.16521 -0.1947289,0.19473 -0.04909,0.0982 -0.033559,0.15834 -0.097364,0.24341 -0.04499,0.06 -0.1534119,0.13275 -0.194729,0.19473 -0.074623,0.11194 -0.022741,0.13148 -0.097364,0.24341 -0.060157,0.0902 -0.048682,0.004 -0.048682,0.0974 0,0.0162 0.00726,0.0342 0,0.0487 -0.010263,0.0205 -0.035952,0.0296 -0.048682,0.0487 -0.020128,0.0302 -0.028555,0.0672 -0.048682,0.0974 -0.023275,0.0349 -0.11706803,0.0777 -0.048682,0.14605 0.016227,0.0162 0.028156,-0.0384 0.048682,-0.0487 0.014514,-0.007 0.034168,0.007 0.048682,0 0.058419,-0.0292 0.087628,-0.11684 0.1460467,-0.14605 0.014514,-0.007 0.037208,0.0115 0.048682,0 0.022949,-0.0229 -0.022949,-0.0744 0,-0.0974 0.011475,-0.0115 0.037208,0.0115 0.048682,0 0.011474,-0.0115 0.016227,-0.0487 0,-0.0487 -0.022949,0 -0.071631,0.0487 -0.048682,0.0487 0.036286,0 0.062941,-0.0372 0.097364,-0.0487 0.015395,-0.005 0.034168,0.007 0.048682,0 0.020526,-0.0103 0.028156,-0.0384 0.048682,-0.0487 0.014514,-0.007 0.037208,0.0115 0.048682,0 0.011474,-0.0115 -0.011475,-0.0372 0,-0.0487 0.022949,-0.0229 0.074415,0.023 0.097364,0 0.011475,-0.0115 -0.014514,-0.0414 0,-0.0487 0.029028,-0.0145 0.066575,0.0103 0.097365,0 0.043543,-0.0145 0.053822,-0.0829 0.097364,-0.0974 0.030789,-0.0103 0.065879,0.008 0.097364,0 0.035202,-0.009 0.062162,-0.0399 0.097365,-0.0487 0.031486,-0.008 0.066575,0.0103 0.097364,0 0.021771,-0.007 0.028156,-0.0384 0.048682,-0.0487 0.014514,-0.007 0.032455,0 0.048682,0 0.016227,-0.0162 0.029588,-0.036 0.048682,-0.0487 0.1209065,-0.0806 0.1503953,-0.0265 0.2920934,-0.0974 0.020526,-0.0103 0.028156,-0.0384 0.048682,-0.0487 0.029028,-0.0145 0.066575,0.0103 0.097365,0 0.034423,-0.0115 0.062941,-0.0372 0.097364,-0.0487 0.03079,-0.0103 0.068336,0.0145 0.097364,0 0.4540552,-0.3027 -0.068335,0.007 0.2434111,-0.0974 0.021773,-0.007 0.026911,-0.0414 0.048682,-0.0487 0.030789,-0.0103 0.067231,0.0121 0.097364,0 0.054324,-0.0217 0.091723,-0.0756 0.1460466,-0.0974 0.030134,-0.0121 0.065879,0.008 0.097365,0 0.035202,-0.009 0.062941,-0.0372 0.097364,-0.0487 0.05173,-0.0172 0.1429986,0.0172 0.1947288,0 0.034424,-0.0115 0.062941,-0.0372 0.097365,-0.0487 0.042088,-0.014 0.2124334,0.0155 0.2434111,0 0.020526,-0.0103 0.028156,-0.0384 0.048682,-0.0487 0.038946,-0.0195 0.1071007,0.0195 0.1460465,0 0.012674,-0.006 0.059308,-0.0867 0.097365,-0.0487 0.039176,0.0392 -0.043929,0.0831 -0.048682,0.0974 -0.010263,0.0308 0.00787,0.0659 0,0.0974 -0.0088,0.0352 -0.037208,0.0629 -0.048682,0.0974 -0.00513,0.0154 0.009,0.0352 0,0.0487 -0.025461,0.0382 -0.071905,0.0592 -0.097365,0.0974 -0.018002,0.027 0.014515,0.0683 0,0.0974 -0.010263,0.0205 -0.035952,0.0296 -0.048682,0.0487 -0.020127,0.0302 -0.037208,0.0629 -0.048682,0.0974 -0.010263,0.0308 0.02295,0.0744 0,0.0974 -0.011475,0.0115 -0.034168,-0.007 -0.048682,0 -0.026001,0.013 -0.1204171,0.12042 -0.1460468,0.14605 -0.081137,0.0811 -0.162274,0.16227 -0.2434111,0.24341 -0.048682,0.0487 -0.090969,0.10474 -0.1460466,0.14605 -0.058057,0.0435 -0.1343461,0.0571 -0.1947291,0.0974 -0.057284,0.0382 -0.090969,0.10474 -0.1460465,0.14605 -0.058057,0.0435 -0.1343462,0.0571 -0.1947289,0.0974 -0.019095,0.0127 -0.029587,0.036 -0.048682,0.0487 -0.030192,0.0201 -0.071707,0.023 -0.097365,0.0487 -0.011475,0.0115 0.014515,0.0414 0,0.0487 -0.029028,0.0145 -0.069535,-0.0167 -0.097364,0 -0.059036,0.0354 -0.092286,0.10304 -0.1460466,0.14605 -0.028334,0.0227 -0.06491,0.0324 -0.097364,0.0487 -0.032455,0.0162 -0.062162,0.0399 -0.097364,0.0487 -0.031486,0.008 -0.066575,-0.0103 -0.097364,0 -0.021772,0.007 -0.028156,0.0384 -0.048682,0.0487 -0.014514,0.007 -0.034168,-0.007 -0.048682,0 -0.052332,0.0262 -0.093715,0.0712 -0.1460467,0.0974 -0.014514,0.007 -0.048682,0.0162 -0.048682,0 0,-0.005 0.2234654,0.005 0.2434112,0 0.049783,-0.0125 0.096263,-0.0362 0.1460466,-0.0487 0.031486,-0.008 0.065351,0.005 0.097364,0 0.5101404,-0.085 5.107e-4,-0.01 0.4381402,-0.0974 0.015912,-0.003 0.033288,0.005 0.048682,0 0.034423,-0.0115 0.062162,-0.0399 0.097364,-0.0487 0.031486,-0.008 0.06491,0 0.097365,0 0.016227,0 0.034168,0.007 0.048682,0 0.052332,-0.0262 0.091723,-0.0756 0.1460466,-0.0974 0.030134,-0.0121 0.066575,0.0103 0.097365,0 0.02177,-0.007 0.032455,-0.0325 0.048682,-0.0487 0.032455,-0.0162 0.062162,-0.0399 0.097364,-0.0487 0.2735432,-0.0684 -0.033934,0.0713 0.1460468,-0.0487 0.030191,-0.0201 0.06491,-0.0325 0.097365,-0.0487 0.032455,-0.0162 0.062162,-0.0399 0.097364,-0.0487 0.031486,-0.008 0.066575,0.0103 0.097365,0 0.02177,-0.007 0.029588,-0.036 0.048682,-0.0487 0.089875,-0.0599 0.2022184,-0.0861 0.2920934,-0.14604 0.019095,-0.0127 0.029587,-0.036 0.048682,-0.0487 0.030191,-0.0201 0.067173,-0.0285 0.097364,-0.0487 0.019095,-0.0127 0.028156,-0.0384 0.048682,-0.0487 0.014515,-0.007 0.037208,0.0115 0.048682,0 0.011475,-0.0115 -0.00726,-0.0342 0,-0.0487 0.1013018,-0.20261 -0.00336,0.052 0.097364,-0.0487 0.011475,-0.0115 -0.00726,-0.0342 0,-0.0487 0.010263,-0.0205 0.032455,-0.0324 0.048682,-0.0487 0.032455,-0.0325 0.069826,-0.0607 0.097365,-0.0974 0.021773,-0.029 0.028555,-0.0672 0.048682,-0.0974 0.012729,-0.0191 0.038419,-0.0282 0.048682,-0.0487 0.00726,-0.0145 -0.00726,-0.0342 0,-0.0487 0.010263,-0.0205 0.035952,-0.0296 0.048682,-0.0487 0.020127,-0.0302 0.032455,-0.0649 0.048682,-0.0974 0.032455,-0.0324 0.069826,-0.0607 0.097365,-0.0974 0.021772,-0.029 0.028555,-0.0672 0.048682,-0.0974 0.012729,-0.0191 0.035952,-0.0296 0.048682,-0.0487 0.020127,-0.0302 0.023024,-0.0717 0.048682,-0.0974 0.011475,-0.0115 0.034168,0.007 0.048682,0 0.020526,-0.0103 0.071631,-0.0487 0.048682,-0.0487 -0.036285,0 -0.1336501,0.0487 -0.097364,0.0487 0.01901,0 0.214317,-0.0683 0.2434111,-0.0974 0.1007253,-0.10073 -0.1539216,0.004 0.048682,-0.0974 0.014515,-0.007 0.034168,0.007 0.048682,0 0.020526,-0.0103 0.028156,-0.0384 0.048682,-0.0487 0.029029,-0.0145 0.068336,0.0145 0.097365,0 0.020526,-0.0103 0.028156,-0.0384 0.048682,-0.0487 0.029028,-0.0145 0.068336,0.0145 0.097364,0 0.020526,-0.0103 0.028156,-0.0384 0.048682,-0.0487 0.014515,-0.007 0.032455,0 0.048682,0 0.041785,0 0.2636105,0.009 0.2920934,0 0.021773,-0.007 0.026911,-0.0414 0.048682,-0.0487 0.046184,-0.0154 0.097364,0 0.1460465,0 0.113592,0 0.227184,0 0.3407757,0 0.2109565,0 0.4219128,0 0.632869,0 0.032455,0 0.066575,-0.0103 0.097365,0 0.034423,0.0115 0.062941,0.0372 0.097364,0.0487 0.015393,0.005 0.05882,-0.0127 0.048682,0 -0.071681,0.0896 -0.1622742,0.16227 -0.2434111,0.24341"
       id="path96"
       inkscape:connector-curvature="0" />
    <path
       style="fill:#ffd5d5;stroke:#000000;stroke-width:0.26458332px;stroke-linecap:butt;stroke-linejoin:miter;stroke-opacity:1"
       d="m 9.3956713,282.9307 c 0.3880855,0.56796 0.427569,-0.34066 0.6815507,-0.34066 0.03628,0 0.06294,0.0372 0.09736,0.0487 0.0154,0.005 0.03246,0 0.04868,0 0.01181,0 0.144481,0.002 0.146047,0 0.01147,-0.0115 -0.01148,-0.0372 0,-0.0487 0.01147,-0.0115 0.03246,0 0.04868,0 0.01623,0 0.03246,0 0.04868,0 0.19473,0 0.389458,0 0.584187,0 0.243412,0 0.486823,0 0.730234,0 0.01623,0 0.03417,-0.007 0.04868,0 0.02336,0.0117 0.05175,0.083 0.09736,0.0487 0.05509,-0.0414 0.09736,-0.0976 0.146033,-0.14633"
       id="path98"
       inkscape:connector-curvature="0" />
    <path
       style="fill:#ffd5d5;stroke:#999999;stroke-width:0.18399583"
       d="m 41.597986,54.349947 c -2.822168,-0.248842 -4.971937,-0.572835 -5.547682,-0.836094 -0.318887,-0.145811 -0.685966,-0.265111 -0.815731,-0.265111 -0.320354,0 -2.320455,-0.690349 -3.103329,-1.071136 -0.772541,-0.37576 -1.415059,-1.034434 -1.761242,-1.805525 -0.231671,-0.516026 -0.222189,-0.65156 0.0901,-1.287971 0.19196,-0.391192 0.613098,-0.996451 0.935863,-1.345019 0.505112,-0.545494 0.711129,-0.63658 1.479202,-0.653999 1.024214,-0.02323 1.114468,-0.07997 1.151711,-0.724119 0.03213,-0.555641 0.143649,-0.587004 0.533632,-0.150072 0.356913,0.399881 0.631482,1.431381 0.795871,2.989932 0.06938,0.657785 0.206366,1.350958 0.304412,1.540383 0.172054,0.332409 0.191691,0.330984 0.563585,-0.04091 0.305187,-0.305188 0.38744,-0.622333 0.395519,-1.525019 0.0066,-0.740424 0.09078,-1.166568 0.240196,-1.216395 0.143141,-0.04773 0.229995,0.09712 0.229995,0.383577 0,0.995581 0.580858,1.396682 1.106103,0.763801 0.258129,-0.311027 0.123685,-1.877176 -0.18789,-2.188752 -0.100227,-0.100227 -0.18223,-0.239969 -0.18223,-0.310539 0,-0.395867 5.259983,-0.724051 6.768668,-0.422314 0.513542,0.102708 0.573644,0.195988 0.741961,1.151539 0.100735,0.571878 0.139207,1.26967 0.0855,1.550648 -0.06501,0.340088 0.01172,0.631734 0.229534,0.872415 0.568735,0.628445 0.963728,0.391749 1.033777,-0.619482 0.0152,-0.219418 0.0773,-0.02635 0.137997,0.429039 0.0979,0.73453 0.167589,0.834564 0.617396,0.886302 0.341771,0.03931 0.545431,-0.04174 0.624836,-0.248661 0.108122,-0.281761 -0.199703,-3.018047 -0.432093,-3.840927 -0.09581,-0.339269 0.01066,-0.347342 3.096419,-0.234774 3.650222,0.133159 4.929905,0.311048 6.112246,0.849666 0.459318,0.209244 0.901766,0.381324 0.983217,0.382399 0.08145,0.0011 0.562081,0.331388 1.06807,0.734028 0.505988,0.40264 1.002777,0.733017 1.103975,0.734172 0.258383,0.0029 1.563964,1.189612 1.563964,1.421514 0,0.105161 -0.124197,0.294276 -0.275993,0.420256 -0.391889,0.325239 -0.343105,0.53558 0.16941,0.730438 0.536009,0.20379 0.460238,0.813542 -0.147969,1.190745 -0.363727,0.225579 -2.890277,0.863554 -4.345343,1.097235 -4.269534,0.685681 -11.528316,0.996907 -15.363653,0.658729 z"
       id="path100"
       inkscape:connector-curvature="0"
       transform="matrix(0.26458333,0,0,0.26458333,0,270.54165)" />
    <path
       style="fill:#ffd5d5;stroke:#999999;stroke-width:0.18399583"
       d="m 12.142508,56.871839 c 0.193515,-0.120546 0.499605,-0.359668 0.680199,-0.531382 0.180594,-0.171714 0.560451,-0.434235 0.844127,-0.58338 0.597773,-0.314284 2.815721,-2.548063 2.815721,-2.835819 0,-0.106848 0.200559,-0.594363 0.445687,-1.083367 0.962205,-1.919494 0.769424,-2.452854 -0.763775,-2.113113 -0.482837,0.106992 -1.477878,0.288699 -2.211202,0.403794 -0.733325,0.115096 -1.379897,0.284631 -1.436827,0.376746 -0.05693,0.09211 -0.287195,0.167482 -0.5117,0.167482 -0.224504,0 -0.57151,0.10617 -0.771123,0.235932 -0.199613,0.129763 -0.859722,0.39407 -1.4669078,0.587349 -0.6071863,0.193279 -1.2672949,0.4597 -1.4669079,0.592048 -0.1996132,0.132349 -0.4894067,0.241442 -0.6439854,0.242431 -0.154579,9.88e-4 -0.7157427,0.204175 -1.2470307,0.451525 -0.531288,0.24735 -0.9659781,0.379597 -0.9659781,0.293882 0,-0.08572 0.1276803,-0.204842 0.2837341,-0.264725 0.1560537,-0.05988 0.4251476,-0.421661 0.5979864,-0.80395 0.1728388,-0.382289 0.4798486,-0.870809 0.6822441,-1.085599 0.2023954,-0.21479 0.6991841,-0.800701 1.103975,-1.302024 0.6537876,-0.8097 0.8695512,-0.945318 1.9319563,-1.214332 1.517285,-0.384196 5.444849,-0.698585 6.271135,-0.501984 0.851067,0.202496 2.307672,0.852989 2.459256,1.098257 0.355296,0.57488 3.77665,-0.104351 5.553975,-1.102614 0.59566,-0.334563 0.784941,-0.35067 2.051194,-0.174551 0.767237,0.106713 1.426656,0.225701 1.465373,0.264417 0.03871,0.03872 0.01672,0.356454 -0.04886,0.706083 l -0.119257,0.63569 -2.330552,0.108825 c -2.297832,0.107297 -3.96226,0.471644 -4.355214,0.953365 -0.101586,0.124534 -0.349981,0.27925 -0.551988,0.343812 -0.202007,0.06456 -0.491482,0.3125 -0.643279,0.550972 -2.103629,3.304796 -2.994028,4.035225 -6.439854,5.282864 -0.354192,0.128243 -0.722644,0.302697 -0.818782,0.387675 -0.09614,0.08498 -0.303133,0.149637 -0.459989,0.143686 -0.223767,-0.0085 -0.209411,-0.05803 0.06665,-0.229995 z"
       id="path102"
       inkscape:connector-curvature="0"
       transform="matrix(0.26458333,0,0,0.26458333,0,270.54165)" />
    <path
       style="fill:#0000ff;stroke:#999999;stroke-width:0.18399583"
       d="m 33.179479,43.768082 c -0.368369,-0.250313 -0.716457,-0.455116 -0.773528,-0.455116 -0.05707,0 -0.475907,-0.174927 -0.930747,-0.388727 -0.58156,-0.273366 -1.004146,-0.353632 -1.423962,-0.270468 -1.418332,0.280964 -1.819465,-0.02959 -1.598568,-1.237581 0.139573,-0.763262 0.734434,-1.403435 1.311181,-1.411057 0.31337,-0.0041 0.394263,0.159675 0.611268,1.23788 0.07221,0.358795 0.231941,0.597987 0.399324,0.597987 0.289479,0 1.393478,0.705558 1.501084,0.959332 0.03373,0.07955 0.186809,0.144643 0.34017,0.144643 0.266182,0 1.424315,1.08745 1.295413,1.216352 -0.03403,0.03403 -0.363265,-0.142931 -0.731635,-0.393245 z"
       id="path104"
       inkscape:connector-curvature="0"
       transform="matrix(0.26458333,0,0,0.26458333,0,270.54165)" />
    <path
       style="fill:#0000ff;stroke:#999999;stroke-width:0.18399583"
       d="m 43.644725,39.977587 c -0.168112,-0.240094 -0.573204,-0.526253 -0.900204,-0.635909 -0.519461,-0.174195 -0.601113,-0.290381 -0.646535,-0.919979 -0.04566,-0.632889 0.02663,-0.782751 0.59385,-1.231138 0.450668,-0.35625 0.772195,-0.477955 1.063965,-0.402733 0.528625,0.136286 1.43084,0.911259 1.427802,1.226433 -0.0013,0.131351 -0.279259,0.725054 -0.617761,1.319341 l -0.615459,1.08052 z"
       id="path106"
       inkscape:connector-curvature="0"
       transform="matrix(0.26458333,0,0,0.26458333,0,270.54165)" />
    <path
       style="fill:#ffff00;stroke:#999999;stroke-width:0.18399583"
       d=""
       id="path126"
       inkscape:connector-curvature="0"
       transform="matrix(0.26458333,0,0,0.26458333,0,270.54165)" />
    <path
       style="fill:#ffff00;stroke:#999999;stroke-width:0.18399583"
       d="m 19.701305,62.770526 c -0.09579,-0.269905 -0.472851,-3.699638 -0.480423,-4.369901 -0.01046,-0.925602 0.252817,-1.644573 0.712501,-1.94577 0.459823,-0.301288 0.465495,-0.299143 0.342932,0.129723 -0.221902,0.776468 -0.488476,4.829097 -0.37059,5.63396 0.106806,0.729217 -0.02,1.071626 -0.20442,0.551988 z"
       id="path128"
       inkscape:connector-curvature="0"
       transform="matrix(0.26458333,0,0,0.26458333,0,270.54165)" />
    <path
       style="fill:#ffff00;stroke:#999999;stroke-width:0.18399583"
       d="m 23.474397,54.067056 c 0,-0.05592 0.558887,-0.352227 1.241972,-0.65847 0.683084,-0.306243 1.475399,-0.682552 1.760699,-0.836242 0.2853,-0.15369 0.572165,-0.225999 0.637477,-0.160686 0.249696,0.249696 -0.302552,0.751618 -0.990233,0.899996 -0.394878,0.0852 -1.072066,0.312896 -1.504863,0.505989 -0.800352,0.357077 -1.145052,0.432159 -1.145052,0.249413 z"
       id="path132"
       inkscape:connector-curvature="0"
       transform="matrix(0.26458333,0,0,0.26458333,0,270.54165)" />
    <path
       style="fill:#ffff00;stroke:#999999;stroke-width:0.18399583"
       d=""
       id="path138"
       inkscape:connector-curvature="0"
       transform="matrix(0.26458333,0,0,0.26458333,0,270.54165)" />
    <path
       style="fill:#ffff00;stroke:#999999;stroke-width:0.18399583"
       d="m 31.018226,55.95311 c 0,-0.03056 0.40198,-0.49742 0.893289,-1.037461 0.858625,-0.94379 0.920492,-0.976789 1.594321,-0.850378 l 0.701033,0.131515 -0.81033,0.460275 c -0.445681,0.253152 -0.852633,0.522417 -0.904337,0.598368 -0.150509,0.221089 -1.473976,0.84753 -1.473976,0.697681 z"
       id="path140"
       inkscape:connector-curvature="0"
       transform="matrix(0.26458333,0,0,0.26458333,0,270.54165)" />
    <path
       style="fill:#ffff00;stroke:#999999;stroke-width:0.18399583"
       d="m 27.357163,60.689268 c -0.01514,-0.895465 0.05732,-1.197043 0.367639,-1.53013 0.468467,-0.502841 0.649661,-0.397978 0.331251,0.191706 -0.127627,0.236362 -0.332847,0.885139 -0.456043,1.441727 l -0.223992,1.011977 z"
       id="path142"
       inkscape:connector-curvature="0"
       transform="matrix(0.26458333,0,0,0.26458333,0,270.54165)" />
    <path
       style="fill:#ffff00;stroke:#999999;stroke-width:0.18399583"
       d="m 37.200393,65.004811 c -0.04529,-0.140981 -0.178846,-0.587522 -0.296781,-0.992313 -0.117936,-0.404791 -0.426931,-1.154691 -0.686658,-1.666445 l -0.472229,-0.930462 0.718681,-1.368932 c 0.395274,-0.752913 0.863577,-1.514078 1.040673,-1.691479 0.177096,-0.177401 0.321993,-0.393255 0.321993,-0.479675 0,-0.08642 0.186296,-0.363944 0.41399,-0.616718 0.227695,-0.252774 0.67602,-0.761654 0.996276,-1.130843 0.409349,-0.471893 0.734284,-0.671252 1.09407,-0.671252 h 0.511785 l -0.552915,0.597986 c -0.304103,0.328893 -0.77032,0.895856 -1.036037,1.259918 -0.265718,0.364062 -0.86113,1.022194 -1.323138,1.462516 l -0.840014,0.800585 v 1.330107 c 0,0.731558 0.08835,1.965329 0.196336,2.741713 0.176338,1.267822 0.128415,2.022772 -0.08603,1.355294 z"
       id="path144"
       inkscape:connector-curvature="0"
       transform="matrix(0.26458333,0,0,0.26458333,0,270.54165)" />
    <path
       style="fill:#ffff00;stroke:#999999;stroke-width:0.18399583"
       d="m 50.890464,66.392869 c 3.79e-4,-0.09483 0.171953,-0.453347 0.381277,-0.796701 0.593484,-0.97349 1.093575,-2.695225 1.395241,-4.803597 0.409147,-2.859564 0.311025,-4.257733 -0.326756,-4.656034 -0.190561,-0.119008 -0.346475,-0.362057 -0.346475,-0.540109 0,-0.270593 0.169809,-0.323732 1.034507,-0.323732 0.898699,0 1.004436,0.03623 0.805451,0.275993 -0.156504,0.188577 -0.170424,0.348842 -0.04395,0.505989 0.312217,0.38793 0.963942,3.365267 0.963687,4.402502 -2.02e-4,0.842974 -0.10271,1.126995 -0.735983,2.039292 -0.404659,0.582954 -0.735743,1.134941 -0.735743,1.226639 0,0.0917 -0.0621,0.194322 -0.137997,0.228055 -0.0759,0.03373 -0.367255,0.399231 -0.64746,0.812219 -0.572395,0.843641 -1.606854,1.893356 -1.605801,1.629484 z"
       id="path146"
       inkscape:connector-curvature="0"
       transform="matrix(0.26458333,0,0,0.26458333,0,270.54165)" />
    <path
       style="fill:#ffff00;stroke:#999999;stroke-width:0.18399583"
       d="m 60.896918,67.370422 c 0.137175,-0.328893 0.395218,-1.011977 0.573429,-1.517966 0.178212,-0.505988 0.519869,-1.458167 0.759238,-2.115952 0.632097,-1.736995 1.058917,-3.887725 0.919264,-4.632136 -0.06585,-0.350999 -0.325734,-0.917412 -0.577525,-1.258696 -0.251791,-0.341283 -0.457802,-0.721727 -0.457802,-0.845429 0,-0.123703 -0.196977,-0.293913 -0.437727,-0.378245 -0.516254,-0.180837 -1.845269,-1.351979 -2.004186,-1.76611 -0.137854,-0.35924 0.210454,-0.503335 1.21499,-0.502642 0.646933,4.46e-4 0.824512,0.08673 1.134925,0.551458 0.202395,0.303011 0.425251,0.551168 0.495235,0.551459 0.06998,2.9e-4 0.514769,0.504148 0.988412,1.119683 l 0.86117,1.119155 -0.124418,1.502786 c -0.06843,0.826532 -0.239375,1.999575 -0.379876,2.606761 -0.140502,0.607186 -0.30605,1.393768 -0.367884,1.74796 -0.339101,1.942405 -0.530047,2.37412 -1.500208,3.391864 -1.114812,1.16949 -1.46361,1.304951 -1.097037,0.42605 z"
       id="path148"
       inkscape:connector-curvature="0"
       transform="matrix(0.26458333,0,0,0.26458333,0,270.54165)" />
    <path
       style="fill:#ffff00;stroke:#999999;stroke-width:0.18399583"
       d="m 63.585489,68.269712 c 0,-0.162659 0.215103,-1.021478 0.478008,-1.908487 0.919502,-3.102292 1.652472,-7.521527 1.448124,-8.731054 -0.08699,-0.514893 -0.433599,-1.083216 -1.208058,-1.980814 -0.597336,-0.692313 -1.086066,-1.308675 -1.086066,-1.369694 0,-0.06102 -0.161362,-0.272305 -0.358583,-0.469525 -0.338132,-0.338133 -0.341764,-0.393224 -0.06368,-0.965978 0.162196,-0.334068 0.320583,-0.638919 0.351971,-0.677448 0.03139,-0.03853 0.506596,0.112397 1.056017,0.33539 0.549421,0.222994 1.132822,0.425092 1.296446,0.449107 0.163624,0.02401 0.396017,0.142183 0.51643,0.262596 0.120413,0.120413 0.322456,0.218932 0.448984,0.218932 0.126529,0 0.296265,0.109973 0.377192,0.244384 0.08093,0.134411 0.436933,0.401887 0.791125,0.594391 0.962433,0.523085 2.208582,1.761338 2.203426,2.189467 -0.0085,0.709517 -1.489375,4.531733 -2.858703,7.378683 -0.638354,1.327192 -2.448505,3.952502 -3.08432,4.473268 -0.265279,0.217279 -0.308311,0.211247 -0.308311,-0.04322 z"
       id="path150"
       inkscape:connector-curvature="0"
       transform="matrix(0.26458333,0,0,0.26458333,0,270.54165)" />
  </g>
</svg>
