<?xml version="1.0" encoding="UTF-8" standalone="no"?>
<!-- Created with Inkscape (http://www.inkscape.org/) -->

<svg
   xmlns:dc="http://purl.org/dc/elements/1.1/"
   xmlns:cc="http://creativecommons.org/ns#"
   xmlns:rdf="http://www.w3.org/1999/02/22-rdf-syntax-ns#"
   xmlns:svg="http://www.w3.org/2000/svg"
   xmlns="http://www.w3.org/2000/svg"
   xmlns:sodipodi="http://sodipodi.sourceforge.net/DTD/sodipodi-0.dtd"
   xmlns:inkscape="http://www.inkscape.org/namespaces/inkscape"
   width="50"
   height="100"
   viewBox="0 0 13.229166 26.458334"
   version="1.1"
   id="svg8"
   inkscape:version="0.92.3 (2405546, 2018-03-11)"
   sodipodi:docname="Skeleton body.svg">
  <defs
     id="defs2" />
  <sodipodi:namedview
     id="base"
     pagecolor="#ffffff"
     bordercolor="#666666"
     borderopacity="1.0"
     inkscape:pageopacity="0.0"
     inkscape:pageshadow="2"
     inkscape:zoom="5.9391753"
     inkscape:cx="14.01526"
     inkscape:cy="50.310745"
     inkscape:document-units="mm"
     inkscape:current-layer="layer1"
     showgrid="false"
     units="px"
     inkscape:window-width="1920"
     inkscape:window-height="1016"
     inkscape:window-x="1920"
     inkscape:window-y="27"
     inkscape:window-maximized="1" />
  <metadata
     id="metadata5">
    <rdf:RDF>
      <cc:Work
         rdf:about="">
        <dc:format>image/svg+xml</dc:format>
        <dc:type
           rdf:resource="http://purl.org/dc/dcmitype/StillImage" />
        <dc:title></dc:title>
      </cc:Work>
    </rdf:RDF>
  </metadata>
  <g
     inkscape:label="Layer 1"
     inkscape:groupmode="layer"
     id="layer1"
     transform="translate(0,-270.54165)">
    <path
       style="fill:none;stroke:#000000;stroke-width:0.26458332px;stroke-linecap:butt;stroke-linejoin:miter;stroke-opacity:1"
       d="m 3.9648463,273.03271 c -0.029699,0.0594 -0.05493,0.12125 -0.089098,0.1782 -0.021609,0.036 -0.070314,0.0515 -0.089098,0.0891 -0.00664,0.0133 0.0047,0.0305 0,0.0446 -0.031184,0.0935 -0.1024622,0.17374 -0.1336463,0.2673 -0.037495,0.11248 0.090483,-0.0464 -0.044549,0.13364 -0.025202,0.0336 -0.065799,0.0541 -0.089098,0.0891 -0.016473,0.0247 0.013282,0.0625 0,0.0891 -0.00939,0.0188 -0.029699,0.0297 -0.044549,0.0445 0,0.0297 0.0072,0.0603 0,0.0891 -0.017981,0.0719 -0.043813,0.0884 -0.089098,0.13365 -0.014848,0.0148 -0.037908,0.0246 -0.044549,0.0445 -0.00939,0.0282 0.0072,0.0603 0,0.0891 -0.053781,0.21512 -0.021169,-0.002 -0.089098,0.13364 -0.014674,0.0293 0.013732,0.2261 0,0.2673 -0.00664,0.0199 -0.035157,0.0258 -0.044549,0.0445 -0.00677,0.0136 0,0.14744 0,0.1782 0,0.0743 0,0.1485 0,0.22274 0,0.0297 -0.00939,0.0609 0,0.0891 0.010501,0.0315 0.034049,0.0576 0.044549,0.0891 0.00876,0.0263 0,0.19785 0,0.22274 0,0.0149 -0.010501,0.034 0,0.0445 0.010501,0.0105 0.034048,-0.0105 0.044549,0 0.021,0.021 -0.013282,0.0625 0,0.0891 0.1477499,0.14775 -0.021,-0.042 0.044549,0.0891 0.00939,0.0188 0.035157,0.0258 0.044549,0.0446 0.01782,0.0356 -0.01782,0.098 0,0.13364 0.00939,0.0188 0.025765,0.0352 0.044549,0.0445 0.013282,0.007 0.037908,-0.0133 0.044549,0 0.013282,0.0266 -0.00939,0.0609 0,0.0891 0.013282,0.0399 0.070314,0.0515 0.089098,0.0891 0.00664,0.0133 -0.010501,0.0341 0,0.0446 0.010501,0.0105 0.044549,0.0149 0.044549,0 0,-0.021 -0.065549,-0.0446 -0.044549,-0.0446 0.1075618,0 0.06582,0.0552 0.1336463,0.0891 0.013282,0.007 0.034049,-0.0105 0.044549,0 0.010501,0.0105 -0.010501,0.034 0,0.0445 0.021,0.021 0.089098,-0.0297 0.089098,0 0,0.0631 -0.2078945,-0.12622 0.044549,0 0.1187969,0.0594 -0.1336466,0.0446 0.044549,0.0446 0.104475,0 -0.021,-0.0105 0.089098,0.0446 0.013282,0.007 0.044549,-0.0149 0.044549,0 0,0.0148 -0.05119,-0.0133 -0.044549,0 0.049799,0.0996 0.064703,0.0891 0.1336466,0.0891 0.014848,0 0.034048,-0.0105 0.044549,0 0.010501,0.0105 -0.010501,0.034 0,0.0446 0.010501,0.0105 0.037908,-0.0133 0.044549,0 0.013282,0.0266 -0.021,0.0681 0,0.0891 0.021,0.021 0.068097,-0.021 0.089098,0 0.021,0.021 -0.021,0.0681 0,0.0891 0.021,0.021 0.060922,-0.009 0.089098,0 0.1390512,0.0464 -0.014848,0.0297 0.044549,0.0891 0.010501,0.0105 0.031267,-0.007 0.044549,0 0.1854018,0.0927 -0.047624,-0.003 0.044549,0.0891 0.059398,0.0594 0.044549,-0.0743 0.044549,0.0446 0,0.0148 0.014848,0.0446 0,0.0446 -0.014848,0 0,-0.0594 0,-0.0446 0,0.0297 0,0.0594 0,0.0891 0,0.0149 -0.00664,0.0313 0,0.0445 0.00939,0.0188 0.035157,0.0258 0.044549,0.0445 0.00678,0.0136 0,0.11359 0,0.13365 0,0.0445 0,0.0891 0,0.13365 0,0.0148 0,0.0594 0,0.0446 0,-0.0297 0,-0.1188 0,-0.0891 0,0.0446 0,0.0891 0,0.13364 0,0.0148 0.014848,0.0446 0,0.0446 -0.014851,0 0,-0.0594 0,-0.0446 0,0.10395 0,0.2079 0,0.31185 0,0.0445 0,0.0891 0,0.13364 0,0.0148 0.014848,0.0445 0,0.0445 -0.014851,0 0,-0.0297 0,-0.0445 0.089097,0.0149 0.1815999,0.016 0.2672909,0.0445 0.014088,0.005 -0.0105,0.0341 0,0.0446 0.0105,0.0105 0.044549,0.0149 0.044549,0 0,-0.021 -0.065549,-0.0446 -0.044549,-0.0446 0.033205,0 0.057597,0.0341 0.089098,0.0446 0.034856,0.0116 0.089098,-0.0186 0.089098,0 0,0.0149 -0.044549,0.0149 -0.044549,0 0,-0.0148 0.029699,0 0.044549,0 0.029699,0 0.059398,0 0.089098,0 0.01485,0 0.059398,0 0.044549,0 -0.1019413,0 -0.1712134,-0.009 0.044549,0.0446 0.014406,0.004 0.029699,0 0.044549,0 0.029699,0 0.059398,0 0.089098,0 0.089098,0 0.1781954,0 0.267293,0 0.029699,0 0.060923,-0.009 0.089098,0 0.019923,0.007 0.025765,0.0352 0.044549,0.0446 0.013282,0.007 0.029699,0 0.044549,0 0.029699,0 0.059398,0 0.089098,0 0.074248,0 0.1484962,0 0.2227442,0 0.029699,0 0.059399,0 0.089098,0 0.01485,0 0.031267,-0.007 0.044549,0 0.018783,0.009 0.025765,0.0351 0.044549,0.0445 0.013544,0.007 0.1474334,0 0.1781954,0 0.1336465,0 0.267293,0 0.4009395,0 0.010804,0 0.1322138,0.001 0.1336465,0 0.0105,-0.0105 -0.0105,-0.034 0,-0.0445 0.0105,-0.0105 0.031267,0.007 0.044549,0 0.018784,-0.009 0.025765,-0.0352 0.044549,-0.0446 0.013282,-0.007 0.031267,0.007 0.044549,0 0.018783,-0.009 0.025765,-0.0352 0.044549,-0.0446 0.013282,-0.007 0.034049,0.0105 0.044549,0 0.023479,-0.0235 0.02107,-0.0656 0.044549,-0.0891 0.0105,-0.0105 0.031267,0.007 0.044549,0 0.018783,-0.009 0.029699,-0.0297 0.044549,-0.0446"
       id="path10"
       inkscape:connector-curvature="0" />
    <path
       style="fill:none;stroke:#000000;stroke-width:0.26458332px;stroke-linecap:butt;stroke-linejoin:miter;stroke-opacity:1"
       d="m 4.6330809,277.93309 c 0.044548,-0.2079 0.075235,-0.41926 0.1336442,-0.62369 0.00408,-0.0143 0.029699,0 0.044549,0 0.1484961,0 0.2969922,0 0.4454882,0 0.2078948,0 0.4157893,0 0.6236838,0 0.074248,0 0.1484961,0 0.2227442,0 0.029699,0 0.060922,0.009 0.089098,0 0.019923,-0.007 0.025765,-0.0352 0.044549,-0.0445 0.013557,-0.007 0.1135837,0 0.1336466,0 0.1039473,0 0.2078945,0 0.3118418,0 0.059399,0 0.1187969,0 0.1781953,0 0.014851,0 0.044549,-0.0149 0.044549,0 0,0.0148 -0.059398,0 -0.044549,0 0.029699,0 0.059398,0 0.089098,0 0.014848,0 0.035917,-0.0121 0.044549,0 0.1436521,0.2011 0.2672961,0.41576 0.4009443,0.62364"
       id="path12"
       inkscape:connector-curvature="0" />
    <path
       style="fill:none;stroke:#000000;stroke-width:0.26458332px;stroke-linecap:butt;stroke-linejoin:miter;stroke-opacity:1"
       d="m 5.5240554,277.26485 c 0,0.10395 0,0.20789 0,0.31184 0,0.0812 0,0.17026 0,0.0891 0,-0.0297 0,-0.1188 0,-0.0891 0,0.0446 0,0.0891 0,0.13365 0,0.0149 0,-0.0594 0,-0.0445 0,0.0445 0,0.0891 0,0.13365"
       id="path14"
       inkscape:connector-curvature="0" />
    <path
       style="fill:none;stroke:#000000;stroke-width:0.26458332px;stroke-linecap:butt;stroke-linejoin:miter;stroke-opacity:1"
       d="m 6.5041298,277.26485 c 0,0.13365 0,0.26729 0,0.40094 0,0.0297 0,0.1188 0,0.0891 0,-0.0297 0,-0.1188 0,-0.0891 0,0.0891 0,0.17819 0,0.26729 0,0.0148 0.014848,0.0445 0,0.0445 -0.014849,0 -0.014087,-0.0492 0,-0.0445 0.1831408,0.0611 0.3563929,0.14854 0.5345895,0.22281"
       id="path16"
       inkscape:connector-curvature="0" />
    <path
       style="fill:none;stroke:#000000;stroke-width:0.26458332px;stroke-linecap:butt;stroke-linejoin:miter;stroke-opacity:1"
       d="m 3.9648463,273.03271 c 0.042894,-0.13282 0.1563346,0.0332 0.222744,0 0.2038826,-0.10194 -0.1890393,0.0185 0.1336466,-0.0891 0.014086,-0.005 0.031267,0.007 0.044549,0 0.037567,-0.0188 0.049252,-0.0758 0.089098,-0.0891 0.028175,-0.009 0.062534,0.0133 0.089098,0 0.013282,-0.007 -0.013282,-0.0379 0,-0.0445 0.026564,-0.0133 0.060285,0.007 0.089098,0 0.032213,-0.008 0.056884,-0.0365 0.089098,-0.0446 0.028812,-0.007 0.060922,0.009 0.089098,0 0.019923,-0.007 0.024627,-0.0379 0.044549,-0.0446 0.028175,-0.009 0.059398,0 0.089098,0 0.014848,0 0.031267,0.007 0.044549,0 0.018783,-0.009 0.024625,-0.0379 0.044549,-0.0446 0.05635,-0.0188 0.1218448,0.0188 0.1781952,0 0.019923,-0.007 0.025765,-0.0352 0.044549,-0.0445 0.013282,-0.007 0.029699,0 0.044549,0 0.029699,0 0.060922,0.009 0.089098,0 0.019923,-0.007 0.024625,-0.0379 0.044549,-0.0446 0.066823,-0.0223 0.1559208,0.0223 0.222744,0 0.1966481,-0.0656 -0.1618531,-0.0446 0.1336466,-0.0446 0.029699,0 0.059398,0 0.089098,0 0.029699,0 0.060922,0.009 0.089098,0 0.019923,-0.007 0.024625,-0.0379 0.044549,-0.0446 0.060827,-0.0203 0.2064663,0.0203 0.2672929,0 0.019923,-0.007 0.024625,-0.0379 0.044549,-0.0445 0.028175,-0.009 0.059398,0 0.089098,0 0.029699,0 0.059398,0 0.089098,0 0.089098,0 0.1781952,0 0.2672929,0 0.044549,0 0.091384,0.0141 0.1336466,0 0.019923,-0.007 0.025765,-0.0352 0.044549,-0.0446 0.01611,-0.008 0.1917586,0 0.2227442,0 0.014848,0 0.034048,-0.0105 0.044549,0 0.010501,0.0105 -0.013282,0.0379 0,0.0446 0.026564,0.0133 0.059398,0 0.089098,0 0.074248,0 0.1484961,0 0.222744,0 0.029699,0 0.060923,-0.009 0.089098,0 0.031501,0.0105 0.056884,0.0365 0.089098,0.0445 0.036827,0.009 0.2446534,-0.0113 0.267293,0 0.018783,0.009 0.025765,0.0352 0.044549,0.0446 0.013282,0.007 0.029699,0 0.044549,0 0.029699,0 0.060285,-0.007 0.089098,0 0.032213,0.008 0.057597,0.0341 0.089098,0.0446 0.042263,0.0141 0.091384,-0.0141 0.1336466,0 0.019923,0.007 0.025765,0.0352 0.044549,0.0446 0.013282,0.007 0.029699,0 0.044549,0 0.044549,0 0.090428,-0.0108 0.1336464,0 0.020373,0.005 0.025765,0.0352 0.044549,0.0445 0.089098,0.0446 0,-0.0891 0.1336466,0 0.027628,0.0184 0.01692,0.0707 0.044549,0.0891 0.2117312,0.14115 -0.03745,-0.1711 0.1781953,0.0446 0.023479,0.0235 0.021069,0.0656 0.044549,0.0891 0.010501,0.0105 0.031267,-0.007 0.044549,0 0.047889,0.0239 0.090814,0.057 0.1336466,0.0891 0.016801,0.0126 0.027748,0.0319 0.044549,0.0446 0.042833,0.0321 0.090813,0.057 0.1336463,0.0891 0.033601,0.0252 0.051531,0.0703 0.089098,0.0891 0.013282,0.007 0.034049,-0.0105 0.044549,0 0.037859,0.0379 0.051238,0.0958 0.089098,0.13364 0.010501,0.0105 0.034049,-0.0105 0.044549,0 0.023479,0.0235 0.02613,0.0615 0.044549,0.0891 0.01165,0.0175 0.029699,0.0297 0.044549,0.0446 0.029699,0.0445 0.061551,0.0877 0.089098,0.13365 0.017084,0.0285 0.023805,0.0632 0.044549,0.0891 0.039357,0.0492 0.09429,0.0845 0.1336469,0.13365 0.0176,0.022 0.12372,0.23751 0.133646,0.26729 0.0047,0.0141 -0.0066,0.0313 0,0.0446 0.0094,0.0188 0.03946,0.0242 0.04455,0.0446 0.01081,0.0432 -0.01654,0.0923 0,0.13365 0.0156,0.039 0.0658,0.0541 0.0891,0.0891 0.0051,0.008 0,0.21639 0,0.22275 0,0.0891 0,0.17819 0,0.26729 0,0.0297 0,0.0594 0,0.0891 0,0.0148 0.0047,0.0305 0,0.0446 -0.0105,0.0315 -0.0365,0.0569 -0.04455,0.0891 -0.01441,0.0576 0.01878,0.12184 0,0.17819 -0.0066,0.0199 -0.03516,0.0258 -0.04455,0.0445 -0.0066,0.0133 0,0.0297 0,0.0446 -0.01485,0.0297 -0.02613,0.0615 -0.04455,0.0891 -0.01165,0.0175 -0.03791,0.0246 -0.04455,0.0446 -0.0094,0.0282 0.0094,0.0609 0,0.0891 -0.0066,0.0199 -0.03791,0.0246 -0.04455,0.0446 -0.0094,0.0282 0.01328,0.0625 0,0.0891 -0.01878,0.0376 -0.0639,0.0555 -0.089097,0.0891 -0.019923,0.0266 -0.02613,0.0615 -0.044549,0.0891 -0.01165,0.0175 -0.0329,0.0271 -0.044549,0.0446 -0.084394,-0.005 -0.029699,0.10395 -0.044549,0.13365 -0.00939,0.0188 -0.0329,0.0271 -0.044549,0.0446 -0.018418,0.0276 -0.021069,0.0656 -0.044549,0.0891 -0.010501,0.0105 -0.031267,-0.007 -0.044549,0 -0.017994,0.009 -0.1768599,0.17686 -0.1781953,0.17819 -0.024865,0.0249 -0.1955538,0.20915 -0.2227442,0.22275 -0.026564,0.0133 -0.068097,-0.021 -0.089098,0 -0.021,0.021 0.021,0.0681 0,0.0891 -0.021,0.021 -0.060922,-0.009 -0.089098,0 -0.019923,0.007 -0.029699,0.0297 -0.044549,0.0446 -0.029699,0.0297 -0.054151,0.0658 -0.089098,0.0891 -0.012356,0.008 -0.034048,-0.0105 -0.044549,0 -0.023479,0.0235 -0.021069,0.0656 -0.044549,0.0891 -0.021,0.021 -0.062534,-0.0133 -0.089098,0 -0.018783,0.009 -0.027075,0.0329 -0.044549,0.0446 -0.027628,0.0184 -0.06147,0.0261 -0.089098,0.0445 -0.034947,0.0233 -0.054151,0.0658 -0.089098,0.0891 -0.027628,0.0184 -0.06147,0.0261 -0.089098,0.0446 -0.017473,0.0117 -0.029699,0.0297 -0.044549,0.0446 -0.014851,0.0148 -0.035157,0.0258 -0.044549,0.0446 -0.00678,0.0136 0,0.11358 0,0.13365 0,0.11879 0,0.23759 0,0.35639"
       id="path18"
       inkscape:connector-curvature="0" />
    <path
       style="fill:none;stroke:#000000;stroke-width:0.26458332px;stroke-linecap:butt;stroke-linejoin:miter;stroke-opacity:1"
       d="m 7.3951123,277.88854 c 0.1919726,0.0559 0.3834373,0.0445 0.579129,0.0445 0.051082,0 0.1320474,0.0115 0.1781952,0 0.032213,-0.008 0.057597,-0.0341 0.089098,-0.0446 0.028175,-0.009 0.062534,0.0133 0.089098,0 0.037567,-0.0188 0.049252,-0.0758 0.089098,-0.0891 0.028175,-0.009 0.089095,0.0297 0.089098,0 2.9e-6,-0.0331 -0.059396,-0.0293 -0.089094,-0.0439 0.057127,0.19093 0.044544,0.3836 0.044544,0.57858 0,0.0148 -0.0105,0.034 0,0.0446 0.0105,0.0105 0.037908,-0.0133 0.044549,0 0.013282,0.0266 0,0.0594 0,0.0891 0,0.0297 0,0.0594 0,0.0891 0,0.0149 -0.00664,0.0313 0,0.0445 0.00939,0.0188 0.029699,0.0297 0.044549,0.0446"
       id="path20"
       inkscape:connector-curvature="0" />
    <path
       style="fill:none;stroke:#000000;stroke-width:0.26458332px;stroke-linecap:butt;stroke-linejoin:miter;stroke-opacity:1"
       d="m 7.0387193,278.15589 c -0.1519602,0.22341 0.1443353,0.16566 0.1781919,0.26723 0.00939,0.0282 0,0.0594 0,0.0891 0,0.0297 0,0.0594 0,0.0891 0,0.0297 -0.00939,0.0609 0,0.0891 0.00664,0.0199 0.037908,0.0246 0.044549,0.0446 0.00939,0.0282 0,0.0594 0,0.0891 0,0.0297 0,0.0594 0,0.0891 0,0.14849 -0.044549,0.13364 0.044549,0.13364 0.2819397,-0.047 0.176963,-0.0446 0.3118414,-0.0446 0.01485,0 0.030461,0.005 0.044549,0 0.031501,-0.0105 0.056884,-0.0365 0.089098,-0.0445 0.028812,-0.007 0.059399,0 0.089098,0 0.074248,0 0.1484961,0 0.2227442,0 0.01485,0 0.030461,0.005 0.044549,0 0.031501,-0.0105 0.057597,-0.0341 0.089098,-0.0446 0.028175,-0.009 0.062534,0.0133 0.089098,0 0.018783,-0.009 0.025765,-0.0352 0.044549,-0.0446 0.013282,-0.007 0.031267,0.007 0.044549,0 0.037567,-0.0188 0.054151,-0.0658 0.089098,-0.0891 0.1173807,-0.0783 0.089097,-0.005 0.089098,-0.13359"
       id="path22"
       inkscape:connector-curvature="0" />
    <path
       style="fill:none;stroke:#000000;stroke-width:0.26458332px;stroke-linecap:butt;stroke-linejoin:miter;stroke-opacity:1"
       d="m 7.3060091,279.04686 c 0.052258,0.32653 0.044548,0.65213 0.044548,0.98002 0,0.0669 -0.011806,0.16371 0,0.22274 0.00651,0.0326 0.034049,0.0576 0.044549,0.0891 0.00932,0.028 0,0.14233 0,0.17819"
       id="path24"
       inkscape:connector-curvature="0" />
    <path
       style="fill:none;stroke:#000000;stroke-width:0.26458332px;stroke-linecap:butt;stroke-linejoin:miter;stroke-opacity:1"
       d="m 7.3951059,280.51691 c 0.059399,-0.13365 0.088406,-0.28549 0.1781958,-0.40093 0.02735,-0.0352 0.089963,0.009 0.1336466,0 0.03256,-0.007 0.057597,-0.034 0.089098,-0.0445 0.014086,-0.005 0.030142,0.004 0.044549,0 0.1100981,-0.0275 0.130571,-0.043 0.2227442,-0.0891 0.029699,-0.0148 0.057597,-0.034 0.089098,-0.0446 0.066823,-0.0223 0.044549,0.0446 0.1336466,0 0.037567,-0.0188 0.051531,-0.0703 0.089098,-0.0891 0.026564,-0.0133 0.060285,0.007 0.089098,0 0.2151237,-0.0538 -0.0022,-0.0212 0.1336464,-0.0891 0.013282,-0.007 0.031267,0.007 0.044549,0 0.018783,-0.009 0.024625,-0.0379 0.044549,-0.0445 0.028175,-0.009 0.059398,0 0.089098,0 0.029699,-0.0148 0.059398,-0.0297 0.089098,-0.0446"
       id="path26"
       inkscape:connector-curvature="0" />
    <path
       style="fill:none;stroke:#000000;stroke-width:0.26458332px;stroke-linecap:butt;stroke-linejoin:miter;stroke-opacity:1"
       d="m 8.5533763,278.64592 c -0.044549,0.0891 -0.094407,0.17569 -0.1336468,0.26724 -0.00585,0.0136 0,0.0297 0,0.0446 0,0.23514 -0.010806,0.0351 0.044549,0.31184 0.00291,0.0146 0,0.0297 0,0.0446 0,0.0445 0,0.0891 0,0.13364 0,0.0594 0,0.1188 0,0.1782 0,0.0297 0,0.0594 0,0.0891 0,0.0149 -0.0047,0.0305 0,0.0445 0.010501,0.0315 0.038037,0.0565 0.044549,0.0891 0.00817,0.0408 0,0.26823 0,0.31184 0,0.0297 -0.00582,0.06 0,0.0891 0.00921,0.046 0.03534,0.0876 0.044549,0.13365 0.00582,0.0291 0,0.0594 0,0.0891 0,0.0742 -0.010501,0.14924 0,0.22274 0.0047,0.0329 0.036496,0.0569 0.044549,0.0891 0.0072,0.0288 0,0.0594 0,0.0891 0,0.0445 0,0.0891 0,0.13364 0,0.0445 -0.00874,0.09 0,0.13365 0.00651,0.0326 0.036496,0.0569 0.044549,0.0891 0.014407,0.0576 -0.00977,0.1196 0,0.17819 0.010065,0.0604 0.032541,0.11816 0.044549,0.1782 0.00291,0.0146 0,0.0297 0,0.0446 0,0.0445 0,0.0891 0,0.13364 0,0.0446 -0.0063,0.0896 0,0.13365 0.00866,0.0606 0.032541,0.11816 0.044549,0.17819 0.00927,0.0463 -0.01234,0.19807 0,0.22275 0.00939,0.0188 0.037908,0.0246 0.044549,0.0445 0.00821,0.0246 0,0.22243 0,0.26729 0,0.23121 0,0.20637 0,0.44549 0,0.0279 -0.0055,0.17269 0,0.17819 0.010501,0.0105 0.037908,-0.0133 0.044549,0 0.00547,0.0109 0,0.2853 0,0.31185 0,0.0148 -0.00664,0.0313 0,0.0445 0.00939,0.0188 0.035157,0.0258 0.044549,0.0446 0.00664,0.0133 -0.00664,0.0313 0,0.0446 0.1019413,0.20388 -0.018465,-0.18904 0.089098,0.13365 0.00906,0.0272 0,0.23288 0,0.26729 0,0.0148 0,0.0297 0,0.0445 0,0.0149 -0.00664,0.0313 0,0.0446 0.00939,0.0188 0.035157,0.0258 0.044549,0.0446 0.013179,0.0263 -0.00981,0.22803 0,0.26729 0.00805,0.0322 0.036496,0.0569 0.044549,0.0891 0.011536,0.0462 0,0.12711 0,0.17819 0,0.10448 -0.010501,-0.021 0.044549,0.0891 0.00678,0.0136 0,0.11358 0,0.13365 0,0.0891 0,0.17819 0,0.26729 0,0.1485 0,0.29699 0,0.44549 0,0.0743 0.014563,0.14994 0,0.22274 -0.00651,0.0326 -0.036495,0.0569 -0.044549,0.0891 -0.014406,0.0576 0.014407,0.12057 0,0.1782 -0.053781,0.21512 -0.021169,-0.002 -0.089098,0.13364 -0.00991,0.0198 0.00679,0.15782 0,0.1782 -0.00664,0.0199 -0.035157,0.0258 -0.044549,0.0445 -0.00991,0.0198 0.00679,0.15782 0,0.17819 -0.00664,0.0199 -0.0329,0.0271 -0.044549,0.0446 -0.018418,0.0276 -0.02613,0.0615 -0.044549,0.0891 -0.01165,0.0175 -0.035157,0.0258 -0.044549,0.0446 -0.00664,0.0133 0,0.0297 0,0.0445 0,0.0149 0,0.0297 0,0.0446 0,0.0149 0.00664,0.0313 0,0.0445 -0.00939,0.0188 -0.029699,0.0297 -0.044549,0.0445 -0.014848,0.0149 -0.029699,0.0594 -0.044549,0.0446 -0.014851,-0.0149 0.029699,-0.0297 0.044549,-0.0446"
       id="path28"
       inkscape:connector-curvature="0" />
    <path
       style="fill:none;stroke:#000000;stroke-width:0.26458332px;stroke-linecap:butt;stroke-linejoin:miter;stroke-opacity:1"
       d="m 7.3951059,280.51691 c 0.0297,0.1188 0.062534,0.23686 0.089098,0.3564 0.00644,0.029 0,0.0594 0,0.0891 0,0.0594 0,0.1188 0,0.1782 0,0.0297 0.00392,0.11853 0,0.0891 -0.031646,-0.23735 -0.059399,-0.47519 -0.089098,-0.71279"
       id="path30"
       inkscape:connector-curvature="0" />
    <path
       style="fill:none;stroke:#000000;stroke-width:0.26458332px;stroke-linecap:butt;stroke-linejoin:miter;stroke-opacity:1"
       d="m 7.3951059,280.51692 c 0.1039474,0.22274 0.1961693,0.45134 0.3118424,0.66823 0.019791,0.0371 0.061355,-0.0265 0.1336464,-0.0446 0.028813,-0.007 0.059398,0 0.089098,0 0.044549,-0.0297 0.083935,-0.0692 0.1336466,-0.0891 0.027575,-0.011 0.061523,0.011 0.089098,0 0.049712,-0.0199 0.083935,-0.0692 0.1336466,-0.0891 0.2027989,0 0.00254,0.021 0.1336464,-0.0446 0.028,-0.014 0.1501955,0.014 0.1781953,0 0.018783,-0.009 0.029699,-0.0297 0.044549,-0.0445"
       id="path32"
       inkscape:connector-curvature="0" />
    <path
       style="fill:none;stroke:#000000;stroke-width:0.26458332px;stroke-linecap:butt;stroke-linejoin:miter;stroke-opacity:1"
       d="m 7.9296926,281.14055 c -0.1336466,0.17821 -0.2917362,0.34048 -0.4009398,0.53463 -0.029119,0.0518 0,0.1188 0,0.1782 0,0.0297 0,0.0594 0,0.0891 0,0.0476 -0.00965,0.2636 0,0.31184 0.00921,0.046 0.03534,0.0876 0.044549,0.13365 0.00582,0.0291 0,0.0594 0,0.0891 0,0.10395 0,0.2079 0,0.31185 0.074248,-0.0446 0.1452975,-0.0949 0.2227442,-0.13366 0.035638,-0.0178 0.098008,0.0178 0.1336465,0 0.018783,-0.009 0.025765,-0.0352 0.044549,-0.0446 0.013282,-0.007 0.029699,0 0.044549,0 0.01485,-0.0148 0.025765,-0.0352 0.044549,-0.0445 0.013282,-0.007 0.031267,0.007 0.044549,0 0.018783,-0.009 0.024626,-0.0379 0.044549,-0.0446 0.028175,-0.009 0.059399,0 0.089098,0 0.01485,0 0.031267,0.007 0.044549,0 0.018783,-0.009 0.025765,-0.0351 0.044549,-0.0446 0.013282,-0.007 0.029699,0 0.044549,0 0.029699,0 0.060285,0.007 0.089098,0 0.032213,-0.008 0.056884,-0.0365 0.089098,-0.0446 0.043219,-0.0108 0.091384,0.0141 0.1336465,0 0.031501,-0.0105 0.059398,-0.0297 0.089098,-0.0445"
       id="path34"
       inkscape:connector-curvature="0" />
    <path
       style="fill:none;stroke:#000000;stroke-width:0.26458332px;stroke-linecap:butt;stroke-linejoin:miter;stroke-opacity:1"
       d="m 7.5733017,282.78892 c 0.1059178,0.2118 -0.01106,-0.0553 0.044549,0.22273 0.00651,0.0326 0.036496,0.0569 0.044549,0.0891 0.0072,0.0288 -0.0072,0.0603 0,0.0891 0.00805,0.0322 0.036496,0.0569 0.044549,0.0891 0.0072,0.0288 0,0.0594 0,0.0891 0,0.0297 0,0.0594 0,0.0891 0,0.0149 -0.0047,0.0305 0,0.0446 0.010501,0.0315 0.036495,0.0569 0.044549,0.0891 0.0072,0.0288 -0.00939,0.0609 0,0.0891 0.00664,0.0199 0.037908,0.0246 0.044549,0.0445 0.00939,0.0282 0,0.0594 0,0.0891 0,0.0297 0,0.0594 0,0.0891 0.340397,-0.0973 0.2037324,-0.0891 0.4009388,-0.0891 0.01485,0 0.030461,0.005 0.044549,0 0.031501,-0.0105 0.057597,-0.0341 0.089098,-0.0446 0.042263,-0.0141 0.091384,0.0141 0.1336465,0 0.019923,-0.007 0.025765,-0.0352 0.044549,-0.0446 0.013282,-0.007 0.029699,0 0.044549,0 0.01485,0 0.029699,0 0.044549,0 0.023295,0 0.1664816,0.006 0.1781953,0 0.018783,-0.009 0.029699,-0.0297 0.044549,-0.0445"
       id="path36"
       inkscape:connector-curvature="0" />
    <path
       style="fill:none;stroke:#000000;stroke-width:0.26458332px;stroke-linecap:butt;stroke-linejoin:miter;stroke-opacity:1"
       d="m 7.7960465,283.90265 c -8e-7,0.28218 -5e-7,0.17817 -5e-7,0.31182 0,0.11879 0,0.23759 0,0.35639 0,0.0297 0,0.0594 0,0.0891 0,0.0297 0.00939,0.0609 0,0.0891 -0.00664,0.0199 -0.035157,0.0258 -0.044549,0.0446 -0.00635,0.0127 0,0.21437 0,0.0891 0.074248,0.0148 0.1477887,0.0338 0.2227443,0.0445 0.012036,0.002 0.2146295,0.004 0.2227442,0 0.018783,-0.009 0.025765,-0.0352 0.044549,-0.0446 0.013558,-0.007 0.1135836,0 0.1336465,0 0.029699,0 0.060922,-0.009 0.089098,0 0.031501,0.0105 0.056538,0.038 0.089098,0.0446 0.072806,0.0146 0.1499379,-0.0146 0.2227441,0 0.046047,0.009 0.08716,0.0379 0.1336465,0.0445 0.058801,0.008 0.1187969,0 0.1781954,0 0.01485,0 0.030461,-0.005 0.044549,0 0.031501,0.0105 0.056884,0.0365 0.089098,0.0446 0.057625,0.0144 0.121845,-0.0188 0.1781953,0 0.019923,0.007 0.029699,0.0297 0.044549,0.0446"
       id="path38"
       inkscape:connector-curvature="0" />
    <path
       style="fill:none;stroke:#000000;stroke-width:0.26458332px;stroke-linecap:butt;stroke-linejoin:miter;stroke-opacity:1"
       d="m 7.751497,284.88276 c -0.047116,0.1985 -0.044549,0.38263 -0.044549,0.57907 0,0.0297 0,0.0594 0,0.0891 0,0.0149 0.00664,0.0313 0,0.0446 -0.018783,0.0376 -0.070314,0.0515 -0.089098,0.0891 -0.00664,0.0133 -0.00243,0.0592 0,0.0446 0.046959,-0.28173 0.089098,-0.56425 0.1336466,-0.84637"
       id="path40"
       inkscape:connector-curvature="0" />
    <path
       style="fill:none;stroke:#000000;stroke-width:0.26458332px;stroke-linecap:butt;stroke-linejoin:miter;stroke-opacity:1"
       d="m 7.7514965,284.88286 c -0.014848,0.34149 -0.044548,0.68265 -0.044548,1.02446 0,0.0148 0.032193,-0.008 0.044549,0 0.034947,0.0233 0.051531,0.0703 0.089098,0.0891 0.026564,0.0133 0.060922,-0.009 0.089098,0 0.019923,0.007 0.024627,0.0379 0.044549,0.0446 0.028175,0.009 0.060285,-0.007 0.089098,0 0.032213,0.008 0.059398,0.0297 0.089098,0.0445 0.059399,0.0297 0.1151938,0.0681 0.1781953,0.0891 0.014089,0.005 0.034049,-0.0105 0.044549,0 0.023479,0.0235 0.021069,0.0656 0.044549,0.0891 0.00691,0.007 0.1163116,-0.006 0.1336466,0 0.3226858,0.10757 -0.070236,-0.0128 0.1336466,0.0891 0.013282,0.007 0.031267,-0.007 0.044549,0 0.018783,0.009 0.025765,0.0352 0.044549,0.0446 0.013282,0.007 0.031267,-0.007 0.044549,0 0.018783,0.009 0.025765,0.0352 0.044549,0.0446 0.013282,0.007 0.04766,-0.0145 0.044549,0 -0.045302,0.21146 -0.118796,0.41587 -0.1781942,0.62381"
       id="path42"
       inkscape:connector-curvature="0" />
    <path
       style="fill:none;stroke:#000000;stroke-width:0.26458332px;stroke-linecap:butt;stroke-linejoin:miter;stroke-opacity:1"
       d="m 7.5287528,285.77368 c -0.1350291,0.0856 -0.011343,0.21222 -0.044549,0.31184 -0.00664,0.0199 -0.037908,0.0246 -0.044549,0.0446 -0.00939,0.0282 0.01103,0.0615 0,0.0891 -0.019883,0.0497 -0.069213,0.0839 -0.089098,0.13364 -0.022061,0.0552 0.032948,0.12877 0,0.1782 -0.018418,0.0276 -0.065618,0.0211 -0.089098,0.0446 -0.010501,0.0105 0.00664,0.0313 0,0.0445 -0.055049,0.1101 -0.044549,-0.0154 -0.044549,0.0891 0.1039477,0.0297 0.2078954,0.0594 0.3118432,0.089 0,0.0149 -0.012356,0.0363 0,0.0446 0.2151238,0.14342 0.052977,-0.012 0.2227441,0.0446 0.063002,0.021 0.1165357,0.0644 0.1781954,0.0891 0.013788,0.006 0.029988,-0.003 0.044549,0 0.060037,0.012 0.1201108,0.0252 0.1781953,0.0445 0.031501,0.0105 0.057597,0.034 0.089098,0.0445 0.028175,0.009 0.059399,0 0.089098,0 0.1044749,0 -0.021,-0.0105 0.089098,0.0446 0.013282,0.007 0.031267,-0.007 0.044549,0 0.018783,0.009 0.025765,0.0352 0.044549,0.0446 0.013282,0.007 0.044549,-0.0149 0.044549,0 0,0.0148 -0.057838,0.007 -0.044549,0 0.071538,-0.0357 0.148499,-0.0592 0.2227485,-0.0889"
       id="path44"
       inkscape:connector-curvature="0" />
    <path
       style="fill:none;stroke:#000000;stroke-width:0.26458332px;stroke-linecap:butt;stroke-linejoin:miter;stroke-opacity:1"
       d="m 5.3904088,286.6201 c -0.029699,0.0743 -0.059398,0.1485 -0.089098,0.22275 -0.014851,0 -0.037908,-0.0133 -0.044549,0 -0.013282,0.0266 0.00939,0.0609 0,0.0891 -0.00664,0.0199 -0.0329,0.0271 -0.044549,0.0446 -0.018418,0.0276 -0.034049,0.0576 -0.044549,0.0891 -0.017412,0.0522 0.024529,0.12914 0,0.1782 -0.00664,0.0133 -0.034048,-0.0105 -0.044549,0 -0.010501,0.0105 0.00664,0.0313 0,0.0446 -0.00939,0.0188 -0.0329,0.0271 -0.044549,0.0446 -0.018418,0.0276 -0.02613,0.0615 -0.044549,0.0891 -0.01165,0.0175 -0.037908,0.0246 -0.044549,0.0445 -0.00939,0.0282 0.00939,0.0609 0,0.0891 -0.00664,0.0199 -0.035157,0.0258 -0.044549,0.0446 -0.021,0.042 -0.023548,0.0916 -0.044549,0.13365 -0.00939,0.0188 -0.029699,0.0297 -0.044549,0.0445 -0.029699,0.0297 -0.0658,0.0542 -0.089098,0.0891 -0.00824,0.0124 0.0047,0.0305 0,0.0445 -0.010501,0.0315 -0.029699,0.0594 -0.044549,0.0891 -0.014848,0.0297 -0.02613,0.0615 -0.044549,0.0891 -0.01951,0.0293 -0.1256091,0.10953 -0.1336463,0.13364 -0.00939,0.0282 0.00939,0.0609 0,0.0891 -0.013282,0.0399 -0.070314,0.0515 -0.089098,0.0891 -0.00586,0.0117 0,0.1549 0,0.17819 0,0.0343 -0.00737,0.20802 0,0.22275 0.00664,0.0133 0.034048,-0.0105 0.044549,0 0.021,0.021 -0.021,0.0681 0,0.0891 0.010501,0.0105 0.037908,-0.0133 0.044549,0 0.013282,0.0266 -0.021,0.0681 0,0.0891 0.00502,0.005 0.227226,0 0.2672929,0 0.014851,0 0.037908,-0.0133 0.044549,0 0.013282,0.0266 -0.013282,0.0625 0,0.0891 0.013282,0.0266 0.062534,-0.0133 0.089098,0 0.018783,0.009 0.024625,0.0379 0.044549,0.0446 0.024559,0.008 0.2294869,0 0.2672929,0 0.074248,0 0.1484964,0 0.2227443,0 0.029699,0 0.060923,0.009 0.089098,0 0.019923,-0.007 0.025765,-0.0352 0.044549,-0.0446 0.013282,-0.007 0.029699,0 0.044549,0 0.029699,0 0.059975,0.006 0.089098,0 0.1205831,0.0757 0.115194,-0.0681 0.1781956,-0.0891 0.05635,-0.0188 0.1218448,0.0188 0.1781952,0 0.039846,-0.0133 0.051531,-0.0703 0.089098,-0.0891 0.026564,-0.0133 0.060922,0.009 0.089098,0 0.031501,-0.0105 0.057597,-0.0341 0.089098,-0.0446 0.014089,-0.005 0.031267,0.007 0.044549,0 0.2038824,-0.10194 -0.1890392,0.0185 0.1336464,-0.0891 0.014089,-0.005 0.030143,0.004 0.044549,0 0.045556,-0.0114 0.08809,-0.0332 0.1336463,-0.0445 0.014407,-0.004 0.031267,0.007 0.044549,0 0.018783,-0.009 0.024625,-0.0379 0.044549,-0.0446 0.028175,-0.009 0.060285,0.007 0.089098,0 0.032213,-0.008 0.058268,-0.0322 0.089098,-0.0446 0.0436,-0.0174 0.090047,-0.0271 0.1336464,-0.0446 0.03083,-0.0123 0.056884,-0.0365 0.089098,-0.0445 0.028812,-0.007 0.059697,0.004 0.089098,0 0.074957,-0.0107 0.1477867,-0.0338 0.222744,-0.0445 0.058801,-0.008 0.1218451,0.0188 0.1781955,0 0.019923,-0.007 0.024625,-0.0379 0.044549,-0.0445 0.021643,-0.007 0.2663598,0 0.3118419,0 0.030985,0 0.2066338,-0.008 0.2227442,0 0.037567,0.0188 0.051531,0.0703 0.089098,0.0891 0.013282,0.007 0.031267,-0.007 0.044549,0 0.018783,0.009 0.025765,0.0352 0.044549,0.0445 0.013282,0.007 0.034049,-0.0105 0.044549,0 0.010501,0.0105 -0.010501,0.0341 0,0.0446 0.023479,0.0235 0.06147,0.0261 0.089098,0.0446 0.018883,0.0126 0.1244306,0.11522 0.1336466,0.13365 0.00664,0.0133 -0.00664,0.0313 0,0.0446 0.092701,0.1854 -0.00307,-0.0476 0.089098,0.0446 0.010501,0.0105 -0.010501,0.034 0,0.0445 0.092173,0.0922 -0.0036,-0.14085 0.089098,0.0446 0.013282,0.0266 -0.013282,0.0625 0,0.0891 0.057881,0.11576 0.073815,-0.0458 0.1336466,0.13365 0.00887,0.0266 -0.011758,0.0832 0,0.0891 0.026564,0.0133 0.062534,-0.0133 0.089098,0 0.013282,0.007 -0.010501,0.0341 0,0.0446 0.010501,0.0105 0.034049,-0.0105 0.044549,0 0.010501,0.0105 -0.010501,0.034 0,0.0446 0.010501,0.0105 0.044549,-0.0149 0.044549,0 0,0.0148 -0.059398,0 -0.044549,0 0.2524432,0 0.014848,-0.0297 0.089098,0.0445 0.021,0.021 0.062534,-0.0133 0.089098,0 0.018783,0.009 0.025765,0.0352 0.044549,0.0446 0.013557,0.007 0.1135838,0 0.1336466,0 0.074248,0 0.1484961,0 0.2227442,0 0.029699,0 0.060923,0.009 0.089098,0 0.031501,-0.0105 0.056884,-0.0365 0.089098,-0.0446 0.028812,-0.007 0.062534,0.0133 0.089098,0 0.03757,-0.0188 0.05415,-0.0658 0.0891,-0.0891 0.01236,-0.008 0.03219,0.008 0.04455,0 0.153397,-0.10226 0.02045,-0.0973 0.222744,-0.17819 0.02758,-0.011 0.06253,0.0133 0.0891,0 0.03757,-0.0188 0.05153,-0.0703 0.0891,-0.0891 0.02656,-0.0133 0.06591,0.0186 0.0891,0 0.05798,-0.0464 0.08114,-0.12569 0.133647,-0.17819 0.02348,-0.0235 0.06147,-0.0261 0.0891,-0.0446 0.03495,-0.0233 0.0555,-0.0639 0.0891,-0.0891 0.0284,-0.0213 0.194752,-0.12221 0.222744,-0.1782 0.0066,-0.0133 -0.0082,-0.0322 0,-0.0445 0.0967,-0.14504 0.08287,-0.0259 0.133647,-0.17819 0.0047,-0.0141 -0.0066,-0.0313 0,-0.0446 0.0094,-0.0188 0.03791,-0.0246 0.04455,-0.0445 0.0094,-0.0282 -0.0094,-0.0609 0,-0.0891 0.0066,-0.0199 0.03791,-0.0246 0.04455,-0.0445 0.0094,-0.0282 -0.0094,-0.0609 0,-0.0891 0.0066,-0.0199 0.03675,-0.025 0.04455,-0.0445 0.02274,-0.0568 0.03254,-0.11816 0.04455,-0.1782 0.0029,-0.0146 -0.0066,-0.0313 0,-0.0446 0.0094,-0.0188 0.03791,-0.0246 0.04455,-0.0445 0.0094,-0.0282 -0.0072,-0.0603 0,-0.0891 0.0161,-0.0644 0.07299,-0.11377 0.0891,-0.1782 0.0072,-0.0288 -0.0072,-0.0603 0,-0.0891 0.01611,-0.0644 0.07299,-0.11376 0.0891,-0.17819 0.0095,-0.0379 -0.01279,-0.19717 0,-0.22274 0.0094,-0.0188 0.03791,-0.0246 0.04455,-0.0446 0.01409,-0.0423 -0.01409,-0.0914 0,-0.13365 0.0105,-0.0315 0.03405,-0.0576 0.04455,-0.0891 0.0047,-0.0141 0,-0.0297 0,-0.0446 0,-0.0148 0.0105,-0.034 0,-0.0446 -0.0105,-0.0105 -0.03127,0.007 -0.04455,0 -0.01878,-0.009 -0.02576,-0.0351 -0.04455,-0.0445 -0.01328,-0.007 -0.03127,0.007 -0.04455,0 -0.185401,-0.0927 0.04763,0.003 -0.04455,-0.0891 -0.0105,-0.0105 -0.03127,0.007 -0.04455,0 -0.185402,-0.0927 0.04762,0.003 -0.04455,-0.0891 -0.0105,-0.0105 -0.03046,0.005 -0.04455,0 -0.0315,-0.0105 -0.06147,-0.0261 -0.0891,-0.0446 -0.03495,-0.0233 -0.05153,-0.0703 -0.0891,-0.0891 -0.01328,-0.007 -0.03046,0.005 -0.04455,0 -0.0315,-0.0105 -0.0576,-0.034 -0.0891,-0.0445 -0.02513,-0.008 -0.104373,0 -0.133646,0 -0.07425,0 -0.148496,0 -0.222744,0 -0.0297,0 -0.06092,-0.009 -0.0891,0 -0.322686,0.10756 0.07024,-0.0129 -0.133647,0.0891 -0.01982,0.01 -0.157819,-0.007 -0.178195,0 -0.01992,0.007 -0.0297,0.0297 -0.04455,0.0445 -0.0297,0.0149 -0.05688,0.0365 -0.0891,0.0446 -0.02881,0.007 -0.06029,-0.007 -0.0891,0 -0.2151238,0.0538 0.0022,0.0212 -0.133647,0.0891 -0.02318,0.10418 -0.1260736,0.0272 -0.1781949,0.0445 -0.1615025,0.0538 -0.031705,0.0211 -0.1336464,0.0891 -0.2250522,0.15004 -0.00103,3.5e-4 -0.1336466,0.0446 -0.3226858,0.10757 0.070236,-0.0128 -0.1336465,0.0891 -0.013282,0.007 -0.030461,-0.005 -0.044549,0 -0.063002,0.021 -0.1151938,0.0681 -0.1781953,0.0891 -0.014089,0.005 -0.029699,0 -0.044549,0 -0.044549,0.0149 -0.091645,0.0236 -0.1336466,0.0446 -0.2038823,0.10194 0.1890395,-0.0185 -0.1336463,0.0891 -0.014086,0.005 -0.030461,-0.005 -0.044549,0 -0.031501,0.0105 -0.059398,0.0297 -0.089098,0.0445 -0.029699,0.0148 -0.06147,0.0261 -0.089098,0.0445 -0.017473,0.0117 -0.025765,0.0352 -0.044549,0.0446 -0.026564,0.0133 -0.060923,-0.009 -0.089098,0 -0.031501,0.0105 -0.057597,0.034 -0.089098,0.0446 -0.014086,0.005 -0.031267,-0.007 -0.044549,0 -0.018783,0.009 -0.025765,0.0352 -0.044549,0.0445 -0.026564,0.0133 -0.060923,-0.009 -0.089098,0 -0.031501,0.0105 -0.057597,0.0341 -0.089098,0.0446 -0.00978,0.003 -0.1715725,0.003 -0.1781953,0 -0.018783,-0.009 -0.025765,-0.0352 -0.044549,-0.0446 -0.027594,-0.0138 -0.1650141,0.0132 -0.1781953,0 -0.010501,-0.0105 0.010501,-0.034 0,-0.0445 -0.013769,-0.0138 -0.209087,0.0137 -0.2227443,0 -0.010501,-0.0105 0.013282,-0.0379 0,-0.0446 -0.026564,-0.0133 -0.060922,0.009 -0.089098,0 -0.039846,-0.0133 -0.049252,-0.0758 -0.089098,-0.0891 -0.028175,-0.009 -0.060922,0.009 -0.089098,0 -0.082826,-0.0276 -0.00627,-0.0615 -0.089098,-0.0891 -2.019e-4,-7e-5 -0.133604,4e-5 -0.1336466,0 -0.010501,-0.0105 0.010501,-0.034 0,-0.0445 -0.112526,-0.11253 -0.051355,-0.0171 -0.1336464,-0.0446 -0.3226858,-0.10756 0.070236,0.0128 -0.1336466,-0.0891 -0.027594,-0.0138 -0.165014,0.0132 -0.1781953,0 -0.010501,-0.0105 0,-0.0297 0,-0.0446 -0.029699,0 -0.064386,0.0165 -0.089098,0 -0.027628,-0.0184 -0.014848,-0.0743 -0.044549,-0.0891 -0.1249776,0 -0.1500201,0.0141 -0.267293,-0.0445 -0.047888,-0.024 -0.083935,-0.0692 -0.1336466,-0.0891 -0.05515,-0.0221 -0.1218448,0.0188 -0.1781953,0 -0.1651473,-0.055 0.054303,-0.0446 -0.089098,-0.0446 -0.029699,0 -0.060285,0.007 -0.089098,0 -0.080631,0.0268 -0.082853,-0.0722 -0.1336466,-0.0891 -0.0033,-10e-4 -0.2575118,-0.005 -0.267293,0 -0.018783,0.009 -0.044549,0.0236 -0.044549,0.0446 0,0.0757 0.029699,0.1485 0.044549,0.22274 z"
       id="path46"
       inkscape:connector-curvature="0" />
    <path
       style="fill:none;stroke:#000000;stroke-width:0.26458332px;stroke-linecap:butt;stroke-linejoin:miter;stroke-opacity:1"
       d="m 5.8358973,287.73383 c -0.4011549,-0.32604 -0.1406377,0.18518 -0.1781955,0.22274 -0.010501,0.0105 -0.034048,-0.0105 -0.044549,0 -0.010501,0.0105 0.010501,0.034 0,0.0446 -0.023479,0.0235 -0.065619,0.0211 -0.089098,0.0445 -0.010501,0.0105 0.010501,0.0341 0,0.0446 -0.023479,0.0235 -0.065619,0.0211 -0.089098,0.0446 -0.010501,0.0105 0.00664,0.0313 0,0.0445 -0.055049,0.1101 -0.044549,-0.0154 -0.044549,0.0891 0,0.0148 0.014851,0.0445 0,0.0445 -0.014848,0 -0.014848,-0.0445 0,-0.0445 0.021,0 0.025765,0.0352 0.044549,0.0445 0.013282,0.007 0.029699,0 0.044549,0 0.020063,0 0.1200888,0.007 0.1336466,0 0.018783,-0.009 0.025765,-0.0352 0.044549,-0.0445 0.035639,-0.0178 0.098007,0.0178 0.1336466,0 0.018783,-0.009 0.025765,-0.0352 0.044549,-0.0446 0.013282,-0.007 0.029699,0 0.044549,0 0.038238,0 0.2412286,0.009 0.2672929,0 0.019923,-0.007 0.027075,-0.0329 0.044549,-0.0446 0.027628,-0.0184 0.06147,-0.0261 0.089098,-0.0445 0.017473,-0.0117 0.027075,-0.0329 0.044549,-0.0446 -0.00507,-0.0844 0.1039471,-0.0297 0.1336463,-0.0446 0.037567,-0.0188 0.051531,-0.0703 0.089098,-0.0891 0.013282,-0.007 0.031267,0.007 0.044549,0 0.018783,-0.009 0.025765,-0.0352 0.044549,-0.0446 0.026564,-0.0133 0.068097,0.021 0.089098,0 0.021,-0.021 -0.00939,-0.0609 0,-0.0891 0.010501,-0.0315 0.034049,-0.0576 0.044549,-0.0891 0.00191,-0.006 0.00185,-0.12996 0,-0.13365 -0.04056,-0.0811 -0.033794,-0.0261 -0.089098,-0.0446 -0.031501,-0.0105 -0.061469,-0.0261 -0.089098,-0.0446 -0.034947,-0.0233 -0.049252,-0.0758 -0.089098,-0.0891 -0.0033,-10e-4 -0.2575121,-0.005 -0.2672932,0 -0.018783,0.009 -0.025765,0.0352 -0.044549,0.0445 -0.026564,0.0133 -0.068097,-0.021 -0.089098,0 -0.023479,0.0235 -0.02613,0.0615 -0.044549,0.0891 -0.01165,0.0175 -0.02815,0.0314 -0.044549,0.0446 -0.057978,0.0464 -0.1187969,0.0891 -0.1781953,0.13365 z"
       id="path48"
       inkscape:connector-curvature="0" />
    <path
       style="fill:none;stroke:#000000;stroke-width:0.26458332px;stroke-linecap:butt;stroke-linejoin:miter;stroke-opacity:1"
       d="m 10.068036,287.51108 c 0.02277,0.26891 -0.1692026,-0.009 -0.2227437,0.0446 -0.010501,0.0105 0.010501,0.034 0,0.0446 -0.010501,0.0105 -0.031267,-0.007 -0.044549,0 -0.018783,0.009 -0.025765,0.0352 -0.044549,0.0445 -0.026564,0.0133 -0.068097,-0.021 -0.089098,0 -0.010501,0.0105 0.00664,0.0313 0,0.0446 -0.092701,0.1854 0.00307,-0.0476 -0.089098,0.0446 -0.010501,0.0105 0.010501,0.034 0,0.0445 -0.021,0.021 -0.068097,-0.021 -0.089098,0 -0.010501,0.0105 0.014851,0.0446 0,0.0446 -0.065549,0 0.1032012,-0.14775 -0.044549,0"
       id="path50"
       inkscape:connector-curvature="0" />
    <path
       style="fill:none;stroke:#000000;stroke-width:0.26458332px;stroke-linecap:butt;stroke-linejoin:miter;stroke-opacity:1"
       d="m 8.7761224,279.71508 c -0.014851,0.0148 -0.029716,0.0593 -0.044551,0.0445 -0.014835,-0.0149 0.024897,-0.0519 0.044551,-0.0445 0.1120913,0.042 0.2160633,0.10633 0.3118395,0.17815 0.026566,0.0199 0.021069,0.0656 0.044549,0.0891 0.00911,0.009 0.1159833,-0.009 0.1336466,0 0.018783,0.009 0.025765,0.0352 0.044549,0.0446 0.013282,0.007 0.031267,-0.007 0.044549,0 0.011827,0.006 0.1277324,0.12182 0.1336464,0.13364 0.00664,0.0133 -0.010501,0.034 0,0.0445 0.010501,0.0105 0.034049,-0.0105 0.044549,0 0.023479,0.0235 0.01692,0.0707 0.044549,0.0891 0.024712,0.0165 0.062534,-0.0133 0.089098,0 0.013282,0.007 -0.010501,0.034 0,0.0446 0.023479,0.0235 0.057597,0.034 0.089098,0.0445 0.014086,0.005 0.034048,-0.0105 0.044549,0 0.092173,0.0922 -0.1408528,-0.004 0.044549,0.0891 0.013282,0.007 0.031267,-0.007 0.044549,0 0.018783,0.009 0.025765,0.0351 0.044549,0.0445 0.013282,0.007 0.034049,-0.0105 0.044549,0 0.021,0.021 -0.021,0.0681 0,0.0891 0.010501,0.0105 0.031267,-0.007 0.044549,0 0.01878,0.009 0.02576,0.0352 0.04455,0.0445 0.01328,0.007 0.03405,-0.0105 0.04455,0 0.0105,0.0105 -0.0105,0.0341 0,0.0446 0.0105,0.0105 0.03405,-0.0105 0.04455,0 0.0105,0.0105 -0.0105,0.034 0,0.0446 0.0105,0.0105 0.03405,-0.0105 0.04455,0 0.021,0.021 -0.021,0.0681 0,0.0891 0.0105,0.0105 0.03405,-0.0105 0.04455,0 0.09217,0.0922 -0.140853,-0.004 0.04455,0.0891 0.01328,0.007 0.03405,-0.0105 0.04455,0 0.0105,0.0105 -0.0066,0.0313 0,0.0446 0.0094,0.0188 0.0297,0.0297 0.04455,0.0446 0.0297,0.0297 0.0658,0.0541 0.0891,0.0891 0.0082,0.0124 -0.0105,0.0341 0,0.0446 0.0105,0.0105 0.0297,0 0.04455,0 0.01485,0.0148 0.0329,0.0271 0.04455,0.0446 0.09815,0.0224 0.02355,0.0916 0.04455,0.13364 0.01878,0.0376 0.07031,0.0515 0.0891,0.0891 0.0066,0.0133 -0.0066,0.0313 0,0.0446 0.0094,0.0188 0.03516,0.0258 0.04455,0.0445 0.0066,0.0133 -0.0066,0.0313 0,0.0446 0.0094,0.0188 0.03516,0.0258 0.04455,0.0446 0.0066,0.0133 -0.0066,0.0313 0,0.0446 0.0094,0.0188 0.03516,0.0258 0.04455,0.0445 0.0066,0.0133 0,0.0297 0,0.0446 0,0.0148 0.0105,0.034 0,0.0445 -0.0105,0.0105 -0.03405,-0.0105 -0.04455,0 -0.0105,0.0105 0.0105,0.0341 0,0.0446 -0.0105,0.0105 -0.04455,0.0149 -0.04455,0 0,-0.021 0.04455,-0.0236 0.04455,-0.0446 0,-0.0148 -0.0297,0 -0.04455,0 -0.01485,0 -0.03405,-0.0105 -0.04455,0 -0.0105,0.0105 0.0105,0.0341 0,0.0446 -0.0105,0.0105 -0.0297,0 -0.04455,0 -0.0233,0 -0.166481,0.006 -0.178195,0 -0.01878,-0.009 -0.02576,-0.0352 -0.04455,-0.0446 -0.01328,-0.007 -0.03127,0.007 -0.04455,0 -0.01878,-0.009 -0.02576,-0.0352 -0.04455,-0.0445 -0.01328,-0.007 -0.03405,0.0105 -0.04455,0 -0.0105,-0.0105 0.0066,-0.0313 0,-0.0446 -0.0094,-0.0188 -0.0297,-0.0297 -0.04455,-0.0445 -0.035,-0.035 -0.208556,-0.19437 -0.222744,-0.22275 -0.0066,-0.0133 0.0105,-0.0341 0,-0.0446 -0.0105,-0.0105 -0.031267,0.007 -0.044549,0 -0.018783,-0.009 -0.025765,-0.0351 -0.044549,-0.0446 -0.013282,-0.007 -0.034049,0.0105 -0.044549,0 -0.023479,-0.0235 -0.02613,-0.0615 -0.044549,-0.0891 -0.034268,-0.0514 -0.099378,-0.0822 -0.1336466,-0.13365 -0.018418,-0.0276 -0.021069,-0.0656 -0.044549,-0.0891 -0.010501,-0.0105 -0.031267,0.007 -0.044549,0 -0.018783,-0.009 -0.029699,-0.0297 -0.044549,-0.0446 -0.014848,-0.0149 -0.029699,-0.0297 -0.044549,-0.0446 -0.1021432,-0.10214 0.018783,0.0282 -0.089098,-0.13364 -0.023299,-0.0349 -0.059399,-0.0594 -0.089098,-0.0891 -0.014851,-0.0149 -0.025765,-0.0352 -0.044549,-0.0446 -0.013282,-0.007 -0.034049,0.0105 -0.044549,0 -0.010501,-0.0105 0.00664,-0.0313 0,-0.0445 -0.00426,-0.009 -0.1696678,-0.17393 -0.1781956,-0.17819 -0.013282,-0.007 -0.034048,0.0105 -0.044549,0 -0.010501,-0.0105 0.010501,-0.034 0,-0.0446 -0.010501,-0.0105 -0.034049,0.0105 -0.044549,0 -0.010501,-0.0105 0.010501,-0.034 0,-0.0445 -0.010501,-0.0105 -0.044549,-0.0149 -0.044549,0 0,0.021 0.059398,0.0297 0.044549,0.0445 -0.014848,0.0149 -0.029699,-0.0297 -0.044549,-0.0445 -0.014851,-0.0149 -0.025765,-0.0352 -0.044549,-0.0446 -0.026564,-0.0133 -0.068097,0.021 -0.089098,0 -0.059398,-0.0594 0.074248,-0.0446 -0.044549,-0.0446 -0.1187968,0 0.014848,0.0149 -0.044549,-0.0446 -0.010501,-0.0105 -0.045893,0.0148 -0.044549,0 0.015031,-0.16532 0.0594,-0.32666 0.0891,-0.48999"
       id="path52"
       inkscape:connector-curvature="0" />
    <path
       style="fill:none;stroke:#000000;stroke-width:0.26458332px;stroke-linecap:butt;stroke-linejoin:miter;stroke-opacity:1"
       d="m 8.2860837,280.96235 c 0.1633455,0.20791 0.3266911,0.41582 0.4900366,0.62374 0,0.0148 -0.010501,0.034 0,0.0446 0.010501,0.0105 0.031267,-0.007 0.044549,0 0.053458,0.0267 0.080188,0.10691 0.1336466,0.13364 0.013282,0.007 0.034048,-0.0105 0.044549,0 0.023479,0.0235 0.02613,0.0615 0.044549,0.0891 0.01165,0.0175 0.029699,0.0297 0.044549,0.0445 0.014851,0.0149 0.025765,0.0352 0.044549,0.0446 0.013282,0.007 0.034049,-0.0105 0.044549,0 0.023479,0.0235 0.02613,0.0615 0.044549,0.0891 0.023297,0.035 0.059399,0.0594 0.089098,0.0891 0.044549,0.0445 0.089098,0.0891 0.1336466,0.13365 0.029699,0.0297 0.0658,0.0541 0.089098,0.0891 0.036837,0.0553 0.05226,0.12294 0.089098,0.17819 0.01165,0.0175 0.035157,0.0258 0.044549,0.0446 0.00664,0.0133 -0.010501,0.034 0,0.0445 0.2182876,0.10914 0.037262,-0.0146 0.089098,0.0891 0.00939,0.0188 0.0329,0.0271 0.044549,0.0445 0.018418,0.0276 0.02613,0.0615 0.044549,0.0891 0.023297,0.0349 0.070314,0.0515 0.089098,0.0891 0.00664,0.0133 -0.00664,0.0313 0,0.0446 0.00939,0.0188 0.035157,0.0258 0.044549,0.0445 0.00664,0.0133 -0.00664,0.0313 0,0.0446 0.0058,0.0116 0.079375,0.0543 0.044549,0.0891 -0.0105,0.0105 -0.03405,-0.0105 -0.044549,0 -0.010501,0.0105 0.010501,0.034 0,0.0445 -0.021,0.021 -0.062534,-0.0133 -0.089098,0 -0.018783,0.009 -0.025765,0.0352 -0.044549,0.0446 -0.013282,0.007 -0.029699,0 -0.044549,0 -0.014848,0 -0.029699,0 -0.044549,0 -0.014851,0 -0.044549,0.0148 -0.044549,0 0,-0.0149 0.029699,0 0.044549,0 -0.029699,-0.0297 -0.054151,-0.0658 -0.089098,-0.0891 -0.024712,-0.0165 -0.068097,0.021 -0.089098,0 -0.023479,-0.0235 -0.021069,-0.0656 -0.044549,-0.0891 -0.010501,-0.0105 -0.034049,0.0105 -0.044549,0 -0.037859,-0.0379 -0.056973,-0.0908 -0.089098,-0.13365 -0.010184,-0.0136 -0.1223351,-0.12799 -0.1336463,-0.13364 -0.013282,-0.007 -0.031267,0.007 -0.044549,0 -0.053458,-0.0267 -0.080188,-0.10692 -0.1336466,-0.13365 -0.013282,-0.007 -0.031267,0.007 -0.044549,0 -0.018783,-0.009 -0.025765,-0.0352 -0.044549,-0.0446 -0.013282,-0.007 -0.031267,0.007 -0.044549,0 -0.037567,-0.0188 -0.051531,-0.0703 -0.089098,-0.0891 -0.013282,-0.007 -0.034049,0.0105 -0.044549,0 -0.092173,-0.0922 0.1408528,0.004 -0.044549,-0.0891 -0.013282,-0.007 -0.031267,0.007 -0.044549,0 -0.018783,-0.009 -0.0329,-0.0271 -0.044549,-0.0445 -0.018418,-0.0276 -0.077754,-0.0891 -0.044549,-0.0891 0.053522,-7e-5 0.089099,0.0593 0.1336493,0.089"
       id="path54"
       inkscape:connector-curvature="0" />
    <path
       style="fill:none;stroke:#000000;stroke-width:0.26458332px;stroke-linecap:butt;stroke-linejoin:miter;stroke-opacity:1"
       d="m 7.3951059,280.51691 c -0.1633455,-0.19304 -0.3185136,-0.39331 -0.4900366,-0.57913 -0.010073,-0.0109 -0.029699,0 -0.044549,0 -0.014848,0 -0.031267,-0.007 -0.044549,0 -0.018783,0.009 -0.024625,0.0379 -0.044549,0.0446 -0.1928794,0.0643 0.016375,-0.0852 -0.1781953,0.0446 -0.1646997,0.1098 0.1166712,-0.018 -0.1336466,0.0446 -0.064427,0.0161 -0.1151938,0.0681 -0.1781953,0.0891 -0.014086,0.005 -0.030461,-0.005 -0.044549,0 -0.1945934,0.0649 0.03142,0.032 -0.222744,0.13365 -0.027575,0.011 -0.060285,-0.007 -0.089098,0 -0.032214,0.008 -0.059399,0.0297 -0.089098,0.0446 -0.059398,0.0297 -0.1229394,0.0523 -0.1781955,0.0891 -0.034947,0.0233 -0.055497,0.0639 -0.089098,0.0891 -0.026564,0.0199 -0.057597,0.034 -0.089098,0.0446 -0.014086,0.005 -0.034048,-0.0105 -0.044549,0 -0.023479,0.0235 -0.02613,0.0615 -0.044549,0.0891 0.00445,0.0883 -0.065618,0.0211 -0.089098,0.0446 -0.023479,0.0235 -0.02613,0.0615 -0.044549,0.0891 -0.01165,0.0175 -0.029699,0.0297 -0.044549,0.0446 -0.1044749,0.10447 0.010501,-0.0315 -0.044549,0.13364 -0.00664,0.0199 -0.035157,0.0258 -0.044549,0.0446 -0.00664,0.0133 0.00664,0.0313 0,0.0445 -0.018783,0.0376 -0.070314,0.0515 -0.089098,0.0891 -0.00664,0.0133 0.00664,0.0313 0,0.0446 -0.00939,0.0188 -0.035157,0.0258 -0.044549,0.0445 -0.00664,0.0133 0,0.0297 0,0.0445 0,0.0149 -0.010501,0.034 0,0.0445 0.00446,0.004 0.1291916,0.004 0.1336466,0 0.092173,-0.0922 -0.1408528,0.004 0.044549,-0.0891 0.013282,-0.007 0.034049,0.0105 0.044549,0 0.092173,-0.0922 -0.1408527,0.004 0.044549,-0.0891 0.047037,-0.0235 0.042061,0.0235 0.089098,0 0.018783,-0.009 0.025765,-0.0352 0.044549,-0.0446 0.028,-0.014 0.1501955,0.014 0.1781953,0 0.018783,-0.009 0.025765,-0.0352 0.044549,-0.0446 0.013282,-0.007 0.030143,0.004 0.044549,0 0.045557,-0.0114 0.087327,-0.0368 0.1336466,-0.0445 0.073238,-0.0122 0.148496,0 0.2227442,0 0.014848,0 0.030461,0.005 0.044549,0 0.031501,-0.0105 0.056884,-0.0365 0.089098,-0.0446 0.037921,-0.009 0.1971702,0.0128 0.2227443,0 0.018783,-0.009 0.025765,-0.0351 0.044549,-0.0446 0.025575,-0.0128 0.1848236,0.009 0.222744,0 0.032214,-0.008 0.057597,-0.034 0.089098,-0.0445 0.014089,-0.005 0.0297,0 0.044549,0 0.029699,0 0.059398,0 0.089098,0 0.029699,0 0.060285,0.007 0.089098,0 0.032213,-0.008 0.057597,-0.034 0.089098,-0.0446 0.032249,-0.0107 0.3082592,0.008 0.3118419,0 0.041362,-0.0965 0.029699,-0.20789 0.044548,-0.31184"
       id="path56"
       inkscape:connector-curvature="0" />
    <path
       style="fill:none;stroke:#000000;stroke-width:0.26458332px;stroke-linecap:butt;stroke-linejoin:miter;stroke-opacity:1"
       d="m 7.5733015,282.78892 c -0.1484961,-0.19305 -0.2732707,-0.40693 -0.4454882,-0.57915 -0.023479,-0.0235 -0.057597,0.0341 -0.089098,0.0446 -0.014086,0.005 -0.029699,0 -0.044549,0 -0.029699,0.0297 -0.051531,0.0703 -0.089098,0.0891 -0.026564,0.0133 -0.060285,-0.007 -0.089098,0 -0.032214,0.008 -0.057597,0.0341 -0.089098,0.0446 -0.014086,0.005 -0.029699,0 -0.044549,0 -0.059398,0.0148 -0.1213479,0.0218 -0.1781952,0.0445 -0.0195,0.008 -0.025765,0.0352 -0.044549,0.0446 -0.013282,0.007 -0.031267,-0.007 -0.044549,0 -0.047888,0.024 -0.083935,0.0692 -0.1336466,0.0891 -0.027575,0.011 -0.061522,-0.011 -0.089098,0 -0.049711,0.0199 -0.087736,0.0615 -0.1336466,0.0891 -0.104475,0.0627 -0.095248,0.0381 -0.222744,0.0891 -0.06166,0.0247 -0.1187971,0.0594 -0.1781955,0.0891 -0.029699,0.0148 -0.056884,0.0365 -0.089098,0.0445 -0.028812,0.007 -0.060922,-0.009 -0.089098,0 -0.039846,0.0133 -0.051531,0.0703 -0.089098,0.0891 -0.013282,0.007 -0.030461,-0.005 -0.044549,0 -0.031501,0.0105 -0.059399,0.0297 -0.089098,0.0445 -0.029699,0.0149 -0.065618,0.0211 -0.089098,0.0446 -0.010501,0.0105 0.010501,0.0341 0,0.0446 -0.010501,0.0105 -0.034048,-0.0105 -0.044549,0 -0.010501,0.0105 0.00664,0.0313 0,0.0446 -0.00939,0.0188 -0.035157,0.0258 -0.044549,0.0445 -0.00664,0.0133 0,0.0297 0,0.0446 0,0.0148 -0.00664,0.0313 0,0.0445 0.00939,0.0188 0.035157,0.0258 0.044549,0.0446 0.00664,0.0133 -0.010501,0.034 0,0.0446 0.010501,0.0105 0.031267,-0.007 0.044549,0 0.018783,0.009 0.024625,0.0379 0.044549,0.0446 0.024635,0.008 0.22243,0 0.267293,0 0.074248,0 0.148496,0 0.2227442,0 0.044549,0 0.089963,0.009 0.1336466,0 0.03256,-0.007 0.057597,-0.0341 0.089098,-0.0446 0.058084,-0.0194 0.1181576,-0.0325 0.1781952,-0.0446 0.1113722,-0.0223 -0.044549,0.0446 0.1336464,0 0.032214,-0.008 0.056884,-0.0365 0.089098,-0.0446 0.057625,-0.0144 0.1205703,0.0144 0.1781953,0 0.032213,-0.008 0.056884,-0.0365 0.089098,-0.0445 0.043219,-0.0108 0.091384,0.0141 0.1336463,0 0.031501,-0.0105 0.056884,-0.0365 0.089098,-0.0446 0.043219,-0.0108 0.091384,0.0141 0.1336464,0 0.031501,-0.0105 0.057597,-0.034 0.089098,-0.0445 0.030642,-0.0102 0.1073618,0.0131 0.1336466,0 0.018783,-0.009 0.025765,-0.0352 0.044549,-0.0446 0.013282,-0.007 0.029699,0 0.044549,0 0.014851,0 0.029699,0 0.044549,0 0.029699,0 0.059398,0 0.089098,0 0.014848,0 0.044549,-0.0149 0.044549,0 0,0.0148 -0.055049,0.0105 -0.044549,0 0.2163728,-0.21638 -0.043804,0.35413 0.178195,-0.31183"
       id="path58"
       inkscape:connector-curvature="0" />
    <path
       style="fill:none;stroke:#000000;stroke-width:0.26458332px;stroke-linecap:butt;stroke-linejoin:miter;stroke-opacity:1"
       d="m 3.4748081,273.96825 c 0.2524437,0.19304 0.5120147,0.3771 0.7573311,0.57912 0.011462,0.009 0,0.0297 0,0.0446 0,0.0594 0,0.1188 0,0.17819 0,0.0265 0.00547,0.30091 0,0.31185 -0.018783,0.0376 -0.0658,0.0541 -0.089098,0.0891 -0.00824,0.0124 0.00664,0.0313 0,0.0446 -0.00939,0.0188 -0.035157,0.0258 -0.044549,0.0446 -0.00664,0.0133 0.010501,0.034 0,0.0446 -0.010501,0.0105 -0.034048,-0.0105 -0.044549,0 -0.010501,0.0105 0.010501,0.034 0,0.0445 -0.010501,0.0105 -0.031112,-0.006 -0.044549,0 -0.2403531,0.11307 -0.4751888,0.23751 -0.712783,0.35627"
       id="path60"
       inkscape:connector-curvature="0" />
    <path
       style="fill:none;stroke:#000000;stroke-width:0.26458332px;stroke-linecap:butt;stroke-linejoin:miter;stroke-opacity:1"
       d="m 5.6131531,274.36918 c -0.1444511,0.24075 -0.07242,0.16151 -0.1781953,0.26729 -0.029699,0.0297 -0.0658,0.0542 -0.089098,0.0891 -0.00824,0.0123 0.0047,0.0305 0,0.0445 -0.010501,0.0315 -0.02613,0.0615 -0.044549,0.0891 -0.01165,0.0175 -0.0329,0.0271 -0.044549,0.0445 -0.036837,0.0553 -0.05226,0.12294 -0.089098,0.1782 -0.01165,0.0175 -0.035157,0.0258 -0.044549,0.0446 -0.00499,0.01 0,0.1676 0,0.17819 0,0.0297 0,0.0594 0,0.0891 0,0.0297 -0.013282,0.0625 0,0.0891 0.00664,0.0133 0.031267,-0.007 0.044549,0 0.037567,0.0188 0.051531,0.0703 0.089098,0.0891 0.026564,0.0133 0.068097,-0.021 0.089098,0 0.092173,0.0922 -0.1408527,-0.004 0.044549,0.0891 0.028,0.014 0.1501955,-0.014 0.1781953,0 0.018783,0.009 0.025765,0.0352 0.044549,0.0446 0.013282,0.007 0.031267,-0.007 0.044549,0 0.018783,0.009 0.025765,0.0352 0.044549,0.0445 0.013544,0.007 0.1474333,0 0.1781953,0 0.047794,0 0.2823951,0.01 0.3118419,0 0.031501,-0.0105 0.057597,-0.034 0.089098,-0.0445 0.014086,-0.005 0.031267,0.007 0.044549,0 0.018783,-0.009 0.027075,-0.0329 0.044549,-0.0446 0.027628,-0.0184 0.059398,-0.0297 0.089098,-0.0446 0.029699,-0.0148 0.057597,-0.034 0.089098,-0.0445 0.014089,-0.005 0.029699,0 0.044549,0 0.044549,-0.0297 0.085758,-0.0652 0.1336463,-0.0891 0.013282,-0.007 0.031267,0.007 0.044549,0 0.01183,-0.006 0.1277324,-0.12182 0.1336466,-0.13365 0.013282,-0.0266 -0.013282,-0.0625 0,-0.0891 0.00939,-0.0188 0.035157,-0.0258 0.044549,-0.0446 0.01782,-0.0356 -0.01782,-0.098 0,-0.13364 0.00939,-0.0188 0.035157,-0.0258 0.044549,-0.0445 0.00678,-0.0136 0,-0.11359 0,-0.13365 0,-0.0233 0.00586,-0.16648 0,-0.17819 -0.018783,-0.0376 -0.070314,-0.0515 -0.089098,-0.0891 -0.00664,-0.0133 0.00664,-0.0313 0,-0.0445 -0.092701,-0.1854 0.00307,0.0476 -0.089098,-0.0446 -0.010501,-0.0105 0.0047,-0.0305 0,-0.0446 -0.010853,-0.0325 -0.048321,-0.11326 -0.089098,-0.13364 -0.1097213,-0.0549 0.040216,0.12931 -0.1336463,-0.0445 -0.021,-0.021 0.026564,-0.0758 0,-0.0891 -0.026564,-0.0133 -0.060285,0.007 -0.089098,0 -0.032213,-0.008 -0.056884,-0.0365 -0.089098,-0.0445 -0.043219,-0.0108 -0.091384,0.0141 -0.1336466,0 -0.031501,-0.0105 -0.057597,-0.0341 -0.089098,-0.0446 -0.026289,-0.009 -0.1978536,0 -0.2227443,0 -0.020063,0 -0.1200888,-0.007 -0.1336463,0 -0.018783,0.009 -0.025765,0.0352 -0.044549,0.0446 -0.013282,0.007 -0.034049,-0.0105 -0.044549,0 -0.052501,0.0525 -0.089098,0.1188 -0.1336463,0.1782 z"
       id="path62"
       inkscape:connector-curvature="0" />
    <path
       style="fill:none;stroke:#000000;stroke-width:0.26458332px;stroke-linecap:butt;stroke-linejoin:miter;stroke-opacity:1"
       d="m 5.7467986,289.07038 c -0.095541,0.42984 -0.089097,0.26397 -0.089097,0.48995 0,0.0297 -0.00582,0.06 0,0.0891 0.00921,0.046 0.037908,0.0872 0.044549,0.13364 0.0084,0.0588 -0.00737,0.11926 0,0.1782 0.020833,0.16666 0.052112,0.1639 0.089098,0.31184 0.0036,0.0144 0,0.0297 0,0.0446 0.014851,0.0594 0.02181,0.12135 0.044549,0.17819 0.0078,0.0195 0.037908,0.0246 0.044549,0.0445 0.00939,0.0282 0,0.0594 0,0.0891 0,0.0446 -0.00732,0.0897 0,0.13365 0.00772,0.0463 0.03534,0.0876 0.044549,0.13364 0.00582,0.0291 -0.0072,0.0603 0,0.0891 0.016108,0.0644 0.068097,0.11519 0.089098,0.1782 0.0047,0.0141 0,0.0297 0,0.0445 0,0.0742 -0.014563,0.14994 0,0.22275 0.00651,0.0326 0.036496,0.0569 0.044549,0.0891 0.0072,0.0288 -0.0072,0.0603 0,0.0891 0.00805,0.0322 0.034049,0.0576 0.044549,0.0891 0.0047,0.0141 -0.00664,0.0313 0,0.0446 0.00939,0.0188 0.035157,0.0258 0.044549,0.0446 0.00576,0.0115 0,0.23572 0,0.26729 0,0.0148 -0.00664,0.0313 0,0.0445 0.00939,0.0188 0.035157,0.0258 0.044549,0.0446 0.00664,0.0133 0,0.0297 0,0.0446 0,0.0148 0,0.0297 0,0.0445"
       id="path64"
       inkscape:connector-curvature="0" />
    <path
       style="fill:none;stroke:#000000;stroke-width:0.26458332px;stroke-linecap:butt;stroke-linejoin:miter;stroke-opacity:1"
       d="m 6.3259347,288.09017 c 0.4089033,0.8008 0.400939,0.64056 0.400939,1.15832 0,0.0318 0.00822,0.18985 0,0.22274 -0.011388,0.0456 -0.035339,0.0876 -0.044549,0.13365 -0.00582,0.0291 0,0.0594 0,0.0891 0,0.10395 0,0.2079 0,0.31185 0,0.0297 0.00939,0.0609 0,0.0891 -0.00664,0.0199 -0.037908,0.0246 -0.044549,0.0445 -0.00939,0.0282 0,0.0594 0,0.0891 0,0.0297 0,0.0594 0,0.0891 0,0.0536 -0.010036,0.12802 0,0.17819 0.00921,0.046 0.036829,0.0873 0.044549,0.13365 0.010057,0.0603 0,0.23807 0,0.31184 0,0.0297 -0.00939,0.0609 0,0.0891 0.00664,0.0199 0.035157,0.0258 0.044549,0.0446 0.00664,0.0133 0,0.0297 0,0.0445 0,0.0742 0,0.14849 0,0.22274 0,0.0148 0,0.0297 0,0.0445 0,0.0149 -0.00664,0.0313 0,0.0446 0.00939,0.0188 0.035157,0.0258 0.044549,0.0446 0.00678,0.0136 0,0.11358 0,0.13364 0,0.0891 0,0.1782 0,0.2673 0,0.0594 0,0.11879 0,0.17819 0,0.0148 0,0.0297 0,0.0445 0,0.0149 0.014851,0.0446 0,0.0446 -0.014848,0 0,-0.0594 0,-0.0446 0,0.0297 0.013282,0.0625 0,0.0891 -0.00664,0.0133 -0.029699,0 -0.044549,0 -0.014848,0 -0.029699,0 -0.044549,0 -0.014851,0 -0.031267,0.007 -0.044549,0 -0.018783,-0.009 -0.025765,-0.0352 -0.044549,-0.0446 -0.026564,-0.0133 -0.062534,0.0133 -0.089098,0 -0.018783,-0.009 -0.025765,-0.0352 -0.044549,-0.0446 -0.013282,-0.007 -0.029699,0 -0.044549,0 -0.1333031,0 -0.082855,-0.006 -0.2227426,0.13372 -0.2354763,0.14135 -0.2227443,0.0471 -0.2227443,0.17825 0,0.0149 0.00664,0.0313 0,0.0446 -0.00939,0.0188 -0.035157,0.0258 -0.044549,0.0445 -0.0019,0.004 -0.0019,0.1744 0,0.1782 0.00939,0.0188 0.035157,0.0258 0.044549,0.0446 0.013142,0.0263 -0.010214,0.103 0,0.13364 0.0105,0.0315 0.034048,0.0576 0.044549,0.0891 0.0047,0.0141 -0.0105,0.0341 0,0.0446 0.0105,0.0105 0.034049,-0.0105 0.044549,0 0.092173,0.0922 -0.1408527,-0.004 0.044549,0.0891 0.013282,0.007 0.031267,-0.007 0.044549,0 0.018783,0.009 0.025765,0.0351 0.044549,0.0445 0.00497,0.002 0.2177719,0.002 0.2227442,0 0.02063,-0.0103 0.1519942,-0.15199 0.1781954,-0.17819 0.026201,-0.0262 0.1678805,-0.15757 0.1781953,-0.1782 0.00664,-0.0133 -0.00664,-0.0313 0,-0.0445 0.018783,-0.0376 0.070314,-0.0515 0.089098,-0.0891 0.00586,-0.0117 0,-0.1549 0,-0.1782 0,-0.0108 0.00143,-0.13221 0,-0.13364 -0.0105,-0.0105 -0.034049,0.0105 -0.044549,0 -0.0105,-0.0105 0.0105,-0.034 0,-0.0446 -0.0105,-0.0105 -0.031267,0.007 -0.044549,0 -0.0985,-0.0492 -0.013825,-0.0276 -0.044549,-0.0891 -0.00939,-0.0188 -0.035157,-0.0258 -0.044549,-0.0446 -0.00664,-0.0133 0.01461,-0.0472 0,-0.0446 -0.1665819,0.0303 -0.3266903,0.0892 -0.4900355,0.13372"
       id="path66"
       inkscape:connector-curvature="0" />
    <path
       style="fill:none;stroke:#000000;stroke-width:0.26458332px;stroke-linecap:butt;stroke-linejoin:miter;stroke-opacity:1"
       d="m 6.4150329,293.12429 c 0.1633456,-0.0743 0.316928,-0.17557 0.4900364,-0.2228 0.028652,-0.008 0,0.0594 0,0.0891 0,0.0149 0.00664,0.0313 0,0.0446 -0.00939,0.0188 -0.037908,0.0246 -0.044549,0.0446 -0.018783,0.0563 0.00977,0.1196 0,0.17819 -0.010065,0.0604 -0.03589,0.11759 -0.044549,0.1782 -0.0063,0.0441 0.00732,0.0897 0,0.13364 -0.049245,0.29547 -0.044549,0.04 -0.044549,0.1782 0,0.10395 0,0.20789 0,0.31184 0,0.0297 0.00939,0.0609 0,0.0891 -0.00664,0.0199 -0.037908,0.0246 -0.044549,0.0445 -0.00939,0.0282 0,0.0594 0,0.0891 0,0.0891 0,0.1782 0,0.2673 0,0.0393 0.00949,0.0957 0,0.13364 -0.011388,0.0456 -0.03316,0.0881 -0.044549,0.13365 -0.0072,0.0288 0,0.0594 0,0.0891 0,0.0743 0,0.14849 0,0.22274 0,0.0297 0.00939,0.0609 0,0.0891 -0.00664,0.0199 -0.035157,0.0258 -0.044549,0.0446 -0.00755,0.0151 0,0.2594 0,0.31184 0,0.13365 0,0.26729 0,0.40094 0,0.0297 0,0.0594 0,0.0891 0,0.0149 0.00664,0.0313 0,0.0446 -0.00939,0.0188 -0.035157,0.0258 -0.044549,0.0446 -0.00249,0.005 -0.00249,0.21777 0,0.22274 0.0058,0.0116 0.079374,0.0543 0.044549,0.0891 -0.010501,0.0105 -0.034048,0.0105 -0.044549,0 -0.010501,-0.0105 0.010501,-0.034 0,-0.0446 -0.010501,-0.0105 -0.031267,0.007 -0.044549,0 -0.018783,-0.009 -0.025765,-0.0352 -0.044549,-0.0445 -0.013282,-0.007 -0.029699,0 -0.044549,0 -0.029699,0 -0.060922,0.009 -0.089098,0 -0.019923,-0.007 -0.024625,-0.0379 -0.044549,-0.0446 -0.028175,-0.009 -0.060923,0.009 -0.089098,0 -0.019923,-0.007 -0.027075,-0.0329 -0.044549,-0.0446 -0.1781953,-0.1188 -0.014848,0.0446 -0.1336466,-0.13364 -0.06823,-0.10235 -0.025445,0.0191 -0.1336463,-0.0891 -0.010501,-0.0105 0.00664,-0.0313 0,-0.0446 -0.00939,-0.0188 -0.035157,-0.0258 -0.044549,-0.0445 -0.00664,-0.0133 0.00664,-0.0313 0,-0.0446 -0.00939,-0.0188 -0.035157,-0.0258 -0.044549,-0.0446 -0.00664,-0.0133 0.0047,-0.0305 0,-0.0446 -0.010501,-0.0315 -0.034049,-0.0576 -0.044549,-0.0891 -0.00891,-0.0267 0,-0.1872 0,-0.22275 0,-0.0594 0,-0.1188 0,-0.17819 0,-0.0446 -0.00732,-0.0897 0,-0.13365 0.00772,-0.0463 0.031648,-0.0885 0.044549,-0.13365 0.01682,-0.0589 0.034483,-0.1178 0.044549,-0.17819 0.00488,-0.0293 -0.0072,-0.0603 0,-0.0891 0.07271,-0.29084 0.023921,0.16831 0.089098,-0.22274 0.00732,-0.0439 -0.00874,-0.09 0,-0.13365 0.00651,-0.0326 0.036496,-0.0569 0.044549,-0.0891 0.0072,-0.0288 0,-0.0594 0,-0.0891 0,-0.0742 0,-0.14849 0,-0.22274 0,-0.1782 0,-0.35639 0,-0.53459 0,-0.0297 0,-0.0594 0,-0.0891 0,-0.0149 -0.014851,-0.0446 0,-0.0446 0.014848,0 0,0.0594 0,0.0446 0,-0.2028 -0.021,-0.003 0.044549,-0.13365 0.00664,-0.0133 -0.014848,-0.0446 0,-0.0446 0.014851,0 0,0.0594 0,0.0446 0,-0.0297 -0.017822,-0.0653 0,-0.0891 0.032125,-0.0428 0.089098,-0.0594 0.1336474,-0.089"
       id="path68"
       inkscape:connector-curvature="0" />
    <path
       style="fill:none;stroke:#000000;stroke-width:0.26458332px;stroke-linecap:butt;stroke-linejoin:miter;stroke-opacity:1"
       d="m 5.7022507,295.93081 c -0.1039474,0 -0.2078945,0 -0.3118419,0 -0.014848,0 -0.029699,0 -0.044549,0 -0.014851,0 -0.031267,-0.007 -0.044549,0 -0.018783,0.009 -0.025765,0.0352 -0.044549,0.0446 -0.016237,0.008 -0.1970751,0 -0.2227439,0 -0.074248,0 -0.1484961,0 -0.2227443,0 -0.029699,0 -0.060922,-0.009 -0.089098,0 -0.031501,0.0105 -0.057597,0.034 -0.089098,0.0445 -0.014089,0.005 -0.029699,0 -0.044549,0 -0.029699,0 -0.059398,0 -0.089098,0 -0.059398,0 -0.1187968,0 -0.1781952,0 -0.014848,0 -0.031267,-0.007 -0.044549,0 -0.018783,0.009 -0.029699,0.0297 -0.044549,0.0446 -0.029699,0 -0.060922,-0.009 -0.089098,0 -0.019923,0.007 -0.035157,0.0258 -0.044549,0.0446 -0.00664,0.0133 0.014848,0.0446 0,0.0446 -0.014848,0 0,-0.0594 0,-0.0446 0,0.0742 0,0.14849 0,0.22274 0,0.0149 -0.010501,0.034 0,0.0446 0.010501,0.0105 0.044549,-0.0149 0.044549,0 0,0.0148 -0.044549,-0.0149 -0.044549,0 0,0.0927 0.062474,0.0179 0.089098,0.0445 0.010501,0.0105 -0.010501,0.0341 0,0.0446 0.021,0.021 0.062534,-0.0133 0.089098,0 0.018783,0.009 0.025765,0.0351 0.044549,0.0446 0.026564,0.0133 0.068097,-0.021 0.089098,0 0.010501,0.0105 -0.00664,0.0313 0,0.0445 0.04925,0.0985 0.027649,0.0138 0.089098,0.0446 0.018783,0.009 0.025765,0.0352 0.044549,0.0446 0.011713,0.006 0.1548998,0 0.1781953,0 0.1336466,0 0.2672929,0 0.4009395,0 0.046327,0 0.2322502,-0.009 0.2672929,0 0.032213,0.008 0.056884,0.0365 0.089098,0.0445 0.033878,0.008 0.1854396,0 0.2227442,0 0.1187969,0 0.2375937,0 0.3563906,0 0.044549,0 0.091384,-0.0141 0.1336466,0 0.019923,0.007 0.024627,0.0379 0.044549,0.0446 0.026491,0.009 0.2146718,0 0.2672932,0 0.014848,0 0.029699,0 0.044549,0 0.014851,0 0.034049,0.0105 0.044549,0 0.021,-0.021 -0.00939,-0.0609 0,-0.0891 0.010501,-0.0315 0.034048,-0.0576 0.044549,-0.0891 0.00838,-0.0251 0,-0.10437 0,-0.13364"
       id="path70"
       inkscape:connector-curvature="0" />
    <path
       style="fill:none;stroke:#000000;stroke-width:0.26458332px;stroke-linecap:butt;stroke-linejoin:miter;stroke-opacity:1"
       d="m 9.3552551,289.42668 c 0,0.29699 0,0.59399 0,0.89098 0,0.0743 0,0.14849 0,0.22274 0,0.0297 -0.0072,0.0603 0,0.0891 0.00805,0.0322 0.038037,0.0565 0.044549,0.0891 0.00874,0.0437 0,0.0891 0,0.13364 0,0.10395 0,0.2079 0,0.31185 0,0.0297 -0.0072,0.0603 0,0.0891 0.01139,0.0456 0.03316,0.0881 0.044549,0.13365 0.0036,0.0144 0,0.0297 0,0.0446 0,0.0297 0,0.0594 0,0.0891 0,0.0594 0,0.11879 0,0.17819 0,0.0297 0.013282,0.0625 0,0.0891 -0.00664,0.0133 -0.031267,-0.007 -0.044549,0 -0.018783,0.009 -0.025765,0.0352 -0.044549,0.0445 -0.013282,0.007 -0.037908,-0.0133 -0.044549,0 -0.013282,0.0266 0.00939,0.0609 0,0.0891 -0.00664,0.0199 -0.035157,0.0258 -0.044549,0.0445 -0.00664,0.0133 0.00664,0.0313 0,0.0446 -0.00939,0.0188 -0.035157,0.0258 -0.044549,0.0446 -0.013282,0.0266 0.013282,0.0625 0,0.0891 -0.00939,0.0188 -0.035157,0.0258 -0.044549,0.0446 -0.014761,0.0295 0.012446,0.14086 0,0.17819 -0.010501,0.0315 -0.034049,0.0576 -0.044549,0.0891 -0.016388,0.0492 0.012676,0.0572 0.044549,0.0891 0.014848,0.0149 0.025765,0.0352 0.044549,0.0446 0.011713,0.006 0.1548998,0 0.1781953,0 0.014851,0 0.034049,0.0105 0.044549,0 0.010501,-0.0105 -0.010501,-0.034 0,-0.0446 0.021,-0.021 0.062534,0.0133 0.089098,0 0.018783,-0.009 0.025765,-0.0352 0.044549,-0.0446 0.013282,-0.007 0.031267,0.007 0.044549,0 0.018783,-0.009 0.025765,-0.0352 0.044549,-0.0445 0.013282,-0.007 0.031267,0.007 0.044549,0 0.018783,-0.009 0.024625,-0.0379 0.044549,-0.0446 0.028175,-0.009 0.060923,0.009 0.089098,0 0.039846,-0.0133 0.051531,-0.0703 0.089098,-0.0891 0.026564,-0.0133 0.062534,0.0133 0.089098,0 0.0985,-0.0493 0.01382,-0.0276 0.04455,-0.0891 0.0094,-0.0188 0.03516,-0.0258 0.04455,-0.0445 0.0066,-0.0133 -0.0066,-0.0313 0,-0.0446 0.0094,-0.0188 0.03516,-0.0258 0.04455,-0.0446 0.0396,-0.0792 -0.02475,-0.0247 -0.04455,-0.0445 -0.0105,-0.0105 0.0066,-0.0313 0,-0.0446 -0.0094,-0.0188 -0.03516,-0.0258 -0.04455,-0.0446 -0.0066,-0.0133 0.0066,-0.0313 0,-0.0445 -0.0094,-0.0188 -0.0297,-0.0297 -0.04455,-0.0446 -0.01485,-0.0149 -0.025766,-0.0352 -0.044549,-0.0446 -0.013282,-0.007 -0.034048,0.0105 -0.044549,0 -0.010501,-0.0105 0.010501,-0.034 0,-0.0445 -0.010501,-0.0105 -0.034049,0.0105 -0.044549,0 -0.010501,-0.0105 0.00664,-0.0313 0,-0.0446 -0.00939,-0.0188 -0.029699,-0.0297 -0.044549,-0.0446 -0.014851,-0.0148 -0.025765,-0.0352 -0.044549,-0.0446 -0.026564,-0.0133 -0.062534,0.0133 -0.089098,0 -0.018783,-0.009 -0.025765,-0.0351 -0.044549,-0.0445 -0.026564,-0.0133 -0.068097,0.021 -0.089098,0 -0.010501,-0.0105 0.010501,-0.034 0,-0.0445 -0.0018,-0.002 -0.1618353,0 -0.1781953,0"
       id="path72"
       inkscape:connector-curvature="0" />
    <path
       style="fill:none;stroke:#000000;stroke-width:0.26458332px;stroke-linecap:butt;stroke-linejoin:miter;stroke-opacity:1"
       d="m 9.3998041,291.56492 c 0.1930447,3e-5 0.3880255,0.0274 0.5791345,1.1e-4 0.074596,-0.0106 0.032781,-0.26478 0.044549,-0.31185 0.122094,-0.36628 -0.01565,0.0939 0.04455,-0.26729 0.0077,-0.0463 0.03316,-0.0881 0.04455,-0.13365 0.01007,-0.0403 0,-0.21493 0,-0.26729 0,-0.0148 -0.0047,-0.0305 0,-0.0446 0.0105,-0.0315 0.0365,-0.0569 0.04455,-0.0891 0.01747,-0.0699 -0.01747,-0.15286 0,-0.22274 0.05119,-0.20476 0.04455,-0.0101 0.04455,-0.13365 0,-0.10394 0,-0.20789 0,-0.31184 0,-0.0293 -0.0084,-0.10851 0,-0.13364 0.05119,-0.15357 0.04455,-0.033 0.04455,-0.13365 0,-0.0594 0,-0.1188 0,-0.1782 0,-0.0148 -0.01485,-0.0446 0,-0.0446 0.01485,0 0,0.0297 0,0.0446"
       id="path74"
       inkscape:connector-curvature="0" />
    <path
       style="fill:none;stroke:#000000;stroke-width:0.26458332px;stroke-linecap:butt;stroke-linejoin:miter;stroke-opacity:1"
       d="m 9.2661575,292.6342 c 0,0.13364 0,0.26729 0,0.40094 0,0.0297 0,0.0594 0,0.0891 0,0.0148 0.00664,0.0313 0,0.0446 -0.00939,0.0188 -0.035157,0.0258 -0.044549,0.0445 -0.00664,0.0133 0,0.0297 0,0.0446 0,0.0149 0,0.0297 0,0.0446 0,0.0466 0.00906,0.23107 0,0.26729 -0.00805,0.0322 -0.034048,0.0576 -0.044549,0.0891 -0.0047,0.0141 0,0.0297 0,0.0446 0,0.0743 0,0.1485 0,0.22274 0,0.0297 0.0072,0.0603 0,0.0891 -0.00805,0.0322 -0.036496,0.0569 -0.044549,0.0891 -0.018008,0.072 0.012205,0.14951 0,0.22274 -0.00772,0.0463 -0.03534,0.0876 -0.044549,0.13365 -0.00582,0.0291 0.0072,0.0603 0,0.0891 -0.00805,0.0322 -0.036495,0.0569 -0.044549,0.0891 -0.0072,0.0288 0,0.0594 0,0.0891 0,0.0594 0,0.1188 0,0.1782 0,0.0149 0.0047,0.0305 0,0.0446 -0.010501,0.0315 -0.034049,0.0576 -0.044549,0.0891 -0.014086,0.0423 0.010806,0.0904 0,0.13365 -0.00805,0.0322 -0.034048,0.0576 -0.044549,0.0891 -0.00886,0.0266 0,0.22413 0,0.26729 0,0.0148 0.00664,0.0313 0,0.0445 -0.00939,0.0188 -0.035157,0.0258 -0.044549,0.0446 -0.00661,0.0132 0,0.2242 0,0.26729 0,0.0446 0,0.0891 0,0.13365 0,0.0149 0.014851,0.0446 0,0.0446 -0.014848,0 -0.014848,-0.0446 0,-0.0446 0.089012,0 0.018005,0.1071 0.044549,0.13365 0.010501,0.0105 0.037908,-0.0133 0.044549,0 0.013282,0.0266 -0.013282,0.0625 0,0.0891 0.00664,0.0133 0.034049,-0.0105 0.044549,0 0.010501,0.0105 -0.010501,0.034 0,0.0445 0.010501,0.0105 0.034049,-0.0105 0.044549,0 0.010501,0.0105 0.014851,0.0446 0,0.0446 -0.014848,0 -0.014848,-0.0446 0,-0.0446 0.092701,0 0.017926,0.0625 0.044549,0.0891 0.010501,0.0105 0.031267,-0.007 0.044549,0 0.018783,0.009 0.025765,0.0352 0.044549,0.0445 0.052238,0.0261 0.052874,-0.0264 0.089098,-0.0445 0.013282,-0.007 0.034049,0.0105 0.044549,0 0.010501,-0.0105 -0.00664,-0.0313 0,-0.0446 0.00939,-0.0188 0.0329,-0.0271 0.044549,-0.0446 0.018418,-0.0276 0.021069,-0.0656 0.044549,-0.0891 0.010501,-0.0105 0.034048,0.0105 0.044549,0 0.010501,-0.0105 -0.00824,-0.0322 0,-0.0445 0.023299,-0.035 0.0658,-0.0542 0.089098,-0.0891 0.00824,-0.0124 -0.00664,-0.0313 0,-0.0446 0.00939,-0.0188 0.035157,-0.0258 0.044549,-0.0445 0.021,-0.042 0.023548,-0.0917 0.044549,-0.13365 0.00939,-0.0188 0.029699,-0.0297 0.044549,-0.0445 0.029699,-0.0297 0.0658,-0.0541 0.089098,-0.0891 0.016473,-0.0247 -0.013282,-0.0625 0,-0.0891 0.00939,-0.0188 0.035157,-0.0258 0.044549,-0.0446 0.00664,-0.0133 -0.00664,-0.0313 0,-0.0445 0.00939,-0.0188 0.035157,-0.0258 0.044549,-0.0446 0.013282,-0.0266 -0.013282,-0.0625 0,-0.0891 0.00939,-0.0188 0.037908,-0.0246 0.044549,-0.0445 0.014086,-0.0423 -0.014086,-0.0914 0,-0.13365 0.1075625,-0.32269 -0.012843,0.0702 0.089098,-0.13365 0.0066,-0.0133 -0.0036,-0.0301 0,-0.0446 0.125648,-0.37694 -7.94e-4,0.0494 0.04455,-0.22274 0.01007,-0.0604 0.03254,-0.11816 0.04455,-0.1782 0.0074,-0.0367 -0.01092,-0.15634 0,-0.17819 0.0094,-0.0188 0.03516,-0.0258 0.04455,-0.0445 0.01096,-0.0219 -0.0085,-0.22491 0,-0.26729 0.0092,-0.0461 0.03316,-0.0881 0.04455,-0.13365 0.0036,-0.0144 0,-0.0297 0,-0.0446 0,-0.0297 0,-0.0594 0,-0.0891 0,-0.034 -0.0094,-0.23922 0,-0.26729 0.0105,-0.0315 0.0365,-0.0569 0.04455,-0.0891 0.0072,-0.0288 0,-0.0594 0,-0.0891 0,-0.1188 0,-0.2376 0,-0.35639 0,-0.2376 0,-0.47519 0,-0.71279"
       id="path76"
       inkscape:connector-curvature="0" />
    <path
       style="fill:#ffffff;stroke:#000000;stroke-width:0.26458332px;stroke-linecap:butt;stroke-linejoin:miter;stroke-opacity:1"
       d="m 8.5979248,295.93081 -0.6236835,0.80188 c 0.074248,0 0.1495064,-0.0122 0.2227442,0 0.020715,0.003 0.025765,0.0352 0.044549,0.0446 0.013558,0.007 0.1135836,0 0.1336465,0 0.089098,0 0.1781954,0 0.267293,0 0.029699,0 0.059399,0 0.089098,0 0.01485,0 0.031267,0.007 0.044549,0 0.018783,-0.009 0.025765,-0.0352 0.044549,-0.0446 0.024515,-0.0123 0.232465,0.0116 0.267293,0 0.019923,-0.007 0.024626,-0.0379 0.044549,-0.0446 0.028175,-0.009 0.060285,0.007 0.089098,0 0.032213,-0.008 0.059398,-0.0297 0.089098,-0.0445 0.029699,-0.0149 0.06147,-0.0261 0.089098,-0.0446 0.017474,-0.0116 0.035157,-0.0258 0.044549,-0.0446 0.00664,-0.0133 -0.01485,-0.0445 0,-0.0445 0.01485,0 0,0.0594 0,0.0445 0,-0.14849 0.044549,-0.13364 -0.044549,-0.13364"
       id="path78"
       inkscape:connector-curvature="0" />
    <path
       style="fill:#ffffff;stroke:#ff0000;stroke-width:0.16837354"
       d="m 28.465244,27.254784 c -0.118443,-0.07516 -0.535168,-0.623321 -0.926054,-1.218131 l -0.710703,-1.081472 -4.419806,0.0646 -4.419806,0.0646 v -0.62686 c 0,-0.542106 -0.122429,-0.740021 -0.90552,-1.463832 -0.903159,-0.83479 -1.547539,-1.269683 -2.593391,-1.750281 -0.467746,-0.214942 -1.21282,-1.099449 -1.214918,-1.442277 -3.47e-4,-0.05657 0.586573,-0.37215 1.304265,-0.701296 1.638875,-0.751617 1.978389,-1.273714 1.978389,-3.042323 v -1.179875 l -0.841867,-0.685926 c -0.463028,-0.377259 -1.055788,-0.84058 -1.317246,-1.029601 -0.45436,-0.328481 -0.4647,-0.365702 -0.23387,-0.841868 0.920172,-1.898162 1.208475,-2.4059739 1.325053,-2.3339245 0.07292,0.045065 0.570333,-0.1199282 1.105373,-0.3666499 1.410893,-0.650602 2.646176,-0.9693045 5.518884,-1.4238696 4.2618,-0.6743689 8.732762,-0.3561674 11.136195,0.7925707 0.884963,0.4229742 3.259744,2.3050413 3.259744,2.5834193 0,0.0849 0.22972,0.415994 0.510488,0.735771 0.280768,0.319778 0.707474,1.130012 0.948233,1.80052 0.36766,1.023922 0.422486,1.401119 0.342436,2.355949 -0.05242,0.625263 -0.251821,1.480407 -0.443112,1.900319 -0.191293,0.419912 -0.347804,0.832338 -0.347804,0.916502 0,0.08416 -0.18942,0.357412 -0.420934,0.60722 -0.231514,0.249807 -0.420934,0.547589 -0.420934,0.661738 0,0.224202 -1.692686,1.963963 -1.910821,1.963963 -0.07277,0 -0.411345,0.226509 -0.752387,0.503354 -0.341042,0.276845 -1.093627,0.844949 -1.672411,1.262454 -0.9935,0.716658 -1.052334,0.797329 -1.052334,1.442878 0,0.470998 -0.06004,0.646674 -0.19293,0.564542 -0.136992,-0.08466 -0.15857,0.01766 -0.07442,0.352933 0.07926,0.315804 0.04557,0.518423 -0.101725,0.611842 -0.283386,0.179727 -2.173936,0.182049 -2.456065,0.003 z M 24.892191,19.60529 c 1.558791,-0.775005 1.735229,-0.991523 2.053889,-2.520467 0.162553,-0.779931 0.143,-0.975069 -0.164605,-1.642747 -0.528456,-1.14705 -1.463097,-1.949568 -2.528972,-2.171473 -1.119196,-0.233005 -2.314618,-0.238502 -2.736747,-0.01259 -0.177965,0.09525 -0.608651,0.600537 -0.957079,1.122874 -1.636078,2.452679 -1.727934,2.645412 -1.727929,3.625536 5e-6,0.808135 0.05134,0.928265 0.575306,1.34634 0.316415,0.252468 0.890573,0.52987 1.275907,0.616449 0.385333,0.08658 0.745218,0.202028 0.799745,0.256554 0.05453,0.05453 0.522177,0.09732 1.039224,0.09511 0.762256,-0.0033 1.210811,-0.138631 2.371261,-0.715588 z"
       id="path80"
       inkscape:connector-curvature="0"
       transform="matrix(0.26458333,0,0,0.26458333,0,270.54165)" />
    <path
       style="fill:#ffffff;stroke:#ff0000;stroke-width:0.16837354"
       d="m 20.717187,27.889273 c -0.768262,-0.07421 -1.648447,-0.217971 -1.955967,-0.319462 -0.517244,-0.170706 -0.55088,-0.225094 -0.449043,-0.726085 0.10688,-0.525798 0.138074,-0.543026 1.072006,-0.592052 l 0.961922,-0.0505 v 0.663883 c 0,0.735817 0.30782,0.985724 0.854065,0.693383 0.224617,-0.120212 0.32455,-0.353325 0.32455,-0.757078 v -0.583383 l 0.883961,-0.0023 c 0.486179,-0.0013 1.054439,-0.04799 1.262802,-0.103824 0.362646,-0.09719 0.37884,-0.0575 0.37884,0.928353 v 1.029879 l -0.968148,-0.02294 c -0.532481,-0.01262 -1.596726,-0.08366 -2.364988,-0.157876 z"
       id="path82"
       inkscape:connector-curvature="0"
       transform="matrix(0.26458333,0,0,0.26458333,0,270.54165)" />
    <path
       style="fill:#ffffff;stroke:#ff0000;stroke-width:0.16837354"
       d="m 25.776152,27.803314 c -0.500774,-0.218999 -0.547214,-0.30357 -0.547214,-0.996506 0,-0.723579 0.02172,-0.757198 0.489121,-0.757198 0.404199,0 0.569006,0.136311 0.949219,0.785095 0.439612,0.750143 0.446388,0.795119 0.152191,1.010241 -0.361924,0.264646 -0.341063,0.265478 -1.043317,-0.04163 z"
       id="path84"
       inkscape:connector-curvature="0"
       transform="matrix(0.26458333,0,0,0.26458333,0,270.54165)" />
    <path
       style="fill:#ffffff;stroke:#ff0000;stroke-width:0.16837354"
       d="m 28.028872,31.058088 c -0.05575,-0.208013 -0.102394,-0.57635 -0.103658,-0.818527 -0.0013,-0.242176 -0.155022,-0.634476 -0.341684,-0.871777 L 27.244146,28.936326 27.58353,28.82861 c 0.186662,-0.05924 0.339385,-0.161605 0.339385,-0.227469 0,-0.06586 0.795453,-0.117584 1.767674,-0.114934 l 1.767674,0.0048 0.0021,0.505121 c 0.0012,0.277816 0.04902,0.788992 0.106371,1.135947 0.0985,0.595903 0.07276,0.643611 -0.46488,0.861766 -0.313033,0.127018 -1.109708,0.278527 -1.770388,0.336688 -1.144957,0.100792 -1.205985,0.08803 -1.302596,-0.27246 z"
       id="path86"
       inkscape:connector-curvature="0"
       transform="matrix(0.26458333,0,0,0.26458333,0,270.54165)" />
    <path
       style="fill:#ffffff;stroke:#ff0000;stroke-width:0.16837354"
       d="m 28.356773,34.197895 c -0.06467,-0.796954 -0.08982,-1.476761 -0.0559,-1.510683 0.08952,-0.08952 2.893873,-0.391169 2.966002,-0.31904 0.03342,0.03342 0.09981,0.547139 0.147529,1.141589 0.06488,0.808218 0.02833,1.117883 -0.144912,1.227777 -0.31117,0.197389 -2.342687,0.909364 -2.59474,0.909364 -0.130332,0 -0.241522,-0.506681 -0.317982,-1.449007 z"
       id="path88"
       inkscape:connector-curvature="0"
       transform="matrix(0.26458333,0,0,0.26458333,0,270.54165)" />
    <path
       style="fill:#ffffff;stroke:#ff0000;stroke-width:0.16837354"
       d="m 28.996732,38.595727 c -0.660549,-1.442829 -0.315722,-1.850341 2.062389,-2.437304 l 0.526417,-0.12993 0.103521,0.861539 c 0.203377,1.692588 0.198763,1.704959 -0.777514,2.084616 -0.486178,0.189067 -1.016964,0.397266 -1.179523,0.462664 -0.238462,0.09594 -0.380514,-0.06665 -0.73529,-0.841585 z"
       id="path90"
       inkscape:connector-curvature="0"
       transform="matrix(0.26458333,0,0,0.26458333,0,270.54165)" />
    <path
       style="fill:#ffffff;stroke:#ff0000;stroke-width:0.16837354"
       d="m 36.769565,39.098559 c -1.586148,-1.620595 -2.975349,-2.946537 -3.087114,-2.946537 -0.111765,0 -0.203209,-0.113652 -0.203209,-0.25256 0,-0.334258 0.115237,-0.318799 0.62755,0.08419 0.235457,0.185211 0.527083,0.336747 0.648056,0.336747 0.120974,0 0.615075,0.37884 1.098004,0.841868 0.482928,0.463027 0.960934,0.84721 1.062236,0.85374 0.101302,0.0065 0.394666,0.252776 0.651921,0.547214 0.257255,0.294438 0.739823,0.835262 1.072373,1.201831 0.669816,0.738336 1.406428,1.842566 1.406428,2.108328 0,0.464216 -0.620055,-0.06094 -3.276245,-2.774818 z"
       id="path92"
       inkscape:connector-curvature="0"
       transform="matrix(0.26458333,0,0,0.26458333,0,270.54165)" />
    <path
       style="fill:#ffffff;stroke:#ff0000;stroke-width:0.16837354"
       d="m 29.257923,45.117914 c -0.0066,-0.06945 -0.07084,-0.732425 -0.142788,-1.473269 l -0.130809,-1.346988 0.681433,-0.900875 c 0.653064,-0.863369 1.398047,-1.364085 1.612473,-1.083771 0.05576,0.07289 0.281649,0.338465 0.501972,0.590155 0.308372,0.352275 0.427222,0.739872 0.516291,1.683736 0.143058,1.516 -0.04715,1.895111 -1.029665,2.052221 -0.376908,0.06027 -0.900876,0.221067 -1.164372,0.357326 -0.527067,0.272557 -0.826121,0.315568 -0.844535,0.121465 z"
       id="path94"
       inkscape:connector-curvature="0"
       transform="matrix(0.26458333,0,0,0.26458333,0,270.54165)" />
    <path
       style="fill:#ffffff;stroke:#ff0000;stroke-width:0.16837354"
       d="m 35.973765,46.481951 c -0.492236,-0.449253 -0.932859,-0.863077 -0.979161,-0.91961 -0.0463,-0.05653 -0.329336,-0.228389 -0.628962,-0.381903 -0.541278,-0.277325 -0.603592,-0.409782 -0.80171,-1.704166 l -0.103085,-0.673495 1.061532,1.118938 c 1.117565,1.178001 2.573197,3.150223 2.43044,3.29298 -0.04624,0.04624 -0.486818,-0.283491 -0.979054,-0.732744 z"
       id="path96"
       inkscape:connector-curvature="0"
       transform="matrix(0.26458333,0,0,0.26458333,0,270.54165)" />
    <path
       style="fill:#ffffff;stroke:#ff0000;stroke-width:0.16837354"
       d="m 29.853621,49.135672 c -0.178217,-1.125227 -0.439043,-2.117607 -0.611037,-2.324847 -0.125697,-0.151456 -0.04463,-0.235716 0.307114,-0.319226 0.262837,-0.0624 0.780958,-0.245381 1.15138,-0.406621 0.370422,-0.16124 0.957625,-0.344044 1.304895,-0.40623 l 0.631401,-0.113066 v 1.078557 c 0,0.593207 0.04661,1.418595 0.103572,1.834196 l 0.103571,0.755638 -0.734972,0.112605 c -0.404235,0.06193 -1.055513,0.176635 -1.447284,0.254896 l -0.712312,0.142291 z"
       id="path98"
       inkscape:connector-curvature="0"
       transform="matrix(0.26458333,0,0,0.26458333,0,270.54165)" />
    <path
       style="fill:#ffffff;stroke:#ff0000;stroke-width:0.16837354"
       d="m 30.111972,52.314224 -2.01e-4,-1.432834 1.579516,-0.25778 1.579515,-0.25778 0.113571,1.253294 c 0.06246,0.689312 0.155189,1.461387 0.206056,1.715722 l 0.09248,0.462427 -1.785371,-0.02511 -1.78537,-0.02511 z"
       id="path100"
       inkscape:connector-curvature="0"
       transform="matrix(0.26458333,0,0,0.26458333,0,270.54165)" />
    <path
       style="fill:#ffffff;stroke:#ff0000;stroke-width:0.16837354"
       d="m 32.805748,59.019045 c -0.231514,-0.09683 -0.799775,-0.352982 -1.262802,-0.569234 -0.463027,-0.216254 -1.05023,-0.442895 -1.304895,-0.503648 -0.461669,-0.110135 -0.463027,-0.114805 -0.463027,-1.591952 v -1.481493 l 1.725829,0.05403 c 2.38686,0.07473 2.3171,0.02709 2.305432,1.574394 -0.01145,1.518619 -0.177775,2.588876 -0.411839,2.650082 -0.09227,0.02413 -0.357185,-0.03535 -0.588698,-0.132179 z"
       id="path102"
       inkscape:connector-curvature="0"
       transform="matrix(0.26458333,0,0,0.26458333,0,270.54165)" />
    <path
       style="fill:#ffffff;stroke:#ff0000;stroke-width:0.16837354"
       d=""
       id="path104"
       inkscape:connector-curvature="0"
       transform="matrix(0.26458333,0,0,0.26458333,0,270.54165)" />
    <path
       style="fill:#ffffff;stroke:#ff0000;stroke-width:0.16837354"
       d="m 30.622844,61.652025 c -0.691266,-0.224551 -1.497841,-0.522633 -1.792388,-0.662405 -0.49197,-0.233455 -0.524892,-0.298688 -0.404653,-0.801809 0.07199,-0.301223 0.212015,-0.751564 0.31117,-1.000757 l 0.180283,-0.453078 0.926794,0.325742 c 0.509736,0.179158 1.214169,0.473897 1.565405,0.654975 0.351237,0.181078 0.848721,0.407647 1.105522,0.503486 0.402784,0.15032 0.451429,0.238215 0.354186,0.63997 -0.338328,1.397798 -0.361726,1.406067 -2.246319,0.793876 z"
       id="path106"
       inkscape:connector-curvature="0"
       transform="matrix(0.26458333,0,0,0.26458333,0,270.54165)" />
    <path
       style="fill:#ffffff;stroke:#ff0000;stroke-width:0.16837354"
       d="m 35.31338,70.762978 c -0.382248,-0.216186 -0.89157,-0.812964 -1.160644,-1.359942 -0.127134,-0.258438 -1.700293,-1.655257 -2.261135,-2.007677 -0.426907,-0.268258 -0.721167,-0.296335 -2.188856,-0.20885 -0.932604,0.05559 -2.112368,0.221893 -2.621698,0.369561 -1.740412,0.504593 -1.62682,0.516701 -1.999131,-0.213088 -0.344154,-0.674598 -0.253428,-1.052095 0.252857,-1.052095 0.46219,0 0.736033,-0.532725 0.736033,-1.431855 0,-0.782578 -0.04936,-0.918348 -0.370988,-1.020429 -0.204043,-0.06476 -0.482771,-0.22953 -0.619395,-0.366154 -0.181657,-0.181657 -0.514857,-0.229134 -1.239991,-0.176682 -0.840899,0.06083 -1.049043,0.143784 -1.369687,0.54591 -0.329745,0.41354 -0.425187,0.448987 -0.746251,0.277159 -0.585802,-0.313512 -1.041642,0.02697 -1.041642,0.778042 0,0.38687 -0.127255,0.750082 -0.343415,0.980173 -0.188878,0.201051 -0.387021,0.634267 -0.440319,0.962701 -0.137727,0.848714 0.293447,1.058827 1.685849,0.821523 2.406674,-0.410164 2.231044,-0.420705 2.466629,0.148047 0.188753,0.45569 0.176687,0.54305 -0.104393,0.75585 -0.174798,0.132335 -0.445936,0.243018 -0.602531,0.245964 -0.156594,0.0029 -0.331544,0.08112 -0.388777,0.173728 -0.05723,0.0926 -0.273855,0.168373 -0.481383,0.168373 -0.207527,0 -0.452746,0.07542 -0.544932,0.16761 -0.09219,0.09219 -0.751999,0.217009 -1.466254,0.277386 -1.051449,0.08888 -1.354463,0.05966 -1.591893,-0.153523 -0.161288,-0.144815 -0.520554,-0.28858 -0.798371,-0.319479 -0.458975,-0.05105 -0.509062,-0.117707 -0.548267,-0.729675 -0.03428,-0.535155 0.0947,-0.898295 0.627934,-1.767922 0.369094,-0.601935 0.910494,-1.570027 1.203111,-2.151314 0.292617,-0.581288 0.597249,-1.097194 0.676961,-1.146459 0.07971,-0.04926 0.144931,-0.239654 0.144931,-0.423089 0,-0.183435 0.151536,-0.630554 0.336747,-0.993597 0.185211,-0.363043 0.336747,-0.852518 0.336747,-1.08772 0,-0.416988 0.378809,-0.599861 0.5773,-0.278697 0.05063,0.08192 0.436839,0.200649 0.858245,0.263843 0.732179,0.109797 1.383349,0.32983 2.546679,0.860533 0.291812,0.133123 0.587573,0.242041 0.657248,0.242041 0.06967,0 0.512832,0.180775 0.984795,0.401723 2.604567,1.21932 2.469474,1.180522 4.141398,1.189365 1.410491,0.0075 1.712747,-0.04627 2.557271,-0.454567 0.526746,-0.254665 0.998294,-0.463027 1.047883,-0.463027 0.04959,0 0.622543,-0.259093 1.273229,-0.575763 0.650685,-0.31667 1.183065,-0.539678 1.183065,-0.495573 0,0.0441 0.168396,-0.03776 0.374212,-0.181918 0.205815,-0.144159 0.537494,-0.262108 0.737064,-0.262108 0.199569,0 0.446814,-0.101167 0.549433,-0.224815 0.102618,-0.123648 0.509678,-0.320959 0.904578,-0.438468 0.394899,-0.117509 0.89204,-0.281531 1.10476,-0.364492 0.21272,-0.08296 0.78098,-0.148945 1.262801,-0.14663 0.789738,0.0038 0.947078,0.07125 1.59715,0.684727 0.878071,0.828644 0.876305,0.857641 -0.264697,4.34522 -0.842807,2.576118 -0.709809,2.367156 -2.64435,4.154697 -0.207881,0.192083 -0.671969,0.487905 -1.03131,0.657382 -0.35934,0.169477 -0.905057,0.49903 -1.212706,0.73234 -0.687489,0.521371 -2.074843,0.668971 -2.741894,0.29171 z m 1.572932,-5.433982 c 0.19277,-0.174454 0.539582,-0.269223 0.897118,-0.245145 0.493789,0.03326 0.608989,-0.02947 0.753837,-0.410448 0.09404,-0.247336 0.149915,-0.463002 0.124172,-0.479258 -0.02574,-0.01626 -0.3696,-0.131785 -0.764128,-0.256731 -0.76782,-0.243168 -1.029535,-0.174862 -2.102933,0.548855 -0.444956,0.300002 -0.619199,0.918828 -0.337916,1.20011 0.187478,0.187479 1.072105,-0.03363 1.42985,-0.357383 z"
       id="path108"
       inkscape:connector-curvature="0"
       transform="matrix(0.26458333,0,0,0.26458333,0,270.54165)" />
    <path
       style="fill:#ffffff;stroke:#ff0000;stroke-width:0.16837354"
       d="m 23.628082,79.887051 c -0.164034,-0.578784 -0.31496,-1.326558 -0.335391,-1.66172 -0.02043,-0.335161 -0.09274,-0.699339 -0.160693,-0.809283 -0.06795,-0.109944 -0.18529,-0.593401 -0.260758,-1.07435 -0.07547,-0.480949 -0.25511,-1.288142 -0.399205,-1.793762 -0.144095,-0.505619 -0.311593,-1.530637 -0.372219,-2.277816 -0.121977,-1.503305 -0.04914,-1.651407 1.001919,-2.037339 0.29021,-0.10656 0.811785,-0.318299 1.159055,-0.47053 l 0.631401,-0.276786 v 0.567459 c 0,0.312102 -0.08162,1.54435 -0.181379,2.738329 -0.147714,1.767937 -0.132088,2.642461 0.08419,4.71163 0.372077,3.559781 0.382895,3.436503 -0.301554,3.436503 -0.551605,0 -0.575278,-0.02879 -0.865362,-1.052335 z"
       id="path110"
       inkscape:connector-curvature="0"
       transform="matrix(0.26458333,0,0,0.26458333,0,270.54165)" />
    <path
       style="fill:#ffffff;stroke:#ff0000;stroke-width:0.16837354"
       d="m 21.861467,65.928044 c 0,-0.340851 0.01866,-0.345954 0.307912,-0.08419 0.419588,0.379723 0.533956,0.350888 0.533956,-0.134624 0,-0.51613 0.773686,-1.312548 1.275084,-1.312548 0.206699,0 0.539448,0.114612 0.739442,0.254693 l 0.363625,0.254693 -0.49948,0.355661 c -0.274714,0.195613 -0.582494,0.355661 -0.683955,0.355661 -0.101461,0 -0.336011,0.151536 -0.521222,0.336747 -0.208463,0.208462 -0.561245,0.336747 -0.926055,0.336747 -0.491186,0 -0.589307,-0.06041 -0.589307,-0.362843 z"
       id="path112"
       inkscape:connector-curvature="0"
       transform="matrix(0.26458333,0,0,0.26458333,0,270.54165)" />
    <path
       style="fill:#ffffff;stroke:#ff0000;stroke-width:0.16837354"
       d="m 36.276571,78.78154 c -0.04669,-0.07555 -0.138427,-1.590912 -0.203855,-3.367471 l -0.118959,-3.230108 h 0.509618 c 0.28029,0 0.746393,-0.04735 1.035785,-0.105233 0.517065,-0.103413 0.526141,-0.09395 0.524644,0.547214 -8.38e-4,0.358846 -0.115891,1.52378 -0.255673,2.588743 -0.139782,1.064963 -0.301232,2.334078 -0.358779,2.820257 -0.09837,0.831078 -0.132846,0.883961 -0.576258,0.883961 -0.259396,0 -0.509831,-0.06181 -0.556523,-0.137363 z"
       id="path114"
       inkscape:connector-curvature="0"
       transform="matrix(0.26458333,0,0,0.26458333,0,270.54165)" />
    <path
       style="fill:#ffffff;stroke:#ff0000;stroke-width:0.16837354"
       d="m 35.331351,82.193826 c 0,-0.522193 0.349951,-1.230196 0.816962,-1.652835 0.338893,-0.306694 0.357063,-0.30488 0.847585,0.08458 0.532285,0.422624 0.745889,0.764997 0.612216,0.981285 -0.09819,0.158877 -1.880849,1.016261 -2.112992,1.016261 -0.09007,0 -0.163771,-0.193183 -0.163771,-0.429295 z"
       id="path116"
       inkscape:connector-curvature="0"
       transform="matrix(0.26458333,0,0,0.26458333,0,270.54165)" />
    <path
       style="fill:#ffffff;stroke:#ff0000;stroke-width:0.16837354"
       d="m 34.700992,96.796721 c -0.294661,-0.187123 -0.524968,-1.569427 -0.343304,-2.060511 0.08267,-0.22348 0.11215,-0.552251 0.06551,-0.730602 -0.04664,-0.178352 -0.0165,-0.451889 0.06697,-0.607861 0.13039,-0.243637 0.251879,-0.982719 0.622518,-3.787124 0.03672,-0.277816 0.18908,-1.680848 0.338583,-3.11785 l 0.271825,-2.612729 1.261009,-0.540632 1.26101,-0.540632 -0.106413,2.732427 c -0.115469,2.965006 -0.479423,5.922032 -0.844038,6.85758 -0.12632,0.324119 -0.362647,1.001105 -0.525171,1.504413 -0.162524,0.503309 -0.427396,1.109454 -0.588605,1.346989 -0.161208,0.237535 -0.475129,0.715495 -0.697601,1.062132 -0.434705,0.67732 -0.464551,0.696182 -0.782294,0.4944 z"
       id="path118"
       inkscape:connector-curvature="0"
       transform="matrix(0.26458333,0,0,0.26458333,0,270.54165)" />
    <path
       style="fill:#ffffff;stroke:#ff0000;stroke-width:0.16837354"
       d="m 23.956931,96.931512 c -0.452691,-0.169887 -1.417968,-1.274825 -1.436324,-1.64414 -0.05485,-1.103598 0.09648,-2.358718 0.448151,-3.716792 0.311735,-1.203858 0.40868,-2.018715 0.410649,-3.451658 0.0014,-1.031673 0.05824,-1.960694 0.12628,-2.06449 0.06804,-0.103795 0.388891,-0.224844 0.71301,-0.268996 0.324119,-0.04415 0.733242,-0.142164 0.909162,-0.217805 0.28098,-0.120814 0.306199,-0.08312 0.207498,0.31014 -0.156881,0.625063 -0.776311,7.84185 -0.796697,9.28206 -0.02249,1.589162 -0.1372,1.938505 -0.581729,1.771681 z"
       id="path120"
       inkscape:connector-curvature="0"
       transform="matrix(0.26458333,0,0,0.26458333,0,270.54165)" />
    <path
       style="fill:#ffffff;stroke:#ff0000;stroke-width:0.16837354"
       d="m 23.430222,84.60151 c -0.309563,-0.483138 -0.492273,-1.276474 -0.370063,-1.60684 0.181346,-0.490226 1.395754,-0.818467 1.943519,-0.525312 0.560566,0.300006 0.490994,0.669239 -0.29417,1.561233 -0.700755,0.796099 -1.038443,0.946803 -1.279286,0.570919 z"
       id="path122"
       inkscape:connector-curvature="0"
       transform="matrix(0.26458333,0,0,0.26458333,0,270.54165)" />
    <path
       style="fill:#ffffff;stroke:#ff0000;stroke-width:0.16837354"
       d="m 20.581013,98.211365 c -1.858197,-0.105172 -3.31596,-0.262249 -3.451658,-0.371924 -0.129199,-0.104423 -0.409557,-0.243447 -0.623017,-0.308942 -0.213459,-0.0655 -0.358955,-0.207362 -0.323324,-0.315261 0.06328,-0.191607 0.771266,-0.294752 3.962547,-0.577293 l 1.567378,-0.138768 0.809827,0.776455 c 0.445405,0.42705 1.066026,0.858303 1.379159,0.95834 0.660813,0.21111 0.828653,0.212253 -3.320912,-0.02261 z"
       id="path124"
       inkscape:connector-curvature="0"
       transform="matrix(0.26458333,0,0,0.26458333,0,270.54165)" />
    <path
       style="fill:#ffffff;stroke:#ff0000;stroke-width:0.16837354"
       d="m 19.934794,47.889621 c 0.04578,-0.119308 1.009448,-0.621946 2.141479,-1.116974 1.13203,-0.495027 2.134005,-0.958699 2.22661,-1.030381 0.158737,-0.122872 1.929528,-0.651086 2.411056,-0.719201 0.297495,-0.04208 1.277305,1.315569 1.16349,1.612165 -0.05871,0.152992 -0.956864,0.396717 -2.589892,0.702797 -1.375009,0.257719 -2.719684,0.536066 -2.988168,0.618549 -0.782511,0.2404 -2.464244,0.19278 -2.364575,-0.06696 z"
       id="path126"
       inkscape:connector-curvature="0"
       transform="matrix(0.26458333,0,0,0.26458333,0,270.54165)" />
    <path
       style="fill:#ffffff;stroke:#ff0000;stroke-width:0.16837354"
       d="m 20.543766,38.87815 c 0.449524,-0.542865 1.670991,-1.379139 2.014378,-1.379139 0.127631,0 0.59903,-0.195355 1.047553,-0.434122 0.448523,-0.238768 1.149154,-0.534539 1.556958,-0.65727 l 0.741462,-0.223147 0.783383,0.91696 c 0.451805,0.528843 0.718698,0.976585 0.630558,1.05783 -0.08405,0.07748 -1.365114,0.305914 -2.846801,0.507633 -1.481687,0.201719 -2.967956,0.438191 -3.302819,0.525493 -0.948382,0.247253 -1.048087,0.197097 -0.624672,-0.314238 z"
       id="path128"
       inkscape:connector-curvature="0"
       transform="matrix(0.26458333,0,0,0.26458333,0,270.54165)" />
    <path
       style="fill:none;stroke:#000000;stroke-width:0.26458332px;stroke-linecap:butt;stroke-linejoin:miter;stroke-opacity:1"
       d="m 8.5979248,295.93081 c 0.029699,-0.0149 0.057597,-0.0341 0.089098,-0.0446 0.014086,-0.005 0.029699,0 0.044549,0 0.014851,0 0.058636,-0.005 0.044549,0 -0.058085,0.0194 -0.1187971,0.0297 -0.1781955,0.0446"
       id="path130"
       inkscape:connector-curvature="0" />
    <path
       style="fill:#000000;stroke:#ff0000;stroke-width:0.16837354"
       d="m 31.290386,98.558855 c 0,-0.186244 1.561938,-2.129103 1.711667,-2.129103 0.289176,0 2.160924,1.268846 2.160924,1.464876 0,0.111667 -0.28413,0.281837 -0.631401,0.378155 -0.781062,0.216633 -3.24119,0.433768 -3.24119,0.286072 z"
       id="path132"
       inkscape:connector-curvature="0"
       transform="matrix(0.26458333,0,0,0.26458333,0,270.54165)" />
    <path
       style="fill:#000000;stroke:#ff0000;stroke-width:0.16837354"
       d="m 21.187973,18.869872 c -0.324119,-0.129934 -0.721902,-0.281267 -0.883961,-0.336296 -0.473438,-0.160759 -0.358711,-1.048509 0.255759,-1.979043 0.299208,-0.453111 0.740209,-1.135024 0.980002,-1.515362 l 0.435987,-0.691523 1.117148,0.02571 c 1.226136,0.02822 1.739343,0.310567 2.46846,1.358064 0.349677,0.502368 0.362244,0.604244 0.172234,1.396294 -0.199163,0.830204 -0.237681,0.870863 -1.360852,1.436482 -1.268661,0.638888 -2.144008,0.722903 -3.184777,0.305674 z"
       id="path134"
       inkscape:connector-curvature="0"
       transform="matrix(0.26458333,0,0,0.26458333,0,270.54165)" />
    <path
       style="fill:#000000;stroke:#ff0000;stroke-width:0.16837354"
       d="m 12.838491,18.031171 c -0.15276,-0.81428 0.04454,-2.805883 0.350507,-3.538172 l 0.247012,-0.591184 1.013631,0.779972 c 0.938577,0.722218 1.013631,0.82955 1.013631,1.449548 0,0.923396 -0.391591,1.43744 -1.534539,2.014398 l -0.976294,0.492832 z"
       id="path136"
       inkscape:connector-curvature="0"
       transform="matrix(0.26458333,0,0,0.26458333,0,270.54165)" />
  </g>
</svg>
