<?xml version="1.0" encoding="UTF-8" standalone="no"?>
<!-- Created with Inkscape (http://www.inkscape.org/) -->

<svg
   xmlns:dc="http://purl.org/dc/elements/1.1/"
   xmlns:cc="http://creativecommons.org/ns#"
   xmlns:rdf="http://www.w3.org/1999/02/22-rdf-syntax-ns#"
   xmlns:svg="http://www.w3.org/2000/svg"
   xmlns="http://www.w3.org/2000/svg"
   xmlns:sodipodi="http://sodipodi.sourceforge.net/DTD/sodipodi-0.dtd"
   xmlns:inkscape="http://www.inkscape.org/namespaces/inkscape"
   width="50"
   height="50"
   viewBox="0 0 13.229166 13.229167"
   version="1.1"
   id="svg218"
   inkscape:version="0.92.3 (2405546, 2018-03-11)"
   sodipodi:docname="Crab arm.svg">
  <defs
     id="defs212" />
  <sodipodi:namedview
     id="base"
     pagecolor="#ffffff"
     bordercolor="#666666"
     borderopacity="1.0"
     inkscape:pageopacity="0.0"
     inkscape:pageshadow="2"
     inkscape:zoom="11.009844"
     inkscape:cx="22.01445"
     inkscape:cy="27.13937"
     inkscape:document-units="mm"
     inkscape:current-layer="layer1"
     showgrid="false"
     units="px"
     inkscape:window-width="1920"
     inkscape:window-height="1016"
     inkscape:window-x="1920"
     inkscape:window-y="27"
     inkscape:window-maximized="1" />
  <metadata
     id="metadata215">
    <rdf:RDF>
      <cc:Work
         rdf:about="">
        <dc:format>image/svg+xml</dc:format>
        <dc:type
           rdf:resource="http://purl.org/dc/dcmitype/StillImage" />
        <dc:title></dc:title>
      </cc:Work>
    </rdf:RDF>
  </metadata>
  <g
     inkscape:label="Layer 1"
     inkscape:groupmode="layer"
     id="layer1"
     transform="translate(0,-283.77082)">
    <path
       style="fill:none;stroke:#000000;stroke-width:0.26458332px;stroke-linecap:butt;stroke-linejoin:miter;stroke-opacity:1"
       d="m 6.6567324,288.22848 c -0.013996,0.1219 -0.1193855,0.16668 -0.1682207,0.26435 -0.01133,0.0226 -0.014623,0.0486 -0.024032,0.0721 -0.013303,0.0333 -0.039375,0.0614 -0.048063,0.0961 -0.00777,0.0311 0.010134,0.0657 0,0.0961 -0.00358,0.0108 -0.02045,0.0133 -0.024032,0.024 -0.00507,0.0152 0,0.032 0,0.0481 0,0.016 0,0.032 0,0.0481 0,0.016 0,0.032 0,0.0481 0,0.008 -0.00254,0.0164 0,0.024 0.00566,0.017 0.019688,0.0307 0.024032,0.0481 0.00389,0.0155 -0.00507,0.0329 0,0.0481 0.00358,0.0108 0.017748,0.0146 0.024032,0.024 0.019873,0.0298 0.028192,0.0663 0.048063,0.0961 0.012568,0.0188 0.035495,0.0292 0.048063,0.0481 0.00994,0.0149 0.014094,0.0332 0.024032,0.0481 0.012568,0.0188 0.035495,0.0292 0.048063,0.0481 0.00994,0.0149 0.011366,0.0354 0.024032,0.0481 0.012666,0.0127 0.035397,0.0114 0.048063,0.024 0.00566,0.006 -0.00358,0.0169 0,0.024 0.00507,0.0101 0.01602,0.016 0.024032,0.024 0.014134,0.0141 0.090562,0.085 0.096126,0.0961 0.00358,0.007 -0.00566,0.0184 0,0.024 0.00566,0.006 0.016867,-0.004 0.024032,0 0.010134,0.005 0.01602,0.016 0.024032,0.024 0.00801,0.008 0.018965,0.0139 0.024032,0.024 0.00358,0.007 -0.00358,0.0169 0,0.024 0.050007,0.10002 -0.00167,-0.0257 0.048063,0.024 0.00566,0.006 -0.00717,0.0205 0,0.024 0.01433,0.007 0.032864,-0.005 0.048063,0 0.010747,0.004 0.013899,0.019 0.024032,0.024 0.00716,0.004 0.018367,-0.006 0.024032,0 0.049722,0.0497 -0.075982,-0.002 0.024032,0.0481 0.00716,0.004 0.016867,-0.004 0.024032,0 0.010134,0.005 0.013899,0.019 0.024032,0.024 0.00716,0.004 0.016867,-0.004 0.024032,0 0.010133,0.005 0.013898,0.019 0.024032,0.024 0.00632,0.003 0.083559,0 0.096126,0 0.00801,0 0.02045,-0.007 0.024032,0 0.00716,0.0143 -0.00716,0.0337 0,0.0481 0.00716,0.0143 0.033733,-0.007 0.048063,0 0.010134,0.005 0.013899,0.019 0.024032,0.024 0.00716,0.004 0.016867,-0.004 0.024032,0 0.061053,0.0305 -0.024612,0.0287 0.072095,0.0481 0.023564,0.005 0.0506,-0.0108 0.072094,0 0.01602,0.008 0.011367,0.0354 0.024032,0.0481 0.00566,0.006 0.016867,-0.004 0.024032,0 0.010134,0.005 0.013899,0.019 0.024032,0.024 0.00716,0.004 0.01602,0 0.024032,0 0.024032,0.008 0.051017,0.01 0.072095,0.024 0.00666,0.004 -0.00716,0.0204 0,0.024 0.043157,0.0216 0.059245,-0.0313 0.096126,0.024 0.00889,0.0133 -0.00716,0.0337 0,0.0481 0.00358,0.007 0.016433,-0.003 0.024032,0 0.016994,0.006 0.032042,0.016 0.048063,0.024 0.016021,0.008 0.032042,0.016 0.048063,0.024 0.01602,0.008 0.035397,0.0114 0.048063,0.024 0.012666,0.0127 0.011367,0.0354 0.024032,0.0481 0.011329,0.0113 0.036734,-0.0113 0.048063,0 0.00566,0.006 -0.00566,0.0184 0,0.024 0.032042,0.032 0.024032,-0.0401 0.024032,0.024"
       id="path220"
       inkscape:connector-curvature="0" />
    <path
       style="fill:none;stroke:#000000;stroke-width:0.26458332px;stroke-linecap:butt;stroke-linejoin:miter;stroke-opacity:1"
       d="m 6.6567324,288.22848 c 0.1419392,-0.007 0.2713551,-0.0687 0.4085357,-0.0961 0.00786,-0.002 0.016021,0 0.024032,0 0.048063,0 0.096323,0.004 0.1441892,0 0.040678,-0.004 0.079722,-0.0182 0.1201576,-0.024 0.015859,-0.002 0.032042,0 0.048063,0 0.080105,0 0.16021,0 0.2403152,0 0.064084,0 0.1281681,0 0.1922521,0 0.032042,0 0.064706,-0.006 0.096126,0 0.035128,0.007 0.06214,0.0367 0.096126,0.0481 0.022799,0.008 0.049296,-0.008 0.072095,0 0.010747,0.004 0.014605,0.0177 0.024032,0.024 0.014904,0.01 0.033159,0.0141 0.048063,0.024 0.010186,0.007 0.067123,0.0621 0.072094,0.0721 0.00358,0.007 0,0.016 0,0.024 0.00801,0.024 0.00998,0.051 0.024032,0.0721 0.00444,0.007 0.018367,-0.006 0.024032,0 0.012666,0.0127 0.014094,0.0332 0.024032,0.0481 0.00628,0.009 0.017748,0.0146 0.024032,0.024 0.00994,0.0149 0.01602,0.032 0.024032,0.0481 0.00801,0.016 0.019688,0.0307 0.024032,0.0481 0.00389,0.0155 -0.00507,0.0329 0,0.0481 0.00358,0.0107 0.018965,0.0139 0.024032,0.024 0.00358,0.007 -0.00358,0.0169 0,0.024 0.079703,0.0797 -0.011329,-0.0227 0.024032,0.0481 0.00507,0.0101 0.02045,0.0133 0.024032,0.024 0.0047,0.0141 -0.00507,0.0885 0,0.0961 0.00994,0.0149 0.035398,0.0114 0.048063,0.024 0.011329,0.0113 -0.00507,0.0329 0,0.0481 0.00566,0.017 0.018367,0.0311 0.024032,0.0481 0.00254,0.008 -0.00254,0.0164 0,0.024 0.00566,0.017 0.018367,0.0311 0.024032,0.0481 0.00254,0.008 0,0.016 0,0.024 0.00801,0.016 0.018367,0.0311 0.024032,0.0481 0.00507,0.0152 -0.00507,0.0329 0,0.0481 -0.043517,0.10054 0.037931,0.0278 0.048063,0.0481 0.021495,0.0189 -0.010747,0.0506 0,0.0721 0.00507,0.0101 0.01602,0.016 0.024032,0.024 0,0.024 -0.0076,0.0493 0,0.0721 0.00254,0.008 0.018367,-0.006 0.024032,0 0.00566,0.006 -0.00254,0.0164 0,0.024 0.00566,0.017 0.014817,0.0327 0.024032,0.0481 0.014859,0.0248 0.035146,0.0463 0.048063,0.0721 0.00709,0.0142 -0.00551,0.0556 0,0.0721 0.00566,0.017 0.018367,0.0311 0.024032,0.0481 0.00254,0.008 -0.00566,0.0184 0,0.024 0.00566,0.006 0.018367,-0.006 0.024032,0 0.00566,0.006 0.00801,0.024 0,0.024 -0.011329,0 -0.032042,-0.032 -0.024032,-0.024 0.01602,0.016 0.032042,0.032 0.048063,0.0481"
       id="path222"
       inkscape:connector-curvature="0" />
    <path
       style="fill:none;stroke:#000000;stroke-width:0.26458332px;stroke-linecap:butt;stroke-linejoin:miter;stroke-opacity:1"
       d="m 6.8970477,291.28048 c 0.056265,-0.0141 0.097626,-0.017 0.1441891,-0.0481 0.028661,-0.0191 0.058013,-0.0792 0.072094,-0.0961 0.021757,-0.0261 0.045556,-0.0509 0.072095,-0.0721 0.013988,-0.0112 0.033734,-0.0133 0.048063,-0.024 0.018127,-0.0136 0.032042,-0.032 0.048063,-0.0481 0.01602,-0.016 0.034469,-0.0299 0.048063,-0.0481 0.010747,-0.0143 0.011367,-0.0354 0.024032,-0.0481 0.012666,-0.0127 0.035397,-0.0114 0.048063,-0.024 0.020423,-0.0204 0.030734,-0.049 0.048063,-0.0721 0.0068,-0.009 0.01602,-0.016 0.024032,-0.024 0.02742,-0.0274 0.090243,-0.0977 0.1201576,-0.12016 0.01433,-0.0107 0.035397,-0.0114 0.048063,-0.024 0.00566,-0.006 -0.00444,-0.0174 0,-0.024 0.012568,-0.0188 0.032042,-0.032 0.048063,-0.0481 0.01602,-0.016 0.032042,-0.0321 0.048063,-0.0481 0.00801,-0.008 0.017748,-0.0146 0.024032,-0.024 0.058196,-0.0873 -0.00704,-0.017 0.048063,-0.0721 0.032042,-0.032 0.064084,-0.0641 0.096126,-0.0961 0.01602,-0.016 0.029937,-0.0345 0.048063,-0.0481 0.1163913,-0.0873 -0.0014,0.0254 0.072095,-0.0481 0.016021,-0.016 0.034469,-0.0299 0.048063,-0.0481 0.01733,-0.0231 0.024958,-0.0548 0.048063,-0.0721 0.012816,-0.01 0.032864,0.005 0.048063,0 0.010747,-0.004 0.014605,-0.0177 0.024032,-0.024 0.014904,-0.01 0.033159,-0.0141 0.048063,-0.024 0.062486,-5.8e-4 0.079883,-0.0659 0.1201576,-0.0961 0.023106,-0.0173 0.048989,-0.0307 0.072095,-0.0481 0.00906,-0.007 0.014605,-0.0178 0.024032,-0.024 0.1742427,-0.0871 -0.037997,0.0253 0.072095,-0.0481 0.029807,-0.0199 0.067467,-0.0266 0.096126,-0.0481 0.027189,-0.0204 0.043817,-0.0532 0.072095,-0.0721 0.00448,-0.003 0.094586,-0.0465 0.096126,-0.0481 0.012666,-0.0127 0.011366,-0.0354 0.024032,-0.0481 0.012666,-0.0127 0.033159,-0.0141 0.048063,-0.024 0.00943,-0.006 0.013899,-0.019 0.024032,-0.024 0.00716,-0.004 0.01602,0 0.024032,0 0.01602,-0.008 0.033159,-0.0141 0.048063,-0.024 0.014653,-0.01 0.033409,-0.0383 0.048063,-0.0481 0.014904,-0.01 0.033159,-0.0141 0.048063,-0.024 0.018852,-0.0126 0.027798,-0.0379 0.048063,-0.0481 0.00716,-0.004 0.017367,0.004 0.024032,0 0.018852,-0.0126 0.032042,-0.032 0.048063,-0.0481 0.01602,-0.016 0.032042,-0.032 0.048063,-0.0481 0.00801,-0.008 0.014605,-0.0177 0.024032,-0.024 0.014904,-0.01 0.033734,-0.0133 0.048063,-0.024 0.018127,-0.0136 0.029211,-0.0355 0.048063,-0.0481 0.00666,-0.004 0.018367,0.006 0.024032,0 0.012666,-0.0127 0.011366,-0.0354 0.024032,-0.0481 0.00566,-0.006 0.017367,0.004 0.024032,0 0.017775,-0.0118 0.076357,-0.0862 0.096126,-0.0961 0.00717,-0.004 0.016867,0.004 0.024032,0 0.010134,-0.005 0.016021,-0.016 0.024032,-0.024 0.019299,-0.0193 0.099337,-0.10627 0.1201576,-0.12015 0.00666,-0.004 0.018367,0.006 0.024032,0 0.012666,-0.0127 0.011366,-0.0354 0.024032,-0.0481 0.00566,-0.006 0.00801,0.024 0,0.024 -0.00801,0 0,-0.032 0,-0.024 0,0.0321 0,0.0641 0,0.0961 0,0.0721 0,0.14419 0,0.21628 0,0.0204 0.00431,0.0832 0,0.0961 -0.00358,0.0108 -0.02045,0.0133 -0.024032,0.024 -0.00507,0.0152 0,0.032 0,0.0481 0,0.008 0.00358,0.0169 0,0.024 -0.00507,0.0101 -0.021283,0.013 -0.024032,0.024 -0.00583,0.0233 0,0.0481 0,0.0721 0,0.008 0.00358,0.0169 0,0.024 -0.079703,0.0797 0.011329,-0.0227 -0.024032,0.0481 -0.00507,0.0101 -0.018965,0.0139 -0.024032,0.024 -0.00961,0.0192 0.00961,0.0529 0,0.0721 -0.00507,0.0101 -0.018965,0.0139 -0.024032,0.024 -0.0073,0.0146 0.0073,0.12959 0,0.14419 -0.054991,0.10998 0.00996,-0.10198 -0.048063,0.0721 -0.023847,0.0715 0.056903,-0.0493 -0.024032,0.0721 -0.00628,0.009 -0.02045,0.0133 -0.024032,0.024 -0.00507,0.0152 0.00389,0.0325 0,0.0481 -0.00434,0.0174 -0.018367,0.0311 -0.024032,0.0481 -0.00254,0.008 0.00444,0.0174 0,0.024 -0.012568,0.0189 -0.03793,0.0278 -0.048063,0.0481 -0.00716,0.0143 0.00389,0.0325 0,0.0481 -0.00434,0.0174 -0.019688,0.0307 -0.024032,0.0481 -0.00389,0.0156 0.00595,0.0332 0,0.0481 -0.054843,0.1371 -0.037104,0.0152 -0.072095,0.12016 -0.00254,0.008 0.00254,0.0164 0,0.024 -0.043656,0.13097 -0.00441,-0.0348 -0.048063,0.0961 -0.010443,0.0313 -0.011766,0.0655 -0.024032,0.0961 -0.00421,0.0105 -0.017748,0.0146 -0.024032,0.024 -0.029577,0.0444 -0.042517,0.0998 -0.072094,0.14419 -0.00628,0.009 -0.017748,0.0146 -0.024032,0.024 -0.019873,0.0298 -0.026569,0.0675 -0.048063,0.0961 -0.020391,0.0272 -0.053243,0.0438 -0.072094,0.0721 -0.059189,0.0888 0.025276,0.0228 -0.096126,0.14419 -0.00566,0.006 -0.017367,-0.004 -0.024032,0 -0.02082,0.0139 -0.1008591,0.10086 -0.1201576,0.12016 -0.056074,0.0561 -0.1121471,0.11215 -0.1682207,0.16822 -0.024032,0.024 -0.044906,0.0517 -0.072094,0.0721 -0.023106,0.0173 -0.049541,0.03 -0.072095,0.0481 -0.049172,0.0393 -0.09466,0.10704 -0.1441892,0.14419 -0.01433,0.0107 -0.033159,0.0141 -0.048063,0.024 -0.00943,0.006 -0.014605,0.0178 -0.024032,0.024 -0.014904,0.01 -0.033733,0.0133 -0.048063,0.024 -0.018127,0.0136 -0.030371,0.0339 -0.048063,0.0481 -0.028097,0.0436 -0.08279,0.0441 -0.1201576,0.0721 -0.018127,0.0136 -0.029211,0.0355 -0.048063,0.0481 -0.01333,0.009 -0.036735,-0.0113 -0.048063,0 -0.012666,0.0127 -0.011366,0.0354 -0.024032,0.0481 -0.00491,0.005 -0.062566,-0.005 -0.072095,0 -0.010133,0.005 -0.013898,0.019 -0.024032,0.024 -0.00716,0.004 -0.016021,0 -0.024032,0 -0.00801,0 -0.01602,0 -0.024032,0"
       id="path224"
       inkscape:connector-curvature="0" />
    <path
       style="fill:none;stroke:#000000;stroke-width:0.26458332px;stroke-linecap:butt;stroke-linejoin:miter;stroke-opacity:1"
       d="m 6.8970477,291.28048 c 0,0.33987 -0.050155,0.094 0.048063,0.19226 0.00566,0.006 -0.00716,0.0205 0,0.024 0.01433,0.007 0.03252,-0.004 0.048063,0 0.069697,0.0174 0.028123,0.0187 0.072094,0.0481 0.016021,0.008 0.032042,0.016 0.048063,0.024 0.00801,0 0.016867,-0.004 0.024032,0 0.010134,0.005 0.013899,0.019 0.024032,0.024 0.00716,0.004 0.016867,-0.004 0.024032,0 0.010134,0.005 0.013899,0.019 0.024032,0.024 0.019225,0.01 0.052869,-0.01 0.072095,0 0.00716,0.004 -0.00566,0.0184 0,0.024 0.00153,0.002 0.09165,0.0451 0.096126,0.0481 0.00943,0.006 0.013898,0.019 0.024032,0.024 0.01433,0.007 0.036735,-0.0113 0.048063,0 0.00566,0.006 -0.00358,0.0169 0,0.024 0.026568,0.0531 0.014914,0.007 0.048063,0.024 0.010134,0.005 0.013899,0.019 0.024032,0.024 0.00716,0.004 0.018367,-0.006 0.024032,0 0.00566,0.006 -0.00566,0.0184 0,0.024 0.011329,0.0113 0.036734,-0.0113 0.048063,0 0.00566,0.006 0,0.016 0,0.024 0,0.008 0,0.032 0,0.024 0,-0.016 -0.01602,-0.0481 0,-0.0481 0.01602,0 -0.00507,0.0329 0,0.0481 0.00358,0.0107 0.018965,0.0139 0.024032,0.024 0.00358,0.007 -0.00566,0.0184 0,0.024 0.00566,0.006 0.018367,-0.006 0.024032,0 0.00578,0.006 -0.00578,0.0904 0,0.0961 0.00566,0.006 0.018367,-0.006 0.024032,0 0.011329,0.0113 -0.011329,0.0367 0,0.0481 0.00566,0.006 0.018367,-0.006 0.024032,0 7.673e-4,7.7e-4 0,0.0663 0,0.0721 0,0.0774 -0.00566,-0.041 0.024032,0.0481 0.00626,0.0188 -0.00661,0.13096 0,0.14419 0.00507,0.0101 0.018965,0.0139 0.024032,0.024 0.00358,0.007 0,0.016 0,0.024 0,0.016 0,0.032 0,0.0481 0,0.0226 0.00459,0.10639 0,0.12016 -0.00358,0.0108 -0.018965,0.0139 -0.024032,0.024 -0.00716,0.0143 0.00507,0.0329 0,0.0481 -0.00566,0.017 -0.019688,0.0307 -0.024032,0.0481 -0.00583,0.0233 0.0076,0.0493 0,0.0721 -0.00566,0.017 -0.01602,0.032 -0.024032,0.0481 0,0.032 0.00527,0.0645 0,0.0961 -0.00294,0.0177 -0.017378,0.0314 -0.024032,0.0481 -0.00941,0.0235 -0.019063,0.0472 -0.024032,0.0721 -0.00628,0.0314 0.00777,0.065 0,0.0961 -0.00434,0.0174 -0.017378,0.0314 -0.024032,0.0481 -0.036494,0.0912 -0.011568,0.053 -0.048063,0.14419 -0.00665,0.0166 -0.019688,0.0307 -0.024032,0.0481 -0.00389,0.0155 0.00389,0.0325 0,0.0481 -0.00434,0.0174 -0.017378,0.0314 -0.024032,0.0481 -0.00941,0.0235 -0.014623,0.0486 -0.024032,0.0721 -0.019693,0.0492 -0.055338,0.0939 -0.072095,0.14419 -0.023847,0.0715 0.056903,-0.0493 -0.024032,0.0721 -0.00628,0.009 -0.018965,0.0139 -0.024032,0.024 -0.00358,0.007 0.00254,0.0164 0,0.024 -0.00566,0.017 -0.01602,0.032 -0.024032,0.0481 -0.00801,0.016 -0.014094,0.0332 -0.024032,0.0481 -0.00628,0.009 -0.018965,0.0139 -0.024032,0.024 -0.00358,0.007 0.00358,0.0169 0,0.024 -0.011044,0.0221 -0.090048,0.0779 -0.096126,0.0961 -0.00507,0.0152 0.00889,0.0347 0,0.0481 -0.029184,0.0146 -0.053746,0.0205 -0.072094,0.0481 -0.00638,0.01 -0.045453,0.0944 -0.048063,0.0961 -0.01333,0.009 -0.036735,-0.0113 -0.048063,0 -0.011329,0.0113 0.00889,0.0347 0,0.0481 -0.00994,0.0149 -0.033159,0.0141 -0.048063,0.024 -0.018852,0.0126 -0.032042,0.032 -0.048063,0.0481 -0.024032,0.024 -0.048063,0.0481 -0.072095,0.0721 -0.025609,0.0256 -0.065444,0.0731 -0.096126,0.0961 -0.023106,0.0173 -0.049541,0.03 -0.072095,0.0481 -0.017693,0.0142 -0.029937,0.0345 -0.048063,0.0481 -0.01433,0.0107 -0.033159,0.0141 -0.048063,0.024 -0.00942,0.006 -0.014605,0.0177 -0.024032,0.024 -0.014904,0.01 -0.033159,0.0141 -0.048063,0.024 -0.018852,0.0126 -0.029211,0.0355 -0.048063,0.0481 -0.058615,0.0391 -0.037511,0.009 -0.096126,0.0481 -0.089718,0.0598 0.041654,-0.0118 -0.048063,0.0481 -0.05053,0.0337 -0.045596,0.0144 -0.096126,0.0481 -0.00943,0.006 -0.014605,0.0178 -0.024032,0.024 -0.014904,0.01 -0.032704,0.0148 -0.048063,0.024 -0.024768,0.0149 -0.047328,0.0332 -0.072095,0.0481 -0.030719,0.0184 -0.062864,0.0348 -0.096126,0.0481 -0.023519,0.009 -0.048575,0.0146 -0.072095,0.024 -0.033262,0.0133 -0.062864,0.0348 -0.096126,0.0481 -0.023519,0.009 -0.049437,0.0127 -0.072094,0.024 -0.010134,0.005 -0.013899,0.019 -0.024032,0.024 -0.045314,0.0227 -0.098875,0.0254 -0.1441892,0.0481 -0.010134,0.005 -0.013041,0.0213 -0.024032,0.024 -0.023315,0.006 -0.04878,-0.006 -0.072094,0 -0.010991,0.003 -0.013512,0.0198 -0.024032,0.024 -0.030666,0.0123 -0.06546,0.0118 -0.096126,0.024 -0.010517,0.004 -0.012922,0.0218 -0.024032,0.024 -0.03142,0.006 -0.064406,-0.005 -0.096126,0 -0.025077,0.004 -0.047255,0.0191 -0.072095,0.024 -0.015711,0.003 -0.032353,-0.003 -0.048063,0 -0.024839,0.005 -0.047108,0.0199 -0.072095,0.024 -0.023704,0.004 -0.04853,-0.005 -0.072094,0 -0.017566,0.004 -0.030499,0.0205 -0.048063,0.024 -0.023564,0.005 -0.049296,-0.008 -0.072094,0 -0.0274,0.009 -0.046262,0.0352 -0.072095,0.0481 -0.00716,0.004 -0.016021,0 -0.024032,0 -0.01602,0 -0.032864,-0.005 -0.048063,0 -0.010747,0.004 -0.012856,0.0222 -0.024032,0.024 -0.039508,0.007 -0.080414,-0.005 -0.1201576,0 -0.025135,0.003 -0.046959,0.0209 -0.072094,0.024 -0.3775829,0 0.064628,-0.0127 -0.1922524,0.024 -0.05551,0.008 -0.1132361,-0.011 -0.1682207,0 -0.017563,0.004 -0.030499,0.0205 -0.048063,0.024 -0.031546,0.006 -0.1059815,0 -0.1441892,0 -0.088115,0 -0.1762313,0 -0.2643468,0 -0.072094,0 -0.1441892,0 -0.2162836,0 -0.032042,0 -0.064406,0.005 -0.096126,0 -0.025077,-0.004 -0.047108,-0.0199 -0.072095,-0.024 -0.055311,-0.009 -0.1125802,0.007 -0.1682207,0 -0.032773,-0.004 -0.063547,-0.0186 -0.096126,-0.024 -0.015803,-0.003 -0.03226,0.003 -0.048063,0 -0.032579,-0.005 -0.06343,-0.0194 -0.096126,-0.024 -0.05551,-0.008 -0.1127107,0.008 -0.1682205,0 -0.025077,-0.004 -0.047738,-0.0171 -0.072095,-0.024 -0.031757,-0.009 -0.063547,-0.0186 -0.096126,-0.024 -0.015803,-0.003 -0.032042,0 -0.048063,0 -0.00801,0 -0.016432,0.003 -0.024031,0 -0.016993,-0.006 -0.03107,-0.0184 -0.048063,-0.024 -0.0076,-0.003 -0.016432,0.003 -0.024032,0 -0.016993,-0.006 -0.030686,-0.0197 -0.048063,-0.024 -0.015543,-0.004 -0.032864,0.005 -0.048063,0 -0.010747,-0.004 -0.013284,-0.0204 -0.024032,-0.024 -0.015199,-0.005 -0.03252,0.004 -0.048063,0 -0.017377,-0.004 -0.03107,-0.0184 -0.048063,-0.024 -0.00935,-0.003 -0.068365,0.004 -0.072095,0 -0.020998,-0.021 0.024032,-0.0387 0.024032,-0.0481 0,-0.008 -0.018367,0.006 -0.024032,0 -0.012666,-0.0127 -0.014096,-0.0332 -0.024032,-0.0481 -0.00628,-0.009 -0.016021,-0.016 -0.024032,-0.024 -0.024026,-0.024 -0.053237,-0.0438 -0.072089,-0.0721 -0.014051,-0.0211 -0.00821,-0.0523 -0.024031,-0.0721 -0.018043,-0.0225 -0.049541,-0.03 -0.072094,-0.0481 -0.035385,-0.0283 -0.064084,-0.0641 -0.096126,-0.0961 -0.016021,-0.016 -0.034469,-0.0299 -0.048063,-0.0481 -0.010747,-0.0143 -0.013284,-0.0337 -0.024032,-0.0481 -0.017514,-0.0233 -0.072095,-0.0573 -0.072095,-0.0961 0,-0.0372 0.083765,-0.024 0.096126,-0.024 0.027917,0 0.098372,0.005 0.1201577,0 0.017377,-0.004 0.03107,-0.0184 0.048063,-0.024 0.014182,-0.005 0.1067306,0 0.1201576,0 0.1102007,0 -0.025331,0.005 0.1201577,-0.024 0.01571,-0.003 0.032042,0 0.048063,0 0.037456,0 0.1383239,0.005 0.1682207,0 0.024987,-0.004 0.047255,-0.0191 0.072095,-0.024 0.01571,-0.003 0.032042,0 0.048063,0 0.056074,0 0.1121471,0 0.1682207,0 0.016021,0 0.032203,0.002 0.048063,0 0.040435,-0.006 0.079562,-0.0195 0.1201576,-0.024 0.031846,-0.004 0.064084,0 0.096126,0 0.040053,0 0.080105,0 0.1201576,0 0.016021,0 0.032864,0.005 0.048063,0 0.010747,-0.004 0.013898,-0.019 0.024032,-0.024 0.00716,-0.004 0.016021,0 0.024032,0 0.024032,0 0.048063,0 0.072095,0 0.023527,0 0.1462019,0.004 0.1682205,0 0.017566,-0.004 0.030499,-0.0205 0.048063,-0.024 0.04713,-0.009 0.097059,0.009 0.1441891,0 0.017563,-0.004 0.030686,-0.0197 0.048063,-0.024 0.015542,-0.004 0.032042,0 0.048063,0 0.056074,0 0.1121471,0 0.1682207,0 0.016021,0 0.032353,0.003 0.048063,0 0.024839,-0.005 0.047255,-0.0191 0.072095,-0.024 0.015711,-0.003 0.032203,0.002 0.048063,0 0.040435,-0.006 0.079722,-0.0183 0.1201576,-0.024 0.015859,-0.002 0.032042,0 0.048063,0 0.00801,0 0.02045,0.007 0.024032,0 0.00716,-0.0143 0.01133,-0.0367 0,-0.0481 -0.011329,-0.0113 -0.036734,0.0113 -0.048063,0 -0.011329,-0.0113 0.00716,-0.0337 0,-0.0481 -0.017912,-0.0358 -0.048814,-0.0635 -0.072094,-0.0961 -0.016788,-0.0235 -0.033734,-0.047 -0.048063,-0.0721 -0.017775,-0.0311 -0.027241,-0.067 -0.048063,-0.0961 -0.019754,-0.0276 -0.050864,-0.0455 -0.072095,-0.0721 -0.011189,-0.014 -0.014094,-0.0332 -0.024032,-0.0481 -0.012568,-0.0189 -0.035495,-0.0292 -0.048063,-0.0481 -0.00994,-0.0149 -0.014097,-0.0332 -0.024032,-0.0481 -0.00628,-0.009 -0.013898,-0.019 -0.024032,-0.024 -0.014362,-0.007 -0.048063,0.0158 -0.048063,-0.024 0,-0.001 0.067473,0.002 0.072095,0 0.016992,-0.006 0.031432,-0.0174 0.048063,-0.024 0.012507,-0.0562 0.06801,-0.0147 0.096126,-0.024 0.016994,-0.006 0.030686,-0.0197 0.048063,-0.024 0.031085,-0.008 0.064706,0.006 0.096126,0 0.024839,-0.005 0.047108,-0.0199 0.072094,-0.024 0.023704,-0.004 0.048063,0 0.072095,0 0.00801,0 0.016431,0.003 0.024032,0 0.1916662,-0.0639 -0.1754669,0.0216 0.1441891,-0.024 0.025077,-0.004 0.046959,-0.0209 0.072095,-0.024 0.039743,-0.005 0.080507,0.006 0.1201576,0 0.017732,-0.003 0.030394,-0.0211 0.048063,-0.024 0.031606,-0.005 0.064406,0.005 0.096126,0 0.025077,-0.004 0.046959,-0.0209 0.072094,-0.024 0.040053,0 0.080105,0 0.1201576,0 0.01602,-0.008 0.030499,-0.0205 0.048063,-0.024 0.039275,-0.008 0.081301,0.01 0.1201576,0 0.017378,-0.004 0.03107,-0.0184 0.048063,-0.024 0.022799,-0.008 0.048781,0.006 0.072095,0 0.017378,-0.004 0.030499,-0.0205 0.048063,-0.024 0.023564,-0.005 0.048781,0.006 0.072095,0 0.010991,-0.003 0.013285,-0.0204 0.024032,-0.024 0.015198,-0.005 0.03252,0.004 0.048063,0 0.017378,-0.004 0.030686,-0.0197 0.048063,-0.024 0.038857,-0.01 0.081301,0.01 0.1201577,0 0.010991,-0.003 0.013899,-0.019 0.024032,-0.024 0.019225,-0.01 0.052869,0.01 0.072094,0 0.00626,-0.003 0.040606,-0.0315 0.024032,-0.0481 -0.00566,-0.006 -0.018367,0.006 -0.024032,0 -0.00566,-0.006 0.00358,-0.0169 0,-0.024 -0.00507,-0.0101 -0.018965,-0.0139 -0.024032,-0.024 -0.00358,-0.007 0.00254,-0.0164 0,-0.024 -0.00566,-0.017 -0.017378,-0.0314 -0.024032,-0.0481 -0.00941,-0.0235 -0.00998,-0.051 -0.024032,-0.0721 -0.00444,-0.007 -0.019587,0.007 -0.024032,0 -0.014052,-0.0211 -0.017888,-0.0475 -0.024032,-0.0721 -0.00193,-0.008 -0.00801,-0.024 0,-0.024 0.064084,0 -0.064084,0.0641 0,0 0.00566,-0.006 0.016867,0.004 0.024032,0 0.010134,-0.005 0.016021,-0.016 0.024032,-0.024 0.01602,0 0.032864,0.005 0.048063,0 0.010747,-0.004 0.013899,-0.019 0.024032,-0.024 0.022656,-0.0113 0.048063,-0.016 0.072095,-0.024 0.048063,-0.016 0.096126,-0.032 0.1441889,-0.0481 0.5097881,-0.16993 -0.1228754,0.0369 0.2403155,-0.0721 0.048526,-0.0146 0.096126,-0.032 0.1441889,-0.0481 0.1020765,-0.034 0.2072807,-0.0751 0.31241,-0.0961 0.023564,-0.005 0.04853,0.005 0.072094,0 0.017566,-0.004 0.03107,-0.0184 0.048063,-0.024 0.0076,-0.003 0.017367,0.004 0.024032,0 0.018852,-0.0126 0.029211,-0.0355 0.048063,-0.0481 0.01333,-0.009 0.033734,0.007 0.048063,0 0.010134,-0.005 0.013899,-0.019 0.024032,-0.024 0.00716,-0.004 0.016867,0.004 0.024032,0 0.059392,-0.0297 -0.00829,-0.024 0.048063,-0.024 -0.021285,-0.0129 -0.1574168,-0.093 -0.1922549,-0.12085 -0.017692,-0.0142 -0.030371,-0.0339 -0.048063,-0.0481 -0.022553,-0.018 -0.051672,-0.0276 -0.072095,-0.0481 -0.00566,-0.006 0,-0.016 0,-0.024 -0.016021,-0.016 -0.027798,-0.0379 -0.048063,-0.0481 -0.01433,-0.007 -0.032353,0.003 -0.048063,0 -0.02484,-0.005 -0.048575,-0.0146 -0.072095,-0.024 -0.016631,-0.007 -0.032704,-0.0148 -0.048063,-0.024 -0.024766,-0.0149 -0.045278,-0.0373 -0.072095,-0.0481 -0.014875,-0.006 -0.032864,0.005 -0.048063,0 -0.1172421,-0.0391 -0.06323,-0.0511 -0.1682206,-0.0721 -0.01571,-0.003 -0.033734,0.007 -0.048063,0 -0.020265,-0.0101 -0.029211,-0.0355 -0.048063,-0.0481 -0.00667,-0.004 -0.016021,0 -0.024032,0 -0.048063,0 -0.096126,0 -0.1441891,0 -0.016021,0 -0.033188,0.006 -0.048063,0 -0.026817,-0.0107 -0.044694,-0.0389 -0.072095,-0.0481 -0.022798,-0.008 -0.048063,0 -0.072095,0 -0.01629,0 -0.196122,0.004 -0.2162837,0 -0.017564,-0.004 -0.03107,-0.0184 -0.048063,-0.024 -0.01557,-0.005 -0.100483,0 -0.1201576,0 -0.031293,0 -0.1201056,-0.005 -0.1441892,0 -0.017564,0.004 -0.032042,0.016 -0.048063,0.024 -0.024031,0.008 -0.047255,0.0191 -0.072095,0.024 -0.01571,0.003 -0.032864,-0.005 -0.048063,0 -0.00978,0.003 -0.1675023,0.0796 -0.1922522,0.0961 -0.00943,0.006 -0.013899,0.019 -0.024032,0.024 -0.00716,0.004 -0.018367,-0.006 -0.024031,0 -0.012666,0.0127 -0.014096,0.0332 -0.024032,0.0481 -0.00628,0.009 -0.016021,0.016 -0.024031,0.024 -0.027496,0.0275 -0.033514,0.0284 -0.048063,0.0721 -0.00503,0.0151 0,0.0768 0,0.0961 0,0.008 -0.00566,0.0184 0,0.024 0.00566,0.006 0.018367,-0.006 0.024031,0 0,0.0641 -0.00801,-0.008 0.024032,0.024 0.00566,0.006 -0.00566,0.0184 0,0.024 0.00566,0.006 0.024031,-0.008 0.024031,0 0,0.008 -0.016021,0 -0.024031,0 -0.016021,0 -0.032042,0 -0.048063,0 -0.080105,0 0.024031,0.008 -0.024032,-0.024 -0.021077,-0.014 -0.047108,-0.0199 -0.072095,-0.024 -0.2733344,-0.0455 0.086044,0.0447 -0.1201576,-0.024 -0.0076,-0.003 -0.016021,0 -0.024032,0 -0.024032,0 -0.04853,0.005 -0.072095,0 -0.035128,-0.007 -0.061372,-0.0394 -0.096126,-0.0481 -0.031085,-0.008 -0.065041,0.008 -0.096126,0 -0.017377,-0.004 -0.03107,-0.0184 -0.048063,-0.024 -0.013006,-0.004 -0.087939,0 -0.096126,0 -0.048063,0 -0.096126,0 -0.1441891,0 -0.01837,0 -0.1614595,-0.003 -0.1682207,0 -0.010133,0.005 -0.013899,0.019 -0.024031,0.024 -0.01433,0.007 -0.032864,-0.005 -0.048063,0 -0.016993,0.006 -0.03107,0.0184 -0.048063,0.024 -0.0076,0.003 -0.016432,-0.003 -0.024031,0 -0.016993,0.006 -0.03107,0.0184 -0.048063,0.024 -0.0076,0.003 -0.016432,-0.003 -0.024031,0 -0.016993,0.006 -0.032042,0.016 -0.048063,0.024 -0.032042,0.016 -0.064084,0.032 -0.096126,0.0481 -0.016021,0.008 -0.03107,0.0184 -0.048063,0.024 -0.0076,0.003 -0.016432,-0.003 -0.024031,0 -0.069803,0.0233 -0.033532,0.0251 -0.096126,0.0721 -0.01433,0.0107 -0.035397,0.0114 -0.048063,0.024 -0.012666,0.0127 -0.014096,0.0332 -0.024031,0.0481 -0.012568,0.0188 -0.035495,0.0292 -0.048063,0.0481 -0.00994,0.0149 -0.013284,0.0337 -0.024031,0.0481 -0.013594,0.0181 -0.035495,0.0292 -0.048063,0.0481 -0.00444,0.007 0.00253,0.0164 0,0.024 -0.058024,0.17407 0.00693,-0.0379 -0.048063,0.0721 -0.00358,0.007 0.00253,0.0164 0,0.024 -0.00566,0.017 -0.018367,0.0311 -0.024031,0.0481 -0.00253,0.008 0,0.016 0,0.024 0,0.016 0,0.032 0,0.0481 0,0.008 -0.00566,0.0184 0,0.024 0.014362,0.0144 0.048063,-0.026 0.048063,0.024 0,0.008 -0.016021,0 -0.024031,0 -0.00801,0 -0.016021,0 -0.024031,0 -0.064084,0 -0.1281681,0 -0.1922522,0 -0.024826,0 -0.1255046,-0.005 -0.1441892,0 -0.041478,0.0118 -0.080508,0.0311 -0.1201576,0.0481 -0.016464,0.007 -0.03084,0.0191 -0.048063,0.024 -0.039274,0.0112 -0.081408,0.0111 -0.1201577,0.024 -0.010747,0.004 -0.014606,0.0177 -0.024031,0.024 -0.029807,0.0199 -0.067467,0.0266 -0.096126,0.0481 -0.018126,0.0136 -0.027798,0.0379 -0.048063,0.0481 -0.01433,0.007 -0.033733,-0.007 -0.048063,0 -0.00716,0.004 0.00566,0.0184 0,0.024 -0.020423,0.0204 -0.048989,0.0307 -0.072095,0.0481 -0.030682,0.023 -0.070517,0.0705 -0.096126,0.0961 -0.016021,0.016 -0.032042,0.032 -0.048063,0.0481 -0.016021,0.016 -0.035495,0.0292 -0.048063,0.0481 -0.00444,0.007 0,0.016 0,0.024 -0.00801,0.016 -0.011366,0.0354 -0.024031,0.0481 -0.00566,0.006 -0.018367,-0.006 -0.024031,0 -0.00154,0.002 -0.045079,0.0917 -0.048063,0.0961 -0.012568,0.0189 -0.035495,0.0292 -0.048063,0.0481 -0.00994,0.0149 -0.018367,0.0311 -0.024031,0.0481 -0.00253,0.008 0.00444,0.0174 0,0.024 -0.016021,0.016 -0.032042,0.032 -0.048063,0.0481 0,0.008 0.00358,0.0169 0,0.024 -0.00507,0.0101 -0.017748,0.0146 -0.024031,0.024 -0.015033,0.0225 -0.022613,0.0735 -0.048063,0.0481 -0.00566,-0.006 0,-0.016 0,-0.024 0,-0.032 0,-0.0641 0,-0.0961 0,-0.016 0.00199,-0.0322 0,-0.0481 -0.029299,-0.23439 -0.024031,-0.0569 -0.024031,-0.24032 0,-0.0481 0.00478,-0.0964 0,-0.14418 -0.00329,-0.0329 -0.019361,-0.0634 -0.024031,-0.0961 -0.00453,-0.0317 0,-0.0641 0,-0.0961 0,-0.032 0,-0.0641 0,-0.0961 0,-0.016 -0.00314,-0.0324 0,-0.0481 0.013795,-0.069 0.06053,-0.12286 0.072095,-0.19225 0.00395,-0.0237 -0.00395,-0.0484 0,-0.0721 0.00416,-0.025 0.016021,-0.0481 0.024032,-0.0721 0.016021,-0.0481 0.035775,-0.095 0.048063,-0.14419 0.00194,-0.008 -0.00253,-0.0164 0,-0.024 0.011329,-0.034 0.034758,-0.0629 0.048063,-0.0961 0.00941,-0.0235 0.010999,-0.0504 0.024031,-0.0721 0.011657,-0.0194 0.03793,-0.0278 0.048063,-0.0481 0.00716,-0.0143 -0.00507,-0.0329 0,-0.0481 0.041519,-0.12456 0.033279,-0.0656 0.096126,-0.14419 0.038666,-0.0483 0.047136,-0.0702 0.072094,-0.12016 0.00801,-0.016 0.013284,-0.0337 0.024032,-0.0481 0.022436,-0.0299 0.092738,-0.0927 0.1201576,-0.12016 0.032042,-0.032 0.064084,-0.0641 0.096126,-0.0961 0.016021,-0.016 0.029937,-0.0345 0.048063,-0.0481 0.01433,-0.0108 0.033734,-0.0133 0.048063,-0.024 0.018126,-0.0136 0.029937,-0.0345 0.048063,-0.0481 0.01433,-0.0107 0.032042,-0.016 0.048063,-0.024 0.016021,-0.008 0.031599,-0.017 0.048063,-0.024 0.03965,-0.017 0.081574,-0.0288 0.1201577,-0.0481 0.025833,-0.0129 0.046261,-0.0351 0.072095,-0.0481 0.038584,-0.0193 0.080508,-0.0311 0.1201577,-0.0481 0.1756699,-0.0753 -0.182964,0.0596 0.1682206,-0.0721 0.047437,-0.0178 0.09715,-0.0293 0.1441892,-0.0481 0.1239697,-0.0496 -0.055458,-0.0102 0.1922522,-0.0721 0.015543,-0.004 0.032659,0.004 0.048063,0 0.041478,-0.0119 0.07868,-0.0362 0.1201577,-0.0481 0.015405,-0.004 0.03226,0.003 0.048063,0 0.3120766,-0.078 -0.077066,0.011 0.1682207,-0.024 0.1173867,-0.0168 0.092352,-0.0349 0.2162837,-0.0721 0.039123,-0.0117 0.080285,-0.0152 0.1201576,-0.024 0.032242,-0.007 0.063547,-0.0186 0.096126,-0.024 0.047409,-0.008 0.09678,0.008 0.1441892,0 0.017668,-0.003 0.030395,-0.0211 0.048063,-0.024 0.031606,-0.005 0.064406,0.005 0.096126,0 0.025077,-0.004 0.046959,-0.0209 0.072095,-0.024 0.039743,-0.005 0.080105,0 0.1201576,0 0.016021,0 0.03226,0.003 0.048063,0 0.032579,-0.005 0.063353,-0.0199 0.096126,-0.024 0.047692,-0.006 0.096497,0.006 0.1441891,0 0.04835,-0.006 0.095705,-0.0192 0.1441892,-0.024 0.031883,-0.003 0.064084,0 0.096126,0 0.056074,-0.008 0.1119243,-0.0178 0.1682207,-0.024 0.015923,-0.002 0.032042,0 0.048063,0 0.088116,0 0.1762312,0 0.2643468,0 0.024032,0 0.04853,0.005 0.072095,0 0.017564,-0.004 0.030331,-0.0215 0.048063,-0.024 0.03965,-0.006 0.080105,0 0.1201576,0 0.1041366,0 0.2082733,0 0.3124099,0 0.088116,0 0.1762311,0 0.2643467,0 0.032042,0 0.064706,-0.006 0.096126,0 0.02484,0.005 0.047255,0.0191 0.072095,0.024 0.026314,0.005 0.1268468,-0.009 0.1441892,0 0.00716,0.004 -0.00358,0.0169 0,0.024 0.050007,0.10001 -0.00166,-0.0257 0.048063,0.024 0.011329,0.0113 -0.01433,0.0409 0,0.0481 0.01433,0.007 0.036734,-0.0113 0.048063,0 0.011328,0.0113 -0.00507,0.0329 0,0.0481 0.00358,0.0107 0.016021,0.016 0.024031,0.024 0.00801,0.008 0.016021,0.016 0.024032,0.024 0.00801,0.008 0.018965,0.0139 0.024031,0.024 0.00358,0.007 0.00801,0.024 0,0.024 -0.00801,0 -0.00785,-0.0225 0,-0.024 0.039275,-0.008 0.080105,0 0.1201577,0"
       id="path226"
       inkscape:connector-curvature="0" />
    <path
       style="fill:#ffd5d5;stroke:#999999;stroke-width:0.09082781"
       d="m 29.260693,30.3403 c -0.108772,-0.289343 -0.610583,-0.67984 -1.12493,-0.875394 -0.129905,-0.04939 -0.261167,-0.130211 -0.291693,-0.179604 -0.03053,-0.04939 -0.208204,-0.139474 -0.394841,-0.200182 -0.759048,-0.246898 -0.779308,-0.195674 0.66487,-1.681054 0.724781,-0.745459 1.642937,-1.690561 2.040348,-2.100227 0.397411,-0.409665 0.917212,-0.857748 1.155113,-0.995738 0.237902,-0.137991 0.447211,-0.286179 0.465133,-0.329307 0.01792,-0.04313 0.30403,-0.258009 0.635795,-0.477513 1.071143,-0.708692 2.036309,-1.411784 2.942026,-2.143168 0.487064,-0.393314 0.885571,-0.703754 0.885571,-0.689867 0,0.01389 -0.08473,0.330973 -0.188291,0.704633 -0.103559,0.373661 -0.22569,0.876545 -0.271403,1.117521 -0.07701,0.405977 -0.243154,0.862949 -0.463889,1.275932 -0.04997,0.0935 -0.144745,0.338734 -0.210602,0.544967 -0.32051,1.00369 -0.778884,1.920726 -1.408994,2.818878 -0.209046,0.297973 -2.227493,2.187875 -2.809027,2.630135 -0.568369,0.432248 -1.290531,0.875179 -1.426907,0.875179 -0.04802,0 -0.137245,-0.132836 -0.198279,-0.295191 z"
       id="path230"
       inkscape:connector-curvature="0"
       transform="matrix(0.26458333,0,0,0.26458333,0,283.77082)" />
    <path
       style="fill:#ffd5d5;stroke:#999999;stroke-width:0.09082781"
       d="m 29.77233,23.41468 c -0.108589,-0.124889 -0.233275,-0.22707 -0.277081,-0.22707 -0.138995,0 -1.777524,-0.806555 -1.838298,-0.90489 -0.03203,-0.05182 -0.15881,-0.09422 -0.281743,-0.09422 -0.340157,0 -0.840331,-0.360458 -1.511163,-1.089041 -0.943808,-1.025059 -1.11644,-1.313532 -1.111274,-1.856965 0.0054,-0.56671 0.233212,-1.161824 0.60901,-1.590827 0.402681,-0.459694 1.048981,-0.61996 2.810366,-0.696901 1.22218,-0.05339 1.497609,-0.03961 1.930515,0.09655 0.392346,0.123408 0.517241,0.207806 0.560075,0.378468 0.03032,0.120804 0.108114,0.249775 0.172876,0.286604 0.128587,0.07312 0.588598,1.057354 0.588598,1.259353 0,0.0689 0.08157,0.277459 0.181264,0.463469 0.0997,0.186009 0.207048,0.532564 0.238561,0.770122 0.03151,0.237558 0.113434,0.478514 0.182047,0.535457 0.06861,0.05694 0.12475,0.158595 0.12475,0.225891 0,0.0673 0.08174,0.267898 0.181656,0.445781 0.242113,0.431062 0.228958,0.639788 -0.05269,0.835917 -0.128887,0.08975 -0.49924,0.357587 -0.823006,0.595185 -0.551579,0.404782 -1.244229,0.794179 -1.412664,0.794179 -0.0409,0 -0.163214,-0.102181 -0.271803,-0.227069 z"
       id="path232"
       inkscape:connector-curvature="0"
       transform="matrix(0.26458333,0,0,0.26458333,0,283.77082)" />
    <path
       style="fill:#800080;stroke:#999999;stroke-width:0.09082781"
       d="M 12.441198,43.567954 C 12.31631,43.550807 11.82584,43.493427 11.351265,43.440442 9.3276214,43.214507 8.5486593,42.979718 8.1944388,42.488937 8.0573694,42.299023 7.8050123,42.007219 7.6336451,41.840483 7.4622778,41.673745 7.3437503,41.515642 7.3702505,41.489142 c 0.0265,-0.0265 1.2089589,-0.127994 2.627686,-0.225543 4.3503585,-0.299122 5.9857205,-0.493676 6.2544965,-0.74408 0.208932,-0.194649 0.245804,-0.635137 0.06843,-0.817466 -0.103906,-0.106808 -0.231495,-0.28776 -0.906209,-1.285218 -0.09558,-0.141304 -0.159969,-0.269424 -0.143082,-0.284711 0.01689,-0.01529 0.357686,-0.07313 0.757328,-0.128531 2.525593,-0.350135 3.93554,-0.570211 4.38751,-0.684841 0.284455,-0.07215 0.712112,-0.159175 0.950347,-0.193401 0.307735,-0.04421 0.485255,-0.128462 0.613088,-0.290976 0.230168,-0.292612 0.227189,-0.515069 -0.01208,-0.902221 -0.105608,-0.170879 -0.177135,-0.324958 -0.158949,-0.342398 0.07248,-0.0695 3.27671,-1.04867 3.431667,-1.04867 0.0913,0 0.365348,-0.09196 0.608985,-0.204362 0.330664,-0.152547 0.672486,-0.215877 1.348168,-0.249777 l 0.905189,-0.04541 -1.086845,-0.651143 c -0.597765,-0.35813 -1.246639,-0.81613 -1.441944,-1.01778 -0.195944,-0.20231 -0.480907,-0.392794 -0.635795,-0.424999 -0.154382,-0.0321 -0.36244,-0.107298 -0.462351,-0.167109 -0.363179,-0.217414 -1.509752,-0.61767 -2.02017,-0.70522 -0.287654,-0.04934 -1.067663,-0.133126 -1.733351,-0.186191 -1.364639,-0.108783 -1.561712,-0.07607 -2.608633,0.433047 -0.506811,0.246462 -0.693669,0.396136 -0.897882,0.719211 -0.277292,0.438688 -0.351974,0.453468 -1.005294,0.198952 -0.156044,-0.06079 -0.757651,-0.106152 -1.407832,-0.106152 -0.950468,0 -1.216694,0.03206 -1.6349,0.1969 -0.821743,0.32389 -1.486944,0.647597 -1.68672,0.820808 -0.296785,0.257322 -0.71528,0.850855 -0.931501,1.321109 -0.195692,0.425603 -0.204194,0.431459 -0.6293386,0.433426 -0.2370317,0.0011 -0.6091385,0.08284 -0.8269038,0.181656 -0.2177653,0.09881 -0.4505924,0.179661 -0.5173936,0.179661 -0.3959669,0 -2.3110567,1.475789 -2.3110567,1.780925 0,0.06955 -0.035317,0.126459 -0.078482,0.126459 -0.085064,0 -0.1940013,-0.650553 -0.1940013,-1.158541 0,-0.173656 0.058848,-0.505149 0.1307738,-0.736653 0.071926,-0.231503 0.1991167,-0.66615 0.2826469,-0.965882 0.1309608,-0.469927 0.4779528,-1.328414 0.6637872,-1.642263 0.7067707,-1.193642 1.3909627,-1.826561 2.6013185,-2.406379 1.4831436,-0.710496 2.2895606,-0.98905 3.4514566,-1.192208 0.299732,-0.05241 0.788709,-0.174886 1.086617,-0.272173 0.596832,-0.194907 1.031572,-0.256227 3.772671,-0.532142 1.917207,-0.192983 6.069476,-0.290064 6.557481,-0.153315 0.134721,0.03775 0.315349,0.187821 0.401396,0.333487 0.08605,0.145666 0.25171,0.315829 0.368141,0.378141 0.125961,0.06741 0.21169,0.196531 0.21169,0.31883 0,0.195125 0.410419,0.581217 0.617838,0.581217 0.04963,0 0.268123,0.101689 0.485532,0.225976 0.217409,0.124286 0.456599,0.226468 0.531533,0.227069 0.07493,6e-4 0.364274,0.162861 0.642977,0.360575 0.546047,0.38737 0.615548,0.525953 0.807488,1.610112 0.10225,0.577546 0.105847,0.550238 -0.36873,2.798868 -0.220741,1.045914 -0.912195,2.630277 -1.438496,3.296097 -0.203425,0.257352 -0.373973,0.499769 -0.378995,0.538705 -0.005,0.03894 -0.363252,0.397774 -0.796067,0.797416 -0.815447,0.752948 -2.618658,2.01215 -3.300299,2.304635 -0.214764,0.09215 -0.575823,0.252063 -0.802355,0.355357 -0.226532,0.103293 -0.533076,0.216866 -0.681209,0.252384 -0.148133,0.03552 -0.310654,0.09671 -0.361157,0.135983 -0.0505,0.03927 -0.56141,0.159125 -1.135347,0.266336 -0.573939,0.10721 -1.207014,0.251914 -1.406835,0.321564 -0.797022,0.277811 -4.364847,0.50484 -5.495083,0.349665 z"
       id="path234"
       inkscape:connector-curvature="0"
       transform="matrix(0.26458333,0,0,0.26458333,0,283.77082)" />
  </g>
</svg>
