<?xml version="1.0" encoding="UTF-8" standalone="no"?>
<!-- Created with Inkscape (http://www.inkscape.org/) -->

<svg
   xmlns:dc="http://purl.org/dc/elements/1.1/"
   xmlns:cc="http://creativecommons.org/ns#"
   xmlns:rdf="http://www.w3.org/1999/02/22-rdf-syntax-ns#"
   xmlns:svg="http://www.w3.org/2000/svg"
   xmlns="http://www.w3.org/2000/svg"
   xmlns:sodipodi="http://sodipodi.sourceforge.net/DTD/sodipodi-0.dtd"
   xmlns:inkscape="http://www.inkscape.org/namespaces/inkscape"
   width="50"
   height="50"
   viewBox="0 0 13.229166 13.229167"
   version="1.1"
   id="svg163"
   inkscape:version="0.92.3 (2405546, 2018-03-11)"
   sodipodi:docname="Skeleton arm.svg">
  <defs
     id="defs157" />
  <sodipodi:namedview
     id="base"
     pagecolor="#ffffff"
     bordercolor="#666666"
     borderopacity="1.0"
     inkscape:pageopacity="0.0"
     inkscape:pageshadow="2"
     inkscape:zoom="12.730132"
     inkscape:cx="21.791997"
     inkscape:cy="25.04071"
     inkscape:document-units="mm"
     inkscape:current-layer="layer1"
     showgrid="false"
     units="px"
     inkscape:window-width="1920"
     inkscape:window-height="1016"
     inkscape:window-x="1920"
     inkscape:window-y="27"
     inkscape:window-maximized="1" />
  <metadata
     id="metadata160">
    <rdf:RDF>
      <cc:Work
         rdf:about="">
        <dc:format>image/svg+xml</dc:format>
        <dc:type
           rdf:resource="http://purl.org/dc/dcmitype/StillImage" />
        <dc:title></dc:title>
      </cc:Work>
    </rdf:RDF>
  </metadata>
  <g
     inkscape:label="Layer 1"
     inkscape:groupmode="layer"
     id="layer1"
     transform="translate(0,-283.77082)">
    <path
       style="fill:none;stroke:#000000;stroke-width:0.26458332px;stroke-linecap:butt;stroke-linejoin:miter;stroke-opacity:1"
       d="m 8.8747771,286.37935 c -0.02837,0.081 -0.020783,0.14532 -0.020783,0.22863 0,0.0208 0.00408,0.042 0,0.0623 -0.00304,0.0152 -0.017026,0.0265 -0.020783,0.0416 -0.00504,0.0202 0.00657,0.0426 0,0.0623 -0.0049,0.0147 -0.015885,0.0269 -0.020783,0.0416 -0.00657,0.0197 0.00504,0.0422 0,0.0624 -0.00376,0.015 -0.015886,0.0269 -0.020783,0.0416 -0.00657,0.0197 0.00504,0.0422 0,0.0624 -0.00376,0.015 -0.013856,0.0277 -0.020783,0.0416 -0.00693,0.0208 -0.016486,0.0409 -0.020783,0.0623 -0.00272,0.0136 0,0.0277 0,0.0416 0,0.007 0.0031,0.0146 0,0.0208 -0.04756,0.0951 0.00861,-0.0882 -0.041568,0.0623 -0.0022,0.007 0.0022,0.0142 0,0.0208 -0.043003,0.12901 0.00169,-0.0691 -0.041568,0.10392 -0.00167,0.007 0.0031,0.0146 0,0.0208 -0.00438,0.009 -0.017685,0.0115 -0.020783,0.0208 -0.00438,0.0131 0.00336,0.0281 0,0.0416 -0.00376,0.015 -0.013856,0.0277 -0.020783,0.0416 -0.00693,0.0138 -0.012192,0.0287 -0.020783,0.0416 -0.00543,0.008 -0.017685,0.0115 -0.020783,0.0208 -0.00438,0.0131 0.00336,0.0281 0,0.0416 -0.00751,0.0301 -0.03177,0.0537 -0.041568,0.0831 -0.0022,0.007 0.0022,0.0142 0,0.0208 -0.0098,0.0294 -0.030061,0.0544 -0.041568,0.0831 -0.00814,0.0203 -0.010986,0.0428 -0.020783,0.0624 -0.00438,0.009 -0.016402,0.012 -0.020783,0.0208 -0.0031,0.006 0.0022,0.0142 0,0.0208 -0.0049,0.0147 -0.017026,0.0265 -0.020783,0.0416 -0.00336,0.0134 0.00438,0.0284 0,0.0416 -0.0031,0.009 -0.013856,0.0138 -0.020783,0.0208 -0.00693,0.0138 -0.017026,0.0265 -0.020783,0.0416 -0.00336,0.0134 0.0062,0.0292 0,0.0416 -0.0031,0.006 -0.016941,-0.006 -0.020783,0 -0.012152,0.0182 -0.012647,0.042 -0.020783,0.0624 -0.00575,0.0144 -0.015885,0.0269 -0.020783,0.0416 -0.0022,0.007 0,0.0139 0,0.0208 -0.00693,0.0208 -0.010986,0.0428 -0.020783,0.0624 -0.00438,0.009 -0.015348,0.0126 -0.020783,0.0208 -0.00859,0.0129 -0.013856,0.0277 -0.020783,0.0416 -0.013856,0.0277 -0.030061,0.0544 -0.041568,0.0831 -0.00814,0.0203 -0.010986,0.0427 -0.020783,0.0623 -0.031691,0.0634 -0.016476,-0.038 -0.041568,0.0623 -0.00336,0.0134 0.00438,0.0284 0,0.0416 -0.0031,0.009 -0.016402,0.012 -0.020783,0.0208 -0.0098,0.0196 -0.010986,0.0428 -0.020783,0.0623 -0.00438,0.009 -0.016401,0.012 -0.020783,0.0208 -0.0098,0.0196 -0.012647,0.042 -0.020783,0.0624 -0.00575,0.0144 -0.017026,0.0265 -0.020783,0.0416 -0.00336,0.0134 0.00438,0.0284 0,0.0416 -0.0031,0.009 -0.016402,0.012 -0.020783,0.0208 -0.0098,0.0196 -0.010986,0.0428 -0.020783,0.0624 -0.00438,0.009 -0.015348,0.0126 -0.020783,0.0208 -0.017187,0.0258 -0.025627,0.0566 -0.041568,0.0831 -0.012851,0.0214 -0.030397,0.04 -0.041568,0.0623 -0.0031,0.006 0.0031,0.0146 0,0.0208 -0.00438,0.009 -0.015348,0.0126 -0.020783,0.0208 -0.00859,0.0129 -0.012192,0.0287 -0.020783,0.0416 -0.00543,0.008 -0.015348,0.0126 -0.020783,0.0208 -0.00859,0.0129 -0.015886,0.0269 -0.020783,0.0416 -0.0022,0.007 0.00384,0.015 0,0.0208 -0.010869,0.0163 -0.029327,0.0263 -0.041568,0.0416 -0.015605,0.0195 -0.02658,0.0424 -0.041568,0.0624 -0.00588,0.008 -0.015348,0.0126 -0.020783,0.0208 -0.00859,0.0129 -0.012192,0.0287 -0.020783,0.0416 -0.00543,0.008 -0.014907,0.0129 -0.020783,0.0208 -0.014986,0.02 -0.02658,0.0424 -0.041568,0.0624 -0.011758,0.0157 -0.027712,0.0277 -0.041568,0.0416 -0.03464,0.0346 -0.06928,0.0693 -0.1039201,0.10392 -0.00693,0.007 -0.013856,0.0139 -0.020783,0.0208 -0.00693,0.007 -0.016402,0.012 -0.020783,0.0208 -0.0031,0.006 0.0049,0.0159 0,0.0208 -0.0049,0.005 -0.015885,-0.005 -0.020783,0 -0.0049,0.005 0.0031,0.0146 0,0.0208 -0.00438,0.009 -0.016401,0.012 -0.020783,0.0208 -0.0031,0.006 0.0031,0.0146 0,0.0208 -0.00438,0.009 -0.016402,0.012 -0.020783,0.0208 -0.00316,0.006 0,0.053 0,0.0624 0,0.0109 -0.00273,0.0777 0,0.0831 0.00438,0.009 0.01202,0.0164 0.020783,0.0208 0.0062,0.003 0.020783,-0.007 0.020783,0 0,0.007 -0.020783,0.007 -0.020783,0 0,-0.007 0.014587,-0.003 0.020783,0 0.00876,0.004 0.01202,0.0164 0.020783,0.0208 0.0062,0.003 0.014587,-0.003 0.020783,0 0.00876,0.004 0.01202,0.0164 0.020783,0.0208 0.012393,0.006 0.041568,-0.0138 0.041568,0 0,0.0196 -0.096992,-0.0393 0.020783,0 0.00929,0.003 0.01202,0.0164 0.020783,0.0208 0.0062,0.003 0.014587,-0.003 0.020783,0 0.024942,0.0125 0.037411,0.0499 0.062352,0.0624 0.0062,0.003 0.015886,-0.005 0.020783,0 0.0049,0.005 -0.0031,0.0146 0,0.0208 0.00438,0.009 0.013856,0.0139 0.020783,0.0208 0.00693,0.007 0.01202,0.0164 0.020783,0.0208 0.0062,0.003 0.014587,-0.003 0.020783,0 0.086498,0.0432 -0.02222,-10e-4 0.020783,0.0416 0.0098,0.01 0.029175,-0.006 0.041568,0 0.017526,0.009 0.024043,0.0328 0.041568,0.0416 0.00426,0.002 0.059421,0.003 0.062352,0 0.0049,-0.005 -0.0031,-0.0146 0,-0.0208 0.00438,-0.009 0.016401,-0.012 0.020783,-0.0208 0.0062,-0.0124 -0.0062,-0.0292 0,-0.0416 0.00438,-0.009 0.016401,-0.012 0.020783,-0.0208 0.00631,-0.0126 -0.00631,-0.11208 0,-0.1247 0.00438,-0.009 0.016401,-0.012 0.020783,-0.0208 0.00316,-0.006 0,-0.053 0,-0.0623 0,-0.007 0,-0.0139 0,-0.0208 0,-0.007 -0.0049,-0.0159 0,-0.0208 0.0049,-0.005 0.015886,0.005 0.020783,0 0.0049,-0.005 0,-0.0139 0,-0.0208 0,-0.007 0,-0.0139 0,-0.0208 0,-0.0138 0,-0.0277 0,-0.0416 0,-0.007 -0.0031,-0.0146 0,-0.0208 0.00438,-0.009 0.016402,-0.012 0.020783,-0.0208 0.00681,-0.0136 -0.00615,-0.0855 0,-0.10392 0.0049,-0.0147 0.015886,-0.0269 0.020783,-0.0416 0.0022,-0.007 -0.0049,-0.0159 0,-0.0208 0.0049,-0.005 0.017685,0.006 0.020783,0 0.0062,-0.0124 -0.00438,-0.0284 0,-0.0416 0.00693,-0.007 0.013856,-0.0139 0.020783,-0.0208 0.00693,-0.007 0.017685,-0.0115 0.020783,-0.0208 0.00657,-0.0197 -0.00657,-0.0426 0,-0.0623 0.014549,-0.0436 0.047803,-0.0811 0.062352,-0.1247 0.0022,-0.007 -0.0022,-0.0142 0,-0.0208 0.01455,-0.0436 0.047803,-0.0811 0.062352,-0.12471 0.0022,-0.007 -0.0031,-0.0146 0,-0.0208 0.00438,-0.009 0.016402,-0.012 0.020783,-0.0208 0.0031,-0.006 -0.0031,-0.0146 0,-0.0208 0.00438,-0.009 0.015348,-0.0126 0.020783,-0.0208 0.00859,-0.0129 0.012192,-0.0287 0.020783,-0.0416 0.00543,-0.008 0.017685,-0.0115 0.020783,-0.0208 0.00438,-0.0132 -0.00336,-0.0281 0,-0.0416 0.00376,-0.015 0.013856,-0.0277 0.020783,-0.0416 0.00693,-0.0138 0.012192,-0.0287 0.020783,-0.0416 0.010869,-0.0163 0.032805,-0.024 0.041568,-0.0416 0.0031,-0.006 0,-0.0139 0,-0.0208 0.00693,-0.0138 0.012192,-0.0287 0.020783,-0.0416 0.00543,-0.008 0.016402,-0.012 0.020783,-0.0208 0.0031,-0.006 0,-0.0138 0,-0.0208 0.00693,-0.0139 0.011488,-0.0292 0.020783,-0.0416 0.011758,-0.0157 0.030699,-0.0253 0.041568,-0.0416 0.00384,-0.006 -0.0031,-0.0146 0,-0.0208 0.00438,-0.009 0.016402,-0.012 0.020783,-0.0208 0.0031,-0.006 -0.00384,-0.015 0,-0.0208 0.010869,-0.0163 0.029811,-0.0259 0.041568,-0.0416 0.045791,-0.0105 0.010986,-0.0428 0.020783,-0.0624 0.00876,-0.0175 0.032805,-0.024 0.041568,-0.0416 0.0031,-0.006 -0.0031,-0.0146 0,-0.0208 0.00438,-0.009 0.015348,-0.0126 0.020783,-0.0208 0.00859,-0.0129 0.012192,-0.0287 0.020783,-0.0416 0.00543,-0.008 0.016402,-0.012 0.020783,-0.0208 0.0031,-0.006 -0.0031,-0.0146 0,-0.0208 0.011171,-0.0223 0.030397,-0.04 0.041568,-0.0624 0.0031,-0.006 0,-0.0139 0,-0.0208 0.00693,-0.0139 0.012189,-0.0287 0.020783,-0.0416 0.010869,-0.0163 0.032805,-0.024 0.041568,-0.0416 0.0062,-0.0124 -0.0062,-0.0292 0,-0.0416 0.00876,-0.0175 0.032805,-0.024 0.041568,-0.0416 0.0031,-0.006 -0.0031,-0.0146 0,-0.0208 0.00438,-0.009 0.016401,-0.012 0.020783,-0.0208 0.0031,-0.006 -0.0031,-0.0146 0,-0.0208 0.04756,-0.0951 -0.00861,0.0882 0.041568,-0.0623 0.0022,-0.007 -0.0031,-0.0146 0,-0.0208 0.00438,-0.009 0.016401,-0.012 0.020783,-0.0208 0.0062,-0.0124 -0.0062,-0.0292 0,-0.0416 0.00438,-0.009 0.016401,-0.012 0.020783,-0.0208 0.0062,-0.0124 -0.0062,-0.0292 0,-0.0416 0.00438,-0.009 0.016402,-0.012 0.020783,-0.0208 0.0031,-0.006 -0.0022,-0.0142 0,-0.0208 0.0049,-0.0147 0.015886,-0.0269 0.020783,-0.0416 0.0022,-0.007 -0.0031,-0.0146 0,-0.0208 0.00438,-0.009 0.016402,-0.012 0.020783,-0.0208 0.0031,-0.006 -0.0049,-0.0159 0,-0.0208 0.0049,-0.005 0.015885,0.005 0.020783,0 0.0049,-0.005 -0.0022,-0.0142 0,-0.0208 0.0049,-0.0147 0.013856,-0.0277 0.020783,-0.0416 0.00693,-0.0139 0.013856,-0.0277 0.020783,-0.0416 0.00693,-0.007 0.016402,-0.012 0.020783,-0.0208 0.0031,-0.006 0,-0.0139 0,-0.0208 0.00693,-0.0138 0.012192,-0.0287 0.020783,-0.0416 0.00543,-0.008 0.016401,-0.012 0.020783,-0.0208 0.0031,-0.006 -0.0031,-0.0146 0,-0.0208 0.00438,-0.009 0.017685,-0.0115 0.020783,-0.0208 0.00438,-0.0131 -0.00438,-0.0284 0,-0.0416 0.0062,-0.0186 0.032805,-0.024 0.041568,-0.0416 0.0031,-0.006 0,-0.0139 0,-0.0208 0.00693,-0.0139 0.012192,-0.0287 0.020783,-0.0416 0.00543,-0.008 0.017685,-0.0115 0.020783,-0.0208 0.00438,-0.0131 -0.00438,-0.0284 0,-0.0416 0.0031,-0.009 0.016402,-0.012 0.020783,-0.0208 0.0031,-0.006 -0.0022,-0.0142 0,-0.0208 0.0049,-0.0147 0.015886,-0.0269 0.020783,-0.0416 0.0022,-0.007 -0.0031,-0.0146 0,-0.0208 0.00438,-0.009 0.016402,-0.012 0.020783,-0.0208 0.0062,-0.0124 -0.0062,-0.0292 0,-0.0416 0.00438,-0.009 0.016401,-0.012 0.020783,-0.0208 0.0031,-0.006 0,-0.0139 0,-0.0208 0.00693,-0.0138 0.012192,-0.0287 0.020783,-0.0416 0.00543,-0.008 0.016402,-0.012 0.020783,-0.0208 0.011068,-0.0221 -0.011067,-0.0194 0,-0.0416 0.00438,-0.009 0.016402,-0.012 0.020783,-0.0208 0.0031,-0.006 0,-0.0138 0,-0.0208 0.00693,-0.007 0.016402,-0.012 0.020783,-0.0208 0.00664,-0.0133 -0.00558,-0.0664 0,-0.0831 0.0049,-0.0147 0.013856,-0.0277 0.020783,-0.0416 0.00693,-0.0138 0.012192,-0.0287 0.020783,-0.0416 0.00543,-0.008 0.016402,-0.012 0.020783,-0.0208 0.0031,-0.006 0,-0.0138 0,-0.0208 0.00693,-0.0139 0.012192,-0.0287 0.020783,-0.0416 0.010869,-0.0163 0.032805,-0.024 0.041568,-0.0416 0.0031,-0.006 -0.0031,-0.0146 0,-0.0208 0.00438,-0.009 0.016402,-0.012 0.020783,-0.0208 0.0031,-0.006 -0.0049,-0.0159 0,-0.0208 0.027712,-0.0277 0.019944,0.0441 0.041568,-0.0208 0.00317,-0.01 0,-0.0923 0,-0.10392 0,-0.009 0.00316,-0.056 0,-0.0623 -0.043249,-0.0865 0.00143,0.0222 -0.041568,-0.0208 -0.025315,-0.0253 -0.00974,-0.0464 -0.041568,-0.0623 -0.0062,-0.003 -0.015886,0.005 -0.020783,0 -0.0049,-0.005 0.0049,-0.0159 0,-0.0208 -0.0098,-0.01 -0.029175,0.006 -0.041568,0 -0.00876,-0.004 -0.01202,-0.0164 -0.020783,-0.0208 -0.016626,-0.008 -0.045725,0.008 -0.062352,0 -0.00876,-0.004 -0.01202,-0.0164 -0.020783,-0.0208 -0.0062,-0.003 -0.020783,0.007 -0.020783,0 0,-0.007 0.027712,0 0.020783,0 -0.055424,0 -0.110848,0 -0.1662721,0 -0.00693,0 -0.015886,0.005 -0.020783,0 -0.0049,-0.005 0.0049,-0.0159 0,-0.0208 -0.013835,-0.0138 -0.027734,0.0138 -0.041568,0 -0.0049,-0.005 0.0049,-0.0159 0,-0.0208 -0.0049,-0.005 -0.014587,0.003 -0.020783,0 -0.00876,-0.004 -0.01202,-0.0164 -0.020783,-0.0208 -0.0062,-0.003 -0.014587,0.003 -0.020783,0 -0.00876,-0.004 -0.01202,-0.0164 -0.020783,-0.0208 -0.0062,-0.003 -0.013856,0 -0.020783,0 -0.00693,0 -0.013856,0 -0.020783,0 -0.00693,0 -0.027712,0 -0.020783,0 0.013856,0 0.041568,-0.0138 0.041568,0 0,0.0139 -0.028423,-0.004 -0.041568,0 -0.041359,0.0138 -0.0097,0.0194 -0.020783,0.0416 -0.01247,0.0249 -0.049882,0.0374 -0.062352,0.0624 -0.011091,0.0222 0.011091,0.0194 0,0.0416 -0.068932,0.0689 0.0098,-0.0196 -0.020783,0.0416 -0.00438,0.009 -0.016402,0.012 -0.020783,0.0208 -0.0031,0.006 0,0.0139 0,0.0208 0,0.0652 -0.00251,0.0365 0.041568,0.1247 z"
       id="path165"
       inkscape:connector-curvature="0" />
    <path
       style="fill:none;stroke:#000000;stroke-width:0.26458332px;stroke-linecap:butt;stroke-linejoin:miter;stroke-opacity:1"
       d="m 7.2951916,290.12048 c -0.00103,0.0484 -0.084081,0.0435 -0.1039201,0.0831 -0.0031,0.006 0.0062,0.0177 0,0.0208 -0.012393,0.006 -0.028423,-0.004 -0.041568,0 -0.01859,0.006 -0.02404,0.0328 -0.041568,0.0416 -0.0062,0.003 -0.014587,-0.003 -0.020783,0 -0.00876,0.004 -0.01202,0.0164 -0.020783,0.0208 -0.0062,0.003 -0.014587,-0.003 -0.020783,0 -0.020452,0.0102 -0.062684,0.0729 -0.083136,0.0831 -0.0062,0.003 -0.014587,-0.003 -0.020783,0 -0.00876,0.004 -0.013856,0.0139 -0.020783,0.0208 -0.00693,0.007 -0.013856,0.0139 -0.020783,0.0208 -0.020783,0.0208 -0.041568,0.0416 -0.062352,0.0623 -0.013856,0.0139 -0.025265,0.0307 -0.041568,0.0416 -0.00577,0.004 -0.015886,-0.005 -0.020783,0 -0.010954,0.0109 -0.00983,0.0306 -0.020783,0.0416 -0.017664,0.0177 -0.042369,0.0266 -0.062352,0.0416 -0.015677,0.0118 -0.027712,0.0277 -0.041568,0.0416 -0.020783,0.0208 -0.041568,0.0416 -0.062352,0.0624 -0.06928,0.0693 -0.1385602,0.13856 -0.2078403,0.20784 -0.03464,0.0346 -0.06928,0.0693 -0.1039201,0.10392 -0.00693,0.007 -0.015348,0.0126 -0.020783,0.0208 -0.00859,0.0129 -0.012189,0.0287 -0.020783,0.0416 -0.016304,0.0245 -0.046048,0.0379 -0.062352,0.0623 -0.00384,0.006 0.00384,0.015 0,0.0208 -0.015989,0.024 -0.046364,0.0384 -0.062352,0.0623 -0.00859,0.0129 -0.011488,0.0292 -0.020783,0.0416 -0.011758,0.0157 -0.027712,0.0277 -0.041568,0.0416 -0.00693,0.007 -0.016401,0.012 -0.020783,0.0208 -0.0031,0.006 0.0031,0.0146 0,0.0208 -0.00438,0.009 -0.014907,0.0129 -0.020783,0.0208 -0.014989,0.02 -0.026581,0.0424 -0.041568,0.0624 -0.00588,0.008 -0.015348,0.0126 -0.020783,0.0208 -0.064757,0.0971 0.0407,-0.0249 -0.062352,0.10392 -0.012242,0.0153 -0.029811,0.0259 -0.041568,0.0416 -0.00929,0.0124 -0.011488,0.0292 -0.020783,0.0416 -0.089897,0.0899 -0.00326,-0.006 -0.062352,0.0831 -0.010869,0.0163 -0.032805,0.024 -0.041568,0.0416 -0.0098,0.0196 -0.010986,0.0428 -0.020783,0.0624 -0.098021,0.19604 -0.00389,-0.005 -0.062352,0.0831 -0.00708,0.0106 -0.034489,0.0725 -0.041568,0.0831 -0.020389,0.0306 -0.062747,0.0525 -0.083136,0.0831 -0.017187,0.0258 -0.024381,0.0574 -0.041568,0.0831 -0.00543,0.008 -0.016402,0.012 -0.020783,0.0208 -0.0031,0.006 0,0.0139 0,0.0208 -0.00693,0.0138 -0.012192,0.0287 -0.020783,0.0416 -0.010869,0.0163 -0.030699,0.0253 -0.041568,0.0416 -0.00859,0.0129 -0.012192,0.0287 -0.020783,0.0416 -0.00543,0.008 -0.017685,0.0115 -0.020783,0.0208 -0.00438,0.0131 0.0062,0.0292 0,0.0416 -0.00876,0.0175 -0.029811,0.0259 -0.041568,0.0416 -0.062998,0.084 -0.00329,0.01 -0.020783,0.0624 -0.0049,0.0147 -0.013856,0.0277 -0.020783,0.0416 -0.013856,0.0277 -0.024381,0.0574 -0.041568,0.0831 -0.00543,0.008 -0.016401,0.012 -0.020783,0.0208 -0.0031,0.006 0.00384,0.015 0,0.0208 -0.010869,0.0163 -0.030699,0.0253 -0.041568,0.0416 -0.00384,0.006 0,0.0139 0,0.0208 0,0.0139 0.00438,0.0284 0,0.0416 -0.0031,0.009 -0.016402,0.012 -0.020783,0.0208 -0.0062,0.0124 0.0062,0.0292 0,0.0416 -0.00438,0.009 -0.016401,0.012 -0.020783,0.0208 -0.0031,0.006 0.0031,0.0146 0,0.0208 -0.00438,0.009 -0.017685,0.0115 -0.020783,0.0208 -0.00438,0.0131 0.00438,0.0284 0,0.0416 -0.0031,0.009 -0.016401,0.012 -0.020783,0.0208 -0.0031,0.006 0.0031,0.0146 0,0.0208 -0.00438,0.009 -0.016401,0.012 -0.020783,0.0208 -0.00831,0.0166 0.00831,0.0457 0,0.0623 -0.00438,0.009 -0.016402,0.012 -0.020783,0.0208 -0.00316,0.006 0,0.053 0,0.0624 0,0.007 -0.0049,0.0159 0,0.0208 0.0098,0.01 0.03177,-0.01 0.041568,0 0.0049,0.005 -0.0049,0.0159 0,0.0208 0.014335,0.0143 0.038863,-0.0154 0.041568,-0.0208 0.0031,-0.006 -0.0031,-0.0146 0,-0.0208 0.00438,-0.009 0.016401,-0.012 0.020783,-0.0208 0.0031,-0.006 -0.0031,-0.0146 0,-0.0208 0.00438,-0.009 0.016402,-0.012 0.020783,-0.0208 0.0031,-0.006 0,-0.0139 0,-0.0208 0.00693,-0.0138 0.012192,-0.0287 0.020783,-0.0416 0.012613,-0.0189 0.053141,-0.0439 0.062352,-0.0623 0.0031,-0.006 0,-0.0139 0,-0.0208 0,-0.007 -0.00384,-0.015 0,-0.0208 0.036691,-0.055 0.034834,-0.0211 0.062352,-0.0624 0.00859,-0.0129 0.012192,-0.0287 0.020783,-0.0416 0.00543,-0.008 0.016401,-0.012 0.020783,-0.0208 0.0031,-0.006 -0.0049,-0.0159 0,-0.0208 0.0049,-0.005 0.014587,0.003 0.020783,0 0.045955,-0.023 0.00645,-0.0129 0.020783,-0.0416 0.00438,-0.009 0.017685,-0.0115 0.020783,-0.0208 0.00438,-0.0131 -0.00438,-0.0284 0,-0.0416 0.0062,-0.0186 0.032805,-0.024 0.041568,-0.0416 0.0062,-0.0124 -0.0098,-0.0318 0,-0.0416 0.0049,-0.005 0.015885,0.005 0.020783,0 0.0098,-0.01 -0.0062,-0.0292 0,-0.0416 0.00438,-0.009 0.016401,-0.012 0.020783,-0.0208 0.0031,-0.006 -0.0031,-0.0146 0,-0.0208 0.00876,-0.0175 0.032805,-0.024 0.041568,-0.0416 0.00831,-0.0166 -0.00831,-0.0457 0,-0.0623 0.00438,-0.009 0.016401,-0.012 0.020783,-0.0208 0.0031,-0.006 -0.0031,-0.0146 0,-0.0208 0.01247,-0.0249 0.049882,-0.0374 0.062352,-0.0624 0.0062,-0.0124 -0.0062,-0.0292 0,-0.0416 0.00438,-0.009 0.013856,-0.0139 0.020783,-0.0208 0.00693,-0.007 0.01202,-0.0164 0.020783,-0.0208 0.0062,-0.003 0.015886,0.005 0.020783,0 0.00425,-0.004 -0.00412,-0.0541 0,-0.0623 0.043249,-0.0865 -0.00143,0.0222 0.041568,-0.0208 0.0049,-0.005 -0.0031,-0.0146 0,-0.0208 0.00876,-0.0175 0.032805,-0.024 0.041568,-0.0416 0.0062,-0.0124 -0.0098,-0.0318 0,-0.0416 0.0049,-0.005 0.015886,0.005 0.020783,0 0.0049,-0.005 -0.00384,-0.015 0,-0.0208 0.010869,-0.0163 0.027712,-0.0277 0.041568,-0.0416 0.00693,-0.007 0.016401,-0.012 0.020783,-0.0208 0.0031,-0.006 -0.0031,-0.0146 0,-0.0208 0.00876,-0.0175 0.032805,-0.024 0.041568,-0.0416 0.0031,-0.006 -0.0031,-0.0146 0,-0.0208 0.043249,-0.0865 -0.00143,0.0222 0.041568,-0.0208 0.0098,-0.01 -0.00438,-0.0284 0,-0.0416 0.0049,-0.0147 0.00983,-0.0306 0.020783,-0.0416 0.043003,-0.043 -0.00169,0.0657 0.041568,-0.0208 0.0062,-0.0124 -0.0098,-0.0318 0,-0.0416 0.0049,-0.005 0.013856,0 0.020783,0 0.00693,-0.007 0.015348,-0.0126 0.020783,-0.0208 0.00859,-0.0129 0.012192,-0.0287 0.020783,-0.0416 0.00543,-0.008 0.016401,-0.012 0.020783,-0.0208 0.0031,-0.006 -0.0031,-0.0146 0,-0.0208 0.00876,-0.0175 0.030699,-0.0253 0.041568,-0.0416 0.00859,-0.0129 0.012192,-0.0287 0.020783,-0.0416 0.028553,-0.0428 0.040883,0.001 0.062352,-0.0416 0.0062,-0.0124 -0.0062,-0.0292 0,-0.0416 0.00438,-0.009 0.013856,-0.0139 0.020783,-0.0208 0.012224,-0.0122 0.078324,-0.0735 0.083136,-0.0831 0.0031,-0.006 0,-0.0139 0,-0.0208 0.00693,-0.0139 0.012192,-0.0287 0.020783,-0.0416 0.026638,-0.04 0.035713,-0.002 0.062352,-0.0416 0.00859,-0.0129 0.012192,-0.0287 0.020783,-0.0416 0.010869,-0.0163 0.030699,-0.0253 0.041568,-0.0416 0.00859,-0.0129 0.00983,-0.0306 0.020783,-0.0416 0.0049,-0.005 0.014586,0.003 0.020783,0 0.011099,-0.006 0.05141,-0.0514 0.062352,-0.0624 0.010943,-0.0109 0.056802,-0.0512 0.062352,-0.0623 0.0031,-0.006 -0.0031,-0.0146 0,-0.0208 0.00438,-0.009 0.013856,-0.0139 0.020783,-0.0208 0.00693,-0.007 0.01202,-0.0164 0.020783,-0.0208 0.0062,-0.003 0.015886,0.005 0.020783,0 0.010954,-0.011 0.00983,-0.0306 0.020783,-0.0416 0.0049,-0.005 0.015886,0.005 0.020783,0 0.010954,-0.0109 0.00983,-0.0306 0.020783,-0.0416 0.0049,-0.005 0.015886,0.005 0.020783,0 0.0049,-0.005 -0.0049,-0.0159 0,-0.0208 0.0049,-0.005 0.014587,0.003 0.020783,0 0.00876,-0.004 0.013856,-0.0138 0.020783,-0.0208 0.00693,-0.007 0.013856,-0.0139 0.020783,-0.0208 0.027712,-0.0277 0.055424,-0.0554 0.083136,-0.0831 0.03464,-0.0346 0.06928,-0.0693 0.1039202,-0.10392 0.01094,-0.0109 0.056802,-0.0512 0.062352,-0.0623 0.014335,-0.0287 -0.02517,-0.0186 0.020783,-0.0416 0.0062,-0.003 0.014586,0.003 0.020783,0 0.020452,-0.0102 0.062684,-0.0729 0.083136,-0.0831 0.028668,-0.0143 0.01859,0.0252 0.041568,-0.0208 0.0031,-0.006 -0.0049,-0.0159 0,-0.0208 0.0049,-0.005 0.014587,0.003 0.020783,0 0.017526,-0.009 0.024043,-0.0328 0.041568,-0.0416 0.0062,-0.003 0.014587,0.003 0.020783,0 0.00876,-0.004 0.01202,-0.0164 0.020783,-0.0208 0.0062,-0.003 0.014586,0.003 0.020783,0 0.00876,-0.004 0.016401,-0.012 0.020783,-0.0208 0.0031,-0.006 -0.00693,-0.0208 0,-0.0208 0.00693,0 -0.0049,0.0257 0,0.0208 0.010954,-0.0109 0.015886,-0.0269 0.020783,-0.0416 0.00344,-0.0103 0.00177,-0.0606 0,-0.0624 -0.0049,-0.005 -0.013991,10e-4 -0.020783,0 -0.02801,-0.006 -0.055424,-0.0139 -0.083136,-0.0208 z"
       id="path167"
       inkscape:connector-curvature="0" />
    <path
       style="fill:none;stroke:#000000;stroke-width:0.26458332px;stroke-linecap:butt;stroke-linejoin:miter;stroke-opacity:1"
       d="m 7.3783123,290.14064 c 0.055429,0.12491 0.1211985,0.24573 0.1662874,0.37473 0.00511,0.0146 -0.013856,0.0277 -0.020783,0.0416 -0.00693,0.0139 -0.012192,0.0287 -0.020783,0.0416 -0.00543,0.008 -0.013856,0.0139 -0.020783,0.0208 -0.020783,0.0208 -0.041568,0.0416 -0.062352,0.0624 0,0.007 0.00384,0.015 0,0.0208 -0.016304,0.0245 -0.046048,0.0379 -0.062352,0.0623 -0.00859,0.0129 -0.011488,0.0292 -0.020783,0.0416 -0.011758,0.0157 -0.027712,0.0277 -0.041568,0.0416 -0.00693,0.007 -0.016402,0.012 -0.020783,0.0208 -0.0031,0.006 0.00384,0.015 0,0.0208 -0.010869,0.0163 -0.029811,0.0259 -0.041568,0.0416 -0.00929,0.0124 -0.00983,0.0306 -0.020783,0.0416 -0.010954,0.0109 -0.030614,0.01 -0.041568,0.0208 -0.010954,0.0109 -0.011488,0.0292 -0.020783,0.0416 -0.011758,0.0157 -0.030698,0.0253 -0.041568,0.0416 -0.00384,0.006 0.00384,0.015 0,0.0208 -0.020389,0.0306 -0.062748,0.0525 -0.083136,0.0831 -0.00859,0.0129 -0.012192,0.0287 -0.020783,0.0416 -0.00543,0.008 -0.015348,0.0126 -0.020783,0.0208 -0.00859,0.0129 -0.00983,0.0306 -0.020783,0.0416 -0.0049,0.005 -0.015886,-0.005 -0.020783,0 -0.010954,0.011 -0.011488,0.0292 -0.020783,0.0416 -0.021717,0.029 -0.056915,0.0569 -0.083136,0.0831 -0.062352,0.0623 -0.1247039,0.1247 -0.1870562,0.18705 -0.03464,0.0346 -0.06928,0.0693 -0.1039201,0.10392 -0.013856,0.0139 -0.027712,0.0277 -0.041568,0.0416 -0.00693,0.007 -0.015348,0.0126 -0.020783,0.0208 -0.00859,0.0129 -0.00983,0.0306 -0.020783,0.0416 -0.0049,0.005 -0.01502,-0.004 -0.020783,0 -0.024456,0.0163 -0.041568,0.0416 -0.062352,0.0624 -0.02622,0.0262 -0.061419,0.0542 -0.083136,0.0831 -0.00929,0.0124 -0.00983,0.0306 -0.020783,0.0416 -0.0049,0.005 -0.015885,-0.005 -0.020783,0 -0.010954,0.0109 -0.00983,0.0306 -0.020783,0.0416 -0.0049,0.005 -0.013856,0 -0.020783,0 -0.00693,0.007 -0.015349,0.0126 -0.020783,0.0208 -0.00859,0.0129 -0.011488,0.0292 -0.020783,0.0416 -0.089897,0.0899 -0.00326,-0.006 -0.062352,0.0831 -0.031832,0.0477 -0.011872,-0.009 -0.062352,0.0416 -0.0049,0.005 0.0031,0.0146 0,0.0208 -0.011171,0.0223 -0.028716,0.0409 -0.041568,0.0624 -0.00797,0.0133 -0.012192,0.0287 -0.020783,0.0416 -0.016304,0.0245 -0.04399,0.0394 -0.062352,0.0623 -0.015605,0.0195 -0.02658,0.0424 -0.041568,0.0624 -0.00588,0.008 -0.015348,0.0126 -0.020783,0.0208 -0.00859,0.0129 -0.011488,0.0292 -0.020783,0.0416 -0.011758,0.0157 -0.029811,0.0259 -0.041568,0.0416 -0.01859,0.0248 -0.024381,0.0574 -0.041568,0.0831 -0.010869,0.0163 -0.030699,0.0253 -0.041568,0.0416 -0.00859,0.0129 -0.012192,0.0287 -0.020783,0.0416 -0.00543,0.008 -0.015348,0.0126 -0.020783,0.0208 -0.00859,0.0129 -0.011488,0.0292 -0.020783,0.0416 -0.011758,0.0157 -0.030699,0.0253 -0.041568,0.0416 -0.00384,0.006 0.0031,0.0146 0,0.0208 -0.00876,0.0175 -0.030698,0.0253 -0.041568,0.0416 -0.00859,0.0129 -0.012192,0.0287 -0.020783,0.0416 -0.010869,0.0163 -0.032805,0.024 -0.041568,0.0416 -0.0031,0.006 0.0031,0.0146 0,0.0208 -0.01247,0.0249 -0.049882,0.0374 -0.062352,0.0624 -0.0031,0.006 0.0031,0.0146 0,0.0208 -0.00438,0.009 -0.016401,0.012 -0.020783,0.0208 -0.0031,0.006 0.0049,0.0159 0,0.0208 -0.0049,0.005 -0.014587,-0.003 -0.020783,0 -0.00876,0.004 -0.013856,0.0139 -0.020783,0.0208 -0.00693,0.007 -0.016402,0.012 -0.020783,0.0208 -0.0031,0.006 0.0031,0.0146 0,0.0208 -0.00438,0.009 -0.016401,0.012 -0.020783,0.0208 -0.0031,0.006 0,0.0139 0,0.0208 0,0.007 0.0031,0.0146 0,0.0208 -0.00438,0.009 -0.016402,0.012 -0.020783,0.0208 -0.0031,0.006 0.0031,0.0146 0,0.0208 -0.00438,0.009 -0.016401,0.012 -0.020783,0.0208 -0.0031,0.006 0.0031,0.0146 0,0.0208 -0.00438,0.009 -0.013856,0.0139 -0.020783,0.0208 -0.00693,0.007 -0.013856,0.0139 -0.020783,0.0208 -0.00693,0.007 -0.016401,0.012 -0.020783,0.0208 -0.0031,0.006 0.00693,0.0208 0,0.0208 -0.00693,0 0,-0.0277 0,-0.0208 0,0.0139 -0.0062,0.0292 0,0.0416 0.0031,0.006 0.014586,-0.003 0.020783,0 0.086498,0.0433 -0.02222,-0.001 0.020783,0.0416 0.0098,0.01 0.041568,-0.0139 0.041568,0 0,0.007 -0.020783,-0.007 -0.020783,0 0,0.0409 0.071707,0.009 0.083136,0.0208 0.0049,0.005 -0.0049,0.0159 0,0.0208 0.0049,0.005 0.013856,0 0.020783,0 0.03464,0 0.06928,0 0.1039201,0 0.013856,0 0.029175,0.006 0.041568,0 0.0062,-0.003 -0.0049,-0.0159 0,-0.0208 0.0098,-0.01 0.029175,0.006 0.041568,0 0.00876,-0.004 0.013856,-0.0139 0.020783,-0.0208 0.013856,0 0.029175,0.006 0.041568,0 0.033235,-0.0166 0.051975,-0.0624 0.083136,-0.0831 0.012891,-0.009 0.028678,-0.0122 0.041568,-0.0208 0.00815,-0.005 0.013856,-0.0139 0.020783,-0.0208 0.027712,-0.0277 0.055424,-0.0554 0.083136,-0.0831 0.013856,-0.0139 0.025265,-0.0307 0.041568,-0.0416 0.00577,-0.004 0.01502,0.004 0.020783,0 0.0044,-0.003 0.1005686,-0.0972 0.1039201,-0.10392 0.0031,-0.006 -0.0031,-0.0146 0,-0.0208 0.00438,-0.009 0.013856,-0.0139 0.020783,-0.0208 0.013856,-0.0138 0.027712,-0.0277 0.041568,-0.0416 0.00693,-0.007 0.015348,-0.0126 0.020783,-0.0208 0.00859,-0.0129 0.012192,-0.0287 0.020783,-0.0416 0.019061,-0.0286 0.032064,-0.0214 0.062352,-0.0416 0.067309,-0.0449 -0.00865,0.003 0.020783,-0.0416 0.01369,-0.0205 0.080744,-0.0807 0.1039201,-0.10392 0.00693,-0.007 0.013856,-0.0139 0.020783,-0.0208 0.00693,-0.007 0.016401,-0.012 0.020783,-0.0208 0.0031,-0.006 -0.0031,-0.0146 0,-0.0208 0.01247,-0.0249 0.049882,-0.0374 0.062352,-0.0623 0.0031,-0.006 -0.0031,-0.0146 0,-0.0208 0.00876,-0.0175 0.032805,-0.024 0.041568,-0.0416 0.0031,-0.006 -0.00384,-0.015 0,-0.0208 0.010869,-0.0163 0.027712,-0.0277 0.041568,-0.0416 0.00693,-0.007 0.016401,-0.012 0.020783,-0.0208 0.0031,-0.006 -0.0031,-0.0146 0,-0.0208 0.00438,-0.009 0.015348,-0.0126 0.020783,-0.0208 0.00859,-0.0129 0.011488,-0.0292 0.020783,-0.0416 0.011758,-0.0157 0.030699,-0.0253 0.041568,-0.0416 0.00384,-0.006 -0.0031,-0.0146 0,-0.0208 0.04756,-0.0951 -0.00861,0.0882 0.041568,-0.0623 0.0022,-0.007 -0.0031,-0.0146 0,-0.0208 0.04756,-0.0951 -0.00861,0.0882 0.041568,-0.0623 0.0022,-0.007 -0.00384,-0.015 0,-0.0208 0.010869,-0.0163 0.030698,-0.0253 0.041568,-0.0416 0.00384,-0.006 -0.0031,-0.0146 0,-0.0208 0.04756,-0.0951 -0.00861,0.0882 0.041568,-0.0624 0.0022,-0.007 -0.0062,-0.0177 0,-0.0208 0.012393,-0.006 0.033882,0.0115 0.041568,0 0.011528,-0.0173 -0.00504,-0.0422 0,-0.0623 0.00384,-0.0154 0.053926,-0.0455 0.062352,-0.0624 0.0031,-0.006 -0.0022,-0.0142 0,-0.0208 0.0049,-0.0147 0.013856,-0.0277 0.020783,-0.0416 0.00693,-0.0139 0.012189,-0.0287 0.020783,-0.0416 0.00543,-0.008 0.013856,-0.0139 0.020783,-0.0208 0.013856,-0.0208 0.028716,-0.0409 0.041568,-0.0623 0.015941,-0.0266 0.024381,-0.0573 0.041568,-0.0831 0.00543,-0.008 0.015348,-0.0126 0.020783,-0.0208 0.00859,-0.0129 0.012192,-0.0287 0.020783,-0.0416 0.010869,-0.0163 0.032805,-0.024 0.041568,-0.0416 0.0031,-0.006 -0.00384,-0.015 0,-0.0208 0.010869,-0.0163 0.032805,-0.024 0.041568,-0.0416 0.0062,-0.0124 -0.0062,-0.0292 0,-0.0416 0.0031,-0.006 0.014587,0.003 0.020783,0 0.045955,-0.023 0.00645,-0.0129 0.020783,-0.0416 0.00876,-0.0175 0.032805,-0.024 0.041568,-0.0416 0.0031,-0.006 -0.0031,-0.0146 0,-0.0208 0.00438,-0.009 0.015348,-0.0126 0.020783,-0.0208 0.075348,-0.1507 -0.021908,0.0329 0.041568,-0.0624 0.00859,-0.0129 0.012192,-0.0287 0.020783,-0.0416 0.00543,-0.008 0.013856,-0.0139 0.020783,-0.0208 0.00693,-0.0138 0.012192,-0.0287 0.020783,-0.0416 0.010869,-0.0163 0.030699,-0.0253 0.041568,-0.0416 0.00859,-0.0129 0.012192,-0.0287 0.020783,-0.0416 0.00543,-0.008 0.015348,-0.0126 0.020783,-0.0208 0.00259,-0.004 0.040236,-0.0818 0.041568,-0.0831 0.05048,-0.0505 0.03052,0.006 0.062352,-0.0416 0.00859,-0.0129 0.012192,-0.0287 0.020783,-0.0416 0.010869,-0.0163 0.030698,-0.0253 0.041568,-0.0416 0.075348,-0.1507 -0.021908,0.0329 0.041568,-0.0624 0.00859,-0.0129 0.012189,-0.0287 0.020783,-0.0416 0.010869,-0.0163 0.035372,-0.023 0.041568,-0.0416 0.00438,-0.0131 -0.0062,-0.0292 0,-0.0416 0.0031,-0.006 0.017685,0.006 0.020783,0 0.00344,-0.007 0,-0.0879 0,-0.10392 0,-0.0277 0,-0.0554 0,-0.0831 0,-0.007 -0.00693,-0.0208 0,-0.0208 0.00693,0 0,0.0277 0,0.0208 0,-0.0138 0.00438,-0.0284 0,-0.0416 -0.0031,-0.009 -0.016401,-0.012 -0.020783,-0.0208 -0.0031,-0.006 0.0031,-0.0146 0,-0.0208 -0.00438,-0.009 -0.013856,-0.0139 -0.020783,-0.0208 -0.00693,-0.007 -0.013856,-0.0139 -0.020783,-0.0208 -0.00693,-0.007 -0.010985,-0.0208 -0.020783,-0.0208 -0.00693,0 0.0049,0.0159 0,0.0208 -0.0098,0.01 -0.029175,-0.006 -0.041568,0 -0.00876,0.004 -0.01202,0.0164 -0.020783,0.0208 -0.00824,0.004 -0.058103,-0.004 -0.062352,0 -0.0049,0.005 0.0049,0.0159 0,0.0208 -0.0049,0.005 -0.017685,-0.006 -0.020783,0 -0.0062,0.0124 0.00656,0.0538 0,0.0416 -0.054367,-0.10119 -0.097002,-0.20826 -0.1455034,-0.31238"
       id="path169"
       inkscape:connector-curvature="0" />
    <path
       style="fill:none;stroke:#000000;stroke-width:0.26458332px;stroke-linecap:butt;stroke-linejoin:miter;stroke-opacity:1"
       d="m 4.6348366,293.36278 c -0.056935,-0.0136 -0.1172376,0.0501 -0.1662721,0.0624 -0.013443,0.003 -0.028423,-0.004 -0.041568,0 -0.00929,0.003 -0.011488,0.0177 -0.020783,0.0208 -0.013145,0.004 -0.028703,-0.005 -0.041568,0 -0.023193,0.009 -0.04001,0.0304 -0.062352,0.0416 -0.039191,0.0196 -0.085513,0.022 -0.1247042,0.0416 -0.00876,0.004 -0.011488,0.0177 -0.020783,0.0208 -0.013145,0.004 -0.028126,-0.003 -0.041568,0 -0.013481,0.003 -0.1114592,0.0535 -0.1247042,0.0623 -0.00815,0.005 -0.012631,0.0154 -0.020783,0.0208 -0.013856,0.007 -0.027712,0.0139 -0.041568,0.0208 -0.00693,0 -0.014586,-0.003 -0.020783,0 -0.022341,0.0112 -0.040932,0.0287 -0.062352,0.0416 -0.013285,0.008 -0.029175,0.0115 -0.041568,0.0208 -0.015677,0.0118 -0.026268,0.0293 -0.041568,0.0416 -0.019505,0.0156 -0.044689,0.0239 -0.062352,0.0416 -0.010954,0.011 -0.012192,0.0287 -0.020783,0.0416 -0.00543,0.008 -0.016401,0.012 -0.020783,0.0208 -0.00831,0.0166 0.00831,0.0457 0,0.0624 -0.00438,0.009 -0.017685,0.0115 -0.020783,0.0208 -0.00317,0.01 0,0.0923 0,0.10392 0,0.009 -0.00316,0.056 0,0.0623 0.00438,0.009 0.016402,0.012 0.020783,0.0208 0.0062,0.0124 -0.0062,0.0292 0,0.0416 0.068932,0.0689 -0.0098,-0.0196 0.020783,0.0416 0.00198,0.004 0.079158,0.0811 0.083136,0.0831 0.012393,0.006 0.029175,-0.006 0.041568,0 0.00876,0.004 0.013856,0.0138 0.020783,0.0208 0.00693,0.007 0.016402,0.012 0.020783,0.0208 0.0031,0.006 -0.0049,0.0159 0,0.0208 0.0049,0.005 0.014586,-0.003 0.020783,0 0.020452,0.0102 0.062684,0.0729 0.083136,0.0831 0.012393,0.006 0.029175,-0.006 0.041568,0 0.0062,0.003 -0.0049,0.0159 0,0.0208 0.0049,0.005 0.015886,-0.005 0.020783,0 0.0049,0.005 -0.0049,0.0159 0,0.0208 0.0049,0.005 0.014587,-0.003 0.020783,0 0.00876,0.004 0.013856,0.0138 0.020783,0.0208 0.013856,0.0139 0.025892,0.0298 0.041568,0.0416 0.1006629,0.0755 -0.00122,-0.022 0.062352,0.0416 0.047654,0.0477 -0.013145,-0.009 0.062352,0.0416 0.00815,0.005 0.012631,0.0154 0.020783,0.0208 0.01289,0.009 0.030614,0.01 0.041568,0.0208 0.010954,0.0109 0.00983,0.0306 0.020783,0.0416 0.0098,0.01 0.041568,-0.0139 0.041568,0 0,0.007 -0.025683,-0.005 -0.020783,0 0.023881,0.0239 0.036757,0.0208 0.062352,0.0208 0.00504,0 0.061684,6.6e-4 0.062352,0 0.0049,-0.005 -0.0049,-0.0159 0,-0.0208 0.0098,-0.01 0.029175,0.006 0.041568,0 0.017526,-0.009 0.024043,-0.0328 0.041568,-0.0416 0.0062,-0.003 0.015243,0.004 0.020783,0 0.023513,-0.0176 0.039772,-0.0435 0.062352,-0.0624 0.01919,-0.016 0.042846,-0.026 0.062352,-0.0416 0.015301,-0.0122 0.025892,-0.0298 0.041568,-0.0416 0.012393,-0.009 0.029175,-0.0115 0.041568,-0.0208 0.015677,-0.0118 0.027712,-0.0277 0.041568,-0.0416 0.013856,-0.0139 0.030698,-0.0253 0.041568,-0.0416 0.00384,-0.006 -0.0049,-0.0159 0,-0.0208 0.010954,-0.0109 0.029471,-0.0111 0.041568,-0.0208 0.022953,-0.0184 0.041568,-0.0416 0.062352,-0.0624 0.013856,-0.0138 0.029811,-0.0259 0.041568,-0.0416 0.00929,-0.0124 0.012192,-0.0287 0.020783,-0.0416 0.015989,-0.024 0.046364,-0.0384 0.062352,-0.0623 0.00859,-0.0129 0.00983,-0.0306 0.020783,-0.0416 0.0049,-0.005 0.015886,0.005 0.020783,0 0.010954,-0.011 0.012192,-0.0287 0.020783,-0.0416 0.00543,-0.008 0.016402,-0.012 0.020783,-0.0208 0.0031,-0.006 -0.0031,-0.0146 0,-0.0208 0.00438,-0.009 0.017685,-0.0115 0.020783,-0.0208 0.00438,-0.0131 -0.013856,-0.0416 0,-0.0416 0.013856,0 0,0.0554 0,0.0416 0,-0.0346 0,-0.0693 0,-0.10392 0,-0.007 0,-0.0138 0,-0.0208 0,-0.007 0.0031,-0.0146 0,-0.0208 -0.00438,-0.009 -0.016402,-0.012 -0.020783,-0.0208 -0.00831,-0.0166 0.00831,-0.0457 0,-0.0623 -0.00876,-0.0175 -0.032805,-0.024 -0.041568,-0.0416 -0.0031,-0.006 0.0031,-0.0146 0,-0.0208 -0.00438,-0.009 -0.016402,-0.012 -0.020783,-0.0208 -0.0031,-0.006 0,-0.0139 0,-0.0208 -0.00693,-0.0208 -0.010986,-0.0427 -0.020783,-0.0623 -0.0235,-0.047 -0.033123,-0.0539 -0.062352,-0.0831 -0.00693,-0.007 -0.015348,-0.0126 -0.020783,-0.0208 -0.00859,-0.0129 -0.012192,-0.0287 -0.020783,-0.0416 -0.011957,-0.0179 -0.046118,-0.0461 -0.062352,-0.0623 -0.00693,-0.007 -0.013856,-0.0139 -0.020783,-0.0208 -0.00693,-0.007 -0.011488,-0.0177 -0.020783,-0.0208 -0.013145,-0.004 -0.029175,0.006 -0.041568,0 -0.0062,-0.003 0.0031,-0.0146 0,-0.0208 -0.043249,-0.0865 0.00143,0.0222 -0.041568,-0.0208 -0.047765,-0.0478 0.00539,-0.0416 -0.041568,-0.0416 -0.00693,0 -0.014843,-0.004 -0.020783,0 -0.029704,0.0178 -0.055424,0.0416 -0.083136,0.0623 z"
       id="path171"
       inkscape:connector-curvature="0" />
    <path
       style="fill:none;stroke:#000000;stroke-width:0.26458332px;stroke-linecap:butt;stroke-linejoin:miter;stroke-opacity:1"
       d="m 4.634835,293.36278 c -0.022915,-0.0153 -0.3447174,-0.14044 -0.3948945,-0.29097 -0.0066,-0.0198 0.00675,-0.0837 0,-0.10392 -0.0049,-0.0147 -0.017026,-0.0265 -0.020783,-0.0416 -0.015364,-0.0615 0.023373,-0.0243 -0.020783,-0.0831 -0.011758,-0.0157 -0.030698,-0.0253 -0.041568,-0.0416 -0.00384,-0.006 0.0022,-0.0142 0,-0.0208 -0.0098,-0.0294 -0.03177,-0.0537 -0.041568,-0.0831 -0.020624,-0.0619 0.049214,0.0426 -0.020783,-0.0624 -0.012613,-0.0189 -0.053141,-0.0439 -0.062352,-0.0623 -0.0031,-0.006 0.0049,-0.0159 0,-0.0208 -0.0049,-0.005 -0.014586,0.003 -0.020783,0 -0.011099,-0.006 -0.05141,-0.0514 -0.062352,-0.0623 -0.00693,-0.007 -0.01202,-0.0164 -0.020783,-0.0208 -0.0062,-0.003 -0.020783,0.007 -0.020783,0 0,-0.007 0.020783,-0.007 0.020783,0 0,0.0608 -0.029147,-0.004 -0.041568,0.0208 -0.0062,0.0124 0.0062,0.0292 0,0.0416 -0.0031,0.006 -0.015886,-0.005 -0.020783,0 -0.0049,0.005 0.0031,0.0146 0,0.0208 -0.00438,0.009 -0.016402,0.012 -0.020783,0.0208 -0.0031,0.006 0,0.0139 0,0.0208 0,0.0346 0,0.0693 0,0.10392 0,0.0139 0.00336,0.0281 0,0.0416 -0.00376,0.015 -0.015886,0.0269 -0.020783,0.0416 -0.00438,0.0131 0,0.0277 0,0.0416 0,0.0145 -0.00376,0.0964 0,0.10392 0.00438,0.009 0.016402,0.012 0.020783,0.0208 0.0031,0.006 -0.0031,0.0146 0,0.0208 0.01247,0.025 0.049882,0.0374 0.062352,0.0624 0.011044,0.0221 -0.011044,0.0195 0,0.0416 0.00438,0.009 0.01202,0.0164 0.020783,0.0208 0.0062,0.003 0.020783,-0.007 0.020783,0 0,0.007 -0.027712,0 -0.020783,0 0.013856,0 0.027712,0 0.041568,0 0.00693,0 0.014587,-0.003 0.020783,0 0.00876,0.004 0.01202,0.0164 0.020783,0.0208 0.012393,0.006 0.041568,-0.0139 0.041568,0 0,0.007 -0.025683,-0.005 -0.020783,0 0.010954,0.011 0.026077,0.0208 0.041568,0.0208 0.0098,0 -0.030582,-0.0208 -0.020783,-0.0208 0.150845,0 -0.032957,0.0477 0.062352,0 0.0062,-0.003 0.013856,0 0.020783,0 0.00693,0 0.027712,0 0.020783,0 -0.013856,0 -0.055424,0 -0.041568,0 0.020783,0 0.041568,0 0.062352,0"
       id="path173"
       inkscape:connector-curvature="0" />
    <path
       style="fill:none;stroke:#000000;stroke-width:0.26458332px;stroke-linecap:butt;stroke-linejoin:miter;stroke-opacity:1"
       d="m 3.6579942,294.1737 c -0.085611,-10e-5 -0.2503022,-0.0311 -0.3533349,0.0204 -0.00876,0.004 -0.01202,0.0164 -0.020783,0.0208 -0.1372717,0.0686 0.014279,-0.0369 -0.1247042,0.0624 -0.028188,0.0201 -0.056087,0.0407 -0.083136,0.0623 -0.00765,0.006 -0.01202,0.0164 -0.020783,0.0208 -0.0062,0.003 -0.013856,0 -0.020783,0 -0.036275,0 -0.017685,-0.006 -0.041568,0.0416"
       id="path175"
       inkscape:connector-curvature="0" />
    <path
       style="fill:none;stroke:#000000;stroke-width:0.26458332px;stroke-linecap:butt;stroke-linejoin:miter;stroke-opacity:1"
       d="m 2.9929021,294.402 c -0.1177772,0.0762 -0.2355543,0.15241 -0.3533314,0.22861 -0.00693,0.007 -0.012632,0.0154 -0.020784,0.0208 -0.01289,0.009 -0.027712,0.0139 -0.041568,0.0208 -0.013856,0.007 -0.030614,0.01 -0.041568,0.0208 -0.0049,0.005 0.0049,0.0159 0,0.0208 -0.0049,0.005 -0.014588,-0.003 -0.020784,0 -0.017527,0.009 -0.024041,0.0328 -0.041568,0.0416 -0.048367,0.0242 0.00935,-0.0603 -0.041568,0.0416"
       id="path177"
       inkscape:connector-curvature="0" />
    <path
       style="fill:none;stroke:#000000;stroke-width:0.26458332px;stroke-linecap:butt;stroke-linejoin:miter;stroke-opacity:1"
       d="m 3.6579942,294.1737 c -0.00693,0.11766 -0.0014,0.23673 -0.020791,0.35299 -0.00254,0.0153 -0.030614,0.01 -0.041568,0.0208 -0.010954,0.011 -0.00983,0.0306 -0.020783,0.0416 -0.0098,0.01 -0.029175,-0.006 -0.041568,0 -0.086498,0.0433 0.02222,-10e-4 -0.020783,0.0416 -0.0049,0.005 -0.014587,-0.003 -0.020783,0 -0.00963,0.005 -0.070912,0.0709 -0.083136,0.0831 -0.00693,0.007 -0.01202,0.0164 -0.020783,0.0208 -0.0062,0.003 -0.014587,-0.003 -0.020783,0 -0.011102,0.006 -0.05141,0.0514 -0.062352,0.0623"
       id="path179"
       inkscape:connector-curvature="0" />
    <path
       style="fill:none;stroke:#000000;stroke-width:0.26458332px;stroke-linecap:butt;stroke-linejoin:miter;stroke-opacity:1"
       d="m 3.304664,294.79689 c -0.07621,0.0693 -0.1507979,0.14038 -0.2286288,0.20783 -0.026178,0.0227 -0.056835,0.0398 -0.083136,0.0623 -0.022318,0.0191 -0.037896,0.046 -0.062352,0.0623 -0.01823,0.0122 -0.042757,0.011 -0.062352,0.0208 -0.044685,0.0223 -0.08002,0.0608 -0.1247043,0.0831 -0.0062,0.003 -0.014211,-0.002 -0.020783,0 -0.075348,0.0251 -0.014793,0.01 -0.062352,0.0416 -0.010467,0.0458 -0.042757,0.011 -0.062352,0.0208 -0.00876,0.004 -0.012021,0.0164 -0.020784,0.0208 -0.012393,0.006 -0.029175,-0.006 -0.041568,0 -0.00876,0.004 -0.013856,0.0138 -0.020784,0.0208"
       id="path183"
       inkscape:connector-curvature="0" />
    <path
       style="fill:none;stroke:#000000;stroke-width:0.26458332px;stroke-linecap:butt;stroke-linejoin:miter;stroke-opacity:1"
       d="m 4.1983723,294.60982 c -0.067839,0.0558 -0.1195938,0.13084 -0.1870562,0.18706 -0.038379,0.032 -0.084737,0.0532 -0.1247042,0.0831 -0.00784,0.006 -0.013856,0.0138 -0.020783,0.0208 -0.027712,0.0277 -0.053029,0.058 -0.083136,0.0831 -0.011901,0.01 -0.028284,0.0128 -0.041568,0.0208 -0.021421,0.0128 -0.042369,0.0266 -0.062352,0.0416 -0.00784,0.006 -0.01202,0.0164 -0.020783,0.0208 -0.019595,0.01 -0.042011,0.0127 -0.062352,0.0208 -0.014383,0.006 -0.027712,0.0139 -0.041568,0.0208 -0.013856,0.007 -0.028679,0.0122 -0.041568,0.0208 -0.00815,0.005 -0.013856,0.0138 -0.020783,0.0208 -0.013856,0.007 -0.028678,0.0122 -0.041568,0.0208 -0.00815,0.005 -0.01202,0.0164 -0.020783,0.0208 -0.0062,0.003 -0.01502,-0.004 -0.020783,0 -0.016304,0.0109 -0.027712,0.0277 -0.041568,0.0416 -0.00693,0.007 -0.011488,0.0177 -0.020783,0.0208 -0.013856,0 -0.027712,0 -0.041568,0 0,0.007 0.0062,0.0177 0,0.0208 -0.012393,0.006 -0.029175,-0.006 -0.041568,0 -0.0062,0.003 0.0031,0.0146 0,0.0208 -0.00438,0.009 -0.01202,0.0164 -0.020783,0.0208 -0.0062,0.003 -0.014587,-0.003 -0.020783,0 -0.011142,0.006 -0.030428,0.036 -0.041568,0.0416 -0.0062,0.003 -0.013856,0 -0.020783,0 -0.013856,0.007 -0.027712,0.0138 -0.041568,0.0208"
       id="path185"
       inkscape:connector-curvature="0" />
    <path
       style="fill:#ffffff;stroke:#000000;stroke-width:0.26458332px;stroke-linecap:butt;stroke-linejoin:miter;stroke-opacity:1"
       d="m 4.1983723,294.60982 c 0.062352,0.11085 0.1275495,0.22015 0.1870562,0.33255 0.0096,0.0181 -0.018378,0.0551 -0.020783,0.0624 -0.0022,0.007 0.0022,0.0142 0,0.0208 -0.025117,0.0753 -0.00986,0.0148 -0.041568,0.0624 -0.02558,0.0384 -0.036772,0.0863 -0.062352,0.1247 -0.010869,0.0163 -0.032805,0.024 -0.041568,0.0416 -0.0031,0.006 0.00384,0.015 0,0.0208 -0.010869,0.0163 -0.027712,0.0277 -0.041568,0.0416 -0.020783,0.0208 -0.041568,0.0416 -0.062352,0.0623 -0.00693,0.007 -0.016402,0.012 -0.020783,0.0208 -0.030582,0.0612 0.048148,-0.0274 -0.020783,0.0416 -0.068932,0.0689 0.019595,-0.01 -0.041568,0.0208 -0.00876,0.004 -0.030582,0.0208 -0.020783,0.0208 0.015491,0 0.027712,-0.0139 0.041568,-0.0208"
       id="path187"
       inkscape:connector-curvature="0" />
    <path
       style="fill:#ffffff;stroke:#ff0000;stroke-width:0.07855378"
       d="m 15.869041,40.318444 c -0.410443,-0.305039 -0.853991,-0.658255 -0.985662,-0.784925 -0.13167,-0.126669 -0.280661,-0.230308 -0.331089,-0.230308 -0.138938,0 -0.254324,-0.269655 -0.254324,-0.594352 0,-0.231304 0.05714,-0.344354 0.280531,-0.555041 0.154293,-0.145516 0.322833,-0.264575 0.374534,-0.264575 0.0517,0 0.217093,-0.08058 0.367537,-0.179064 0.150445,-0.09849 0.467956,-0.245119 0.705581,-0.325852 0.237625,-0.08073 0.467395,-0.173225 0.5106,-0.205538 0.0432,-0.03231 0.202276,-0.09561 0.353492,-0.140668 0.151216,-0.04505 0.426427,-0.137361 0.611581,-0.205126 0.295362,-0.1081 0.363425,-0.109359 0.555044,-0.01027 0.12012,0.06212 0.311041,0.247958 0.424269,0.412982 0.223031,0.325054 0.530058,1.053234 0.530058,1.257144 0,0.267014 -1.079456,1.436047 -1.893582,2.050718 -0.240917,0.181894 -0.452493,0.330441 -0.47017,0.330104 -0.01768,-3.38e-4 -0.367956,-0.250191 -0.7784,-0.555229 z"
       id="path189"
       inkscape:connector-curvature="0"
       transform="matrix(0.26458333,0,0,0.26458333,0,283.77082)" />
    <path
       style="fill:#ffffff;stroke:#ff0000;stroke-width:0.07855378"
       d="m 15.134955,34.603437 c -0.135763,-0.150017 -0.184611,-0.60635 -0.05643,-0.527127 0.08173,0.05051 0.31919,0.500074 0.31919,0.604296 0,0.11138 -0.125478,0.07453 -0.262764,-0.07717 z"
       id="path193"
       inkscape:connector-curvature="0"
       transform="matrix(0.26458333,0,0,0.26458333,0,283.77082)" />
    <path
       style="fill:#ffffff;stroke:#ff0000;stroke-width:0.07855378"
       d="m 21.39346,32.934625 c 0.0269,-0.111163 0.226555,-0.471547 0.443675,-0.800853 0.217119,-0.329307 0.394763,-0.622291 0.394763,-0.651076 0,-0.02878 0.135478,-0.216314 0.301062,-0.416731 0.165584,-0.200416 0.460682,-0.611838 0.655773,-0.91427 0.195091,-0.302432 0.43078,-0.617216 0.523753,-0.69952 0.09297,-0.08231 0.169041,-0.181621 0.169041,-0.220705 0,-0.156093 1.153046,-1.425681 2.374678,-2.614695 1.57785,-1.53572 1.528889,-1.495891 1.592505,-1.295454 0.0337,0.106169 -0.02676,0.247901 -0.192074,0.450259 -0.132687,0.162425 -0.632549,0.790207 -1.110804,1.395071 -0.478254,0.604865 -1.494305,1.736831 -2.25789,2.515482 -1.473282,1.502351 -1.701408,1.75175 -1.927429,2.10717 -0.07822,0.123001 -0.338811,0.476493 -0.579091,0.785537 -0.301194,0.38739 -0.421683,0.499128 -0.387962,0.359785 z"
       id="path195"
       inkscape:connector-curvature="0"
       transform="matrix(0.26458333,0,0,0.26458333,0,283.77082)" />
    <path
       style="fill:#ffffff;stroke:#ff0000;stroke-width:0.07855378"
       d="m 20.626321,36.146013 c 0.04552,-0.143412 0.756677,-1.19154 0.895876,-1.320368 0.03959,-0.03664 0.573442,-0.813483 0.748978,-1.089884 0.481064,-0.757489 1.783198,-2.300689 2.917566,-3.457698 0.765742,-0.781026 1.406056,-1.406249 1.42292,-1.389385 0.01686,0.01686 -0.101788,0.237243 -0.26367,0.489732 -0.721375,1.125133 -1.295755,2.069637 -1.537291,2.527904 -0.322298,0.611497 -1.053598,1.631801 -1.557541,2.17307 -0.241352,0.259228 -0.556425,0.61272 -0.700163,0.785538 -0.776218,0.933257 -2.094481,1.809801 -1.926675,1.281091 z"
       id="path197"
       inkscape:connector-curvature="0"
       transform="matrix(0.26458333,0,0,0.26458333,0,283.77082)" />
    <path
       style="fill:#ffffff;stroke:#ff0000;stroke-width:0.07855378"
       d="M 29.301738,23.221949 C 29.193727,23.116866 28.972794,22.976657 28.810777,22.910373 28.64876,22.84409 28.5162,22.755287 28.5162,22.713034 c 0,-0.04225 0.204789,-0.294696 0.455087,-0.560985 0.410404,-0.436625 1.115989,-1.330577 1.115989,-1.41392 0,-0.01822 0.123722,-0.238591 0.274938,-0.489711 0.290636,-0.482647 0.37504,-0.464274 0.129861,0.02827 -0.353869,0.710889 -0.711035,1.755593 -0.797902,2.333846 -0.120919,0.804941 -0.148826,0.84842 -0.392435,0.611417 z"
       id="path199"
       inkscape:connector-curvature="0"
       transform="matrix(0.26458333,0,0,0.26458333,0,283.77082)" />
    <path
       style="fill:#ffffff;stroke:#ff0000;stroke-width:0.07855378"
       d="m 31.029921,18.986323 c 0,-0.0858 0.366369,-0.928465 0.780852,-1.796002 0.422468,-0.884251 0.633117,-1.364885 0.633117,-1.444576 0,-0.06604 0.346405,-0.912555 0.63038,-1.540468 0.07082,-0.156582 0.293215,-0.781976 0.516797,-1.453245 0.307766,-0.924017 0.48101,-2.315546 0.418724,-3.3632737 -0.01449,-0.2436988 0.03755,-0.2804396 0.242138,-0.1709489 0.09453,0.050589 0.406679,0.1252336 0.693673,0.1658769 0.286994,0.040643 0.57413,0.1262199 0.63808,0.1901701 0.102662,0.1026616 0.100151,0.1414625 -0.02145,0.3314486 -0.248037,0.387525 -0.580888,1.074481 -0.637123,1.314929 -0.09703,0.414858 -0.437835,1.225503 -1.023789,2.435167 -0.31392,0.648069 -0.615799,1.319703 -0.670842,1.492522 -0.05504,0.172818 -0.126421,0.349564 -0.158619,0.392769 -0.0322,0.0432 -0.190999,0.325998 -0.352893,0.62843 -0.272633,0.5093 -0.593735,1.07638 -0.784674,1.385766 -0.04376,0.0709 -0.21832,0.371366 -0.387921,0.667707 -0.394113,0.688623 -0.516449,0.869534 -0.51645,0.763728 z"
       id="path201"
       inkscape:connector-curvature="0"
       transform="matrix(0.26458333,0,0,0.26458333,0,283.77082)" />
  </g>
</svg>
